<svg viewBox="0 0 273 176" fill="none" xmlns="http://www.w3.org/2000/svg">
<g clip-path="url(#clip0)">
<path d="M86.09 163.33C95.15 167.83 109.5 159.79 120.83 161.62C129.62 162.19 143.06 168.11 138.96 174.8H8.35001C7.75739 174.358 7.23485 173.828 6.8 173.23C-5.47 155.55 22.29 155.33 30.61 155.66C42.69 155.97 56.61 160.07 67.22 165.32C63.2597 160.688 58.4586 156.847 53.07 154C47.8073 151.274 42.3122 149.022 36.65 147.27C28.34 145.05 0.790005 141.79 4.7572e-06 130C-1.87 103.46 60.4 139.17 68.32 147.84C64.22 137.28 37.07 87.7401 59 79.6501C77.12 73.4901 68.77 128.15 76 136.45C82 126.19 89.12 106 97.47 96.9001C115.98 76.7001 132.59 83.0501 119.37 98.3001C107.57 111.88 89.14 130.69 85.37 151.57C95.56 144.32 102.74 135.57 113.7 130.57C120.11 127.13 149.95 116.35 149.57 130.38C148.4 147.83 96.3 150.38 86.09 163.33Z" fill="#46D6A2"/>
<path d="M223.35 134.47C223.387 132.996 222.941 131.55 222.08 130.353C221.218 129.156 219.989 128.274 218.58 127.84C215.74 127.04 212.7 128.4 210.75 130.47C209.884 131.368 209.228 132.448 208.83 133.63C208.52 134.63 208.41 135.93 209.37 136.63C211.66 138.2 213.26 134.53 214.61 133.38C215.164 132.908 215.814 132.562 216.515 132.366C217.216 132.171 217.952 132.132 218.67 132.25C219.398 132.424 220.077 132.763 220.654 133.239C221.231 133.716 221.691 134.318 222 135C222.093 135.122 222.228 135.206 222.379 135.236C222.529 135.266 222.686 135.239 222.818 135.162C222.951 135.085 223.051 134.961 223.099 134.816C223.147 134.67 223.14 134.511 223.08 134.37C222.529 133.288 221.705 132.368 220.69 131.7C219.718 131.148 218.605 130.894 217.49 130.97C216.323 131.047 215.2 131.442 214.24 132.11C213.447 132.755 212.75 133.509 212.17 134.35C211.81 134.8 210.74 136.27 210.03 135.58C209.32 134.89 210.16 133.58 210.46 133C211.059 131.889 211.918 130.937 212.962 130.227C214.006 129.517 215.206 129.069 216.46 128.92C217.206 128.888 217.95 129.01 218.647 129.28C219.343 129.549 219.976 129.96 220.505 130.486C221.035 131.012 221.45 131.642 221.725 132.336C221.999 133.03 222.127 133.774 222.1 134.52C222.119 134.672 222.194 134.812 222.309 134.914C222.424 135.015 222.572 135.071 222.725 135.071C222.878 135.071 223.027 135.015 223.142 134.914C223.257 134.812 223.331 134.672 223.35 134.52V134.47Z" fill="#2C2D2F"/>
<path d="M217.14 173.57C217.087 173.581 217.033 173.581 216.98 173.57C216.918 173.55 216.86 173.517 216.811 173.474C216.761 173.432 216.721 173.379 216.692 173.32C216.663 173.262 216.646 173.198 216.642 173.133C216.639 173.067 216.648 173.002 216.67 172.94C219.43 164.94 220.76 150.11 221.56 141.24C221.76 138.99 221.93 137.06 222.09 135.72C222.186 134.96 222.028 134.19 221.64 133.53C221.599 133.474 221.57 133.411 221.555 133.343C221.54 133.275 221.539 133.206 221.552 133.138C221.566 133.07 221.593 133.005 221.633 132.949C221.672 132.892 221.723 132.844 221.782 132.808C221.841 132.771 221.907 132.748 221.975 132.739C222.044 132.729 222.114 132.734 222.18 132.753C222.247 132.772 222.309 132.805 222.362 132.849C222.415 132.893 222.459 132.948 222.49 133.01C222.998 133.857 223.206 134.85 223.08 135.83C222.93 137.16 222.76 139.09 222.56 141.33C221.76 150.25 220.42 165.18 217.61 173.26C217.573 173.354 217.508 173.434 217.424 173.489C217.34 173.545 217.241 173.573 217.14 173.57Z" fill="#2C2D2F"/>
<path d="M232.58 131.8C233.167 130.559 234.2 129.585 235.473 129.072C236.747 128.558 238.166 128.544 239.45 129.03C240.601 129.608 241.584 130.471 242.305 131.537C243.026 132.603 243.462 133.837 243.57 135.12C243.716 136.028 243.609 136.959 243.26 137.81C242.82 138.7 242.08 138.18 241.8 137.48C241.532 136.548 241.328 135.6 241.19 134.64C240.901 133.5 240.302 132.461 239.46 131.64C238.478 130.681 237.197 130.088 235.83 129.96C234.397 129.91 232.988 130.343 231.83 131.19C231.708 131.283 231.624 131.418 231.594 131.568C231.565 131.719 231.591 131.875 231.668 132.008C231.746 132.141 231.869 132.241 232.015 132.289C232.16 132.337 232.319 132.33 232.46 132.27C232.991 131.825 233.616 131.506 234.287 131.337C234.959 131.168 235.66 131.153 236.338 131.294C237.017 131.434 237.654 131.726 238.203 132.148C238.753 132.57 239.199 133.111 239.51 133.73C239.964 134.773 240.257 135.879 240.38 137.01C240.61 138.01 241.06 139.21 242.17 139.51C244.82 140.22 245.01 136.3 244.77 134.65C244.595 133.24 244.079 131.894 243.265 130.73C242.451 129.566 241.364 128.618 240.1 127.97C238.529 127.314 236.766 127.282 235.172 127.88C233.578 128.478 232.272 129.662 231.52 131.19C231.17 131.91 232.25 132.55 232.6 131.82L232.58 131.8Z" fill="#2C2D2F"/>
<path d="M220.92 174.49H220.84C220.71 174.468 220.593 174.396 220.515 174.29C220.437 174.184 220.403 174.051 220.42 173.92C222 163.18 228.83 138.43 231.11 132.5C231.456 131.575 232.1 130.79 232.94 130.27C232.995 130.235 233.057 130.211 233.122 130.2C233.187 130.189 233.253 130.192 233.317 130.208C233.381 130.224 233.44 130.252 233.493 130.292C233.545 130.332 233.588 130.383 233.62 130.44C233.655 130.495 233.678 130.557 233.689 130.621C233.699 130.685 233.697 130.75 233.682 130.814C233.668 130.877 233.64 130.937 233.602 130.989C233.564 131.042 233.516 131.086 233.46 131.12C232.807 131.524 232.31 132.138 232.05 132.86C229.78 138.76 222.99 163.38 221.41 174.07C221.393 174.188 221.334 174.295 221.244 174.372C221.154 174.449 221.039 174.491 220.92 174.49Z" fill="#2C2D2F"/>
<path d="M219.3 174.1C219.247 174.11 219.193 174.11 219.14 174.1C219.016 174.057 218.914 173.967 218.856 173.849C218.798 173.731 218.789 173.595 218.83 173.47C222.26 163.61 227.13 132.47 227.93 125.55C228.026 124.791 227.868 124.021 227.48 123.36C227.445 123.305 227.422 123.244 227.411 123.18C227.401 123.116 227.403 123.05 227.418 122.987C227.432 122.923 227.46 122.864 227.498 122.811C227.536 122.758 227.584 122.714 227.64 122.68C227.696 122.645 227.758 122.622 227.823 122.611C227.888 122.6 227.954 122.602 228.018 122.617C228.082 122.632 228.143 122.659 228.196 122.697C228.25 122.736 228.295 122.784 228.33 122.84C228.838 123.691 229.045 124.687 228.92 125.67C228.12 132.67 223.22 163.87 219.78 173.79C219.74 173.884 219.673 173.963 219.587 174.019C219.502 174.074 219.402 174.102 219.3 174.1Z" fill="#2C2D2F"/>
<path d="M226.07 140.67C226.004 140.668 225.939 140.652 225.879 140.624C225.819 140.595 225.766 140.555 225.722 140.506C225.678 140.456 225.644 140.398 225.623 140.335C225.602 140.273 225.594 140.206 225.6 140.14C225.6 136.704 225.393 133.271 224.98 129.86C224.972 129.795 224.977 129.728 224.995 129.664C225.013 129.601 225.043 129.541 225.084 129.489C225.125 129.437 225.175 129.394 225.233 129.361C225.291 129.329 225.354 129.308 225.42 129.3C225.486 129.292 225.552 129.297 225.616 129.315C225.679 129.333 225.739 129.363 225.791 129.404C225.843 129.445 225.886 129.496 225.919 129.553C225.951 129.611 225.972 129.675 225.98 129.74C226.401 133.211 226.612 136.704 226.61 140.2C226.606 140.267 226.589 140.332 226.56 140.392C226.53 140.452 226.489 140.505 226.439 140.549C226.389 140.593 226.33 140.626 226.267 140.647C226.203 140.668 226.136 140.676 226.07 140.67Z" fill="#2C2D2F"/>
<path d="M225.68 132.16H225.62C225.496 132.145 225.383 132.085 225.301 131.99C225.22 131.896 225.176 131.775 225.18 131.65C225.18 131.43 225.18 126.22 220.18 125.45C217.36 125.01 215.53 124.19 214.74 123C214.566 122.755 214.444 122.477 214.382 122.183C214.32 121.888 214.319 121.585 214.38 121.29C214.454 120.961 214.598 120.652 214.801 120.383C215.005 120.114 215.264 119.891 215.56 119.73C216.81 119.03 218.9 119.13 221.77 120.03C228.04 122.03 226.25 131.36 226.17 131.76C226.145 131.872 226.083 131.973 225.994 132.045C225.905 132.118 225.795 132.158 225.68 132.16ZM217.68 120.27C217.113 120.237 216.547 120.355 216.04 120.61C215.863 120.703 215.708 120.833 215.587 120.992C215.466 121.151 215.382 121.335 215.34 121.53C215.313 121.69 215.319 121.854 215.357 122.012C215.395 122.17 215.464 122.319 215.56 122.45C216 123.1 217.17 123.97 220.32 124.45C221.444 124.592 222.51 125.032 223.408 125.722C224.306 126.413 225.004 127.33 225.43 128.38C225.43 125.65 224.75 122 221.43 120.97C220.224 120.555 218.964 120.319 217.69 120.27H217.68Z" fill="#2C2D2F"/>
<path d="M228.42 125.58C228.42 125.58 222.97 119.41 225.8 119.09C228.63 118.77 229.45 123.26 228.42 125.58Z" fill="#2C2D2F"/>
<path d="M228.42 126.08C228.35 126.081 228.28 126.066 228.216 126.036C228.152 126.007 228.096 125.964 228.05 125.91C227.05 124.81 223.93 121.07 224.57 119.4C224.667 119.167 224.829 118.968 225.037 118.824C225.244 118.68 225.488 118.599 225.74 118.59C226.242 118.531 226.751 118.612 227.209 118.823C227.668 119.035 228.06 119.37 228.34 119.79C228.898 120.677 229.237 121.682 229.331 122.725C229.425 123.768 229.27 124.818 228.88 125.79C228.848 125.867 228.795 125.935 228.729 125.986C228.662 126.037 228.583 126.069 228.5 126.08H228.42ZM226.08 119.57H225.85C225.56 119.57 225.52 119.7 225.51 119.73C225.25 120.42 226.63 122.63 228.22 124.55C228.542 123.118 228.299 121.617 227.54 120.36C227.379 120.12 227.162 119.922 226.908 119.785C226.653 119.647 226.369 119.573 226.08 119.57Z" fill="#2C2D2F"/>
<path d="M223.69 154.89C223.69 154.89 225.9 150.54 227.89 152.23C229.88 153.92 223.69 154.89 223.69 154.89Z" fill="#2C2D2F"/>
<path d="M223.69 155.39C223.61 155.389 223.532 155.37 223.46 155.333C223.389 155.297 223.328 155.244 223.28 155.18C223.231 155.102 223.205 155.012 223.205 154.92C223.205 154.828 223.231 154.738 223.28 154.66C223.43 154.36 224.82 151.73 226.57 151.38C226.869 151.325 227.176 151.339 227.469 151.42C227.762 151.501 228.033 151.649 228.26 151.85C228.473 151.989 228.638 152.191 228.733 152.427C228.828 152.663 228.848 152.922 228.79 153.17C228.4 154.56 224.87 155.17 223.79 155.38L223.69 155.39ZM226.92 152.39C226.857 152.38 226.793 152.38 226.73 152.39C225.99 152.53 225.22 153.39 224.73 154.22C226.37 153.86 227.73 153.31 227.83 152.93C227.83 152.93 227.77 152.77 227.61 152.64C227.428 152.454 227.18 152.347 226.92 152.34V152.39Z" fill="#2C2D2F"/>
<path d="M230.49 153.53C230.132 153.536 229.782 153.427 229.49 153.22C228.76 152.71 228.49 151.65 228.49 149.99C228.562 149.561 228.548 149.121 228.448 148.697C228.349 148.273 228.166 147.873 227.91 147.52C227.742 147.335 227.516 147.212 227.27 147.17C227.164 147.172 227.06 147.139 226.975 147.075C226.89 147.012 226.829 146.922 226.8 146.82C226.769 146.72 226.77 146.613 226.804 146.514C226.839 146.415 226.904 146.33 226.99 146.27C227.497 145.901 228.075 145.64 228.688 145.504C229.3 145.368 229.934 145.36 230.55 145.48C231.037 145.656 231.474 145.949 231.823 146.332C232.171 146.715 232.421 147.178 232.55 147.68C233.66 150.92 233.35 152.56 231.47 153.32C231.161 153.455 230.827 153.526 230.49 153.53ZM228.43 146.63C228.51 146.692 228.584 146.763 228.65 146.84C228.999 147.288 229.255 147.8 229.403 148.348C229.55 148.896 229.587 149.468 229.51 150.03C229.43 151.7 229.82 152.24 230.06 152.4C230.215 152.48 230.386 152.522 230.56 152.522C230.734 152.522 230.905 152.48 231.06 152.4C231.77 152.11 232.83 151.67 231.58 148C231.497 147.654 231.335 147.332 231.106 147.059C230.876 146.787 230.587 146.571 230.26 146.43C229.645 146.285 228.999 146.355 228.43 146.63Z" fill="#2C2D2F"/>
<path d="M229.27 140.27H229.17C229.105 140.256 229.044 140.229 228.99 140.191C228.936 140.153 228.89 140.105 228.855 140.049C228.82 139.994 228.796 139.931 228.785 139.866C228.773 139.801 228.775 139.734 228.79 139.67L233.43 118.75C233.461 118.621 233.541 118.509 233.653 118.439C233.765 118.368 233.9 118.343 234.03 118.37C234.094 118.384 234.156 118.411 234.21 118.449C234.264 118.487 234.31 118.535 234.345 118.591C234.38 118.647 234.404 118.709 234.415 118.774C234.427 118.839 234.425 118.906 234.41 118.97L229.76 139.89C229.733 139.999 229.67 140.096 229.581 140.165C229.492 140.234 229.383 140.271 229.27 140.27Z" fill="#2C2D2F"/>
<path d="M233.41 120.65C232.34 116.75 223.97 118.15 223.41 116.58C222.19 113.39 226.48 114.41 227.74 114.77C229.677 115.359 231.473 116.335 233.02 117.64C232.085 115.978 230.698 114.615 229.02 113.71C227.83 113.05 223.7 111.51 224.02 109.71C224.74 105.55 233.02 113.4 233.87 115.04C233.64 113.25 231.32 104.59 235 104.17C238 103.91 234.68 112.01 235.47 113.56C236.79 112.21 238.65 109.37 240.28 108.28C243.9 105.87 246.22 107.48 243.6 109.28C241.27 110.93 237.72 113.14 236.35 116.21C238.2 115.48 239.63 114.4 241.51 114.04C242.63 113.75 247.63 113.22 247.04 115.37C246.21 118.01 238.04 116.44 236.04 118.05C237.27 119.05 239.78 118.39 241.46 119.05C243.12 119.57 245.57 121.64 242.57 122.28C239.75 122.72 236.26 118.36 233.49 120.6" fill="#2C2D2F"/>
<path d="M221.79 148.54C220.01 146.54 215.49 149.83 214.67 149.09C213.02 147.56 215.84 146.9 216.67 146.75C217.999 146.52 219.361 146.568 220.67 146.89C219.62 146.186 218.393 145.791 217.13 145.75C216.24 145.75 213.35 146.02 213 144.83C212.2 142.17 219.37 144.38 220.38 145.09C219.72 144.09 215.81 139.67 217.86 138.34C219.57 137.34 219.97 143.07 220.86 143.75C221.24 142.56 221.51 140.34 222.15 139.22C223.58 136.73 225.42 137 224.42 138.86C223.53 140.52 222.08 142.86 222.17 145.08C222.88 144.07 223.687 143.132 224.58 142.28C225.15 141.78 227.95 140 228.23 141.44C228.52 143.25 223.23 144.7 222.52 146.26C223.52 146.51 224.82 145.36 226.02 145.26C227.22 145.16 229.21 145.58 227.63 146.84C226.09 147.93 222.75 146.38 221.77 148.51" fill="#2C2D2F"/>
<path d="M229.75 138.4C229.99 135.74 224.5 134.67 224.5 133.56C224.5 131.31 226.89 132.93 227.59 133.45C228.647 134.265 229.528 135.286 230.18 136.45C229.984 135.203 229.435 134.037 228.6 133.09C228.02 132.41 225.83 130.5 226.46 129.44C227.86 127.04 231.13 133.8 231.31 135.01C231.57 133.85 232.15 128.01 234.52 128.57C236.45 129.11 232.52 133.33 232.63 134.47C233.76 133.94 235.57 132.62 236.83 132.33C239.62 131.68 240.67 133.2 238.63 133.74C236.81 134.22 234.11 134.74 232.55 136.34C233.772 136.172 235.008 136.122 236.24 136.19C237 136.27 240.24 137.1 239.35 138.29C238.22 139.73 233.57 136.88 231.93 137.39C232.44 138.32 234.16 138.47 235.03 139.29C235.9 140.11 236.96 141.85 234.96 141.55C233.12 141.17 231.96 137.67 229.75 138.41" fill="#2C2D2F"/>
<path d="M132.49 83.4602L146.24 65.4302L157.42 72.0002L144.89 87.3202" fill="white"/>
<path d="M144.89 87.82C144.772 87.8197 144.659 87.7771 144.57 87.7C144.468 87.6161 144.404 87.4955 144.391 87.3644C144.378 87.2334 144.417 87.1024 144.5 87L156.67 72.13L146.37 66.13L132.89 83.76C132.809 83.8639 132.691 83.9324 132.56 83.951C132.43 83.9697 132.297 83.9371 132.19 83.86C132.085 83.7771 132.017 83.6572 131.998 83.525C131.979 83.3929 132.012 83.2586 132.09 83.15L145.84 65.15C145.915 65.052 146.024 64.9847 146.145 64.9608C146.267 64.9369 146.393 64.9579 146.5 65.02L157.68 71.58C157.741 71.6196 157.794 71.6709 157.835 71.7309C157.876 71.791 157.905 71.8587 157.92 71.93C157.93 72.0007 157.925 72.0727 157.907 72.1415C157.888 72.2103 157.855 72.2745 157.81 72.33L145.27 87.63C145.225 87.6882 145.167 87.7355 145.102 87.7684C145.036 87.8012 144.963 87.8189 144.89 87.82Z" fill="#2C2D2F"/>
<path d="M133.74 84.1902L106.94 67.8802C106.583 67.6628 106.249 67.4117 105.94 67.1302C105.16 66.3202 102.94 63.6002 101.19 62.5502C101.089 62.4906 100.971 62.4644 100.854 62.4754C100.737 62.4864 100.626 62.534 100.537 62.6115C100.449 62.689 100.387 62.7924 100.36 62.9071C100.334 63.0217 100.344 63.1418 100.39 63.2502C100.85 64.2502 101.78 65.5802 101.72 66.0402C101.72 66.0402 101.64 67.0402 100.14 66.2002C98.44 65.2702 94.68 63.0102 92.49 61.4302C92.3945 61.3623 92.277 61.3325 92.1607 61.3467C92.0443 61.3609 91.9375 61.4181 91.8611 61.507C91.7847 61.5959 91.7443 61.7101 91.7478 61.8273C91.7513 61.9444 91.7985 62.056 91.88 62.1402C93.9597 64.1402 96.1859 65.982 98.54 67.6502H98.35C96 66.4002 91.9 63.8402 89.8 62.3702C89.7045 62.3023 89.587 62.2725 89.4707 62.2867C89.3543 62.3009 89.2475 62.3581 89.1711 62.447C89.0947 62.5359 89.0543 62.6501 89.0578 62.7673C89.0613 62.8844 89.1085 62.996 89.19 63.0802C91.5203 65.3229 94.0175 67.3855 96.66 69.2502V69.3702C94.76 68.3002 91.8 66.3702 89.93 65.0402C89.8345 64.9723 89.717 64.9425 89.6007 64.9567C89.4843 64.9709 89.3775 65.0281 89.3011 65.117C89.2247 65.2059 89.1843 65.3201 89.1878 65.4373C89.1913 65.5544 89.2385 65.666 89.32 65.7502C91.5271 67.8701 93.8978 69.8127 96.41 71.5602C96.41 71.5602 96.41 71.6702 96.41 71.7202C95.0303 71.168 93.737 70.4204 92.57 69.5002C92.09 69.1502 91.47 69.9402 91.91 70.3402C94.0726 72.2562 96.3466 74.0427 98.72 75.6902L101 77.3302L130.2 96.5202C133.81 98.8602 136.82 97.6602 139.95 93.0002L144.87 87.3202" fill="white"/>
<path d="M133.64 98.1801C132.333 98.1267 131.068 97.6961 130 96.9401L100.8 77.7501L98.3901 76.1001C95.9982 74.4416 93.7074 72.6417 91.5301 70.7101C91.3469 70.5232 91.2442 70.2719 91.2442 70.0101C91.2442 69.7484 91.3469 69.497 91.5301 69.3101C91.6779 69.1201 91.886 68.9861 92.1201 68.9301C91.0195 68.0447 89.9679 67.1 88.9701 66.1001C88.8483 65.9378 88.7788 65.7424 88.7707 65.5396C88.7626 65.3369 88.8164 65.1365 88.9249 64.9651C89.0334 64.7936 89.1915 64.6593 89.3782 64.5798C89.5649 64.5003 89.7713 64.4795 89.9701 64.5201C89.5801 64.1501 89.2101 63.7901 88.8601 63.4301C88.7025 63.2483 88.6157 63.0157 88.6157 62.7751C88.6157 62.5345 88.7025 62.3019 88.8601 62.1201C89.0155 61.9574 89.224 61.8559 89.4478 61.8339C89.6717 61.8119 89.896 61.8708 90.0801 62.0001C90.8501 62.5401 91.8601 63.2001 92.9501 63.8901C92.4501 63.4401 91.9501 62.9901 91.5201 62.5301C91.3555 62.3526 91.2609 62.1215 91.2537 61.8795C91.2466 61.6376 91.3275 61.4012 91.4814 61.2144C91.6352 61.0275 91.8517 60.9028 92.0905 60.8634C92.3293 60.824 92.5743 60.8726 92.7801 61.0001C94.8901 62.5201 98.6101 64.7601 100.37 65.7301C101 66.0801 101.2 65.9801 101.2 65.9801C101.055 65.5251 100.849 65.0913 100.59 64.6901C100.35 64.2701 100.1 63.8201 99.9201 63.4201C99.834 63.2144 99.815 62.9868 99.8658 62.7696C99.9166 62.5525 100.035 62.3569 100.203 62.2106C100.371 62.0644 100.582 61.975 100.804 61.9552C101.026 61.9353 101.248 61.9861 101.44 62.1001C102.999 63.2401 104.413 64.5666 105.65 66.0501C105.91 66.3401 106.13 66.5901 106.29 66.7501C106.575 67.0011 106.879 67.2285 107.2 67.4301L134 83.7601C134.111 83.8321 134.19 83.9434 134.221 84.0715C134.253 84.1997 134.235 84.335 134.17 84.4501C134.136 84.5068 134.091 84.5563 134.038 84.5956C133.985 84.6348 133.925 84.6632 133.861 84.679C133.796 84.6948 133.73 84.6978 133.664 84.6877C133.599 84.6775 133.536 84.6546 133.48 84.6201L106.68 68.3101C106.295 68.0707 105.93 67.7998 105.59 67.5001L104.9 66.7501C103.725 65.3352 102.382 64.0691 100.9 62.9801L100.82 63.0401C100.98 63.4201 101.22 63.8301 101.44 64.2301C101.96 65.1401 102.24 65.6701 102.19 66.1001C102.173 66.2664 102.115 66.4259 102.021 66.5639C101.926 66.7019 101.799 66.8141 101.65 66.8901C101.356 67.0022 101.039 67.0381 100.728 66.9944C100.417 66.9507 100.121 66.8288 99.8701 66.6401C98.0801 65.6401 94.3101 63.3901 92.1701 61.8401C94.26 63.7827 96.4747 65.5866 98.8001 67.2401C98.8803 67.298 98.9419 67.3781 98.9774 67.4704C99.0129 67.5627 99.0208 67.6634 99.0001 67.7601C98.9774 67.8571 98.9262 67.9451 98.8532 68.0128C98.7801 68.0805 98.6885 68.1248 98.5901 68.1401H98.4001C98.2928 68.1745 98.1774 68.1745 98.0701 68.1401C95.8401 66.8901 91.6901 64.3401 89.4901 62.8001C91.8554 64.9823 94.3644 67.0035 97.0001 68.8501C97.0875 68.9131 97.1522 69.0025 97.1846 69.1053C97.2171 69.208 97.2155 69.3184 97.1801 69.4201C97.1253 69.5778 97.0102 69.7072 96.8601 69.7801C96.7904 69.8093 96.7156 69.8243 96.6401 69.8243C96.5646 69.8243 96.4898 69.8093 96.4201 69.7801C94.5201 68.7101 91.5501 66.7801 89.6401 65.4201C91.8415 67.4766 94.1802 69.381 96.6401 71.1201C96.7019 71.1631 96.7531 71.2197 96.7895 71.2856C96.8259 71.3515 96.8466 71.4249 96.8501 71.5001C96.8621 71.5918 96.852 71.685 96.8207 71.7719C96.7894 71.8589 96.7378 71.9371 96.6701 72.0001C96.6128 72.0601 96.5423 72.1059 96.4641 72.1337C96.386 72.1615 96.3024 72.1705 96.2201 72.1601C94.781 71.5984 93.4331 70.8267 92.2201 69.8701C92.2201 69.8701 92.2201 69.9501 92.2201 69.9801C94.376 71.876 96.6398 73.6456 99.0001 75.2801L101.35 76.9201L130.49 96.1001C133.81 98.2501 136.49 97.2401 139.55 92.7201L144.55 86.9901C144.636 86.8893 144.759 86.8269 144.891 86.8166C144.957 86.8115 145.022 86.8193 145.085 86.8397C145.147 86.86 145.205 86.8924 145.255 86.9351C145.305 86.9778 145.346 87.0299 145.376 87.0884C145.406 87.1469 145.423 87.2108 145.429 87.2762C145.434 87.3417 145.426 87.4075 145.406 87.4699C145.385 87.5324 145.353 87.5902 145.31 87.6401L140.39 93.3301C138.17 96.5801 136 98.1801 133.64 98.1801Z" fill="#2C2D2F"/>
<path d="M136.55 92.0001C136.55 92.0001 133.92 91.8901 134.42 92.9001C134.92 93.9101 135.62 92.7801 135.62 92.7801" fill="white"/>
<path d="M134.91 93.8402C134.708 93.8272 134.515 93.7533 134.356 93.6283C134.198 93.5033 134.08 93.3332 134.02 93.1402C133.933 93.0007 133.887 92.8396 133.887 92.6752C133.887 92.5108 133.933 92.3498 134.02 92.2102C134.47 91.5102 135.97 91.4902 136.59 91.5202C136.656 91.5228 136.72 91.5383 136.78 91.5658C136.84 91.5934 136.893 91.6324 136.938 91.6807C136.982 91.729 137.017 91.7856 137.04 91.8473C137.062 91.909 137.073 91.9745 137.07 92.0402C137.068 92.1055 137.052 92.1696 137.024 92.2287C136.997 92.2879 136.957 92.3409 136.909 92.3847C136.861 92.4285 136.804 92.4621 136.742 92.4837C136.681 92.5052 136.615 92.5143 136.55 92.5102H136C136.05 92.5916 136.076 92.685 136.076 92.7802C136.076 92.8754 136.05 92.9688 136 93.0502C136 93.1902 135.53 93.8402 134.91 93.8402ZM135.13 92.6302C135.021 92.6473 134.917 92.692 134.83 92.7602L134.97 92.8602C134.97 92.8602 135.05 92.7302 135.13 92.6302Z" fill="#2C2D2F"/>
<path d="M145.93 66.05C145.93 66.05 146.35 73.81 151.93 78.67L156.18 73.46L145.93 66.05Z" fill="#2C2D2F"/>
<path d="M175.66 41.6301C165.36 35.6301 157.93 45.6301 157.93 45.6301C157.93 45.6301 148.67 54.9 143.48 63.07C143.48 63.07 147.4 71.19 158.48 74.07C158.48 74.07 159.57 74.69 165.81 64.45" fill="white"/>
<path d="M158.5 74.57C158.419 74.5696 158.34 74.549 158.27 74.51C147.16 71.64 143.19 63.65 143.03 63.31L142.91 63.06L143.06 62.82C148.22 54.7 157.49 45.39 157.58 45.3C157.67 45.21 165.34 35.09 175.91 41.2L175.41 42.06C173.595 40.9008 171.495 40.2658 169.342 40.2252C167.189 40.1846 165.067 40.74 163.21 41.83C161.333 42.8975 159.677 44.3127 158.33 46C158.2 46.15 149.19 55.2 144.06 63.16C145.661 65.7624 147.759 68.0233 150.236 69.8131C152.712 71.6028 155.517 72.8863 158.49 73.59C158.8 73.44 160.39 72.36 165.35 64.21L166.21 64.73C160.86 73.45 159.15 74.57 158.5 74.57Z" fill="#2C2D2F"/>
<path d="M131.68 141.51L131 165.63V173.92C131 174.055 130.946 174.185 130.851 174.281C130.755 174.376 130.625 174.43 130.49 174.43H102.73C102.66 174.43 102.59 174.416 102.525 174.388C102.461 174.36 102.402 174.319 102.355 174.267C102.307 174.215 102.27 174.154 102.247 174.088C102.224 174.021 102.215 173.95 102.22 173.88C102.36 172.65 103.7 169.72 113.41 169.19L113.65 169.11C114.719 168.758 115.663 168.105 116.37 167.23C117.293 166.106 117.777 164.684 117.73 163.23L118.33 137.91C122.239 140.598 126.95 141.868 131.68 141.51Z" fill="white"/>
<path d="M130.49 174.93H102.73C102.588 174.93 102.448 174.9 102.318 174.841C102.189 174.782 102.074 174.697 101.98 174.59C101.888 174.488 101.819 174.367 101.776 174.236C101.733 174.105 101.717 173.967 101.73 173.83C101.91 172.14 103.65 169.23 113.32 168.69L113.5 168.63C114.473 168.309 115.334 167.716 115.98 166.92C116.83 165.878 117.274 164.564 117.23 163.22L117.83 137.88C117.834 137.791 117.86 137.705 117.908 137.629C117.955 137.554 118.021 137.492 118.1 137.45C118.176 137.401 118.265 137.375 118.355 137.375C118.445 137.375 118.534 137.401 118.61 137.45C122.418 140.067 127.002 141.312 131.61 140.98C131.682 140.971 131.755 140.979 131.824 141.001C131.893 141.024 131.957 141.061 132.01 141.11C132.063 141.158 132.105 141.217 132.135 141.282C132.164 141.348 132.179 141.419 132.18 141.49L131.5 165.62V173.89C131.505 174.026 131.483 174.161 131.435 174.288C131.386 174.414 131.313 174.53 131.218 174.627C131.124 174.724 131.01 174.801 130.885 174.853C130.76 174.906 130.626 174.932 130.49 174.93ZM118.81 138.8L118.23 163.22C118.275 164.795 117.749 166.333 116.75 167.55C115.981 168.484 114.961 169.178 113.81 169.55L113.55 169.64H113.44C103.86 170.17 102.81 173.03 102.72 173.9H130.49V165.6L131.15 142.03C126.805 142.227 122.502 141.101 118.81 138.8Z" fill="#2C2D2F"/>
<path d="M131 169.19V173.92C131 174.055 130.946 174.185 130.851 174.281C130.755 174.376 130.625 174.43 130.49 174.43H102.73C102.66 174.43 102.59 174.416 102.525 174.388C102.461 174.36 102.402 174.319 102.355 174.267C102.307 174.215 102.27 174.154 102.247 174.088C102.224 174.021 102.215 173.95 102.22 173.88C102.36 172.65 103.7 169.72 113.41 169.19L113.65 169.11C114.719 168.758 115.663 168.105 116.37 167.23C116.37 167.23 121 172.57 131 169.19Z" fill="#2C2D2F"/>
<path d="M130.49 174.93H102.73C102.588 174.93 102.448 174.9 102.318 174.841C102.189 174.782 102.074 174.697 101.98 174.59C101.888 174.488 101.819 174.367 101.776 174.236C101.733 174.106 101.717 173.967 101.73 173.83C101.91 172.14 103.65 169.23 113.32 168.69L113.5 168.63C114.473 168.31 115.334 167.716 115.98 166.92L116.13 166.73H116.59L116.75 166.9C116.93 167.11 121.33 171.9 130.84 168.71L131.5 168.49V173.92C131.501 174.053 131.476 174.185 131.426 174.308C131.376 174.431 131.301 174.543 131.207 174.637C131.113 174.731 131.001 174.806 130.878 174.856C130.755 174.906 130.623 174.932 130.49 174.93ZM116.39 167.93C115.676 168.673 114.79 169.23 113.81 169.55L113.44 169.65C103.86 170.18 102.81 173.04 102.72 173.91H130.49V169.85C122.26 172.42 117.71 169.15 116.39 168V167.93Z" fill="#2C2D2F"/>
<path d="M131 160C131 160 119.77 163.75 117.77 161.55V157.79H131.22L131 160Z" fill="#2C2D2F"/>
<path d="M185.94 89.6802L128.82 99.2602C123.27 100.41 119.93 103.34 119.99 108.26L111.35 157L112.92 157.27C119.984 158.479 127.206 158.421 134.25 157.1L136.25 156.72L145 119.74C145 119.74 177.54 125.16 188.49 125.93C193.89 126.31 197.03 125.93 203.03 109.88V96.6002L185.94 89.6802Z" fill="white"/>
<path d="M123.1 158.59C119.661 158.591 116.229 158.296 112.84 157.71L110.77 157.36L119.5 108.19C119.43 103.32 122.63 100.03 128.72 98.7701L186 89.1602L203.56 96.2701V110.06C197.49 126.29 194.23 126.84 188.56 126.43C178.41 125.71 149.48 120.97 145.48 120.31L136.74 157.11L134.43 157.54C130.694 158.243 126.901 158.594 123.1 158.59ZM111.93 156.59L113.01 156.77C120.014 157.969 127.176 157.911 134.16 156.6L135.83 156.28L144.64 119.21L145.1 119.29C145.42 119.35 177.74 124.71 188.55 125.47C193.33 125.81 196.48 126.03 202.55 109.83V96.9402L185.88 90.2001L128.88 99.7502C125.02 100.55 120.41 102.68 120.47 108.27L111.93 156.59Z" fill="#2C2D2F"/>
<path d="M145 120.24H144.92L142.25 119.84C142.184 119.831 142.12 119.81 142.063 119.776C142.006 119.743 141.955 119.698 141.915 119.645C141.875 119.592 141.846 119.532 141.83 119.467C141.813 119.403 141.81 119.336 141.82 119.27C141.844 119.141 141.917 119.026 142.022 118.948C142.128 118.87 142.259 118.835 142.39 118.85L145.07 119.25C145.135 119.26 145.197 119.282 145.254 119.316C145.31 119.35 145.359 119.395 145.398 119.448C145.437 119.501 145.465 119.561 145.481 119.625C145.497 119.689 145.5 119.755 145.49 119.82C145.473 119.938 145.414 120.045 145.324 120.122C145.234 120.199 145.119 120.241 145 120.24Z" fill="#2C2D2F"/>
<path d="M240.27 173.42H210.74C214.385 169.867 216.772 165.222 217.54 160.19L247.42 160.33C248.005 160.333 248.582 160.465 249.111 160.715C249.64 160.966 250.107 161.329 250.48 161.78L256.02 168.44L263.73 171.9C263.926 172.006 264.08 172.173 264.17 172.377C264.26 172.58 264.279 172.807 264.225 173.023C264.171 173.238 264.047 173.43 263.872 173.567C263.698 173.704 263.482 173.779 263.26 173.78L240.27 173.42Z" fill="white"/>
<path d="M263.28 174.3L240.28 173.92H210.75C210.649 173.921 210.55 173.891 210.466 173.834C210.382 173.777 210.317 173.696 210.281 173.602C210.244 173.508 210.236 173.405 210.26 173.306C210.283 173.208 210.335 173.118 210.41 173.05C213.937 169.575 216.248 165.054 217 160.16C217.018 160.039 217.078 159.928 217.17 159.846C217.261 159.764 217.378 159.716 217.5 159.71L247.39 159.85C248.048 159.855 248.696 160.003 249.29 160.284C249.885 160.566 250.41 160.974 250.83 161.48L256.29 168.05L263.9 171.46C264.201 171.611 264.442 171.859 264.584 172.164C264.727 172.468 264.763 172.812 264.687 173.14C264.611 173.467 264.427 173.76 264.164 173.97C263.902 174.181 263.576 174.297 263.24 174.3H263.28ZM240.28 172.92L263.28 173.3C263.391 173.299 263.498 173.26 263.584 173.191C263.671 173.122 263.732 173.027 263.758 172.919C263.785 172.812 263.775 172.698 263.73 172.597C263.685 172.496 263.607 172.413 263.51 172.36L255.83 168.92C255.757 168.889 255.692 168.841 255.64 168.78L250.11 162.12C249.783 161.726 249.373 161.409 248.91 161.189C248.447 160.97 247.942 160.854 247.43 160.85L218 160.71C217.228 165.282 215.144 169.532 212 172.94L240.28 172.92Z" fill="#2C2D2F"/>
<path d="M238.9 160.3C238.9 160.3 240.17 167.61 235.82 173.42H231.58L236.47 160.3H238.9Z" fill="#2C2D2F"/>
<path d="M245.05 160.34C245.05 160.34 244.5 170.27 252.54 173.63L263.26 173.8C263.26 173.8 265.03 172.58 263.73 171.92L256 168.46L250.46 161.8C249.524 161.156 248.491 160.666 247.4 160.35C246.627 160.174 245.824 160.17 245.05 160.34Z" fill="#2C2D2F"/>
<path d="M174.6 105.28L175 164C174.88 168.63 176.26 172.09 179.4 173.78C180.541 174.386 181.832 174.653 183.12 174.55L231.27 174.4C241.27 165.85 235.27 152.4 235.27 152.4L198.74 150.58C197.74 143.82 206.18 118.82 203.29 104.23C202.5 100.23 201.97 95.4501 188.84 96.9601C175.71 98.4701 174.6 105.28 174.6 105.28Z" fill="white"/>
<path d="M182.56 175.1C181.374 175.105 180.205 174.813 179.16 174.25C175.98 172.54 174.36 169 174.49 164.02L174.1 105.24C174.1 104.95 175.42 98.11 188.77 96.58C201.97 95.06 202.93 99.96 203.7 103.89L203.77 104.24C205.55 113.24 203.09 125.98 201.11 136.24C199.95 142.24 198.93 147.52 199.17 150.24L235.6 152L235.72 152.28C235.78 152.42 241.72 166.14 231.58 174.83L231.44 174.95L183.12 175.1H182.56ZM175.1 105.33L175.49 164.03C175.37 168.69 176.76 171.83 179.63 173.37C180.689 173.93 181.886 174.177 183.08 174.08L231.08 173.93C239.71 166.39 235.69 154.88 234.93 152.93L198.31 151.11L198.25 150.71C197.83 147.98 198.86 142.71 200.15 135.98C202.15 125.82 204.55 113.18 202.81 104.38L202.74 104.02C201.97 100.13 201.19 96.1 188.91 97.51C176.85 98.9 175.22 104.82 175.1 105.33Z" fill="#2C2D2F"/>
<path d="M197.7 153.39C197.631 153.405 197.559 153.405 197.49 153.39C197.371 153.332 197.278 153.23 197.232 153.105C197.185 152.98 197.188 152.843 197.24 152.72L198.24 150.47C198.268 150.41 198.307 150.356 198.356 150.312C198.405 150.267 198.463 150.233 198.525 150.21C198.587 150.188 198.653 150.178 198.719 150.182C198.786 150.185 198.85 150.202 198.91 150.23C198.97 150.257 199.023 150.296 199.068 150.344C199.112 150.392 199.147 150.448 199.169 150.51C199.192 150.571 199.201 150.636 199.198 150.702C199.195 150.767 199.178 150.831 199.15 150.89L198.15 153.14C198.106 153.22 198.04 153.285 197.96 153.329C197.881 153.373 197.791 153.394 197.7 153.39Z" fill="#2C2D2F"/>
<path d="M160.66 43.1202C161.984 41.6298 163.688 40.5272 165.59 39.9302L177.23 35.3202C179.379 34.6504 181.681 34.6504 183.83 35.3202L198.48 39.9302C203.6 41.5402 206.82 47.6202 206.08 52.9302C206.08 52.9302 204.08 78.4602 203.29 104.28C203.29 104.28 179.7 113.15 157.11 103.21C155.62 102.56 155.33 71.4502 158.83 56.8802" fill="white"/>
<path d="M180.64 108.4C172.485 108.489 164.401 106.882 156.9 103.68C154.63 102.68 155.2 69.8601 158.34 56.7801C158.355 56.7155 158.383 56.6545 158.422 56.6008C158.461 56.547 158.511 56.5016 158.567 56.4672C158.624 56.4327 158.687 56.4099 158.753 56.4001C158.819 56.3903 158.886 56.3937 158.95 56.4101C159.013 56.4253 159.073 56.453 159.126 56.4915C159.178 56.53 159.222 56.5787 159.256 56.6345C159.29 56.6904 159.312 56.7524 159.321 56.8169C159.33 56.8814 159.326 56.9471 159.31 57.0101C155.88 71.3201 156.17 100.68 157.39 102.8C178.11 111.87 199.93 104.92 202.8 103.93C203.55 78.5101 205.56 53.1601 205.58 52.9301C206.32 47.6101 202.99 41.9301 198.33 40.4401L183.68 35.8001C181.63 35.1501 179.43 35.1501 177.38 35.8001L165.77 40.3901C163.93 40.9592 162.28 42.0209 161 43.4601C160.911 43.5596 160.786 43.6197 160.653 43.6272C160.52 43.6347 160.389 43.589 160.29 43.5001C160.191 43.4113 160.13 43.2866 160.123 43.1534C160.115 43.0202 160.161 42.8896 160.25 42.7901C161.636 41.2304 163.419 40.076 165.41 39.4501L177.02 34.8601C179.275 34.1449 181.695 34.1449 183.95 34.8601L198.6 39.4601C203.79 41.0901 207.35 47.1801 206.54 53.0201C206.54 53.2501 204.54 78.8001 203.76 104.32C203.755 104.419 203.721 104.514 203.662 104.594C203.603 104.674 203.523 104.735 203.43 104.77C196.077 107.193 188.382 108.418 180.64 108.4Z" fill="#2C2D2F"/>
<path d="M194.64 108.46C190.551 109.897 186.233 110.575 181.9 110.46C174.63 110.3 144.9 101.94 144.9 101.94H162.71L194.64 108.46Z" fill="#2C2D2F"/>
<path d="M187.18 96.2801L191.81 74.0901L204.72 75.1801L200.02 94.4101" fill="white"/>
<path d="M187.18 96.7802H187.07C187.006 96.7672 186.945 96.7415 186.891 96.7046C186.837 96.6677 186.791 96.6203 186.756 96.5653C186.72 96.5103 186.696 96.4488 186.685 96.3844C186.674 96.32 186.675 96.2539 186.69 96.1902L191.32 74.0002C191.344 73.881 191.412 73.7751 191.51 73.703C191.608 73.6309 191.729 73.5978 191.85 73.6102L204.77 74.7002C204.841 74.7096 204.909 74.733 204.971 74.7691C205.033 74.8051 205.087 74.8531 205.13 74.9102C205.172 74.9687 205.201 75.0357 205.215 75.1064C205.229 75.1772 205.227 75.2501 205.21 75.3202L200.51 94.5502C200.478 94.6828 200.395 94.7973 200.279 94.8686C200.162 94.9399 200.023 94.962 199.89 94.9302C199.757 94.8984 199.643 94.8152 199.572 94.6989C199.5 94.5826 199.478 94.4428 199.51 94.3102L204.07 75.6502L192.17 74.6502L187.64 96.4102C187.612 96.5127 187.553 96.6038 187.47 96.6703C187.388 96.7369 187.286 96.7753 187.18 96.7802Z" fill="#2C2D2F"/>
<path d="M188.62 96.4L157.4 93.25C156.983 93.2105 156.571 93.1301 156.17 93.01C155.11 92.62 151.92 91.13 149.91 90.93C149.783 90.9004 149.651 90.9165 149.535 90.9755C149.419 91.0346 149.328 91.1327 149.277 91.2525C149.227 91.3724 149.221 91.5062 149.26 91.6302C149.299 91.7542 149.38 91.8604 149.49 91.93C150.34 92.65 151.75 93.44 151.89 93.87C151.89 93.87 152.24 94.79 150.53 94.7C148.6 94.59 144.23 94.18 141.58 93.7C141.467 93.6858 141.353 93.7129 141.259 93.7764C141.164 93.8399 141.096 93.9354 141.067 94.0452C141.038 94.1551 141.049 94.2718 141.099 94.3739C141.15 94.4759 141.235 94.5562 141.34 94.6C144.076 95.511 146.878 96.213 149.72 96.7L149.56 96.81C146.93 96.65 142.1 96.13 139.56 95.7C139.439 95.6682 139.311 95.6856 139.203 95.7485C139.095 95.8113 139.017 95.9144 138.985 96.035C138.953 96.1557 138.971 96.2841 139.033 96.3919C139.096 96.4998 139.199 96.5782 139.32 96.61C142.39 97.6264 145.532 98.4086 148.72 98.95C148.725 98.9932 148.725 99.0368 148.72 99.08C146.54 98.93 143.05 98.49 140.78 98.08C140.667 98.0658 140.553 98.0929 140.459 98.1564C140.364 98.2199 140.296 98.3154 140.267 98.4252C140.238 98.5351 140.249 98.6518 140.299 98.7539C140.35 98.8559 140.435 98.9362 140.54 98.98C143.445 99.9405 146.421 100.673 149.44 101.17L149.52 101.3C148.035 101.401 146.543 101.286 145.09 100.96C144.51 100.84 144.29 101.83 144.86 101.96C147.636 102.759 150.458 103.39 153.31 103.85L156.13 104.32L190.76 109C195.03 109.55 197.23 107.17 198.04 101.62L200.04 94.37" fill="white"/>
<path d="M191.91 109.62C191.505 109.617 191.101 109.59 190.7 109.54L156.08 104.83L153.24 104.36C150.366 103.887 147.521 103.249 144.72 102.45C144.471 102.37 144.263 102.195 144.142 101.963C144.02 101.731 143.995 101.461 144.07 101.21C144.125 100.973 144.259 100.762 144.45 100.61C143.073 100.286 141.715 99.8886 140.38 99.4202C140.192 99.328 140.037 99.179 139.938 98.9942C139.839 98.8093 139.801 98.5981 139.828 98.3903C139.856 98.1824 139.948 97.9885 140.092 97.836C140.236 97.6835 140.424 97.58 140.63 97.5402C140.12 97.3802 139.63 97.2202 139.15 97.0502C138.925 96.9607 138.741 96.7928 138.631 96.5777C138.52 96.3626 138.492 96.1148 138.55 95.8802C138.607 95.646 138.752 95.4428 138.955 95.3125C139.158 95.1822 139.403 95.1349 139.64 95.1802C140.56 95.3302 141.76 95.4902 143.04 95.6502C142.4 95.4602 141.77 95.2602 141.17 95.0402C140.982 94.9289 140.836 94.7592 140.754 94.557C140.672 94.3549 140.658 94.1313 140.715 93.9206C140.771 93.7098 140.895 93.5234 141.068 93.3897C141.24 93.256 141.452 93.1825 141.67 93.1802C144.23 93.6402 148.55 94.0602 150.56 94.1802C151.29 94.1802 151.42 94.0502 151.42 94.0502C151.094 93.6992 150.721 93.3962 150.31 93.1502C149.92 92.8702 149.5 92.5802 149.17 92.2902C148.992 92.151 148.867 91.9555 148.814 91.7358C148.761 91.5161 148.785 91.285 148.88 91.0802C148.968 90.8724 149.121 90.6983 149.315 90.5831C149.509 90.468 149.735 90.418 149.96 90.4402C151.858 90.7974 153.705 91.3851 155.46 92.1902L156.35 92.5502C156.713 92.6568 157.084 92.7304 157.46 92.7702L188.67 95.9202C188.736 95.9268 188.799 95.9462 188.858 95.9774C188.916 96.0086 188.967 96.051 189.009 96.102C189.051 96.1531 189.082 96.2119 189.101 96.2751C189.12 96.3383 189.127 96.4046 189.12 96.4702C189.113 96.5359 189.094 96.5996 189.063 96.6578C189.032 96.7159 188.989 96.7673 188.938 96.8091C188.887 96.8509 188.828 96.8822 188.765 96.9013C188.702 96.9204 188.636 96.9268 188.57 96.9202L157.35 93.7702C156.9 93.7198 156.456 93.6329 156.02 93.5102C155.77 93.4202 155.46 93.2802 155.02 93.1302C153.359 92.3571 151.609 91.7928 149.81 91.4502L149.44 91.9202L149.76 91.5402C150.08 91.8002 150.47 92.0802 150.84 92.3402C151.69 92.9402 152.19 93.3402 152.32 93.7002C152.372 93.8585 152.387 94.0269 152.363 94.1918C152.338 94.3568 152.276 94.5137 152.18 94.6502C151.963 94.8787 151.691 95.0481 151.39 95.1425C151.089 95.237 150.769 95.2534 150.46 95.1902C148.46 95.0802 144.04 94.6502 141.46 94.1902C144.186 95.0415 146.965 95.7097 149.78 96.1902C149.877 96.2061 149.967 96.2508 150.039 96.3186C150.11 96.3864 150.159 96.474 150.18 96.5702C150.2 96.6679 150.19 96.7693 150.153 96.8617C150.116 96.9541 150.052 97.0335 149.97 97.0902L149.81 97.2002C149.718 97.26 149.61 97.2913 149.5 97.2902C146.95 97.1302 142.11 96.6202 139.45 96.1702C142.505 97.139 145.622 97.8975 148.78 98.4402C148.886 98.4607 148.983 98.5143 149.057 98.5934C149.13 98.6724 149.177 98.7729 149.19 98.8802C149.203 99.0441 149.157 99.2073 149.06 99.3402C149.016 99.4041 148.958 99.4572 148.89 99.4953C148.823 99.5334 148.747 99.5556 148.67 99.5602C146.51 99.4202 143 98.9702 140.67 98.5602C143.558 99.465 146.505 100.17 149.49 100.67C149.563 100.681 149.632 100.709 149.692 100.75C149.753 100.792 149.803 100.847 149.84 100.91C149.886 100.99 149.916 101.078 149.926 101.169C149.936 101.26 149.927 101.353 149.9 101.44C149.82 101.59 149.72 101.76 149.56 101.78C148.022 101.892 146.475 101.777 144.97 101.44C144.97 101.44 144.97 101.51 144.97 101.54C147.72 102.311 150.511 102.928 153.33 103.39L156.16 103.86L190.76 108.57C194.68 109.07 196.69 106.99 197.47 101.57L199.47 94.2602C199.505 94.1276 199.59 94.0141 199.708 93.9447C199.827 93.8754 199.967 93.8557 200.1 93.8902C200.233 93.9247 200.346 94.0104 200.416 94.1286C200.485 94.2467 200.505 94.3876 200.47 94.5202L198.47 101.78C197.75 107.09 195.63 109.62 191.91 109.62Z" fill="#2C2D2F"/>
<path d="M194.53 102.25C194.53 102.25 192.11 103.25 193 103.99C193.89 104.73 194 103.35 194 103.35" fill="white"/>
<path d="M193.46 104.69C193.175 104.68 192.903 104.57 192.69 104.38C192.555 104.287 192.449 104.158 192.382 104.008C192.315 103.858 192.29 103.693 192.31 103.53C192.42 102.69 193.76 102.03 194.31 101.79C194.432 101.737 194.57 101.735 194.694 101.783C194.818 101.832 194.917 101.928 194.97 102.05C195.023 102.172 195.025 102.31 194.977 102.434C194.928 102.558 194.832 102.657 194.71 102.71L194.26 102.92C194.344 102.969 194.412 103.042 194.457 103.129C194.501 103.215 194.52 103.313 194.51 103.41C194.51 103.57 194.37 104.41 193.78 104.62C193.679 104.664 193.57 104.688 193.46 104.69ZM193.46 103.42C193.371 103.486 193.299 103.571 193.25 103.67H193.42C193.42 103.67 193.49 103.55 193.51 103.42H193.46Z" fill="#2C2D2F"/>
<path d="M191.79 74.78C191.79 74.78 195.51 81.59 202.68 83.55L204.27 77L191.79 74.78Z" fill="#2C2D2F"/>
<path d="M196.05 39.1702C208.44 41.1702 209.63 53.6902 209.63 53.6902C209.63 53.6902 209.63 66.8002 207.63 76.2502C207.63 76.2502 199.13 79.2502 189.29 73.4502C189.29 73.4502 188.08 73.1302 190.88 61.4502" fill="white"/>
<path d="M201.92 77.5402C197.383 77.5084 192.938 76.2581 189.05 73.9202C188.58 73.7602 187.59 72.8602 190.35 61.3502C190.38 61.2176 190.462 61.1025 190.578 61.0303C190.693 60.9581 190.832 60.9347 190.965 60.9652C191.098 60.9957 191.213 61.0776 191.285 61.193C191.357 61.3083 191.38 61.4476 191.35 61.5802C189.12 70.8602 189.48 72.7502 189.59 73.0702C192.194 74.6693 195.089 75.7381 198.108 76.2152C201.126 76.6922 204.209 76.5682 207.18 75.8502C209.18 66.5902 209.18 53.8502 209.18 53.6902C209.18 53.2402 207.88 41.5402 196.02 39.6902C195.887 39.669 195.769 39.596 195.69 39.4872C195.611 39.3784 195.579 39.2428 195.6 39.1102C195.621 38.9776 195.694 38.8588 195.803 38.7801C195.912 38.7013 196.047 38.669 196.18 38.6902C208.81 40.6902 210.18 53.5302 210.18 53.6902C210.18 53.8502 210.18 67.0102 208.12 76.4002C208.105 76.4849 208.067 76.5639 208.011 76.629C207.954 76.6941 207.882 76.7429 207.8 76.7702C205.893 77.3343 203.908 77.5942 201.92 77.5402Z" fill="#2C2D2F"/>
<path d="M180 48.7902C178.797 48.8554 177.594 48.6595 176.474 48.2159C175.353 47.7723 174.342 47.0914 173.51 46.2202C170.42 42.8102 171.04 37.2902 171.07 37.0502C171.077 36.9856 171.098 36.9232 171.129 36.8665C171.161 36.8099 171.204 36.7601 171.255 36.7201C171.306 36.68 171.365 36.6506 171.427 36.6335C171.49 36.6163 171.556 36.6118 171.62 36.6202C171.751 36.6353 171.871 36.7015 171.953 36.8046C172.036 36.9076 172.074 37.039 172.06 37.1702C172.06 37.1702 171.47 42.4802 174.25 45.5502C175.02 46.3461 175.959 46.9596 176.997 47.3454C178.035 47.7313 179.147 47.8799 180.25 47.7802C181.342 47.8335 182.431 47.6411 183.439 47.217C184.446 46.793 185.345 46.1482 186.07 45.3302C188.68 42.1402 187.74 36.8402 187.73 36.7902C187.706 36.6576 187.736 36.5209 187.813 36.4103C187.89 36.2996 188.007 36.224 188.14 36.2002C188.273 36.1763 188.409 36.2061 188.52 36.283C188.631 36.3599 188.706 36.4776 188.73 36.6102C188.73 36.8502 189.73 42.4002 186.85 45.9602C186.039 46.8958 185.026 47.6355 183.888 48.1239C182.751 48.6123 181.517 48.8367 180.28 48.7802L180 48.7902Z" fill="#2C2D2F"/>
<path d="M171 13.9301C171 13.9301 165.89 11.7701 169.53 7.77008C169.883 7.54568 170.278 7.39349 170.69 7.3223C171.103 7.25111 171.525 7.26233 171.933 7.3553C172.342 7.44827 172.727 7.62116 173.068 7.86399C173.409 8.10681 173.699 8.41477 173.92 8.77008" fill="#2C2D2F"/>
<path d="M176.4 27.1301L174.88 38.0001C174.685 39.3091 174.962 40.645 175.662 41.7682C176.362 42.8915 177.439 43.7288 178.7 44.1301C179.622 44.3925 180.598 44.3925 181.52 44.1301C182.835 43.7859 183.979 42.9726 184.736 41.8435C185.493 40.7144 185.811 39.3474 185.63 38.0001L184.36 27.6301C181.74 28.4883 178.891 28.3093 176.4 27.1301Z" fill="white"/>
<path d="M180.19 44.8301C179.638 44.8303 179.089 44.7495 178.56 44.5901C177.187 44.1506 176.014 43.238 175.25 42.0148C174.487 40.7915 174.182 39.337 174.39 37.9101L176 26.3601L176.63 26.6901C178.995 27.8086 181.696 27.9908 184.19 27.2001L184.78 26.9801L186.12 37.9801C186.315 39.4469 185.967 40.9342 185.142 42.1625C184.317 43.3907 183.071 44.2754 181.64 44.6501C181.166 44.769 180.679 44.8294 180.19 44.8301ZM176.8 27.8301L175.38 38.0101C175.201 39.1995 175.451 40.4137 176.085 41.4358C176.719 42.458 177.695 43.2215 178.84 43.5901C179.677 43.8254 180.563 43.8254 181.4 43.5901C182.594 43.2726 183.631 42.5309 184.318 41.5038C185.004 40.4768 185.293 39.2347 185.13 38.0101L183.93 28.2301C181.577 28.8881 179.074 28.7617 176.8 27.8701V27.8301Z" fill="#2C2D2F"/>
<path d="M184.75 32.0502C184.75 32.0502 180.92 32.7602 179.2 30.9002C178.184 29.8042 177.368 28.5383 176.79 27.1602H184.34L184.75 32.0502Z" fill="#2C2D2F"/>
<path d="M181.04 28.2001C186.933 28.2001 191.71 23.423 191.71 17.5301C191.71 11.6372 186.933 6.86011 181.04 6.86011C175.147 6.86011 170.37 11.6372 170.37 17.5301C170.37 23.423 175.147 28.2001 181.04 28.2001Z" fill="white"/>
<path d="M181 28.6901C178.79 28.6901 176.63 28.0347 174.793 26.8069C172.956 25.5791 171.525 23.834 170.679 21.7924C169.834 19.7507 169.614 17.5043 170.045 15.3373C170.477 13.1702 171.542 11.1799 173.105 9.61818C174.668 8.05643 176.66 6.99338 178.827 6.56351C180.994 6.13365 183.241 6.35628 185.282 7.20324C187.322 8.05021 189.066 9.48345 190.292 11.3217C191.519 13.1599 192.172 15.3205 192.17 17.5301C192.165 20.49 190.986 23.3271 188.892 25.4191C186.798 27.5111 183.96 28.6875 181 28.6901ZM181 7.3601C178.989 7.3601 177.022 7.95656 175.35 9.07406C173.677 10.1916 172.374 11.7799 171.604 13.6382C170.834 15.4965 170.633 17.5414 171.026 19.5142C171.418 21.487 172.387 23.2991 173.809 24.7214C175.231 26.1437 177.043 27.1123 179.016 27.5047C180.989 27.8971 183.034 27.6957 184.892 26.926C186.75 26.1562 188.339 24.8527 189.456 23.1803C190.574 21.5078 191.17 19.5415 191.17 17.5301C191.167 14.8337 190.095 12.2484 188.188 10.3418C186.282 8.43508 183.697 7.36275 181 7.3601Z" fill="#2C2D2F"/>
<path d="M172.47 11.1801C172.47 11.1801 166.6 7.28012 170.06 2.00012C173.52 -3.27988 182.11 3.41012 182.11 3.41012C182.11 3.41012 182.37 -0.439884 187.62 0.850116C187.62 0.850116 192.11 2.24012 190.96 7.90012C190.96 7.90012 195.7 4.40012 196.6 9.23011C196.6 9.23011 197.6 15.2301 191.47 20.5301C191.47 20.5301 191.09 18.8901 190.47 19.2301C189.85 19.5701 189.31 20.4701 188.41 20.5301C187.51 20.5901 187.77 12.5301 187.77 12.5301L172.47 11.1801Z" fill="#2C2D2F"/>
<path d="M184.05 6.72001C183.996 6.72001 183.943 6.70247 183.9 6.67001C183.857 6.63756 183.825 6.59194 183.81 6.54001C183.515 5.40935 182.884 4.39474 182 3.63001C181.968 3.61358 181.94 3.59038 181.918 3.56202C181.895 3.53367 181.879 3.50082 181.871 3.46573C181.862 3.43065 181.862 3.39416 181.869 3.35877C181.876 3.32338 181.89 3.28994 181.912 3.26073C181.933 3.23152 181.96 3.20724 181.991 3.18956C182.023 3.17187 182.058 3.16121 182.094 3.15829C182.13 3.15537 182.166 3.16027 182.2 3.17265C182.234 3.18503 182.264 3.2046 182.29 3.23001C183.272 4.05105 183.972 5.15991 184.29 6.40001C184.309 6.46367 184.301 6.53209 184.269 6.59022C184.237 6.64836 184.184 6.69145 184.12 6.71001L184.05 6.72001Z" fill="white"/>
<path d="M189.46 9.28011H189.35C189.292 9.25015 189.249 9.19897 189.228 9.13738C189.208 9.07579 189.212 9.00864 189.24 8.95011C190.85 5.63011 189.02 3.72011 188.94 3.64011C188.916 3.61679 188.897 3.58883 188.883 3.55791C188.87 3.52698 188.864 3.49372 188.864 3.46011C188.864 3.42651 188.87 3.39325 188.883 3.36232C188.897 3.33139 188.916 3.30343 188.94 3.28011C188.988 3.23655 189.05 3.2124 189.115 3.2124C189.18 3.2124 189.242 3.23655 189.29 3.28011C189.29 3.28011 191.46 5.52011 189.69 9.16011C189.666 9.19924 189.632 9.23112 189.592 9.25228C189.551 9.27344 189.506 9.28307 189.46 9.28011Z" fill="white"/>
<path d="M173.92 9.84023C170.24 9.70023 170.14 4.55023 170.14 4.50023C170.14 4.43461 170.164 4.37133 170.209 4.32311C170.253 4.27489 170.314 4.24528 170.38 4.24023C170.446 4.24023 170.51 4.26657 170.557 4.31346C170.604 4.36034 170.63 4.42393 170.63 4.49023C170.63 4.49023 170.72 9.22023 173.93 9.34023C173.963 9.34152 173.995 9.34927 174.025 9.36304C174.055 9.37681 174.082 9.39632 174.104 9.42047C174.126 9.44462 174.143 9.47293 174.155 9.50377C174.166 9.53462 174.171 9.5674 174.17 9.60023C174.165 9.66398 174.137 9.72369 174.091 9.76796C174.045 9.81223 173.984 9.83796 173.92 9.84023Z" fill="white"/>
<path d="M192.74 18.2002C192.704 18.2105 192.666 18.2105 192.63 18.2002C192.6 18.1876 192.572 18.1686 192.55 18.1445C192.527 18.1203 192.51 18.0916 192.5 18.0603C192.489 18.029 192.486 17.9959 192.489 17.963C192.493 17.9302 192.503 17.8986 192.52 17.8702C194.94 13.1102 194.84 11.1302 194.52 10.3802C194.462 10.1606 194.322 9.97131 194.13 9.8502C194.097 9.83738 194.067 9.81776 194.043 9.79262C194.018 9.76749 193.999 9.7374 193.987 9.70435C193.974 9.67129 193.969 9.63602 193.971 9.60083C193.974 9.56565 193.984 9.53135 194 9.5002C194.025 9.43947 194.071 9.39028 194.131 9.36247C194.19 9.33466 194.258 9.33028 194.32 9.3502C194.476 9.42824 194.614 9.53653 194.728 9.66874C194.841 9.80095 194.927 9.95443 194.98 10.1202C195.37 11.1202 195.34 13.3202 192.92 18.0602C192.904 18.0966 192.879 18.1285 192.848 18.1529C192.816 18.1774 192.779 18.1936 192.74 18.2002Z" fill="white"/>
<path d="M189.34 20.1501C189.34 20.1501 190.51 16.5301 191.71 17.5301C194.71 19.9901 190.79 22.1701 190.79 22.1701" fill="white"/>
<path d="M190.79 22.6701C190.7 22.6693 190.612 22.6449 190.535 22.5992C190.458 22.5536 190.394 22.4884 190.35 22.4101C190.285 22.2947 190.269 22.1583 190.305 22.0309C190.34 21.9034 190.425 21.7953 190.54 21.7301C191.01 21.4701 192.24 20.5701 192.33 19.5801C192.326 19.2454 192.237 18.917 192.073 18.6252C191.909 18.3335 191.674 18.0876 191.39 17.9101C191.31 17.8401 191.27 17.8501 191.25 17.8601C190.82 17.9801 190.17 19.2201 189.81 20.3001C189.791 20.3621 189.759 20.4196 189.718 20.4694C189.676 20.5191 189.625 20.56 189.567 20.5898C189.509 20.6196 189.446 20.6376 189.382 20.6428C189.317 20.648 189.252 20.6403 189.19 20.6201C189.127 20.6008 189.068 20.5691 189.017 20.5268C188.966 20.4846 188.924 20.4327 188.894 20.3741C188.863 20.3155 188.844 20.2514 188.838 20.1855C188.833 20.1196 188.84 20.0532 188.86 19.9901C189.01 19.5301 189.81 17.2401 190.97 16.9001C191.153 16.8478 191.346 16.8424 191.531 16.8843C191.716 16.9263 191.888 17.0143 192.03 17.1401C192.437 17.4225 192.768 17.8013 192.993 18.2428C193.218 18.6843 193.331 19.1747 193.32 19.6701C193.17 21.3901 191.12 22.5501 191.03 22.6001C190.959 22.6462 190.875 22.6705 190.79 22.6701Z" fill="#2C2D2F"/>
<path d="M272.27 173.93H96.02V174.93H272.27V173.93Z" fill="#2C2D2F"/>
<path d="M175.66 61.4802H169.21L115.46 174.58H121.91V174.5C124.59 173.8 175.66 167.83 175.66 61.4802Z" fill="#2C2D2F"/>
<path d="M121.91 175.08H114.67L115.01 174.36L168.89 61H176.16V61.5C176.16 104.5 167.93 136.36 151.71 156.15C143.42 166.25 133.35 172.73 122.57 174.9L122.29 174.96V175.02L121.91 175.08ZM116.25 174.08H121.7L121.82 174.02L122.37 173.9C134.73 171.41 175 156 175.16 62H169.53L116.25 174.08Z" fill="#2C2D2F"/>
<path d="M169.21 61.4801C169.21 61.4801 134.14 76.2001 115.46 57.6301L115.4 57.5701V57.6801C96.6999 76.2401 61.6299 61.5301 61.6299 61.5301C61.6299 165.27 115.46 174.58 115.46 174.58V174.51C117.72 173.84 169.21 168.26 169.21 61.4801Z" fill="white"/>
<path d="M115.43 175.08H115.38C115.24 175.08 101.59 172.55 88.17 157.3C65.82 131.89 61.17 91.2002 61.17 61.5402C61.1687 61.4575 61.188 61.3757 61.2262 61.3023C61.2643 61.2288 61.3201 61.166 61.3884 61.1194C61.4568 61.0728 61.5357 61.044 61.618 61.0354C61.7003 61.0268 61.7834 61.0387 61.86 61.0702C62.21 61.2202 96.67 75.3702 114.93 57.4702C114.946 57.3888 114.982 57.3125 115.034 57.248C115.086 57.1835 115.154 57.1328 115.23 57.1002C115.315 57.0672 115.408 57.0581 115.498 57.074C115.587 57.0899 115.671 57.1301 115.74 57.1902C115.816 57.2302 115.882 57.2886 115.93 57.3602C134.18 75.3602 168.71 61.1802 169.06 61.0302C169.132 60.9908 169.213 60.9702 169.295 60.9702C169.377 60.9702 169.458 60.9908 169.53 61.0302C169.598 61.0771 169.653 61.1399 169.692 61.2131C169.73 61.2862 169.75 61.3676 169.75 61.4502C169.75 104.45 161.52 136.31 145.29 156.1C137.01 166.2 126.93 172.68 116.15 174.85L115.79 174.93C115.69 175.019 115.563 175.072 115.43 175.08ZM62.13 62.2602C62.21 91.6902 66.96 131.67 88.92 156.63C101.13 170.5 113.44 173.63 115.3 174.04L115.89 173.91C128.25 171.43 168.48 156.03 168.69 62.2302C163.69 64.1502 132.69 75.0002 115.42 58.3202C98.14 75.0502 67.16 64.1802 62.13 62.2602Z" fill="#2C2D2F"/>
<path d="M156.07 74.8201C156.07 74.8201 129.56 85.9401 115.45 71.9101V71.8601V71.9501C101.34 85.9501 74.8401 74.8601 74.8401 74.8601C74.8401 153.26 115.51 160.29 115.51 160.29V160.24C117.16 159.73 156.07 155.51 156.07 74.8201Z" fill="white"/>
<path d="M115.43 160.78H115.37C114.94 160.71 104.91 158.86 94.74 147.3C77.83 128.08 74.28 97.3002 74.28 74.8602C74.2804 74.7783 74.301 74.6978 74.3398 74.6257C74.3786 74.5536 74.4345 74.4921 74.5027 74.4467C74.5708 74.4013 74.6491 74.3733 74.7306 74.3652C74.8121 74.3571 74.8943 74.3691 74.97 74.4002C75.23 74.5102 101.23 85.1902 114.97 71.6702C115.024 71.5726 115.108 71.4954 115.21 71.4502C115.325 71.3947 115.456 71.3823 115.579 71.4154C115.702 71.4484 115.809 71.5247 115.88 71.6302C129.61 85.1602 155.62 74.4802 155.88 74.3702C155.952 74.3308 156.033 74.3102 156.115 74.3102C156.197 74.3102 156.278 74.3308 156.35 74.3702C156.419 74.4167 156.476 74.4791 156.516 74.5522C156.556 74.6253 156.578 74.7069 156.58 74.7902C156.58 107.32 150.35 131.41 138.07 146.39C131.79 154.04 124.15 158.95 115.98 160.6L115.73 160.65C115.646 160.724 115.541 160.77 115.43 160.78ZM75.28 75.5902C75.35 97.7502 78.96 127.78 95.43 146.59C104.58 157.02 113.84 159.43 115.33 159.76L115.77 159.67C125.07 157.8 155.36 146.21 155.56 75.5702C150.898 77.3153 146.049 78.5133 141.11 79.1402C130.19 80.4802 121.32 78.2202 115.44 72.6202C109.55 78.2502 100.68 80.5102 89.73 79.1802C84.7926 78.5368 79.9446 77.3323 75.28 75.5902Z" fill="#2C2D2F"/>
</g>
<defs>
<clipPath id="clip0">
<rect width="272.27" height="175.1" fill="white"/>
</clipPath>
</defs>
</svg>
