<svg viewBox="0 0 248 249" fill="none" xmlns="http://www.w3.org/2000/svg">
<g clip-path="url(#clip0)">
<path d="M203.88 19.7801C203.88 19.7801 200.41 15.4501 205.52 13.6701C205.939 13.6417 206.36 13.6971 206.757 13.8332C207.155 13.9693 207.521 14.1832 207.835 14.4626C208.149 14.7419 208.404 15.081 208.585 15.4601C208.766 15.8391 208.87 16.2505 208.89 16.6701" fill="#2C2D2F"/>
<path d="M149.53 94.8201C147.85 92.3501 171.7 45.5801 171.7 45.5801C172.611 43.142 174.356 41.1056 176.627 39.8331C178.897 38.5606 181.545 38.1344 184.1 38.6301L199.17 41.5601C201.388 41.988 203.422 43.0836 205 44.7001L215.68 55.7001C217.497 57.5633 218.595 60.0106 218.778 62.6069C218.961 65.2032 218.218 67.7803 216.68 69.8801C216.68 69.8801 202.25 92.2301 189.29 114.58C189.23 114.61 164.13 116.35 149.53 94.8201Z" fill="white"/>
<path d="M188.05 115.14C182.81 115.14 161.87 113.91 149.12 95.1401C147.41 92.6201 165.63 56.4201 171.25 45.3901C172.205 42.8493 174.031 40.7301 176.403 39.4097C178.774 38.0893 181.537 37.6536 184.2 38.1801L199.27 41.1101C201.581 41.5549 203.698 42.7041 205.33 44.4001L216.02 55.4001C217.918 57.3519 219.061 59.9149 219.244 62.6314C219.427 65.3479 218.639 68.041 217.02 70.2301C216.89 70.4201 202.47 92.8001 189.66 114.88L189.53 115.11H189.27C189.27 115.11 188.8 115.14 188.05 115.14ZM150 94.5601C163.49 114.42 186.29 114.21 189 114.12C201.78 92.1201 216.11 69.8601 216.26 69.6401C217.744 67.6391 218.469 65.1756 218.304 62.6897C218.139 60.2038 217.096 57.8575 215.36 56.0701L204.68 45.0701C203.183 43.5232 201.245 42.4756 199.13 42.0701L184 39.1201C181.561 38.6394 179.03 39.0426 176.861 40.2573C174.691 41.472 173.025 43.4191 172.16 45.7501C163.16 63.4201 149.21 92.2101 150 94.5601Z" fill="#2C2D2F"/>
<path d="M205.68 109.81L213.2 94.3401L200.41 88.5901L196.58 97.7101" fill="white"/>
<path d="M205.68 110.31C205.608 110.33 205.532 110.33 205.46 110.31C205.401 110.281 205.348 110.241 205.304 110.192C205.261 110.142 205.227 110.085 205.206 110.023C205.185 109.961 205.176 109.895 205.18 109.829C205.184 109.763 205.201 109.699 205.23 109.64L212.52 94.64L200.67 89.3L197 97.9C196.947 98.0199 196.85 98.1148 196.729 98.1651C196.608 98.2154 196.472 98.2171 196.35 98.17C196.229 98.1151 196.134 98.0162 196.084 97.8936C196.034 97.7709 196.032 97.6337 196.08 97.51L200 88.39C200.026 88.3286 200.065 88.273 200.113 88.2267C200.161 88.1803 200.218 88.144 200.28 88.12C200.341 88.0927 200.408 88.0786 200.475 88.0786C200.542 88.0786 200.609 88.0927 200.67 88.12L213.45 93.88C213.512 93.9047 213.569 93.9425 213.615 93.9908C213.662 94.0391 213.698 94.0968 213.72 94.16C213.77 94.2853 213.77 94.4247 213.72 94.55L206.13 110C206.093 110.09 206.031 110.167 205.951 110.222C205.871 110.277 205.777 110.308 205.68 110.31Z" fill="#2C2D2F"/>
<path d="M204.42 107.61L223.3 124.46C223.612 124.731 223.946 124.976 224.3 125.19C225.3 125.68 228.58 126.98 230.11 128.31C230.22 128.38 230.301 128.486 230.34 128.61C230.379 128.734 230.373 128.868 230.323 128.987C230.272 129.107 230.181 129.205 230.065 129.264C229.95 129.323 229.817 129.34 229.69 129.31C228.59 129.19 227.05 128.7 226.64 128.9C226.64 128.9 225.73 129.28 226.97 130.45C229.159 132.506 231.452 134.449 233.84 136.27C233.938 136.339 234.006 136.442 234.03 136.559C234.054 136.676 234.033 136.798 233.971 136.9C233.908 137.002 233.809 137.076 233.694 137.108C233.579 137.139 233.456 137.126 233.35 137.07C230.814 135.703 228.384 134.149 226.08 132.42V132.61C228.01 134.41 231.71 137.61 233.76 139.12C233.851 139.192 233.913 139.295 233.932 139.41C233.952 139.524 233.928 139.642 233.866 139.74C233.804 139.838 233.708 139.91 233.596 139.941C233.484 139.973 233.364 139.962 233.26 139.91C230.412 138.379 227.684 136.634 225.1 134.69L225 134.77C226.61 136.26 229.33 138.49 231.18 139.85C231.278 139.919 231.346 140.022 231.37 140.139C231.394 140.256 231.373 140.378 231.311 140.48C231.248 140.582 231.149 140.656 231.034 140.688C230.919 140.719 230.796 140.706 230.69 140.65C228 139.182 225.425 137.511 222.99 135.65H222.84C223.787 136.803 224.895 137.813 226.13 138.65C226.61 138.99 226.05 139.83 225.54 139.54C223.049 138.067 220.648 136.448 218.35 134.69L216.11 133L194 115.34C192.98 114.527 192.253 113.404 191.928 112.141C191.603 110.878 191.699 109.544 192.2 108.34L196.59 97.71" fill="white"/>
<path d="M231 141.18C230.847 141.178 230.696 141.14 230.56 141.07C229.304 140.424 228.082 139.713 226.9 138.94C226.916 139.177 226.853 139.413 226.72 139.61C226.59 139.835 226.377 140.001 226.127 140.072C225.877 140.143 225.609 140.113 225.38 139.99C222.87 138.511 220.453 136.882 218.14 135.11L215.86 133.38L193.73 115.73C192.625 114.85 191.834 113.637 191.473 112.272C191.113 110.906 191.203 109.46 191.73 108.15L196.13 97.5201C196.154 97.459 196.19 97.4034 196.236 97.3566C196.282 97.3097 196.337 97.2726 196.398 97.2474C196.458 97.2223 196.524 97.2095 196.589 97.21C196.655 97.2104 196.72 97.2241 196.78 97.2501C196.841 97.2743 196.897 97.3104 196.944 97.3562C196.991 97.402 197.029 97.4567 197.055 97.517C197.081 97.5774 197.095 97.6423 197.096 97.708C197.096 97.7738 197.084 97.839 197.06 97.9001L192.66 108.53C192.193 109.64 192.1 110.872 192.396 112.04C192.692 113.207 193.361 114.246 194.3 115L216.42 132.64L218.69 134.37C220.973 136.105 223.354 137.707 225.82 139.17C225.82 139.17 225.82 139.1 225.82 139.07C224.547 138.252 223.41 137.24 222.45 136.07C222.402 136.003 222.371 135.924 222.36 135.842C222.35 135.76 222.36 135.677 222.39 135.599C222.419 135.522 222.468 135.453 222.531 135.399C222.594 135.345 222.669 135.308 222.75 135.29C222.935 135.249 223.128 135.27 223.3 135.35C225.716 137.179 228.267 138.824 230.93 140.27C228.746 138.703 226.656 137.011 224.67 135.2C224.615 135.15 224.572 135.087 224.545 135.018C224.517 134.949 224.505 134.874 224.51 134.8C224.516 134.725 224.537 134.653 224.573 134.587C224.61 134.522 224.66 134.465 224.72 134.42C224.819 134.349 224.934 134.304 225.056 134.292C225.177 134.28 225.299 134.3 225.41 134.35C227.969 136.276 230.67 138.004 233.49 139.52C231.32 137.95 227.62 134.78 225.75 133.04C225.671 132.961 225.619 132.86 225.6 132.75V132.55C225.585 132.452 225.6 132.352 225.642 132.263C225.685 132.174 225.754 132.099 225.84 132.05C225.922 131.996 226.017 131.968 226.115 131.968C226.213 131.968 226.308 131.996 226.39 132.05C228.675 133.762 231.085 135.299 233.6 136.65C231.156 134.855 228.818 132.918 226.6 130.85C225.98 130.25 225.72 129.72 225.81 129.23C225.838 129.062 225.909 128.904 226.016 128.771C226.123 128.638 226.262 128.534 226.42 128.47C227.087 128.331 227.779 128.38 228.42 128.61C228.87 128.7 229.33 128.8 229.74 128.85L230.1 128.37L229.78 128.74C228.291 127.674 226.68 126.791 224.98 126.11L224.07 125.69C223.669 125.464 223.29 125.199 222.94 124.9L204.08 108C203.988 107.907 203.937 107.781 203.937 107.65C203.937 107.519 203.988 107.394 204.08 107.3C204.126 107.253 204.182 107.216 204.243 107.191C204.304 107.165 204.369 107.152 204.435 107.152C204.501 107.152 204.566 107.165 204.627 107.191C204.688 107.216 204.744 107.253 204.79 107.3L223.67 124.15C223.962 124.395 224.273 124.616 224.6 124.81L225.46 125.2C227.236 125.92 228.915 126.857 230.46 127.99C230.641 128.132 230.767 128.331 230.818 128.555C230.869 128.779 230.842 129.014 230.74 129.22C230.657 129.43 230.504 129.606 230.308 129.719C230.112 129.831 229.884 129.874 229.66 129.84C229.22 129.79 228.73 129.69 228.25 129.59C227.793 129.469 227.323 129.402 226.85 129.39C226.85 129.39 226.85 129.62 227.33 130.12C229.508 132.16 231.788 134.089 234.16 135.9C234.311 136.059 234.406 136.263 234.429 136.482C234.452 136.7 234.404 136.919 234.29 137.107C234.176 137.294 234.004 137.439 233.8 137.52C233.596 137.6 233.371 137.61 233.16 137.55C232.59 137.26 232.01 136.94 231.43 136.55C232.43 137.38 233.37 138.14 234.11 138.7C234.256 138.86 234.347 139.063 234.367 139.279C234.388 139.494 234.339 139.711 234.226 139.896C234.113 140.081 233.943 140.224 233.742 140.304C233.541 140.384 233.319 140.397 233.11 140.34C232.66 140.12 232.2 139.87 231.73 139.61C231.858 139.764 231.934 139.954 231.947 140.154C231.959 140.353 231.908 140.552 231.8 140.72C231.713 140.855 231.595 140.968 231.456 141.048C231.317 141.128 231.16 141.173 231 141.18Z" fill="#2C2D2F"/>
<path d="M194.91 109C194.91 109 195.13 111.63 194.09 111.17C193.05 110.71 194.16 109.96 194.16 109.96" fill="white"/>
<path d="M194.31 111.71C194.165 111.706 194.022 111.672 193.89 111.61C193.699 111.549 193.529 111.437 193.398 111.285C193.267 111.133 193.182 110.948 193.15 110.75C193.164 110.503 193.238 110.263 193.365 110.05C193.492 109.838 193.669 109.659 193.88 109.53C193.963 109.479 194.058 109.451 194.155 109.451C194.252 109.451 194.348 109.479 194.43 109.53C194.43 109.36 194.43 109.2 194.43 109.04C194.419 108.909 194.46 108.779 194.544 108.678C194.628 108.576 194.749 108.513 194.88 108.5C194.946 108.492 195.012 108.497 195.075 108.515C195.139 108.534 195.197 108.565 195.248 108.607C195.299 108.65 195.34 108.702 195.37 108.761C195.399 108.82 195.417 108.884 195.42 108.95C195.48 109.57 195.52 111.06 194.84 111.55C194.688 111.664 194.5 111.721 194.31 111.71ZM194.17 110.64C194.212 110.656 194.252 110.676 194.29 110.7C194.335 110.613 194.363 110.518 194.37 110.42C194.29 110.48 194.222 110.554 194.17 110.64Z" fill="#2C2D2F"/>
<path d="M211.56 96.4101C211.56 96.4101 203.32 98.7501 198.22 93.3401L200.41 88.5901L211.56 96.4101Z" fill="#2C2D2F"/>
<path d="M215.6 55.7C225.84 65.47 223 75.8 223 75.8C223 75.8 221 88.48 214.83 96.8C214.83 96.8 203.05 95.63 199.91 88.72C199.91 88.72 203.33 78.3699 206.3 74.0299" fill="white"/>
<path d="M215.1 97.3301H214.82C214.32 97.3301 202.71 96.0501 199.49 88.9601L199.41 88.7801L199.47 88.5901C199.61 88.1701 202.95 78.1201 205.93 73.7801L206.75 74.3501C204.07 78.2601 200.96 87.3501 200.49 88.7201C203.31 94.5601 212.87 96.0701 214.64 96.3001C220.54 88.1501 222.53 75.8701 222.55 75.7501C222.57 75.6301 225.14 65.5101 215.26 56.0801L215.95 55.3501C220.012 59.0242 222.727 63.9531 223.66 69.3501C224.028 71.5357 223.984 73.7707 223.53 75.9401C223.53 76.0201 221.45 88.7801 215.27 97.1201L215.1 97.3301Z" fill="#2C2D2F"/>
<path d="M202.51 80.5314L199.491 88.5732L200.427 88.9248L203.446 80.883L202.51 80.5314Z" fill="#2C2D2F"/>
<path d="M135.18 111.17L164.1 67.92L152.22 60.48L125.74 105.23L124.34 107.73C122.918 110.248 121.649 112.85 120.54 115.52C120.32 116.07 121.23 116.52 121.54 115.98C122.194 114.644 123.036 113.408 124.04 112.31C124.036 112.36 124.036 112.41 124.04 112.46C122.545 115.127 121.258 117.905 120.19 120.77C120.14 120.884 120.137 121.013 120.182 121.13C120.227 121.246 120.316 121.34 120.43 121.39C120.544 121.44 120.673 121.443 120.79 121.398C120.906 121.353 121 121.264 121.05 121.15C122.14 119.15 123.98 116.15 125.23 114.32L125.32 114.41C123.767 117.238 122.43 120.18 121.32 123.21C121.282 123.32 121.287 123.44 121.333 123.547C121.379 123.654 121.463 123.74 121.569 123.789C121.675 123.838 121.795 123.845 121.906 123.81C122.017 123.775 122.111 123.7 122.17 123.6C123.43 121.35 126.04 117.25 127.55 115.09H127.74C126.342 117.611 125.138 120.235 124.14 122.94C124.09 123.054 124.087 123.183 124.132 123.3C124.177 123.416 124.266 123.51 124.38 123.56C124.494 123.61 124.623 123.613 124.74 123.568C124.856 123.523 124.95 123.434 125 123.32C126.28 120.94 128.69 117.32 129.81 115.7C130.81 114.31 131.31 115.15 131.31 115.15C131.56 115.54 131.31 117.15 131.31 118.29C131.31 118.8 132.11 118.89 132.38 118.46C133.46 116.73 134.27 113.39 134.62 112.33C134.767 111.925 134.954 111.537 135.18 111.17Z" fill="white"/>
<path d="M121.75 124.34C121.608 124.339 121.469 124.309 121.34 124.25C121.114 124.157 120.934 123.979 120.837 123.755C120.74 123.531 120.734 123.278 120.82 123.05C120.98 122.58 121.16 122.05 121.35 121.59C121.189 121.727 120.989 121.81 120.777 121.826C120.566 121.842 120.356 121.791 120.176 121.68C119.996 121.569 119.855 121.404 119.775 121.208C119.695 121.012 119.679 120.795 119.73 120.59C120.196 119.255 120.733 117.947 121.34 116.67C121.105 116.729 120.856 116.701 120.64 116.59C120.398 116.492 120.204 116.303 120.099 116.064C119.995 115.825 119.988 115.554 120.08 115.31C121.195 112.618 122.474 109.996 123.91 107.46L125.3 105L151.79 60.23C151.823 60.1726 151.868 60.1227 151.921 60.0832C151.975 60.0436 152.035 60.0153 152.1 60C152.164 59.9844 152.231 59.9817 152.296 59.992C152.361 60.0023 152.424 60.0254 152.48 60.06L164.36 67.51C164.418 67.5449 164.468 67.5913 164.508 67.6464C164.547 67.7014 164.575 67.7638 164.59 67.83C164.604 67.8954 164.605 67.9631 164.591 68.0286C164.577 68.0942 164.55 68.156 164.51 68.21L135.59 111.45C135.389 111.768 135.215 112.103 135.07 112.45C135 112.65 134.91 112.96 134.8 113.34C134.347 115.187 133.676 116.973 132.8 118.66C132.668 118.863 132.474 119.018 132.247 119.103C132.021 119.187 131.773 119.197 131.54 119.13C131.338 119.084 131.158 118.973 131.026 118.814C130.894 118.655 130.818 118.457 130.81 118.25C130.81 117.79 130.81 117.25 130.86 116.77C130.91 116.298 130.91 115.822 130.86 115.35C130.86 115.35 130.62 115.35 130.2 115.93C129.03 117.57 126.66 121.2 125.42 123.49C125.283 123.661 125.093 123.783 124.88 123.836C124.666 123.888 124.442 123.869 124.24 123.782C124.039 123.694 123.872 123.543 123.765 123.351C123.659 123.159 123.618 122.937 123.65 122.72C123.86 122.12 124.09 121.5 124.35 120.88C123.67 121.97 123.05 123.01 122.59 123.88C122.5 124.021 122.375 124.137 122.229 124.217C122.082 124.297 121.917 124.34 121.75 124.34ZM125.24 113.82C125.374 113.824 125.502 113.878 125.6 113.97C125.686 114.058 125.746 114.168 125.776 114.287C125.806 114.407 125.804 114.532 125.77 114.65C124.219 117.452 122.882 120.367 121.77 123.37C123.03 121 125.65 116.9 127.12 114.81C127.186 114.716 127.281 114.646 127.39 114.61H127.58C127.674 114.583 127.775 114.583 127.869 114.612C127.963 114.64 128.046 114.695 128.11 114.77C128.173 114.848 128.212 114.942 128.221 115.042C128.23 115.142 128.209 115.242 128.16 115.33C126.776 117.825 125.586 120.423 124.6 123.1C126.044 120.447 127.64 117.879 129.38 115.41C129.88 114.71 130.38 114.41 130.88 114.41C131.05 114.42 131.215 114.47 131.361 114.557C131.507 114.644 131.63 114.765 131.72 114.91C131.943 115.553 131.988 116.244 131.85 116.91C131.85 117.38 131.79 117.91 131.8 118.26H131.88C132.761 116.655 133.433 114.945 133.88 113.17C133.99 112.77 134.09 112.44 134.16 112.17C134.334 111.742 134.544 111.331 134.79 110.94L163.4 68.08L152.4 61.17L126.19 105.49L124.78 108C123.37 110.49 122.108 113.061 121 115.7C121 115.7 121.07 115.7 121.11 115.7C121.757 114.32 122.614 113.048 123.65 111.93C123.71 111.873 123.784 111.831 123.864 111.81C123.945 111.789 124.029 111.789 124.11 111.81C124.192 111.83 124.267 111.869 124.33 111.925C124.393 111.981 124.441 112.051 124.47 112.13C124.529 112.308 124.529 112.501 124.47 112.68C122.985 115.32 121.708 118.072 120.65 120.91C121.9 118.532 123.285 116.228 124.8 114.01C124.844 113.95 124.901 113.9 124.967 113.863C125.033 113.827 125.105 113.806 125.18 113.8L125.24 113.82Z" fill="#2C2D2F"/>
<path d="M145.27 75.2C145.27 75.2 145.13 77.83 144.17 77.2C143.21 76.57 144.41 76.01 144.41 76.01" fill="white"/>
<path d="M144.43 77.8199C144.245 77.8156 144.065 77.7603 143.91 77.6599C143.716 77.5785 143.553 77.4381 143.443 77.2585C143.334 77.079 143.284 76.8695 143.3 76.6599C143.3 76.0199 144.04 75.6599 144.18 75.5599C144.268 75.5171 144.366 75.5001 144.464 75.5107C144.561 75.5213 144.653 75.5591 144.73 75.6199C144.73 75.4599 144.73 75.2899 144.73 75.1299C144.73 74.9973 144.783 74.8701 144.877 74.7763C144.97 74.6826 145.098 74.6299 145.23 74.6299C145.363 74.6299 145.49 74.6826 145.584 74.7763C145.677 74.8701 145.73 74.9973 145.73 75.1299C145.73 75.7499 145.54 77.2399 144.8 77.6299C144.694 77.7229 144.567 77.7882 144.43 77.8199ZM144.31 76.7299C144.352 76.7529 144.393 76.7797 144.43 76.8099C144.483 76.7263 144.524 76.6353 144.55 76.5399C144.463 76.5938 144.383 76.6575 144.31 76.7299Z" fill="#2C2D2F"/>
<path d="M151.18 63C151.18 63 153.84 71.86 161.26 72.17L164.52 67.17L151.18 63Z" fill="#2C2D2F"/>
<path d="M184 38.6001C170.22 35.3701 163.09 43.3501 163.09 43.3501C163.09 43.3501 153.61 52.0001 150 61.6801C150 61.6801 157.41 70.9101 164.92 69.7601C164.92 69.7601 171.72 61.2401 173.72 56.3801" fill="white"/>
<path d="M163.6 70.36C156.42 70.36 149.91 62.36 149.6 61.99L149.42 61.77L149.52 61.5C153.12 51.77 162.68 43.07 162.78 42.98C164.336 41.4266 166.171 40.1814 168.19 39.31C173.222 37.1318 178.841 36.7125 184.14 38.12L183.91 39.12C170.6 35.99 163.56 43.64 163.49 43.72C163.42 43.8 154.15 52.22 150.56 61.61C151.71 62.96 158.2 70.14 164.64 69.32C165.56 68.15 171.44 60.6 173.25 56.22L174.18 56.6C172.18 61.47 165.58 69.75 165.3 70.1L165.17 70.25H164.98C164.524 70.3248 164.062 70.3616 163.6 70.36Z" fill="#2C2D2F"/>
<path d="M169.614 62.5483L164.529 69.4712L165.335 70.0632L170.42 63.1403L169.614 62.5483Z" fill="#2C2D2F"/>
<path d="M202.34 34L195.84 42.81C195.042 43.8689 194.648 45.1777 194.729 46.5011C194.809 47.8246 195.359 49.0759 196.28 50.03C196.956 50.7062 197.803 51.1866 198.73 51.42C200.048 51.7368 201.436 51.5648 202.637 50.9359C203.838 50.307 204.77 49.2638 205.26 48L209.08 38.27C206.37 37.7601 203.959 36.2322 202.34 34Z" fill="white"/>
<path d="M200.07 52C199.578 52.005 199.087 51.9444 198.61 51.82C197.592 51.5673 196.662 51.0418 195.92 50.3C194.924 49.2578 194.33 47.8967 194.242 46.4579C194.154 45.0191 194.578 43.5957 195.44 42.44L202.36 33.05L202.75 33.64C204.308 35.732 206.596 37.1603 209.16 37.64L209.78 37.73L205.72 48.0401C205.286 49.1917 204.514 50.1857 203.506 50.8921C202.498 51.5986 201.301 51.9847 200.07 52ZM202.34 34.76L196.24 43.03C195.517 43.9925 195.16 45.1802 195.231 46.3816C195.303 47.583 195.798 48.72 196.63 49.59C197.242 50.2092 198.014 50.6456 198.86 50.85C200.059 51.1403 201.322 50.9836 202.414 50.4093C203.505 49.835 204.35 48.8824 204.79 47.73L208.4 38.55C206.026 37.9911 203.899 36.6748 202.34 34.8V34.76Z" fill="#2C2D2F"/>
<path d="M207.34 42.2599C207.34 42.2599 203.64 41.0599 203.01 38.6099C202.637 37.1613 202.522 35.6584 202.67 34.1699L209.32 37.7399L207.34 42.2599Z" fill="#2C2D2F"/>
<path d="M211 38.4001C216.893 38.4001 221.67 33.6229 221.67 27.7301C221.67 21.8372 216.893 17.0601 211 17.0601C205.107 17.0601 200.33 21.8372 200.33 27.7301C200.33 33.6229 205.107 38.4001 211 38.4001Z" fill="white"/>
<path d="M211 38.89C209.302 38.8846 207.627 38.4921 206.103 37.7422C204.58 36.9923 203.247 35.9048 202.207 34.5625C201.166 33.2201 200.446 31.6582 200.1 29.9955C199.754 28.3329 199.791 26.6132 200.21 24.9673C200.629 23.3214 201.417 21.7926 202.515 20.4971C203.613 19.2017 204.992 18.1737 206.547 17.4913C208.103 16.809 209.793 16.4902 211.49 16.5593C213.187 16.6284 214.846 17.0835 216.34 17.89C218.539 19.0665 220.281 20.9458 221.287 23.2279C222.293 25.51 222.506 28.0634 221.891 30.4806C221.277 32.8977 219.87 35.0393 217.896 36.5636C215.922 38.0878 213.494 38.9069 211 38.89ZM211 17.55C208.735 17.5455 206.532 18.2976 204.743 19.6869C202.953 21.0763 201.679 23.0234 201.122 25.2194C200.565 27.4154 200.757 29.7345 201.668 31.8089C202.579 33.8833 204.156 35.5941 206.15 36.67C207.511 37.4045 209.022 37.8189 210.568 37.8816C212.113 37.9443 213.652 37.6537 215.069 37.0318C216.485 36.4099 217.741 35.4732 218.74 34.2929C219.74 33.1126 220.457 31.7198 220.838 30.2205C221.218 28.7212 221.251 27.155 220.935 25.6409C220.619 24.1268 219.961 22.7048 219.013 21.4831C218.064 20.2613 216.85 19.272 215.461 18.5905C214.073 17.9089 212.547 17.5531 211 17.55Z" fill="#2C2D2F"/>
<path d="M206.49 18.06C206.49 18.06 203.18 11.83 208.72 8.85995C214.26 5.88995 218.65 15.86 218.65 15.86C218.65 15.86 220.71 12.6 224.72 16.23C224.72 16.23 228 19.6 224.29 24.02C224.29 24.02 230.13 23.2 228.62 27.87C228.62 27.87 226.62 33.63 218.73 35.37C218.73 35.37 219.17 33.75 218.45 33.74C217.73 33.73 216.84 34.28 216.02 33.91C215.2 33.54 219.27 26.57 219.27 26.57L206.49 18.06Z" fill="#2C2D2F"/>
<path d="M218.91 19.6801C218.877 19.6742 218.845 19.6616 218.817 19.6431C218.789 19.6247 218.765 19.6007 218.746 19.5727C218.727 19.5447 218.715 19.5132 218.708 19.4801C218.702 19.447 218.703 19.413 218.71 19.3801C218.978 18.2395 218.898 17.0447 218.48 15.9501C218.452 15.8916 218.448 15.8244 218.468 15.7628C218.489 15.7013 218.532 15.6501 218.59 15.6201C218.618 15.6033 218.65 15.5927 218.683 15.5892C218.716 15.5857 218.749 15.5893 218.78 15.5997C218.811 15.6101 218.84 15.6272 218.864 15.6497C218.888 15.6722 218.907 15.6996 218.92 15.7301C219.413 16.9178 219.511 18.2324 219.2 19.4801C219.188 19.545 219.15 19.6024 219.096 19.6399C219.042 19.6773 218.975 19.6918 218.91 19.6801Z" fill="white"/>
<path d="M222.45 24.5101C222.411 24.5093 222.373 24.5 222.339 24.4827C222.304 24.4654 222.274 24.4405 222.25 24.4101C222.21 24.357 222.193 24.2903 222.202 24.2247C222.212 24.1591 222.247 24.0998 222.3 24.0601C225.3 21.9101 224.6 19.3501 224.57 19.2501C224.559 19.2186 224.555 19.1852 224.558 19.1521C224.561 19.119 224.571 19.0868 224.587 19.0577C224.603 19.0286 224.625 19.0031 224.651 18.9828C224.677 18.9625 224.708 18.948 224.74 18.9401C224.802 18.9211 224.87 18.9272 224.927 18.957C224.985 18.9869 225.029 19.0382 225.05 19.1001C225.05 19.1001 225.89 22.1001 222.6 24.4601C222.557 24.4939 222.504 24.5116 222.45 24.5101Z" fill="white"/>
<path d="M208.51 17.6001H208.39C205.22 15.7201 207.58 11.1501 207.6 11.1001C207.631 11.0404 207.684 10.9953 207.747 10.9747C207.811 10.954 207.88 10.9596 207.94 10.9901C208 11.0206 208.045 11.0735 208.066 11.1373C208.086 11.2011 208.081 11.2704 208.05 11.3301C208.05 11.3301 205.88 15.5301 208.64 17.1701C208.697 17.2035 208.738 17.2579 208.755 17.3216C208.772 17.3852 208.763 17.453 208.73 17.5101C208.704 17.5422 208.67 17.5672 208.631 17.5829C208.593 17.5986 208.551 17.6045 208.51 17.6001Z" fill="white"/>
<path d="M221.08 33.92C221.04 33.9207 221 33.9109 220.965 33.8916C220.93 33.8723 220.901 33.8442 220.88 33.81C220.861 33.7832 220.847 33.7528 220.84 33.7206C220.832 33.6884 220.832 33.6551 220.837 33.6225C220.843 33.59 220.855 33.5589 220.872 33.531C220.89 33.5031 220.913 33.479 220.94 33.46C225.33 30.46 226.19 28.65 226.31 27.86C226.34 27.7513 226.347 27.6375 226.332 27.5258C226.317 27.414 226.278 27.3066 226.22 27.21C226.176 27.1622 226.152 27.0998 226.152 27.035C226.152 26.9703 226.176 26.9079 226.22 26.86C226.267 26.8142 226.33 26.7886 226.395 26.7886C226.46 26.7886 226.523 26.8142 226.57 26.86C226.672 27.0031 226.744 27.1658 226.78 27.338C226.816 27.5101 226.816 27.6879 226.78 27.86C226.65 28.93 225.58 30.86 221.19 33.86C221.159 33.8894 221.121 33.9101 221.08 33.92Z" fill="white"/>
<path d="M217.05 33.9999C217.05 33.9999 219.79 31.3799 220.38 32.8299C221.83 36.4099 217.38 36.4699 217.38 36.4699" fill="white"/>
<path d="M217.36 37C217.227 37 217.1 36.9473 217.007 36.8535C216.913 36.7597 216.86 36.6326 216.86 36.5C216.859 36.4348 216.87 36.37 216.894 36.3094C216.919 36.2488 216.954 36.1936 217 36.147C217.046 36.1004 217.1 36.0634 217.16 36.0382C217.22 36.0129 217.285 35.9999 217.35 36C217.83 36.0076 218.307 35.9185 218.752 35.7381C219.197 35.5577 219.601 35.2897 219.94 34.95C220.099 34.6568 220.183 34.3285 220.183 33.995C220.183 33.6614 220.099 33.3331 219.94 33.04C219.94 32.94 219.87 32.93 219.84 32.93C219.41 32.83 218.24 33.61 217.42 34.39C217.374 34.4411 217.318 34.4822 217.255 34.5107C217.193 34.5392 217.125 34.5545 217.056 34.5555C216.987 34.5566 216.919 34.5435 216.856 34.517C216.792 34.4905 216.735 34.4512 216.687 34.4016C216.64 34.3519 216.603 34.293 216.579 34.2284C216.555 34.1639 216.545 34.0951 216.549 34.0264C216.553 33.9578 216.571 33.8907 216.602 33.8293C216.634 33.768 216.677 33.7137 216.73 33.67C217.08 33.34 218.88 31.67 220.05 31.95C220.237 31.9901 220.41 32.0773 220.554 32.2033C220.697 32.3294 220.806 32.49 220.87 32.67C221.101 33.1099 221.216 33.6011 221.206 34.0977C221.195 34.5943 221.059 35.0802 220.81 35.51C219.81 36.95 217.49 37 217.39 37H217.36Z" fill="#2C2D2F"/>
<path d="M202.78 60.35C202.692 60.3516 202.606 60.3291 202.53 60.2851C202.454 60.241 202.392 60.177 202.35 60.1L197.27 51.45L187.57 52.53C187.479 52.5399 187.387 52.5246 187.304 52.4858C187.221 52.447 187.151 52.3862 187.1 52.31C187.051 52.2321 187.025 52.142 187.025 52.05C187.025 51.9581 187.051 51.868 187.1 51.79L193.33 40.27C193.36 40.2116 193.401 40.1597 193.45 40.1174C193.5 40.0751 193.558 40.0432 193.621 40.0237C193.683 40.0041 193.749 39.9972 193.814 40.0035C193.879 40.0097 193.942 40.0289 194 40.06C194.059 40.0906 194.111 40.1325 194.153 40.1833C194.196 40.2341 194.228 40.2929 194.247 40.3561C194.267 40.4194 194.274 40.4859 194.267 40.5518C194.261 40.6177 194.241 40.6817 194.21 40.74L188.4 51.43L197.48 50.43C197.575 50.4177 197.671 50.4339 197.757 50.4767C197.842 50.5194 197.913 50.5868 197.96 50.67L202.72 58.77L207.67 47.77C207.725 47.6495 207.825 47.5556 207.948 47.5087C208.072 47.4619 208.209 47.4659 208.33 47.52C208.391 47.546 208.445 47.5839 208.491 47.6314C208.537 47.679 208.572 47.7353 208.595 47.7969C208.619 47.8585 208.629 47.9242 208.627 47.99C208.624 48.0559 208.608 48.1205 208.58 48.18L203.23 60.08C203.193 60.1638 203.133 60.2353 203.057 60.2866C202.981 60.3379 202.892 60.3668 202.8 60.37L202.78 60.35Z" fill="#2C2D2F"/>
<path d="M188.768 114.476L174.987 159.442L175.943 159.735L189.725 114.769L188.768 114.476Z" fill="#2C2D2F"/>
<path d="M51.8401 247.57C35.9701 246.49 9.14005 247.63 5.26005 247.63C-9.65995 247.63 15.7801 235.03 21.5401 235.16C29.9201 235.23 39.6501 237.9 47.0401 241.41C41.1701 234.71 33.5301 231.73 25.6301 229.28C19.8501 227.83 0.710053 225.91 5.28656e-05 217.77C-1.61995 199.4 42.0001 223.38 47.5801 229.3C44.5801 222 25.1501 187.99 40.2401 182.12C52.7301 177.63 47.6101 215.62 52.6801 221.29C56.7501 214.09 61.4601 200.02 67.1301 193.6C79.72 179.37 91.3101 183.6 82.3301 194.3C74.3301 203.87 61.7801 217.13 59.4001 231.66C66.4001 226.5 71.2501 220.34 78.7801 216.74C83.19 214.27 103.78 206.43 103.64 216.17C103.1 228.28 67.0001 230.69 60.1001 239.79C66.44 242.79 76.2901 237.05 84.1601 238.19C91.7601 238.54 106.75 245.79 93.4201 247.04C81.9001 248.12 71.2901 247.21 53.2301 247.26" fill="#46D6A2"/>
<path d="M181.21 247.57C165.34 246.49 138.51 247.63 134.63 247.63C119.71 247.63 145.15 235.03 150.91 235.16C159.29 235.23 169.02 237.9 176.41 241.41C170.54 234.71 162.9 231.73 155 229.28C149.22 227.83 130.08 225.91 129.41 217.77C127.79 199.4 171.41 223.38 176.99 229.3C173.99 222 154.56 187.99 169.65 182.12C182.14 177.63 177.02 215.62 182.09 221.29C186.16 214.09 190.87 200.02 196.54 193.6C209.13 179.37 220.72 183.6 211.74 194.3C203.74 203.87 191.18 217.13 188.81 231.66C195.81 226.5 200.66 220.34 208.19 216.74C212.6 214.27 233.19 206.43 233.05 216.17C232.47 228.28 196.39 230.69 189.47 239.79C195.81 242.79 205.66 237.05 213.53 238.19C221.13 238.54 236.12 245.79 222.78 247.04C211.27 248.12 200.66 247.21 182.6 247.26" fill="#46D6A2"/>
<path d="M149.95 0.5H58.54C50.6368 0.5 44.23 6.90681 44.23 14.81V232.95C44.23 240.853 50.6368 247.26 58.54 247.26H149.95C157.853 247.26 164.26 240.853 164.26 232.95V14.81C164.26 6.90681 157.853 0.5 149.95 0.5Z" fill="white"/>
<path d="M150 247.76H58.55C54.6307 247.757 50.8717 246.203 48.0947 243.438C45.3177 240.672 43.7485 236.919 43.73 233V14.81C43.7353 10.882 45.2987 7.11662 48.0771 4.34006C50.8555 1.56351 54.622 0.00264509 58.55 0L150 0C153.927 0.00264893 157.692 1.56383 160.469 4.34067C163.246 7.11751 164.807 10.883 164.81 14.81V233C164.794 236.918 163.227 240.671 160.452 243.437C157.676 246.203 153.918 247.757 150 247.76ZM58.55 1C54.8872 1.00264 51.3751 2.45815 48.7842 5.04717C46.1933 7.63619 44.7353 11.1473 44.73 14.81V233C44.7353 236.663 46.1933 240.174 48.7842 242.763C51.3751 245.352 54.8872 246.807 58.55 246.81H150C153.652 246.792 157.149 245.329 159.727 242.742C162.305 240.154 163.755 236.652 163.76 233V14.81C163.755 11.1576 162.305 7.65559 159.727 5.06829C157.149 2.48098 153.652 1.01848 150 1H58.55Z" fill="#2C2D2F"/>
<path d="M164.03 0.5H72.7801C64.8328 0.5 58.3901 6.94262 58.3901 14.89V232.87C58.3901 240.817 64.8328 247.26 72.7801 247.26H164.03C171.978 247.26 178.42 240.817 178.42 232.87V14.89C178.42 6.94262 171.978 0.5 164.03 0.5Z" fill="white"/>
<path d="M164 247.76H72.7901C68.841 247.757 65.0541 246.188 62.2607 243.396C59.4673 240.605 57.8954 236.819 57.8901 232.87V14.87C57.9007 10.9243 59.4749 7.14365 62.2677 4.35642C65.0606 1.56918 68.8444 0.00263216 72.7901 0L164 0C167.948 0.00529149 171.732 1.57575 174.523 4.36702C177.314 7.15829 178.885 10.9426 178.89 14.89V232.89C178.88 236.834 177.307 240.613 174.516 243.4C171.725 246.187 167.944 247.755 164 247.76ZM72.7901 1C69.1062 1.00264 65.5737 2.46658 62.9678 5.0706C60.3619 7.67462 58.8954 11.206 58.8901 14.89V232.89C58.8954 236.574 60.3619 240.105 62.9678 242.709C65.5737 245.313 69.1062 246.777 72.7901 246.78H164C167.683 246.777 171.215 245.313 173.819 242.709C176.423 240.104 177.887 236.573 177.89 232.89V14.89C177.887 11.207 176.423 7.67552 173.819 5.07121C171.215 2.46691 167.683 1.00265 164 1H72.7901Z" fill="#2C2D2F"/>
<path d="M163.24 3H72.86C66.3099 3 61 8.3099 61 14.86V206.04C61 212.59 66.3099 217.9 72.86 217.9H163.24C169.79 217.9 175.1 212.59 175.1 206.04V14.86C175.1 8.3099 169.79 3 163.24 3Z" fill="white"/>
<path d="M163.6 218.86H73.2201C69.9446 218.857 66.8038 217.556 64.4867 215.24C62.1696 212.925 60.8654 209.786 60.8601 206.51V15.32C60.8733 12.0497 62.1811 8.91767 64.4973 6.60894C66.8135 4.3002 69.9498 3.00263 73.2201 3.00002H163.6C166.877 2.99468 170.022 4.28842 172.346 6.59773C174.67 8.90704 175.984 12.0436 176 15.32V206.51C175.997 208.135 175.675 209.744 175.05 211.245C174.425 212.745 173.511 214.108 172.359 215.255C171.208 216.402 169.841 217.31 168.339 217.929C166.836 218.548 165.225 218.864 163.6 218.86ZM73.2201 4.00002C70.215 4.00263 67.3331 5.19484 65.2044 7.31604C63.0757 9.43724 61.8733 12.3149 61.8601 15.32V206.51C61.8628 209.521 63.0608 212.408 65.1909 214.536C67.321 216.665 70.209 217.86 73.2201 217.86H163.6C165.094 217.864 166.574 217.573 167.956 217.005C169.337 216.437 170.594 215.602 171.652 214.548C172.711 213.493 173.552 212.241 174.126 210.862C174.7 209.483 174.997 208.004 175 206.51V15.32C174.984 12.3088 173.776 9.42661 171.639 7.30484C169.502 5.18306 166.611 3.99468 163.6 4.00002H73.2201Z" fill="#2C2D2F"/>
<path d="M66.5699 245.68C66.2699 245.53 65.9799 245.37 65.6899 245.19C65.9999 245.37 66.2699 245.53 66.5699 245.68Z" fill="#46D6A2"/>
<path d="M66.5699 2.09009C66.2699 2.24009 65.9799 2.40009 65.6899 2.57009C65.9999 2.40009 66.2699 2.24009 66.5699 2.09009Z" fill="#46D6A2"/>
<path d="M49.01 35.0801C49.01 36.1736 49.8942 37.0601 50.985 37.0601C52.0757 37.0601 52.96 36.1736 52.96 35.0801V22.2401C52.96 21.1465 52.0757 20.2601 50.985 20.2601C49.8942 20.2601 49.01 21.1465 49.01 22.2401V35.0801Z" fill="#2C2D2F"/>
<path d="M122.14 242.82C127.602 242.82 132.03 238.392 132.03 232.93C132.03 227.468 127.602 223.04 122.14 223.04C116.678 223.04 112.25 227.468 112.25 232.93C112.25 238.392 116.678 242.82 122.14 242.82Z" fill="#2C2D2F"/>
<path d="M99.53 11.1201L129.03 11.1201C129.825 11.1201 130.47 10.4754 130.47 9.68012C130.47 8.88483 129.825 8.24012 129.03 8.24012L99.53 8.24012C98.7347 8.24012 98.09 8.88483 98.09 9.68012C98.09 10.4754 98.7347 11.1201 99.53 11.1201Z" fill="#2C2D2F"/>
<path d="M132.39 9.68012C132.39 10.4754 133.035 11.1201 133.83 11.1201C134.625 11.1201 135.27 10.4754 135.27 9.68012C135.27 8.88483 134.625 8.24012 133.83 8.24012C133.035 8.24012 132.39 8.88483 132.39 9.68012Z" fill="#2C2D2F"/>
<path d="M118.68 135.4L119.91 125.17C119.387 124.68 119.024 124.045 118.867 123.347C118.71 122.648 118.767 121.918 119.03 121.252C119.293 120.586 119.75 120.015 120.342 119.612C120.935 119.209 121.634 118.994 122.35 118.994C123.066 118.994 123.766 119.209 124.358 119.612C124.95 120.015 125.407 120.586 125.67 121.252C125.934 121.918 125.99 122.648 125.833 123.347C125.676 124.045 125.313 124.68 124.79 125.17L126 135.4H118.68Z" fill="white"/>
<path d="M115 110.27H110.5C109.174 110.27 107.902 110.797 106.964 111.734C106.027 112.672 105.5 113.944 105.5 115.27V120.27" fill="white"/>
<path d="M190.22 248.13H36.0801C35.9475 248.13 35.8203 248.077 35.7265 247.983C35.6328 247.89 35.5801 247.762 35.5801 247.63C35.5801 247.497 35.6328 247.37 35.7265 247.276C35.8203 247.183 35.9475 247.13 36.0801 247.13H190.22C190.353 247.13 190.48 247.183 190.574 247.276C190.667 247.37 190.72 247.497 190.72 247.63C190.72 247.762 190.667 247.89 190.574 247.983C190.48 248.077 190.353 248.13 190.22 248.13Z" fill="#2C2D2F"/>
<g clip-path="url(#clip1)">
<path d="M93.7915 122.616C92.9042 122.616 93.0001 114.127 93.0001 113.54C93.0001 112.352 92.9042 100.998 94.0433 100.998H96.7531C97.0768 100.998 97.3646 101.153 97.3646 101.561C97.3646 102.065 96.4533 104.403 96.4294 110.986C96.4294 111.873 96.4294 113.012 96.7651 113.012C97.6284 113.012 99.9306 109.667 99.9306 106.933C99.9306 106.297 100.182 106.405 100.71 106.405H102.257C102.76 106.405 103.348 106.249 103.348 106.957C103.348 110.458 100.59 112.736 100.59 113.24C100.59 113.767 101.633 114.175 102.664 115.47C103.696 116.765 104.739 118.911 104.739 121.933C104.739 122.688 104.259 122.616 103.624 122.616H101.573C100.89 122.616 100.662 122.64 100.638 121.837C100.614 118.336 98.9593 115.518 98.2039 115.518C97.8682 115.518 96.7051 115.902 96.7051 117.113C96.7051 120.206 97.3406 121.849 97.3406 122.305C97.3406 122.58 97.0888 122.604 96.7051 122.604H93.7915V122.616Z" fill="#4FB17B"/>
<path d="M107.496 115.194C107.496 109.055 110.89 106.022 114.295 106.022C117.077 106.022 119.439 107.592 119.439 110.59C119.439 116.034 111.273 114.895 111.273 117.533C111.273 118.72 113.204 119.583 114.463 119.583C118.623 119.583 118.623 116.417 118.971 116.417C119.355 116.417 119.427 117.736 119.427 117.94C119.427 121.166 116.945 123.012 113.899 123.012C109.367 123 107.496 119.247 107.496 115.194ZM110.914 112.676C110.914 112.952 111.045 113.228 111.369 113.228C111.669 113.228 116.285 112.209 116.285 110.926C116.285 109.679 115.122 108.995 114.151 108.995C112.113 109.007 110.914 111.214 110.914 112.676Z" fill="#4FB17B"/>
<path d="M133.324 122.616C132.544 122.616 132.185 122.844 132.185 118.48V111.034C132.185 105.638 132.592 106.01 136.897 106.01C142.58 106.01 143.995 108.671 143.995 111.357C143.995 115.314 140.122 119.295 138.168 119.295C137.712 119.295 137.233 118.683 136.825 118.204C136.417 117.748 136.093 117.269 135.914 117.269C135.662 117.269 135.734 117.724 135.734 118.18C135.734 119.954 136.213 121.981 136.213 122.257C136.213 122.664 135.686 122.616 135.398 122.616H133.324ZM140.854 111.789C140.854 110.146 139.511 108.995 137.916 108.995C136.573 108.995 135.614 109.091 135.614 114.139C135.614 115.026 135.638 116.046 136.777 116.046C139.031 116.046 140.854 113.899 140.854 111.789Z" fill="#4FB17B"/>
<path d="M129.355 118.132C128.696 119.751 127.64 121.058 126.118 121.777C125.074 122.269 123.971 122.616 122.796 122.388C122.497 122.329 122.305 122.317 122.461 121.897C123.791 118.324 123.276 114.811 122.185 111.309C121.657 109.619 121.154 107.928 120.962 106.141C120.482 101.537 123.947 97.5443 127.976 98.036C128.348 98.0839 128.516 98.1678 128.348 98.6235C127.341 101.297 127.449 104.031 128 106.801C128.384 108.719 129.127 110.518 129.547 112.412C129.991 114.331 130.074 116.225 129.355 118.132ZM125.758 119.847C126.885 117.832 127.197 115.794 126.681 113.54C126.238 111.609 125.71 109.703 125.374 107.736C124.991 105.434 124.979 103.192 126.01 101.105C126.118 100.89 126.238 100.662 126.226 100.302C125.674 100.578 125.302 101.046 124.967 101.561C123.791 103.348 123.72 105.398 124.163 107.532C124.511 109.223 124.919 110.89 125.326 112.556C125.89 114.87 126.034 117.245 125.758 119.847Z" fill="#4FB17B"/>
</g>
</g>
<defs>
<clipPath id="clip0">
<rect width="247.4" height="248.13" fill="white"/>
</clipPath>
<clipPath id="clip1">
<rect width="50.9952" height="25" fill="white" transform="translate(93 98)"/>
</clipPath>
</defs>
</svg>
