<svg viewBox="0 0 192 275" fill="none" xmlns="http://www.w3.org/2000/svg">
<path d="M156.647 167.913C173.119 167.913 186.472 154.553 186.472 138.073C186.472 121.593 173.119 108.233 156.647 108.233C140.176 108.233 126.823 121.593 126.823 138.073C126.823 154.553 140.176 167.913 156.647 167.913Z" fill="white"/>
<path d="M156.647 168.818C150.573 168.818 144.635 167.016 139.585 163.639C134.534 160.263 130.598 155.464 128.273 149.849C125.949 144.234 125.341 138.056 126.526 132.095C127.711 126.135 130.636 120.66 134.931 116.362C139.226 112.065 144.698 109.138 150.656 107.953C156.613 106.767 162.788 107.376 168.4 109.701C174.012 112.027 178.809 115.966 182.183 121.019C185.558 126.072 187.359 132.013 187.359 138.09C187.359 146.24 184.124 154.055 178.364 159.818C172.604 165.581 164.793 168.818 156.647 168.818ZM156.647 109.069C150.911 109.069 145.303 110.771 140.533 113.96C135.763 117.149 132.045 121.682 129.85 126.984C127.654 132.287 127.08 138.122 128.199 143.752C129.318 149.381 132.081 154.552 136.137 158.611C140.194 162.67 145.362 165.434 150.989 166.553C156.615 167.673 162.447 167.098 167.747 164.902C173.047 162.705 177.577 158.986 180.765 154.213C183.952 149.441 185.653 143.83 185.653 138.09C185.653 130.393 182.597 123.012 177.157 117.569C171.718 112.127 164.34 109.069 156.647 109.069Z" fill="#2C2D2F"/>
<path d="M150.181 167.913C166.652 167.913 180.005 154.553 180.005 138.073C180.005 121.593 166.652 108.233 150.181 108.233C133.709 108.233 120.356 121.593 120.356 138.073C120.356 154.553 133.709 167.913 150.181 167.913Z" fill="white"/>
<path d="M150.147 168.818C144.072 168.818 138.135 167.016 133.084 163.639C128.034 160.263 124.097 155.464 121.773 149.849C119.448 144.234 118.84 138.056 120.025 132.095C121.21 126.135 124.135 120.66 128.43 116.362C132.725 112.065 138.198 109.138 144.155 107.953C150.113 106.767 156.288 107.376 161.9 109.701C167.511 112.027 172.308 115.966 175.683 121.019C179.057 126.072 180.858 132.013 180.858 138.09C180.858 146.24 177.623 154.055 171.863 159.818C166.104 165.581 158.292 168.818 150.147 168.818ZM150.147 109.069C144.41 109.069 138.802 110.771 134.032 113.96C129.262 117.149 125.544 121.682 123.349 126.984C121.154 132.287 120.579 138.122 121.698 143.752C122.818 149.381 125.58 154.552 129.637 158.611C133.693 162.67 138.861 165.434 144.488 166.553C150.114 167.673 155.947 167.098 161.247 164.902C166.547 162.705 171.077 158.986 174.264 154.213C177.451 149.441 179.152 143.83 179.152 138.09C179.152 130.393 176.096 123.012 170.657 117.569C165.217 112.127 157.839 109.069 150.147 109.069Z" fill="#2C2D2F"/>
<path d="M150.181 159.241C161.865 159.241 171.338 149.764 171.338 138.073C171.338 126.382 161.865 116.905 150.181 116.905C138.496 116.905 129.024 126.382 129.024 138.073C129.024 149.764 138.496 159.241 150.181 159.241Z" fill="#E9A92B"/>
<path opacity="0.2" d="M172.43 118.083L130.269 160.283C126.984 157.19 124.446 153.39 122.847 149.169L161.408 110.589C165.599 112.224 169.367 114.786 172.43 118.083Z" fill="white"/>
<path opacity="0.2" d="M179.954 132.969L145.147 167.794C142.033 167.221 139.031 166.149 136.258 164.618L176.764 124.075C178.306 126.845 179.383 129.85 179.954 132.969Z" fill="white"/>
<path d="M111.057 258.646H41.6485C40.9324 258.646 40.3518 259.227 40.3518 259.943V272.2C40.3518 272.917 40.9324 273.498 41.6485 273.498H111.057C111.773 273.498 112.354 272.917 112.354 272.2V259.943C112.354 259.227 111.773 258.646 111.057 258.646Z" fill="white"/>
<path d="M111.057 274.334H41.6486C41.0784 274.334 40.5316 274.107 40.1284 273.704C39.7253 273.301 39.4988 272.753 39.4988 272.183V259.943C39.4988 259.373 39.7253 258.825 40.1284 258.422C40.5316 258.019 41.0784 257.792 41.6486 257.792H111.057C111.34 257.79 111.621 257.844 111.883 257.951C112.145 258.058 112.382 258.217 112.583 258.417C112.783 258.617 112.941 258.855 113.048 259.117C113.155 259.379 113.209 259.66 113.207 259.943V272.183C113.209 272.466 113.155 272.747 113.048 273.009C112.941 273.271 112.783 273.509 112.583 273.709C112.382 273.909 112.145 274.068 111.883 274.175C111.621 274.282 111.34 274.336 111.057 274.334ZM41.6486 259.499C41.531 259.499 41.4181 259.546 41.3349 259.629C41.2517 259.712 41.205 259.825 41.205 259.943V272.183C41.205 272.301 41.2517 272.414 41.3349 272.497C41.4181 272.58 41.531 272.627 41.6486 272.627H111.057C111.116 272.627 111.173 272.615 111.227 272.593C111.281 272.571 111.33 272.538 111.371 272.497C111.412 272.456 111.445 272.407 111.467 272.353C111.489 272.299 111.501 272.241 111.501 272.183V259.943C111.501 259.885 111.489 259.827 111.467 259.773C111.445 259.719 111.412 259.67 111.371 259.629C111.33 259.588 111.281 259.555 111.227 259.533C111.173 259.511 111.116 259.499 111.057 259.499H41.6486Z" fill="#2C2D2F"/>
<path d="M93.1933 258.646L82.7683 273.668H93.1933L104.215 258.646H93.1933Z" fill="#2C2D2F"/>
<path d="M40.3518 261.053H112.354L109.948 258.646H42.7746L40.3518 261.053Z" fill="#2C2D2F"/>
<path d="M111.057 243.606H41.6485C40.9324 243.606 40.3518 244.187 40.3518 244.904V257.161C40.3518 257.877 40.9324 258.458 41.6485 258.458H111.057C111.773 258.458 112.354 257.877 112.354 257.161V244.904C112.354 244.187 111.773 243.606 111.057 243.606Z" fill="white"/>
<path d="M111.057 259.294H41.6486C41.0798 259.29 40.5356 259.062 40.1334 258.66C39.7312 258.257 39.5032 257.713 39.4988 257.144V244.904C39.4988 244.332 39.7247 243.783 40.1274 243.377C40.5301 242.97 41.0769 242.74 41.6486 242.736H111.057C111.341 242.736 111.622 242.792 111.884 242.901C112.146 243.01 112.384 243.17 112.584 243.372C112.783 243.573 112.941 243.812 113.048 244.075C113.155 244.338 113.209 244.62 113.207 244.904V257.144C113.207 257.426 113.152 257.706 113.043 257.967C112.935 258.228 112.777 258.465 112.577 258.664C112.378 258.864 112.141 259.023 111.88 259.131C111.619 259.239 111.34 259.294 111.057 259.294ZM41.6486 244.443C41.5294 244.447 41.4166 244.498 41.3338 244.584C41.2511 244.67 41.2049 244.784 41.205 244.904V257.144C41.205 257.261 41.2517 257.374 41.3349 257.457C41.4181 257.541 41.531 257.587 41.6486 257.587H111.057C111.116 257.587 111.173 257.576 111.227 257.554C111.281 257.531 111.33 257.499 111.371 257.457C111.412 257.416 111.445 257.367 111.467 257.313C111.489 257.26 111.501 257.202 111.501 257.144V244.904C111.501 244.784 111.455 244.67 111.372 244.584C111.289 244.498 111.176 244.447 111.057 244.443H41.6486Z" fill="#2C2D2F"/>
<path d="M93.1933 243.606L82.7683 258.646H93.1933L104.215 243.606H93.1933Z" fill="#2C2D2F"/>
<path d="M40.3518 246.03H112.354L109.948 243.606H42.7746L40.3518 246.03Z" fill="#2C2D2F"/>
<path d="M111.057 228.072H41.6485C40.9324 228.072 40.3518 228.652 40.3518 229.369V241.626C40.3518 242.342 40.9324 242.923 41.6485 242.923H111.057C111.773 242.923 112.354 242.342 112.354 241.626V229.369C112.354 228.652 111.773 228.072 111.057 228.072Z" fill="white"/>
<path d="M111.057 243.76H41.6486C41.0798 243.755 40.5356 243.527 40.1334 243.125C39.7312 242.723 39.5032 242.178 39.4988 241.609V229.369C39.4988 228.799 39.7253 228.251 40.1284 227.848C40.5316 227.445 41.0784 227.218 41.6486 227.218H111.057C111.34 227.216 111.621 227.27 111.883 227.377C112.145 227.484 112.382 227.643 112.583 227.843C112.783 228.043 112.941 228.281 113.048 228.543C113.155 228.805 113.209 229.086 113.207 229.369V241.609C113.207 241.891 113.152 242.171 113.043 242.432C112.935 242.693 112.777 242.93 112.577 243.13C112.378 243.33 112.141 243.488 111.88 243.596C111.619 243.704 111.34 243.76 111.057 243.76ZM41.6486 228.925C41.531 228.925 41.4181 228.972 41.3349 229.055C41.2517 229.138 41.205 229.251 41.205 229.369V241.609C41.205 241.727 41.2517 241.84 41.3349 241.923C41.4181 242.006 41.531 242.053 41.6486 242.053H111.057C111.116 242.053 111.173 242.041 111.227 242.019C111.281 241.997 111.33 241.964 111.371 241.923C111.412 241.882 111.445 241.833 111.467 241.779C111.489 241.725 111.501 241.667 111.501 241.609V229.369C111.501 229.311 111.489 229.253 111.467 229.199C111.445 229.145 111.412 229.096 111.371 229.055C111.33 229.014 111.281 228.981 111.227 228.959C111.173 228.937 111.116 228.925 111.057 228.925H41.6486Z" fill="#2C2D2F"/>
<path d="M93.1933 228.072L82.7683 243.094H93.1933L104.215 228.072H93.1933Z" fill="#2C2D2F"/>
<path d="M40.3518 230.479H112.354L109.948 228.072H42.7746L40.3518 230.479Z" fill="#2C2D2F"/>
<path d="M111.057 212.52H41.6485C40.9324 212.52 40.3518 213.101 40.3518 213.817V226.074C40.3518 226.791 40.9324 227.372 41.6485 227.372H111.057C111.773 227.372 112.354 226.791 112.354 226.074V213.817C112.354 213.101 111.773 212.52 111.057 212.52Z" fill="white"/>
<path d="M111.057 228.208H41.6486C41.0784 228.208 40.5316 227.981 40.1284 227.578C39.7253 227.175 39.4988 226.628 39.4988 226.057V213.817C39.5032 213.248 39.7312 212.704 40.1334 212.301C40.5356 211.899 41.0798 211.671 41.6486 211.666H111.057C111.34 211.666 111.619 211.722 111.88 211.83C112.141 211.938 112.378 212.097 112.577 212.296C112.777 212.496 112.935 212.733 113.043 212.994C113.152 213.255 113.207 213.535 113.207 213.817V226.057C113.209 226.34 113.155 226.621 113.048 226.883C112.941 227.145 112.783 227.383 112.583 227.583C112.382 227.783 112.145 227.942 111.883 228.049C111.621 228.156 111.34 228.21 111.057 228.208ZM41.6486 213.373C41.531 213.373 41.4181 213.42 41.3349 213.503C41.2517 213.587 41.205 213.699 41.205 213.817V226.057C41.205 226.175 41.2517 226.288 41.3349 226.371C41.4181 226.454 41.531 226.501 41.6486 226.501H111.057C111.116 226.501 111.173 226.49 111.227 226.467C111.281 226.445 111.33 226.412 111.371 226.371C111.412 226.33 111.445 226.281 111.467 226.227C111.489 226.173 111.501 226.115 111.501 226.057V213.817C111.501 213.759 111.489 213.701 111.467 213.647C111.445 213.594 111.412 213.545 111.371 213.503C111.33 213.462 111.281 213.429 111.227 213.407C111.173 213.385 111.116 213.373 111.057 213.373H41.6486Z" fill="#2C2D2F"/>
<path d="M93.1933 212.52L82.7683 227.542H93.1933L104.215 212.52H93.1933Z" fill="#2C2D2F"/>
<path d="M40.3518 214.927H112.354L109.948 212.52H42.7746L40.3518 214.927Z" fill="#2C2D2F"/>
<path d="M111.057 197.48H41.6485C40.9324 197.48 40.3518 198.061 40.3518 198.778V211.035C40.3518 211.751 40.9324 212.332 41.6485 212.332H111.057C111.773 212.332 112.354 211.751 112.354 211.035V198.778C112.354 198.061 111.773 197.48 111.057 197.48Z" fill="white"/>
<path d="M111.057 213.203H41.6486C41.0798 213.198 40.5356 212.97 40.1334 212.568C39.7312 212.165 39.5032 211.621 39.4988 211.052V198.812C39.4988 198.24 39.7247 197.691 40.1274 197.285C40.5301 196.879 41.0769 196.648 41.6486 196.644H111.057C111.341 196.644 111.622 196.7 111.884 196.809C112.146 196.918 112.384 197.078 112.584 197.28C112.783 197.481 112.941 197.72 113.048 197.983C113.155 198.246 113.209 198.528 113.207 198.812V211.052C113.207 211.334 113.152 211.614 113.043 211.875C112.935 212.136 112.777 212.373 112.577 212.573C112.378 212.772 112.141 212.931 111.88 213.039C111.619 213.147 111.34 213.203 111.057 213.203ZM41.6486 198.351C41.5294 198.355 41.4166 198.406 41.3338 198.492C41.2511 198.578 41.2049 198.692 41.205 198.812V211.052C41.205 211.169 41.2517 211.282 41.3349 211.366C41.4181 211.449 41.531 211.496 41.6486 211.496H111.057C111.116 211.496 111.173 211.484 111.227 211.462C111.281 211.44 111.33 211.407 111.371 211.366C111.412 211.324 111.445 211.275 111.467 211.222C111.489 211.168 111.501 211.11 111.501 211.052V198.812C111.501 198.692 111.455 198.578 111.372 198.492C111.289 198.406 111.176 198.355 111.057 198.351H41.6486Z" fill="#2C2D2F"/>
<path d="M93.1933 197.497L82.7683 212.52H93.1933L104.215 197.497H93.1933Z" fill="#2C2D2F"/>
<path d="M40.3518 199.904H112.354L109.948 197.497H42.7746L40.3518 199.904Z" fill="#2C2D2F"/>
<path d="M170.98 258.646H101.571C100.855 258.646 100.274 259.227 100.274 259.943V272.2C100.274 272.917 100.855 273.498 101.571 273.498H170.98C171.696 273.498 172.276 272.917 172.276 272.2V259.943C172.276 259.227 171.696 258.646 170.98 258.646Z" fill="white"/>
<path d="M170.979 274.334H101.588C101.304 274.336 101.023 274.282 100.76 274.175C100.497 274.068 100.258 273.91 100.057 273.71C99.8551 273.51 99.6953 273.272 99.5862 273.01C99.4771 272.748 99.4209 272.467 99.4209 272.183V259.943C99.4209 259.659 99.4771 259.378 99.5862 259.116C99.6953 258.854 99.8551 258.616 100.057 258.416C100.258 258.216 100.497 258.058 100.76 257.951C101.023 257.844 101.304 257.79 101.588 257.792H170.979C171.262 257.79 171.543 257.844 171.805 257.951C172.067 258.058 172.305 258.217 172.505 258.417C172.705 258.617 172.863 258.855 172.97 259.117C173.077 259.379 173.132 259.66 173.129 259.943V272.183C173.132 272.466 173.077 272.747 172.97 273.009C172.863 273.271 172.705 273.509 172.505 273.709C172.305 273.909 172.067 274.068 171.805 274.175C171.543 274.282 171.262 274.336 170.979 274.334ZM101.588 259.499C101.528 259.497 101.469 259.507 101.413 259.528C101.357 259.549 101.306 259.582 101.263 259.623C101.22 259.664 101.186 259.714 101.162 259.769C101.139 259.824 101.127 259.883 101.127 259.943V272.183C101.132 272.302 101.182 272.415 101.268 272.498C101.354 272.581 101.469 272.627 101.588 272.627H170.979C171.038 272.627 171.095 272.615 171.149 272.593C171.203 272.571 171.252 272.538 171.293 272.497C171.334 272.456 171.367 272.407 171.389 272.353C171.412 272.299 171.423 272.241 171.423 272.183V259.943C171.425 259.884 171.416 259.825 171.394 259.77C171.373 259.715 171.34 259.666 171.298 259.624C171.257 259.582 171.207 259.55 171.152 259.528C171.097 259.507 171.038 259.497 170.979 259.499H101.588Z" fill="#2C2D2F"/>
<path d="M153.115 258.646L142.69 273.668H153.115L164.138 258.646H153.115Z" fill="#2C2D2F"/>
<path d="M100.274 261.053H172.276L169.871 258.646H102.697L100.274 261.053Z" fill="#2C2D2F"/>
<path d="M170.98 243.606H101.571C100.855 243.606 100.274 244.187 100.274 244.904V257.161C100.274 257.877 100.855 258.458 101.571 258.458H170.98C171.696 258.458 172.276 257.877 172.276 257.161V244.904C172.276 244.187 171.696 243.606 170.98 243.606Z" fill="white"/>
<path d="M170.979 259.294H101.588C101.016 259.294 100.467 259.068 100.062 258.666C99.6557 258.263 99.4254 257.716 99.4209 257.144V244.904C99.4209 244.619 99.4769 244.337 99.5858 244.074C99.6947 243.811 99.8544 243.572 100.056 243.371C100.257 243.169 100.496 243.01 100.759 242.901C101.021 242.792 101.303 242.736 101.588 242.736H170.979C171.263 242.736 171.544 242.792 171.806 242.901C172.068 243.01 172.306 243.17 172.506 243.372C172.705 243.573 172.863 243.812 172.971 244.075C173.078 244.338 173.131 244.62 173.129 244.904V257.144C173.129 257.714 172.903 258.261 172.5 258.664C172.096 259.068 171.55 259.294 170.979 259.294ZM101.588 244.443C101.466 244.443 101.348 244.491 101.262 244.578C101.176 244.664 101.127 244.781 101.127 244.904V257.144C101.132 257.263 101.182 257.376 101.268 257.458C101.354 257.541 101.469 257.587 101.588 257.587H170.979C171.038 257.587 171.095 257.576 171.149 257.554C171.203 257.531 171.252 257.499 171.293 257.457C171.334 257.416 171.367 257.367 171.389 257.313C171.412 257.26 171.423 257.202 171.423 257.144V244.904C171.425 244.844 171.416 244.784 171.394 244.728C171.373 244.673 171.341 244.622 171.299 244.579C171.258 244.536 171.208 244.501 171.153 244.478C171.098 244.455 171.039 244.443 170.979 244.443H101.588Z" fill="#2C2D2F"/>
<path d="M153.115 243.606L142.69 258.646H153.115L164.138 243.606H153.115Z" fill="#2C2D2F"/>
<path d="M100.274 246.03H172.276L169.871 243.606H102.697L100.274 246.03Z" fill="#2C2D2F"/>
<path d="M170.98 228.072H101.571C100.855 228.072 100.274 228.652 100.274 229.369V241.626C100.274 242.342 100.855 242.923 101.571 242.923H170.98C171.696 242.923 172.276 242.342 172.276 241.626V229.369C172.276 228.652 171.696 228.072 170.98 228.072Z" fill="white"/>
<path d="M170.979 243.76H101.588C101.016 243.76 100.467 243.534 100.062 243.131C99.6557 242.728 99.4254 242.181 99.4209 241.609V229.369C99.4209 229.085 99.4771 228.804 99.5862 228.542C99.6953 228.28 99.8551 228.042 100.057 227.842C100.258 227.642 100.497 227.484 100.76 227.377C101.023 227.27 101.304 227.216 101.588 227.218H170.979C171.262 227.216 171.543 227.27 171.805 227.377C172.067 227.484 172.305 227.643 172.505 227.843C172.705 228.043 172.863 228.281 172.97 228.543C173.077 228.805 173.132 229.086 173.129 229.369V241.609C173.129 242.179 172.903 242.727 172.5 243.13C172.096 243.533 171.55 243.76 170.979 243.76ZM101.588 228.925C101.528 228.923 101.469 228.933 101.413 228.954C101.357 228.975 101.306 229.008 101.263 229.049C101.22 229.09 101.186 229.14 101.162 229.195C101.139 229.25 101.127 229.309 101.127 229.369V241.609C101.132 241.728 101.182 241.841 101.268 241.924C101.354 242.007 101.469 242.053 101.588 242.053H170.979C171.038 242.053 171.095 242.041 171.149 242.019C171.203 241.997 171.252 241.964 171.293 241.923C171.334 241.882 171.367 241.833 171.389 241.779C171.412 241.725 171.423 241.667 171.423 241.609V229.369C171.425 229.31 171.416 229.251 171.394 229.196C171.373 229.141 171.34 229.092 171.298 229.05C171.257 229.008 171.207 228.976 171.152 228.954C171.097 228.933 171.038 228.923 170.979 228.925H101.588Z" fill="#2C2D2F"/>
<path d="M153.115 228.072L142.69 243.094H153.115L164.138 228.072H153.115Z" fill="#2C2D2F"/>
<path d="M100.274 230.479H172.276L169.871 228.072H102.697L100.274 230.479Z" fill="#2C2D2F"/>
<path d="M170.98 212.52H101.571C100.855 212.52 100.274 213.101 100.274 213.817V226.074C100.274 226.791 100.855 227.372 101.571 227.372H170.98C171.696 227.372 172.276 226.791 172.276 226.074V213.817C172.276 213.101 171.696 212.52 170.98 212.52Z" fill="white"/>
<path d="M170.979 228.208H101.588C101.304 228.21 101.023 228.156 100.76 228.049C100.497 227.942 100.258 227.784 100.057 227.584C99.8551 227.384 99.6953 227.146 99.5862 226.884C99.4771 226.622 99.4209 226.341 99.4209 226.057V213.817C99.4254 213.245 99.6557 212.698 100.062 212.295C100.467 211.892 101.016 211.666 101.588 211.666H170.979C171.262 211.666 171.541 211.722 171.802 211.83C172.063 211.938 172.3 212.097 172.5 212.296C172.699 212.496 172.858 212.733 172.966 212.994C173.074 213.255 173.129 213.535 173.129 213.817V226.057C173.132 226.34 173.077 226.621 172.97 226.883C172.863 227.145 172.705 227.383 172.505 227.583C172.305 227.783 172.067 227.942 171.805 228.049C171.543 228.156 171.262 228.21 170.979 228.208ZM101.588 213.373C101.469 213.373 101.354 213.419 101.268 213.502C101.182 213.585 101.132 213.698 101.127 213.817V226.057C101.127 226.117 101.139 226.176 101.162 226.231C101.186 226.286 101.22 226.336 101.263 226.377C101.306 226.419 101.357 226.451 101.413 226.472C101.469 226.494 101.528 226.503 101.588 226.501H170.979C171.038 226.503 171.097 226.494 171.152 226.472C171.207 226.451 171.257 226.418 171.298 226.376C171.34 226.335 171.373 226.285 171.394 226.23C171.416 226.175 171.425 226.116 171.423 226.057V213.817C171.423 213.699 171.376 213.587 171.293 213.503C171.21 213.42 171.097 213.373 170.979 213.373H101.588Z" fill="#2C2D2F"/>
<path d="M153.115 212.52L142.69 227.542H153.115L164.138 212.52H153.115Z" fill="#2C2D2F"/>
<path d="M100.274 214.927H172.276L169.871 212.52H102.697L100.274 214.927Z" fill="#2C2D2F"/>
<path d="M170.98 197.48H101.571C100.855 197.48 100.274 198.061 100.274 198.778V211.035C100.274 211.751 100.855 212.332 101.571 212.332H170.98C171.696 212.332 172.276 211.751 172.276 211.035V198.778C172.276 198.061 171.696 197.48 170.98 197.48Z" fill="white"/>
<path d="M170.979 213.203H101.588C101.016 213.203 100.467 212.977 100.062 212.574C99.6557 212.171 99.4254 211.624 99.4209 211.052V198.812C99.4209 198.237 99.6492 197.685 100.056 197.279C100.462 196.872 101.013 196.644 101.588 196.644H170.979C171.263 196.644 171.544 196.7 171.806 196.809C172.068 196.918 172.306 197.078 172.506 197.28C172.705 197.481 172.863 197.72 172.971 197.983C173.078 198.246 173.131 198.528 173.129 198.812V211.052C173.129 211.622 172.903 212.169 172.5 212.573C172.096 212.976 171.55 213.203 170.979 213.203ZM101.588 198.351C101.466 198.351 101.348 198.399 101.262 198.486C101.176 198.572 101.127 198.69 101.127 198.812V211.052C101.132 211.171 101.182 211.284 101.268 211.367C101.354 211.449 101.469 211.496 101.588 211.496H170.979C171.038 211.496 171.095 211.484 171.149 211.462C171.203 211.44 171.252 211.407 171.293 211.366C171.334 211.324 171.367 211.275 171.389 211.222C171.412 211.168 171.423 211.11 171.423 211.052V198.812C171.425 198.752 171.416 198.693 171.394 198.637C171.373 198.581 171.341 198.53 171.299 198.487C171.258 198.444 171.208 198.41 171.153 198.386C171.098 198.363 171.039 198.351 170.979 198.351H101.588Z" fill="#2C2D2F"/>
<path d="M153.115 197.497L142.69 212.52H153.115L164.138 197.497H153.115Z" fill="#2C2D2F"/>
<path d="M100.274 199.904H172.276L169.871 197.497H102.697L100.274 199.904Z" fill="#2C2D2F"/>
<path d="M111.057 182.458H41.6485C40.9324 182.458 40.3518 183.039 40.3518 183.755V196.012C40.3518 196.729 40.9324 197.31 41.6485 197.31H111.057C111.773 197.31 112.354 196.729 112.354 196.012V183.755C112.354 183.039 111.773 182.458 111.057 182.458Z" fill="white"/>
<path d="M111.057 198.163H41.6486C41.0769 198.159 40.5301 197.928 40.1274 197.522C39.7247 197.116 39.4988 196.567 39.4988 195.995V183.772C39.4988 183.2 39.7247 182.651 40.1274 182.245C40.5301 181.839 41.0769 181.609 41.6486 181.604H111.057C111.341 181.604 111.622 181.66 111.884 181.77C112.146 181.879 112.384 182.039 112.584 182.24C112.783 182.442 112.941 182.681 113.048 182.944C113.155 183.207 113.209 183.488 113.207 183.772V195.995C113.209 196.279 113.155 196.561 113.048 196.824C112.941 197.086 112.783 197.326 112.584 197.527C112.384 197.729 112.146 197.889 111.884 197.998C111.622 198.107 111.341 198.163 111.057 198.163ZM41.6486 183.311C41.5294 183.316 41.4166 183.366 41.3338 183.452C41.2511 183.538 41.2049 183.653 41.205 183.772V195.995C41.2049 196.114 41.2511 196.229 41.3338 196.315C41.4166 196.401 41.5294 196.452 41.6486 196.456H111.057C111.176 196.452 111.289 196.401 111.372 196.315C111.455 196.229 111.501 196.114 111.501 195.995V183.772C111.501 183.653 111.455 183.538 111.372 183.452C111.289 183.366 111.176 183.316 111.057 183.311H41.6486Z" fill="#2C2D2F"/>
<path d="M93.1933 182.458L82.7683 197.497H93.1933L104.215 182.458H93.1933Z" fill="#2C2D2F"/>
<path d="M40.3518 184.882H112.354L109.948 182.458H42.7746L40.3518 184.882Z" fill="#2C2D2F"/>
<path d="M111.057 167.435H41.6485C40.9324 167.435 40.3518 168.016 40.3518 168.733V180.99C40.3518 181.706 40.9324 182.287 41.6485 182.287H111.057C111.773 182.287 112.354 181.706 112.354 180.99V168.733C112.354 168.016 111.773 167.435 111.057 167.435Z" fill="white"/>
<path d="M111.057 183.124H41.6486C41.0784 183.124 40.5316 182.897 40.1284 182.494C39.7253 182.09 39.4988 181.543 39.4988 180.973V168.818C39.4988 168.248 39.7253 167.7 40.1284 167.297C40.5316 166.894 41.0784 166.667 41.6486 166.667H111.057C111.34 166.665 111.621 166.719 111.883 166.826C112.145 166.933 112.382 167.092 112.583 167.292C112.783 167.492 112.941 167.73 113.048 167.992C113.155 168.254 113.209 168.535 113.207 168.818V181.058C113.189 181.615 112.954 182.143 112.553 182.529C112.151 182.915 111.614 183.128 111.057 183.124ZM41.6486 168.289C41.5903 168.289 41.5327 168.3 41.4788 168.323C41.425 168.345 41.3761 168.378 41.3349 168.419C41.2937 168.46 41.2611 168.509 41.2388 168.563C41.2165 168.617 41.205 168.674 41.205 168.733V180.973C41.205 181.09 41.2517 181.203 41.3349 181.286C41.4181 181.37 41.531 181.416 41.6486 181.416H111.057C111.116 181.416 111.173 181.405 111.227 181.383C111.281 181.36 111.33 181.328 111.371 181.286C111.412 181.245 111.445 181.196 111.467 181.142C111.489 181.089 111.501 181.031 111.501 180.973V168.818C111.501 168.76 111.489 168.702 111.467 168.648C111.445 168.594 111.412 168.545 111.371 168.504C111.33 168.463 111.281 168.43 111.227 168.408C111.173 168.386 111.116 168.374 111.057 168.374L41.6486 168.289Z" fill="#2C2D2F"/>
<path d="M93.1933 167.435L82.7683 182.458H93.1933L104.215 167.435H93.1933Z" fill="#2C2D2F"/>
<path d="M40.3518 169.842H112.354L109.948 167.435H42.7746L40.3518 169.842Z" fill="#2C2D2F"/>
<path d="M111.057 152.396H41.6485C40.9324 152.396 40.3518 152.976 40.3518 153.693V165.95C40.3518 166.666 40.9324 167.247 41.6485 167.247H111.057C111.773 167.247 112.354 166.666 112.354 165.95V153.693C112.354 152.976 111.773 152.396 111.057 152.396Z" fill="white"/>
<path d="M111.057 168.101H41.6486C41.0798 168.096 40.5356 167.868 40.1334 167.466C39.7312 167.064 39.5032 166.519 39.4988 165.95V153.71C39.4988 153.138 39.7247 152.589 40.1274 152.183C40.5301 151.777 41.0769 151.546 41.6486 151.542H111.057C111.341 151.542 111.622 151.598 111.884 151.707C112.146 151.817 112.384 151.976 112.584 152.178C112.783 152.38 112.941 152.619 113.048 152.882C113.155 153.145 113.209 153.426 113.207 153.71V165.95C113.207 166.232 113.152 166.512 113.043 166.773C112.935 167.034 112.777 167.271 112.577 167.471C112.378 167.671 112.141 167.829 111.88 167.937C111.619 168.045 111.34 168.101 111.057 168.101ZM41.6486 153.249C41.5294 153.254 41.4166 153.304 41.3338 153.39C41.2511 153.476 41.2049 153.591 41.205 153.71V165.95C41.205 166.068 41.2517 166.181 41.3349 166.264C41.4181 166.347 41.531 166.394 41.6486 166.394H111.057C111.116 166.394 111.173 166.382 111.227 166.36C111.281 166.338 111.33 166.305 111.371 166.264C111.412 166.223 111.445 166.174 111.467 166.12C111.489 166.066 111.501 166.008 111.501 165.95V153.71C111.501 153.591 111.455 153.476 111.372 153.39C111.289 153.304 111.176 153.254 111.057 153.249H41.6486Z" fill="#2C2D2F"/>
<path d="M93.1933 152.413L82.7683 167.435H93.1933L104.215 152.413H93.1933Z" fill="#2C2D2F"/>
<path d="M40.3518 154.82H112.354L109.948 152.413H42.7746L40.3518 154.82Z" fill="#2C2D2F"/>
<path d="M112.354 199.904L114.623 273.481L93.1934 273.668V204.906C93.1934 204.906 93.8417 195.79 112.354 199.904Z" fill="#2C2D2F"/>
<path d="M40.3518 209.908C40.3518 209.908 72.0362 213.732 72.6504 243.606C72.6504 243.606 73.6912 263.562 52.9266 273.48H34.5166L40.3518 212.264" fill="#2C2D2F"/>
<path d="M37.1442 273.668C53.6158 273.668 66.9687 260.308 66.9687 243.828C66.9687 227.348 53.6158 213.988 37.1442 213.988C20.6725 213.988 7.31958 227.348 7.31958 243.828C7.31958 260.308 20.6725 273.668 37.1442 273.668Z" fill="white"/>
<path d="M37.1442 274.522C31.07 274.522 25.1322 272.72 20.0816 269.343C15.0311 265.967 11.0947 261.168 8.77018 255.553C6.44568 249.938 5.83748 243.76 7.02251 237.799C8.20753 231.839 11.1325 226.364 15.4277 222.066C19.7228 217.769 25.1951 214.842 31.1526 213.657C37.1101 212.471 43.2852 213.079 48.8971 215.405C54.5089 217.731 59.3055 221.669 62.6801 226.723C66.0548 231.776 67.856 237.717 67.856 243.794C67.856 247.829 67.0616 251.825 65.5182 255.553C63.9748 259.281 61.7126 262.669 58.8607 265.522C56.0089 268.375 52.6232 270.639 48.8971 272.183C45.171 273.727 41.1773 274.522 37.1442 274.522ZM37.1442 214.773C31.4074 214.773 25.7995 216.475 21.0295 219.664C16.2596 222.853 12.5419 227.385 10.3465 232.688C8.15115 237.991 7.57675 243.826 8.69593 249.456C9.81512 255.085 12.5776 260.256 16.6341 264.315C20.6906 268.373 25.8589 271.137 31.4855 272.257C37.112 273.377 42.9441 272.802 48.2442 270.606C53.5442 268.409 58.0743 264.69 61.2615 259.917C64.4486 255.145 66.1498 249.534 66.1498 243.794C66.1137 236.121 63.0418 228.774 57.6061 223.361C52.1704 217.949 44.8134 214.91 37.1442 214.91V214.773Z" fill="#2C2D2F"/>
<path d="M30.6776 273.668C47.1493 273.668 60.5022 260.308 60.5022 243.828C60.5022 227.348 47.1493 213.988 30.6776 213.988C14.2059 213.988 0.853027 227.348 0.853027 243.828C0.853027 260.308 14.2059 273.668 30.6776 273.668Z" fill="white"/>
<path d="M30.7118 274.522C24.6376 274.522 18.6998 272.72 13.6493 269.343C8.59873 265.967 4.66232 261.168 2.33781 255.553C0.013307 249.938 -0.594889 243.76 0.590133 237.799C1.77515 231.839 4.70017 226.364 8.99529 222.066C13.2904 217.769 18.7627 214.842 24.7202 213.657C30.6778 212.471 36.8529 213.079 42.4647 215.405C48.0766 217.731 52.8731 221.669 56.2478 226.723C59.6224 231.776 61.4236 237.717 61.4236 243.794C61.4236 247.829 60.6293 251.825 59.0858 255.553C57.5424 259.281 55.2802 262.669 52.4284 265.522C49.5765 268.375 46.1909 270.639 42.4647 272.183C38.7386 273.727 34.745 274.522 30.7118 274.522ZM30.7118 214.773C24.9751 214.773 19.3671 216.475 14.5972 219.664C9.82723 222.853 6.10951 227.385 3.91414 232.688C1.71878 237.991 1.14437 243.826 2.26356 249.456C3.38275 255.085 6.14526 260.256 10.2018 264.315C14.2583 268.373 19.4266 271.137 25.0531 272.257C30.6796 273.377 36.5117 272.802 41.8118 270.606C47.1119 268.409 51.6419 264.69 54.8291 259.917C58.0163 255.145 59.7174 249.534 59.7174 243.794C59.6813 236.121 56.6095 228.774 51.1738 223.361C45.7381 217.949 38.381 214.91 30.7118 214.91V214.773Z" fill="#2C2D2F"/>
<path d="M30.6778 264.996C42.3625 264.996 51.8348 255.519 51.8348 243.828C51.8348 232.137 42.3625 222.66 30.6778 222.66C18.9931 222.66 9.52075 232.137 9.52075 243.828C9.52075 255.519 18.9931 264.996 30.6778 264.996Z" fill="#E9A92B"/>
<path opacity="0.2" d="M52.8925 223.838L10.7661 266.02C7.46196 262.937 4.90081 259.143 3.27588 254.924L41.8363 216.344C46.0424 217.97 49.8234 220.533 52.8925 223.838Z" fill="white"/>
<path opacity="0.2" d="M60.4511 238.809L25.5932 273.549C22.4698 272.979 19.461 271.901 16.6868 270.356L57.2093 229.813C58.769 232.616 59.8638 235.655 60.4511 238.809Z" fill="white"/>
<path d="M152.617 2.89647L69.7735 33.7055C65.472 35.3052 63.281 40.091 64.8799 44.3947L82.2559 91.1669C83.8548 95.4706 88.638 97.6627 92.9395 96.063L175.784 65.254C180.085 63.6543 182.276 58.8685 180.677 54.5648L163.301 7.79263C161.702 3.48885 156.919 1.29677 152.617 2.89647Z" fill="white"/>
<path d="M90.0367 97.4439C88.1789 97.4227 86.3707 96.8411 84.8486 95.7751C83.3266 94.7091 82.1615 93.2083 81.5056 91.4691L64.0681 44.6774C63.2292 42.3975 63.3274 39.8779 64.3411 37.6702C65.3548 35.4626 67.2015 33.7467 69.4768 32.8984L152.33 2.10221C154.607 1.25729 157.125 1.35082 159.332 2.36226C161.54 3.37371 163.256 5.22036 164.103 7.49666L181.473 54.2713C182.317 56.5487 182.224 59.0684 181.213 61.277C180.202 63.4855 178.356 65.2023 176.081 66.0503L93.2273 96.8635C92.2054 97.2404 91.1258 97.4368 90.0367 97.4439ZM152.928 3.68982L70.057 34.503C68.2097 35.201 66.7126 36.6006 65.8915 38.3973C65.0703 40.194 64.9914 42.2424 65.672 44.097L83.0583 90.8716C83.3963 91.7903 83.9126 92.6331 84.5775 93.3514C85.2423 94.0698 86.0425 94.6495 86.9321 95.0573C87.8217 95.465 88.7831 95.6927 89.761 95.7273C90.7389 95.7619 91.714 95.6027 92.6301 95.2589L175.484 64.531C176.402 64.1927 177.244 63.6762 177.962 63.011C178.68 62.3458 179.26 61.5452 179.667 60.6551C180.075 59.7651 180.302 58.8032 180.337 57.8248C180.372 56.8464 180.212 55.8708 179.869 54.9541L162.499 8.09414C161.813 6.2412 160.419 4.7367 158.624 3.91095C156.83 3.08519 154.781 3.00566 152.928 3.68982Z" fill="#2C2D2F"/>
<path d="M164.837 11.944L66.4155 48.5461L70.7432 60.1952L169.164 23.5931L164.837 11.944Z" fill="#2C2D2F"/>
<path d="M131.049 57.3029L87.0039 73.6829L88.4603 77.6032L132.505 61.2233L131.049 57.3029Z" fill="#2C2D2F"/>
<path d="M103.972 57.8337L83.9006 65.2981L85.1252 68.5944L105.196 61.13L103.972 57.8337Z" fill="#2C2D2F"/>
<path d="M171.457 56.6441C171.284 56.6565 171.111 56.6157 170.962 56.5273C170.813 56.4388 170.694 56.3069 170.621 56.149L164.359 39.078C164.282 38.8674 164.29 38.6346 164.383 38.4301C164.475 38.2256 164.645 38.0659 164.854 37.9855C165.067 37.9071 165.302 37.915 165.509 38.0074C165.717 38.0999 165.879 38.2697 165.963 38.4805L172.327 55.5004C172.4 55.7133 172.387 55.9461 172.291 56.1497C172.196 56.3534 172.025 56.5122 171.816 56.5929C171.702 56.6371 171.579 56.6546 171.457 56.6441Z" fill="#2C2D2F"/>
<path d="M191.096 274.334H0.853106C0.626848 274.334 0.409857 274.244 0.249869 274.084C0.0898805 273.924 0 273.707 0 273.481C0 273.254 0.0898805 273.037 0.249869 272.877C0.409857 272.717 0.626848 272.627 0.853106 272.627H191.096C191.321 272.631 191.535 272.723 191.694 272.882C191.853 273.041 191.944 273.256 191.949 273.481C191.949 273.707 191.859 273.924 191.699 274.084C191.539 274.244 191.322 274.334 191.096 274.334Z" fill="#2C2D2F"/>
</svg>
