<svg xmlns="http://www.w3.org/2000/svg" fill="none" viewBox="0 0 24 24"><path d="M21.48,14.71a2.31,2.31,0,0,0-3.09-1L15,15.38A2.5,2.5,0,0,0,12.5,13H8a.94.94,0,0,0-.37.07l-5,2A1,1,0,0,0,2,16v5a1,1,0,0,0,1,1H13a1,1,0,0,0,.51-.14l7.34-4.34a.7.7,0,0,0,.19-.15A2.3,2.3,0,0,0,21.48,14.71Zm-1.8,1.18L12.73,20H4V16.68L8.19,15H12.5a.5.5,0,0,1,0,1H10a1,1,0,0,0,0,2h4a1,1,0,0,0,.45-.11l4.84-2.41a.29.29,0,0,1,.4.13A.31.31,0,0,1,19.68,15.89ZM9.09,7.82l-.35,2a1,1,0,0,0,.4,1,1,1,0,0,0,1,.08l1.81-1,1.81,1a1.11,1.11,0,0,0,.46.11,1,1,0,0,0,.59-.19,1,1,0,0,0,.4-1l-.35-2,1.47-1.43a1,1,0,0,0-.56-1.71l-2-.29-.9-1.83a1,1,0,0,0-1.8,0l-.9,1.83-2,.29a1,1,0,0,0-.56,1.71ZM11,6.29a1,1,0,0,0,.75-.54L12,5.26l.24.49a1,1,0,0,0,.75.54l.54.08-.39.38a1,1,0,0,0-.29.89l.1.53-.48-.25a1,1,0,0,0-.94,0l-.48.25.1-.53a1,1,0,0,0-.29-.89l-.39-.38Z"/></svg>