<svg viewBox="0 0 14 24" fill="none" xmlns="http://www.w3.org/2000/svg">
<path d="M0.922092 23.5133C0 23.5133 0 14.2924 0 13.6009C0 12.4482 0 0 1.15261 0H4.14941C4.61046 0 4.84098 0.230523 4.84098 0.691569C4.84098 1.15261 3.91889 3.68837 3.91889 11.0651C3.91889 11.9872 3.91889 13.3703 4.37994 13.3703C5.30203 13.3703 7.83778 9.68196 7.83778 6.68517C7.83778 5.9936 8.0683 5.9936 8.75987 5.9936H10.3735C10.8346 5.9936 11.5261 5.76307 11.5261 6.68517C11.5261 10.6041 8.52935 12.9093 8.52935 13.6009C8.52935 14.2924 9.68196 14.5229 10.8346 16.1366C11.9872 17.7503 13.1398 19.825 13.1398 23.2828C13.1398 24.2049 12.6788 23.9744 11.9872 23.9744H9.68196C8.99039 23.9744 8.75987 23.9744 8.75987 23.0523C8.75987 19.1334 6.91569 16.1366 5.9936 16.1366C5.53255 16.1366 4.37994 16.5977 4.37994 17.9808C4.37994 21.4386 5.07151 23.0523 5.07151 23.7439C5.07151 23.9744 4.84098 23.9744 4.37994 23.9744H0.922092V23.5133Z" fill="white"/>
</svg>
