<svg viewBox="0 0 20 20" fill="none" xmlns="http://www.w3.org/2000/svg">
<path d="M11.337 7.00002H8.49902V10H11.337C11.5386 10.0074 11.7396 9.97404 11.928 9.90197C12.1164 9.82991 12.2884 9.7206 12.4336 9.58059C12.5788 9.44057 12.6944 9.27272 12.7732 9.08706C12.8521 8.9014 12.8928 8.70175 12.8928 8.50002C12.8928 8.2983 12.8521 8.09864 12.7732 7.91298C12.6944 7.72733 12.5788 7.55948 12.4336 7.41946C12.2884 7.27945 12.1164 7.17014 11.928 7.09808C11.7396 7.02601 11.5386 6.99266 11.337 7.00002Z" fill="white"/>
<path d="M10 0C4.477 0 0 4.477 0 10C0 15.523 4.477 20 10 20C15.523 20 20 15.523 20 10C20 4.477 15.523 0 10 0ZM11.337 12H8.499V15H6.501V5H11.338C11.7975 4.99987 12.2526 5.09028 12.6772 5.26608C13.1017 5.44187 13.4875 5.6996 13.8125 6.02454C14.1374 6.34948 14.3951 6.73526 14.5709 7.15983C14.7467 7.58441 14.8371 8.03947 14.837 8.499C14.8373 8.95875 14.7469 9.41404 14.5711 9.83885C14.3953 10.2637 14.1376 10.6497 13.8125 10.9748C13.4875 11.3 13.1015 11.5578 12.6768 11.7338C12.252 11.9097 11.7967 12.0001 11.337 12Z" fill="white"/>
</svg>
