<svg viewBox="0 0 20 18" fill="none" xmlns="http://www.w3.org/2000/svg">
<path d="M20 8.98596C20 7.73791 19.0016 6.73947 17.7535 6.86427C17.2543 6.86427 16.6303 7.11388 16.2558 7.4883C14.5086 6.36505 12.5117 5.61622 10.39 5.61622L11.3885 0.873635L14.6334 1.62246C14.6334 2.4961 15.3822 3.12012 16.2558 3.12012C17.1295 3.12012 17.7535 2.37129 17.7535 1.49766C17.7535 0.624025 17.0047 0 16.131 0C15.507 0 15.0078 0.374415 14.7582 0.873635L11.2637 0H11.014C10.8892 0 10.8892 0.124805 10.8892 0.24961L9.64119 5.61622C7.5195 5.61622 5.52262 6.24025 3.77535 7.4883C2.90172 6.61466 1.52886 6.61466 0.655226 7.4883C-0.218409 8.36193 -0.218409 9.73479 0.655226 10.6084C0.780031 10.7332 1.02964 10.9828 1.27925 10.9828V11.6069C1.27925 14.9766 5.14821 17.7223 10.0156 17.7223C14.883 17.7223 18.752 14.9766 18.752 11.6069V10.9828C19.5008 10.6084 20 9.8596 20 8.98596ZM5.0234 10.6084C5.0234 9.73479 5.77223 9.11076 6.52106 9.11076C7.3947 9.11076 8.01872 9.85959 8.01872 10.6084C8.01872 11.3573 7.26989 12.1061 6.52106 12.1061C5.64743 12.1061 5.0234 11.4821 5.0234 10.6084ZM13.7598 14.727C12.6365 15.4758 11.3885 15.975 10.0156 15.8502C8.64275 15.8502 7.3947 15.4758 6.27145 14.727C6.14665 14.6022 6.14665 14.3526 6.27145 14.103C6.39626 13.9782 6.64587 13.9782 6.77067 14.103C7.64431 14.727 8.76755 15.1014 9.8908 14.9766C11.014 15.1014 12.1373 14.727 13.0109 14.103C13.1357 13.9782 13.3853 13.9782 13.6349 14.103C13.8846 14.2278 13.8846 14.4774 13.7598 14.727ZM13.3853 12.1061C12.5117 12.1061 11.8877 11.3573 11.8877 10.6084C11.8877 9.85959 12.6365 9.11076 13.3853 9.11076C14.259 9.11076 14.883 9.85959 14.883 10.6084C15.0078 11.4821 14.259 12.1061 13.3853 12.1061Z" fill="white"/>
</svg>
