<svg width="236" height="249" viewBox="0 0 236 249" fill="none" xmlns="http://www.w3.org/2000/svg">
<path d="M135.224 111.17L164.144 67.92L152.264 60.48L125.784 105.23L124.384 107.73C122.962 110.248 121.693 112.85 120.584 115.52C120.364 116.07 121.274 116.52 121.584 115.98C122.238 114.644 123.08 113.408 124.084 112.31C124.08 112.36 124.08 112.41 124.084 112.46C122.589 115.127 121.302 117.905 120.234 120.77C120.184 120.884 120.181 121.013 120.226 121.13C120.271 121.246 120.36 121.34 120.474 121.39C120.588 121.44 120.717 121.443 120.834 121.398C120.95 121.353 121.044 121.264 121.094 121.15C122.184 119.15 124.024 116.15 125.274 114.32L125.364 114.41C123.811 117.239 122.474 120.18 121.364 123.21C121.326 123.32 121.331 123.44 121.377 123.547C121.423 123.654 121.507 123.741 121.613 123.789C121.719 123.838 121.839 123.845 121.95 123.81C122.061 123.775 122.155 123.7 122.214 123.6C123.474 121.35 126.084 117.25 127.594 115.09H127.784C126.386 117.611 125.182 120.235 124.184 122.94C124.134 123.054 124.131 123.183 124.176 123.3C124.221 123.416 124.31 123.51 124.424 123.56C124.538 123.61 124.667 123.613 124.784 123.568C124.9 123.523 124.994 123.434 125.044 123.32C126.324 120.94 128.734 117.32 129.854 115.7C130.854 114.31 131.354 115.15 131.354 115.15C131.604 115.54 131.354 117.15 131.354 118.29C131.354 118.8 132.154 118.89 132.424 118.46C133.504 116.73 134.314 113.39 134.664 112.33C134.811 111.925 134.998 111.537 135.224 111.17Z" fill="white"/>
<path d="M121.794 124.34C121.653 124.339 121.513 124.309 121.384 124.25C121.158 124.157 120.978 123.979 120.881 123.755C120.784 123.531 120.778 123.278 120.864 123.05C121.024 122.58 121.204 122.05 121.394 121.59C121.233 121.727 121.033 121.81 120.822 121.826C120.611 121.843 120.4 121.791 120.22 121.68C120.04 121.569 119.899 121.404 119.819 121.208C119.739 121.012 119.723 120.795 119.774 120.59C120.24 119.255 120.778 117.947 121.384 116.67C121.149 116.729 120.9 116.701 120.684 116.59C120.442 116.492 120.248 116.303 120.143 116.064C120.039 115.825 120.032 115.554 120.124 115.31C121.239 112.618 122.519 109.996 123.954 107.46L125.344 105L151.834 60.23C151.867 60.1727 151.912 60.1227 151.965 60.0832C152.019 60.0437 152.079 60.0154 152.144 60C152.208 59.9844 152.275 59.9817 152.34 59.992C152.405 60.0023 152.468 60.0254 152.524 60.06L164.404 67.51C164.462 67.545 164.512 67.5914 164.552 67.6464C164.591 67.7014 164.619 67.7639 164.634 67.83C164.648 67.8954 164.649 67.9631 164.635 68.0286C164.621 68.0942 164.594 68.156 164.554 68.21L135.634 111.45C135.433 111.768 135.259 112.103 135.114 112.45C135.044 112.65 134.954 112.96 134.844 113.34C134.391 115.187 133.72 116.973 132.844 118.66C132.712 118.863 132.518 119.018 132.292 119.103C132.065 119.187 131.817 119.197 131.584 119.13C131.382 119.084 131.202 118.973 131.07 118.814C130.938 118.655 130.862 118.457 130.854 118.25C130.854 117.79 130.854 117.25 130.904 116.77C130.954 116.298 130.954 115.822 130.904 115.35C130.904 115.35 130.664 115.35 130.244 115.93C129.074 117.57 126.704 121.2 125.464 123.49C125.327 123.661 125.137 123.783 124.924 123.836C124.711 123.888 124.486 123.87 124.285 123.782C124.083 123.694 123.916 123.543 123.809 123.351C123.703 123.159 123.662 122.937 123.694 122.72C123.904 122.12 124.134 121.5 124.394 120.88C123.714 121.97 123.094 123.01 122.634 123.88C122.544 124.021 122.419 124.137 122.273 124.217C122.126 124.297 121.961 124.34 121.794 124.34ZM125.284 113.82C125.418 113.824 125.546 113.878 125.644 113.97C125.73 114.058 125.79 114.168 125.82 114.287C125.85 114.407 125.848 114.532 125.814 114.65C124.263 117.452 122.926 120.367 121.814 123.37C123.074 121 125.694 116.9 127.164 114.81C127.23 114.716 127.325 114.646 127.434 114.61H127.624C127.718 114.583 127.819 114.583 127.913 114.612C128.007 114.64 128.09 114.695 128.154 114.77C128.218 114.848 128.256 114.942 128.265 115.042C128.274 115.142 128.253 115.242 128.204 115.33C126.82 117.825 125.63 120.423 124.644 123.1C126.088 120.447 127.684 117.879 129.424 115.41C129.924 114.71 130.424 114.41 130.924 114.41C131.094 114.42 131.259 114.47 131.405 114.557C131.551 114.644 131.674 114.765 131.764 114.91C131.987 115.553 132.032 116.244 131.894 116.91C131.894 117.38 131.834 117.91 131.844 118.26H131.924C132.805 116.655 133.477 114.945 133.924 113.17C134.034 112.77 134.134 112.44 134.204 112.17C134.378 111.742 134.588 111.331 134.834 110.94L163.444 68.08L152.444 61.17L126.234 105.49L124.824 108C123.414 110.49 122.152 113.061 121.044 115.7C121.044 115.7 121.114 115.7 121.154 115.7C121.801 114.32 122.658 113.048 123.694 111.93C123.754 111.873 123.828 111.831 123.908 111.81C123.989 111.789 124.073 111.789 124.154 111.81C124.236 111.83 124.311 111.869 124.374 111.925C124.437 111.981 124.485 112.051 124.514 112.13C124.573 112.309 124.573 112.501 124.514 112.68C123.029 115.32 121.752 118.072 120.694 120.91C121.944 118.532 123.329 116.228 124.844 114.01C124.888 113.95 124.945 113.9 125.011 113.863C125.077 113.827 125.149 113.806 125.224 113.8L125.284 113.82Z" fill="#2C2D2F"/>
<path d="M145.314 75.2C145.314 75.2 145.174 77.83 144.214 77.2C143.254 76.57 144.454 76.01 144.454 76.01" fill="white"/>
<path d="M144.474 77.82C144.289 77.8157 144.109 77.7604 143.954 77.66C143.76 77.5786 143.597 77.4382 143.487 77.2587C143.378 77.0791 143.328 76.8697 143.344 76.66C143.344 76.02 144.084 75.66 144.224 75.56C144.312 75.5172 144.41 75.5002 144.508 75.5108C144.605 75.5214 144.697 75.5593 144.774 75.62C144.774 75.46 144.774 75.29 144.774 75.13C144.774 74.9974 144.827 74.8702 144.92 74.7764C145.014 74.6827 145.141 74.63 145.274 74.63C145.407 74.63 145.534 74.6827 145.628 74.7764C145.721 74.8702 145.774 74.9974 145.774 75.13C145.774 75.75 145.584 77.24 144.844 77.63C144.738 77.723 144.611 77.7883 144.474 77.82ZM144.354 76.73C144.396 76.753 144.436 76.7798 144.474 76.81C144.527 76.7264 144.568 76.6354 144.594 76.54C144.507 76.5939 144.426 76.6576 144.354 76.73Z" fill="#2C2D2F"/>
<path d="M151.224 63C151.224 63 153.884 71.86 161.304 72.17L164.564 67.17L151.224 63Z" fill="#2C2D2F"/>
<path d="M169.658 62.5482L164.573 69.4712L165.379 70.0632L170.464 63.1402L169.658 62.5482Z" fill="#2C2D2F"/>
<path d="M51.884 247.57C36.014 246.49 9.184 247.63 5.304 247.63C-9.616 247.63 15.824 235.03 21.584 235.16C29.964 235.23 39.694 237.9 47.084 241.41C41.214 234.71 33.574 231.73 25.674 229.28C19.894 227.83 0.753998 225.91 0.0439982 217.77C-1.576 199.4 42.044 223.38 47.624 229.3C44.624 222 25.194 187.99 40.284 182.12C52.774 177.63 47.654 215.62 52.724 221.29C56.794 214.09 61.504 200.02 67.174 193.6C79.764 179.37 91.354 183.6 82.374 194.3C74.374 203.87 61.824 217.13 59.444 231.66C66.444 226.5 71.294 220.34 78.824 216.74C83.234 214.27 103.824 206.43 103.684 216.17C103.144 228.28 67.044 230.69 60.144 239.79C66.484 242.79 76.334 237.05 84.204 238.19C91.804 238.54 106.794 245.79 93.464 247.04C81.944 248.12 71.334 247.21 53.274 247.26" fill="#46D6A2"/>
<path d="M181.254 247.57C165.384 246.49 138.554 247.63 134.674 247.63C119.754 247.63 145.194 235.03 150.954 235.16C159.334 235.23 169.064 237.9 176.454 241.41C170.584 234.71 162.944 231.73 155.044 229.28C149.264 227.83 130.124 225.91 129.454 217.77C127.834 199.4 171.454 223.38 177.034 229.3C174.034 222 154.604 187.99 169.694 182.12C182.184 177.63 177.064 215.62 182.134 221.29C186.204 214.09 190.914 200.02 196.584 193.6C209.174 179.37 220.764 183.6 211.784 194.3C203.784 203.87 191.224 217.13 188.854 231.66C195.854 226.5 200.704 220.34 208.234 216.74C212.644 214.27 233.234 206.43 233.094 216.17C232.514 228.28 196.434 230.69 189.514 239.79C195.854 242.79 205.704 237.05 213.574 238.19C221.174 238.54 236.164 245.79 222.824 247.04C211.314 248.12 200.704 247.21 182.644 247.26" fill="#46D6A2"/>
<path d="M149.994 0.5H58.584C50.6808 0.5 44.274 6.90681 44.274 14.81V232.95C44.274 240.853 50.6808 247.26 58.584 247.26H149.994C157.897 247.26 164.304 240.853 164.304 232.95V14.81C164.304 6.90681 157.897 0.5 149.994 0.5Z" fill="white"/>
<path d="M150.044 247.76H58.594C54.6747 247.757 50.9157 246.203 48.1387 243.438C45.3617 240.672 43.7925 236.919 43.774 233V14.81C43.7793 10.882 45.3427 7.11662 48.1211 4.34006C50.8996 1.56351 54.666 0.00264509 58.594 0H150.044C153.971 0.00264893 157.736 1.56383 160.513 4.34067C163.29 7.11751 164.851 10.883 164.854 14.81V233C164.838 236.918 163.271 240.671 160.496 243.437C157.72 246.203 153.962 247.757 150.044 247.76ZM58.594 1C54.9312 1.00264 51.4191 2.45815 48.8282 5.04717C46.2373 7.63619 44.7793 11.1473 44.774 14.81V233C44.7793 236.663 46.2373 240.174 48.8282 242.763C51.4191 245.352 54.9312 246.807 58.594 246.81H150.044C153.696 246.792 157.193 245.329 159.771 242.742C162.349 240.154 163.799 236.652 163.804 233V14.81C163.799 11.1576 162.349 7.65559 159.771 5.06829C157.193 2.48098 153.696 1.01848 150.044 1H58.594Z" fill="#2C2D2F"/>
<path d="M164.074 0.5H72.824C64.8766 0.5 58.434 6.94262 58.434 14.89V232.87C58.434 240.817 64.8766 247.26 72.824 247.26H164.074C172.021 247.26 178.464 240.817 178.464 232.87V14.89C178.464 6.94262 172.021 0.5 164.074 0.5Z" fill="white"/>
<path d="M164.044 247.76H72.834C68.8848 247.757 65.098 246.188 62.3046 243.396C59.5111 240.605 57.9393 236.819 57.934 232.87V14.87C57.9446 10.9243 59.5188 7.14365 62.3116 4.35642C65.1045 1.56918 68.8883 0.00263216 72.834 0H164.044C167.991 0.00529149 171.776 1.57575 174.567 4.36702C177.358 7.15829 178.929 10.9426 178.934 14.89V232.89C178.923 236.834 177.351 240.613 174.56 243.4C171.769 246.187 167.988 247.755 164.044 247.76ZM72.834 1C69.15 1.00264 65.6176 2.46658 63.0117 5.0706C60.4058 7.67462 58.9393 11.206 58.934 14.89V232.89C58.9393 236.574 60.4058 240.105 63.0117 242.709C65.6176 245.313 69.15 246.777 72.834 246.78H164.044C167.727 246.777 171.258 245.313 173.863 242.709C176.467 240.104 177.931 236.573 177.934 232.89V14.89C177.931 11.207 176.467 7.67552 173.863 5.07121C171.258 2.46691 167.727 1.00265 164.044 1H72.834Z" fill="#2C2D2F"/>
<path d="M163.644 3.46H73.264C66.7139 3.46 61.404 8.7699 61.404 15.32V206.5C61.404 213.05 66.7139 218.36 73.264 218.36H163.644C170.194 218.36 175.504 213.05 175.504 206.5V15.32C175.504 8.7699 170.194 3.46 163.644 3.46Z" fill="white"/>
<path d="M163.784 218.86H73.404C70.1285 218.857 66.9877 217.556 64.6706 215.24C62.3535 212.925 61.0493 209.786 61.044 206.51V15.32C61.0572 12.0497 62.365 8.91766 64.6812 6.60892C66.9974 4.30018 70.1337 3.00262 73.404 3H163.784C167.06 2.99467 170.205 4.28841 172.53 6.59772C174.854 8.90703 176.168 12.0436 176.184 15.32V206.51C176.181 208.135 175.858 209.744 175.234 211.245C174.609 212.745 173.695 214.108 172.543 215.255C171.392 216.402 170.025 217.31 168.522 217.929C167.019 218.548 165.409 218.864 163.784 218.86ZM73.404 4C70.3989 4.00261 67.517 5.19482 65.3883 7.31602C63.2596 9.43723 62.0572 12.3149 62.044 15.32V206.51C62.0467 209.521 63.2447 212.408 65.3748 214.536C67.5049 216.665 70.3929 217.86 73.404 217.86H163.784C165.278 217.864 166.758 217.573 168.14 217.005C169.521 216.437 170.777 215.602 171.836 214.548C172.895 213.493 173.735 212.241 174.31 210.862C174.884 209.483 175.181 208.004 175.184 206.51V15.32C175.168 12.3088 173.959 9.4266 171.823 7.30482C169.686 5.18305 166.795 3.99467 163.784 4H73.404Z" fill="#2C2D2F"/>
<path d="M66.614 245.68C66.314 245.53 66.024 245.37 65.734 245.19C66.044 245.37 66.314 245.53 66.614 245.68Z" fill="#46D6A2"/>
<path d="M66.614 2.09C66.314 2.24 66.024 2.4 65.734 2.57C66.044 2.4 66.314 2.24 66.614 2.09Z" fill="#46D6A2"/>
<path d="M49.054 35.08C49.054 36.1735 49.9382 37.06 51.029 37.06C52.1198 37.06 53.004 36.1735 53.004 35.08V22.24C53.004 21.1465 52.1198 20.26 51.029 20.26C49.9382 20.26 49.054 21.1465 49.054 22.24V35.08Z" fill="#2C2D2F"/>
<path d="M122.184 242.82C127.646 242.82 132.074 238.392 132.074 232.93C132.074 227.468 127.646 223.04 122.184 223.04C116.722 223.04 112.294 227.468 112.294 232.93C112.294 238.392 116.722 242.82 122.184 242.82Z" fill="#2C2D2F"/>
<path d="M99.574 11.12H129.074C129.869 11.12 130.514 10.4753 130.514 9.68C130.514 8.88471 129.869 8.24 129.074 8.24H99.574C98.7787 8.24 98.134 8.88471 98.134 9.68C98.134 10.4753 98.7787 11.12 99.574 11.12Z" fill="#2C2D2F"/>
<path d="M132.434 9.68C132.434 10.4753 133.079 11.12 133.874 11.12C134.669 11.12 135.314 10.4753 135.314 9.68C135.314 8.88471 134.669 8.24 133.874 8.24C133.079 8.24 132.434 8.88471 132.434 9.68Z" fill="#2C2D2F"/>
<path d="M190.264 248.13H36.124C35.9914 248.13 35.8642 248.077 35.7704 247.984C35.6767 247.89 35.624 247.763 35.624 247.63C35.624 247.497 35.6767 247.37 35.7704 247.276C35.8642 247.183 35.9914 247.13 36.124 247.13H190.264C190.397 247.13 190.524 247.183 190.618 247.276C190.711 247.37 190.764 247.497 190.764 247.63C190.764 247.763 190.711 247.89 190.618 247.984C190.524 248.077 190.397 248.13 190.264 248.13Z" fill="#2C2D2F"/>
<path fill-rule="evenodd" clip-rule="evenodd" d="M77.8929 161.266H158.044V80.9936H77.8929V161.266ZM156.989 160.271H78.9476V81.9885H156.989V160.271Z" fill="#2C2D2F"/>
<path d="M155.044 96H154.049V84.9948H143.044V84H155.044V96Z" fill="#2C2D2F"/>
<path d="M82.0956 96H81.044V84H93.044V84.9948H82.0956V96Z" fill="#2C2D2F"/>
<path d="M93.044 159H81.044V147H82.0956V157.948H93.044V159Z" fill="#2C2D2F"/>
<path d="M155.044 159H143.044V157.948H154.049V147H155.044V159Z" fill="#2C2D2F"/>
<path d="M3.07105 9.07107C6.9763 5.16583 13.3079 5.16583 17.2132 9.07107L232.881 224.739C236.786 228.644 236.786 234.976 232.881 238.881C228.976 242.786 222.644 242.786 218.739 238.881L3.07105 23.2132C-0.83419 19.308 -0.83419 12.9763 3.07105 9.07107Z" fill="#FF0000"/>
</svg>
