<svg width="201" height="264" viewBox="0 0 201 264" fill="none" xmlns="http://www.w3.org/2000/svg">
<g clip-path="url(#clip0)">
<path d="M181 151.62C179.682 151.619 178.389 151.984 177.266 152.675C176.143 153.365 175.234 154.353 174.64 155.53L170.64 163.53C170.217 164.368 169.633 165.114 168.921 165.725C168.209 166.336 167.383 166.8 166.491 167.091C165.599 167.382 164.658 167.494 163.722 167.42C162.787 167.346 161.875 167.088 161.04 166.66L149.82 161C148.947 160.555 147.992 160.295 147.014 160.236C146.036 160.177 145.057 160.321 144.137 160.658C143.217 160.995 142.377 161.518 141.668 162.194C140.96 162.871 140.399 163.687 140.02 164.59L134.81 177C134.18 178.5 133.056 179.739 131.624 180.513C130.193 181.286 128.54 181.546 126.94 181.25L109.35 178C107.958 177.741 106.521 177.904 105.222 178.467C103.924 179.03 102.823 179.967 102.06 181.16L100.24 184C99.4636 185.205 98.3418 186.147 97.0212 186.704C95.7006 187.261 94.2427 187.406 92.8382 187.121C91.4337 186.835 90.148 186.133 89.1492 185.105C88.1504 184.077 87.485 182.772 87.24 181.36L64.49 48.3601L74.4 46.8L185.51 139C186.643 139.931 187.46 141.189 187.851 142.603C188.242 144.016 188.187 145.515 187.693 146.896C187.2 148.277 186.292 149.472 185.094 150.317C183.896 151.163 182.466 151.618 181 151.62Z" fill="#46D6A2"/>
<path d="M85.1 44.27C85.1 44.27 87.1 59.48 81.97 63.63C76.84 67.78 74.68 69.76 74.68 69.76C74.68 69.76 63.33 69.76 61.46 58.76L63.38 55.25L72.38 48.98L85.1 44.27Z" fill="white"/>
<path d="M9.33001 17.6798L42.54 57.7298L53.06 48.4598L17.71 10.3298L15.71 8.27985C13.7004 6.19967 11.57 4.23961 9.33001 2.40985C8.87001 2.04985 8.19001 2.78985 8.61001 3.19985C9.70902 4.20372 10.6557 5.3626 11.42 6.63985H11.26C9.13429 4.44396 6.83702 2.4209 4.39001 0.589849C4.2935 0.521246 4.17464 0.491601 4.05722 0.50684C3.93979 0.522079 3.83245 0.581079 3.75664 0.672044C3.68084 0.76301 3.64216 0.879236 3.64835 0.997485C3.65453 1.11573 3.70513 1.22729 3.79001 1.30985C5.42001 2.92985 7.79001 5.54985 9.14001 7.25985L9.00001 7.31985C6.74383 5.0137 4.31695 2.88099 1.74001 0.939849C1.64449 0.871926 1.52704 0.842142 1.4107 0.856339C1.29436 0.870537 1.18752 0.927692 1.11114 1.01659C1.03476 1.10549 0.994349 1.21972 0.997841 1.33688C1.00133 1.45403 1.04847 1.56565 1.13001 1.64985C2.93001 3.48985 6.13001 7.15985 7.75001 9.22985V9.41985C5.72916 7.36586 3.55634 5.46714 1.25001 3.73985C1.15453 3.65896 1.03083 3.61931 0.906117 3.62962C0.781405 3.63994 0.665899 3.69937 0.585008 3.79485C0.504117 3.89033 0.464467 4.01403 0.474782 4.13874C0.485096 4.26345 0.54453 4.37896 0.640008 4.45985C2.55001 6.35985 5.38001 9.70985 6.57001 11.2398C7.63001 12.5898 6.67001 12.8298 6.67001 12.8298C6.22001 12.9598 4.74001 12.2298 3.67001 11.9498C3.18001 11.8198 2.87001 12.5398 3.21001 12.9498C4.55001 14.4698 7.52001 16.2098 8.44001 16.8398C8.76063 17.0933 9.05843 17.3744 9.33001 17.6798Z" fill="white"/>
<path d="M42.54 58.23C42.4048 58.2161 42.2799 58.1519 42.19 58.05L9 18C8.75267 17.7045 8.47441 17.4363 8.17 17.2C8 17.08 7.72999 16.9 7.38999 16.69C5.75519 15.7183 4.23842 14.5606 2.86999 13.24C2.71786 13.0535 2.62747 12.8244 2.61135 12.5843C2.59522 12.3442 2.65416 12.1051 2.77999 11.9C2.88875 11.7249 3.04897 11.5876 3.23872 11.5071C3.42847 11.4265 3.63847 11.4066 3.83999 11.45C4.27999 11.57 4.76999 11.75 5.23999 11.92C5.67475 12.112 6.13153 12.2497 6.59999 12.33C6.59999 12.33 6.66999 12.1 6.22999 11.53C4.93999 9.99997 2.12999 6.63997 0.289995 4.80997C0.132387 4.62815 0.0456238 4.39559 0.0456238 4.15497C0.0456238 3.91435 0.132387 3.68179 0.289995 3.49997C0.441861 3.3079 0.662678 3.18267 0.905465 3.15092C1.14825 3.11917 1.39385 3.18341 1.58999 3.32997C2.10999 3.69997 2.59 4.10997 3.16 4.52997C2.24999 3.56997 1.42999 2.66997 0.779995 1.99997C0.61796 1.82487 0.523864 1.59761 0.514695 1.35921C0.505526 1.12082 0.581888 0.887 0.729995 0.69997C0.888289 0.527431 1.10211 0.41591 1.33419 0.384844C1.56627 0.353778 1.8019 0.405137 1.99999 0.52997C2.40999 0.81997 2.82999 1.12997 3.24999 1.45997C3.15004 1.28539 3.10872 1.08335 3.13212 0.883552C3.15552 0.68375 3.2424 0.496725 3.38 0.34997C3.5412 0.171384 3.76138 0.0568988 4.00015 0.0275108C4.23893 -0.0018773 4.4803 0.0558018 4.67999 0.18997C5.83201 1.01494 6.94019 1.89947 7.99999 2.83997C8.01063 2.60123 8.10641 2.37419 8.27 2.19997C8.42844 1.99633 8.65947 1.86181 8.91479 1.82454C9.1701 1.78726 9.42994 1.85012 9.64 1.99997C11.8956 3.84784 14.0457 5.82095 16.08 7.90997L18.08 9.95997L53.43 48.12C53.4755 48.1697 53.5104 48.2281 53.5328 48.2917C53.5551 48.3553 53.5644 48.4227 53.56 48.49C53.5589 48.5562 53.5441 48.6215 53.5166 48.6817C53.4891 48.7419 53.4494 48.7958 53.4 48.84L42.87 58.11C42.7781 58.1885 42.6609 58.2312 42.54 58.23ZM3.53999 12.44C3.53999 12.44 3.53999 12.44 3.53999 12.52C4.83269 13.8118 6.28432 14.9341 7.85999 15.86L8.68999 16.4C9.05623 16.6987 9.39127 17.0337 9.68999 17.4L42.6 57L52.35 48.42L17.35 10.66L15.35 8.65997C13.3509 6.58608 11.2305 4.63264 9 2.80997C9 2.80997 9 2.86997 9 2.89997C10.1346 3.9189 11.1059 5.10608 11.88 6.41997C11.9221 6.49294 11.9443 6.57571 11.9443 6.65997C11.9443 6.74423 11.9221 6.827 11.88 6.89997C11.8369 6.97084 11.7769 7.02988 11.7053 7.07177C11.6337 7.11367 11.5529 7.13711 11.47 7.13997C11.2724 7.16462 11.0727 7.1147 10.91 6.99997C8.79474 4.8309 6.51822 2.82516 4.09999 0.99997C6.02882 2.86798 7.84217 4.85165 9.52999 6.93997C9.57763 6.99769 9.61141 7.06556 9.62875 7.13836C9.64608 7.21117 9.64651 7.28697 9.63 7.35997C9.61667 7.43318 9.58615 7.50217 9.54095 7.56128C9.49574 7.62039 9.43715 7.66792 9.37 7.69997C9.26618 7.76363 9.14677 7.79732 9.02499 7.79732C8.90322 7.79732 8.78381 7.76363 8.68 7.69997C6.43247 5.40894 4.01928 3.28653 1.45999 1.34997C3.36999 3.22997 6.55 6.90997 8.14 8.91997C8.20989 9.00832 8.24857 9.11732 8.25 9.22997V9.41997C8.2515 9.52038 8.22273 9.61892 8.16744 9.70275C8.11214 9.78658 8.03289 9.85182 7.93999 9.88997C7.8489 9.92528 7.74959 9.93369 7.65386 9.91419C7.55813 9.89469 7.47001 9.8481 7.39999 9.77997C5.41279 7.74343 3.27326 5.86131 0.999995 4.14997C3.13084 6.29071 5.13428 8.5546 6.99999 10.93C7.22689 11.1485 7.39525 11.4205 7.48961 11.721C7.58396 12.0216 7.60129 12.341 7.53999 12.65C7.48643 12.8124 7.39211 12.9583 7.26606 13.0739C7.14 13.1894 6.98642 13.2707 6.81999 13.31C6.43 13.43 5.81999 13.23 4.86999 12.87C4.40999 12.71 3.99999 12.54 3.55999 12.44H3.53999Z" fill="#2C2D2F"/>
<path d="M40.93 37.6099C40.93 37.6099 38.45 36.7299 39.29 35.9699C40.13 35.2099 40.36 36.5399 40.36 36.5399" fill="white"/>
<path d="M40.93 38.11H40.76C40.18 37.91 38.76 37.33 38.64 36.51C38.6045 36.3397 38.6197 36.1628 38.6837 36.0011C38.7477 35.8394 38.8576 35.6999 39 35.6C39.1344 35.4515 39.3079 35.3437 39.5006 35.2889C39.6933 35.2341 39.8975 35.2345 40.09 35.29C40.7 35.5 40.87 36.29 40.9 36.46C40.9145 36.5556 40.9015 36.6534 40.8626 36.7419C40.8236 36.8305 40.7603 36.9061 40.68 36.96L41.14 37.14C41.2646 37.1851 41.3662 37.2779 41.4225 37.3979C41.4787 37.5179 41.485 37.6554 41.44 37.78C41.4061 37.8854 41.3368 37.9758 41.2438 38.0359C41.1509 38.0961 41.04 38.1222 40.93 38.11ZM39.73 36.26L39.63 36.35C39.6917 36.423 39.7662 36.484 39.85 36.53C39.8236 36.4346 39.7831 36.3436 39.73 36.26Z" fill="#2C2D2F"/>
<path d="M50.94 46.75C50.94 46.75 41.69 46.75 39.28 53.75L43.17 58.31L50.94 46.75Z" fill="#2C2D2F"/>
<path d="M62.14 56.62C58.6238 53.3792 55.4105 49.8245 52.54 46C52.54 46 41.54 50.48 40.54 58C40.54 58 58.2 78.17 64.72 85.41" fill="white"/>
<path d="M64.35 85.7499C57.9 78.5899 40.35 58.5299 40.17 58.3299L40 58.1599V57.9299C41.06 50.2099 51.84 45.7299 52.3 45.5399L52.65 45.3999L52.88 45.6899C55.737 49.4918 58.9334 53.0264 62.43 56.2499L61.76 56.9899C58.3155 53.8226 55.1628 50.352 52.34 46.6199C50.52 47.4399 42.07 51.5599 41.02 57.8499C42.77 59.8499 58.92 78.2799 65.02 85.0799L64.35 85.7499Z" fill="#2C2D2F"/>
<path d="M108.9 209.23C108.961 209.22 109.024 209.222 109.084 209.236C109.144 209.251 109.201 209.277 109.251 209.313C109.301 209.349 109.344 209.395 109.376 209.447C109.409 209.5 109.43 209.559 109.44 209.62L113.82 234.93C113.835 234.992 113.836 235.057 113.823 235.12C113.81 235.182 113.783 235.241 113.745 235.293C113.707 235.344 113.658 235.387 113.602 235.417C113.546 235.448 113.484 235.466 113.42 235.47C112.34 235.55 109.69 234.88 107.7 227.37C107.45 226.457 106.991 225.615 106.36 224.91L103 221.12L93.67 210.26L77.9 192.9C82.5072 192.212 86.7596 190.026 90 186.68L104.3 203.8L109.38 209.54" fill="white"/>
<path d="M113.26 236C111.76 236 109.15 234.81 107.21 227.52C106.986 226.681 106.568 225.907 105.99 225.26L102.58 221.47L93.24 210.61L77.53 193.23C77.4661 193.163 77.4227 193.08 77.405 192.99C77.3872 192.899 77.3959 192.806 77.43 192.72C77.4606 192.635 77.5142 192.56 77.5848 192.504C77.6554 192.447 77.7403 192.411 77.83 192.4C82.3062 191.717 86.4361 189.589 89.59 186.34C89.6922 186.241 89.8278 186.184 89.97 186.18C90.043 186.178 90.1156 186.193 90.1817 186.224C90.2478 186.255 90.3055 186.302 90.35 186.36L104.68 203.48L109.42 208.83C109.554 208.9 109.67 208.999 109.76 209.12C109.85 209.242 109.912 209.382 109.94 209.53L114.32 234.84C114.343 234.977 114.336 235.117 114.302 235.251C114.268 235.385 114.206 235.511 114.12 235.62C114.041 235.724 113.94 235.809 113.824 235.87C113.708 235.93 113.58 235.964 113.45 235.97L113.26 236ZM78.89 193.25L94 209.92L103.34 220.79L106.75 224.58C107.434 225.344 107.927 226.259 108.19 227.25C110.19 234.62 112.66 235.02 113.39 234.98L109 209.84L108.88 209.71C108.767 209.711 108.656 209.671 108.57 209.598C108.484 209.524 108.427 209.422 108.41 209.31C108.4 209.264 108.4 209.216 108.41 209.17L103.94 204.17L89.94 187.47C86.9015 190.436 83.0595 192.446 78.89 193.25Z" fill="#2C2D2F"/>
<path d="M104.3 203.8L108.9 209.23C108.961 209.22 109.024 209.222 109.084 209.236C109.144 209.251 109.201 209.277 109.251 209.313C109.301 209.349 109.344 209.395 109.376 209.448C109.409 209.5 109.43 209.559 109.44 209.62L113.82 234.93C113.833 234.993 113.832 235.058 113.818 235.121C113.804 235.183 113.777 235.242 113.738 235.293C113.699 235.344 113.65 235.387 113.593 235.417C113.536 235.448 113.474 235.466 113.41 235.47C112.26 235.55 109.41 234.79 107.41 226.02L107.3 225.81C106.811 224.893 106.068 224.136 105.16 223.63C105.16 223.63 109 212.37 104.3 203.8Z" fill="#2C2D2F"/>
<path d="M84.36 199.69C84.36 199.69 91.86 194.54 90.04 188.41L80.1 195.15L84.36 199.69Z" fill="#2C2D2F"/>
<path d="M91.89 186.86L68.24 155.68C68.24 155.68 92.46 127.6 100.14 119.75C103.93 115.88 105.59 110.3 101.29 103.06L91.17 94.47L74.81 103L45.14 152.77C42.43 157.77 42.51 162.19 46.3 165.33L78.81 199.43L91.89 186.86Z" fill="white"/>
<path d="M78.81 199.93C78.7438 199.929 78.6785 199.914 78.6183 199.887C78.558 199.859 78.5041 199.819 78.46 199.77L45.94 165.68C42.16 162.55 41.72 157.99 44.7 152.53L74.38 102.77C74.4286 102.693 74.4978 102.63 74.58 102.59L90.93 94C91.0195 93.9539 91.1209 93.936 91.2208 93.9484C91.3207 93.9609 91.4146 94.0033 91.49 94.07L101.61 102.66C101.652 102.699 101.689 102.742 101.72 102.79C106.62 111.03 103.72 116.79 100.5 120.08C93.35 127.39 71.5 152.6 68.89 155.68L92.29 186.54C92.3645 186.638 92.3996 186.759 92.3885 186.882C92.3774 187.004 92.3208 187.117 92.23 187.2L79.16 199.79C79.0661 199.881 78.9405 199.931 78.81 199.93ZM75.17 103.41L45.57 153C43.68 156.46 42.32 161.35 46.57 164.92L78.78 198.69L91.17 186.78L67.84 156C67.7702 155.912 67.7323 155.803 67.7323 155.69C67.7323 155.577 67.7702 155.468 67.84 155.38C68.09 155.09 92.16 127.19 99.76 119.38C102.76 116.3 105.4 111.03 100.88 103.38L91.08 95.06L75.17 103.41Z" fill="#2C2D2F"/>
<path d="M66.2 158C66.1296 158.001 66.06 157.986 65.9961 157.956C65.9321 157.927 65.8754 157.884 65.83 157.83C65.7834 157.784 65.7464 157.73 65.7212 157.67C65.6959 157.61 65.6829 157.545 65.6829 157.48C65.6829 157.415 65.6959 157.35 65.7212 157.29C65.7464 157.23 65.7834 157.176 65.83 157.13L67.83 155.35C67.8765 155.303 67.9318 155.266 67.9927 155.241C68.0536 155.215 68.119 155.202 68.185 155.202C68.251 155.202 68.3164 155.215 68.3773 155.241C68.4382 155.266 68.4935 155.303 68.54 155.35C68.6258 155.452 68.6687 155.583 68.6593 155.715C68.65 155.848 68.5892 155.972 68.49 156.06L66.49 157.84C66.4143 157.925 66.312 157.981 66.2 158Z" fill="#2C2D2F"/>
<path d="M171.18 222.86C171.12 222.149 170.941 221.452 170.65 220.8L167.9 214.8L159.17 194.26C155.105 196.516 150.41 197.374 145.81 196.7L155.81 217.88L161.58 230.98L163.74 235.6C164.14 236.46 167.5 242.52 167.91 243.37C170.02 247.77 171.37 247.52 172.42 247.76C172.483 247.773 172.547 247.773 172.61 247.759C172.673 247.746 172.732 247.719 172.783 247.681C172.835 247.644 172.878 247.596 172.911 247.54C172.943 247.485 172.963 247.424 172.97 247.36L171.18 222.86Z" fill="white"/>
<path d="M172.51 248.28C172.444 248.29 172.376 248.29 172.31 248.28L171.98 248.22C170.92 248.03 169.46 247.78 167.45 243.62C167.27 243.23 166.38 241.62 165.53 240.03C164.53 238.2 163.53 236.31 163.29 235.85L161.13 231.22L155.35 218.11L145.35 196.94C145.303 196.861 145.279 196.772 145.279 196.68C145.279 196.589 145.303 196.499 145.35 196.42C145.407 196.349 145.481 196.295 145.565 196.261C145.649 196.228 145.74 196.217 145.83 196.23C150.306 196.868 154.868 196.037 158.83 193.86C158.891 193.822 158.959 193.798 159.029 193.79C159.1 193.781 159.172 193.788 159.24 193.81C159.309 193.832 159.372 193.869 159.425 193.917C159.478 193.965 159.521 194.024 159.55 194.09L168.28 214.64L171.02 220.64C171.344 221.346 171.537 222.105 171.59 222.88L173.39 247.38C173.385 247.534 173.344 247.684 173.271 247.819C173.198 247.954 173.095 248.071 172.97 248.16C172.831 248.242 172.671 248.284 172.51 248.28ZM146.66 197.33L156.26 217.68L162 230.79L164.15 235.4C164.36 235.84 165.43 237.8 166.37 239.54C167.31 241.28 168.12 242.75 168.37 243.17C170.14 246.86 171.26 247.06 172.16 247.17L172.47 247.23L170.69 222.86C170.643 222.205 170.477 221.565 170.2 220.97L167.46 214.97L158.94 194.97C155.165 196.938 150.896 197.759 146.66 197.33Z" fill="#2C2D2F"/>
<path d="M150 205.09C150 205.09 158.67 202.34 158.71 195.95L147.24 199.5L150 205.09Z" fill="#2C2D2F"/>
<path d="M168.47 216.06L163.74 235.61L167.91 243.38L169.31 245.83L170.62 247.18L172.42 247.77L172.97 247.37L171.18 222.86L170.65 220.8L168.47 216.06Z" fill="#2C2D2F"/>
<path d="M83.21 95.89C104.49 89.79 109.73 90.34 109.73 90.34L121.81 116.49L162.52 195.27L145.69 203C128.02 175.1 105.01 139 100.69 127.93C99.18 124.83 95.99 122.76 92.99 118.14L87.7 114.44" fill="white"/>
<path d="M145.69 203.48C145.606 203.482 145.523 203.462 145.449 203.421C145.376 203.381 145.314 203.322 145.27 203.25L143.11 199.85C125.86 172.61 104.39 138.71 100.22 128.09C99.3537 126.525 98.2695 125.091 97 123.83C95.4028 122.173 93.954 120.38 92.67 118.47L87.47 114.83C87.4159 114.792 87.3699 114.744 87.3345 114.688C87.2992 114.632 87.2752 114.57 87.2641 114.505C87.2529 114.44 87.2548 114.373 87.2695 114.309C87.2843 114.245 87.3116 114.184 87.35 114.13C87.4223 114.031 87.5293 113.963 87.6496 113.938C87.77 113.914 87.895 113.936 88 114L93.29 117.7C93.3407 117.739 93.3847 117.787 93.42 117.84C94.6887 119.726 96.1173 121.499 97.69 123.14C99.0562 124.479 100.222 126.008 101.15 127.68C105.29 138.25 126.74 172.1 143.97 199.31L145.89 202.31L161.89 194.99L121.43 116.67L109.43 90.7901C108.08 90.7901 101.68 91.0801 83.38 96.3301C83.317 96.3499 83.2506 96.3567 83.1849 96.3502C83.1191 96.3437 83.0554 96.324 82.9975 96.2922C82.9396 96.2605 82.8887 96.2174 82.8479 96.1654C82.8071 96.1135 82.7772 96.0539 82.76 95.9901C82.7255 95.8628 82.7417 95.7272 82.8051 95.6116C82.8685 95.496 82.9741 95.4094 83.1 95.3701C104.23 89.3101 109.59 89.7701 109.81 89.8001C109.896 89.8106 109.977 89.8427 110.047 89.8934C110.117 89.9441 110.173 90.0118 110.21 90.0901L122.3 116.24L163 195C163.029 195.061 163.044 195.128 163.044 195.195C163.044 195.263 163.029 195.329 163 195.39C162.98 195.454 162.946 195.513 162.901 195.563C162.857 195.613 162.802 195.653 162.74 195.68L145.91 203.4C145.844 203.443 145.768 203.47 145.69 203.48Z" fill="#2C2D2F"/>
<path d="M86.65 43.9199L74.09 46.7999C71.7925 47.0905 69.6391 48.0782 67.92 49.6299L62.71 56.0699" fill="white"/>
<path d="M62.71 56.5699C62.5973 56.5685 62.4883 56.5298 62.4 56.4599C62.297 56.3774 62.2307 56.2576 62.2158 56.1264C62.2008 55.9953 62.2382 55.8635 62.32 55.7599L67.53 49.3099C69.3367 47.6654 71.6064 46.6178 74.03 46.3099L86.54 43.4399C86.6057 43.4255 86.6735 43.4241 86.7397 43.4359C86.8059 43.4477 86.8691 43.4724 86.9258 43.5086C86.9824 43.5448 87.0314 43.5918 87.0698 43.647C87.1083 43.7021 87.1356 43.7643 87.15 43.8299C87.1644 43.8956 87.1658 43.9635 87.154 44.0297C87.1423 44.0958 87.1175 44.1591 87.0813 44.2157C87.0451 44.2723 86.9981 44.3213 86.943 44.3598C86.8878 44.3983 86.8257 44.4255 86.76 44.4399L74.2 47.2899C71.9674 47.5494 69.8707 48.4964 68.2 49.9999L63.1 56.3799C63.0545 56.44 62.9954 56.4885 62.9277 56.5215C62.8599 56.5545 62.7854 56.5711 62.71 56.5699Z" fill="#2C2D2F"/>
<path d="M59.72 59.05L62.14 56.62C64.56 68.62 71.71 68.43 71.71 68.43C84.48 67.19 84.12 44.5 84.12 44.5C89.39 42.72 92.32 44.4 92.32 44.4C105.25 50.78 106.47 77.11 106.5 79.4C106.53 81.69 109.85 90 109.85 90L105.75 95C102.931 98.4089 99.1607 100.901 94.92 102.16C85.12 105.71 74.34 102.84 74.34 102.84C73.97 100.84 73.69 98.73 73.46 96.75C68.0274 91.9436 64.0562 85.7061 62 78.75" fill="white"/>
<path d="M83.91 104.41C80.6466 104.42 77.3936 104.04 74.22 103.28L73.91 103.2V102.89C73.59 101.17 73.3 99.1799 73.05 96.9599C67.6012 92.1355 63.6166 85.8779 61.55 78.8999C61.5283 78.8375 61.5194 78.7715 61.5238 78.7056C61.5283 78.6398 61.546 78.5755 61.5758 78.5167C61.6057 78.4579 61.6472 78.4057 61.6977 78.3633C61.7483 78.3209 61.8069 78.2891 61.87 78.2699C61.9973 78.232 62.1344 78.2453 62.252 78.3069C62.3697 78.3686 62.4586 78.4736 62.5 78.5999C64.5172 85.4582 68.435 91.6052 73.8 96.3299L73.94 96.4599V96.6499C74.18 98.7899 74.46 100.72 74.75 102.39C76.49 102.8 85.31 104.61 93.64 102.02H93.58L94.75 101.67C98.8968 100.446 102.582 98.0077 105.33 94.6699L109.25 89.9199C108.66 88.4399 105.99 81.5899 105.97 79.4499C105.97 79.1699 105.27 51.3999 92.07 44.8799C92.07 44.8799 89.34 43.3999 84.59 44.8799C84.546 48.6756 84.0662 52.4536 83.16 56.1399C81.16 63.9899 77.16 68.4199 71.73 68.9399C71.38 68.9399 64.45 68.9399 61.82 57.6399L60.07 59.3999C59.9772 59.4927 59.8513 59.5448 59.72 59.5448C59.5887 59.5448 59.4628 59.4927 59.37 59.3999C59.2772 59.307 59.225 59.1811 59.225 59.0499C59.225 58.9186 59.2772 58.7927 59.37 58.6999L62.45 55.5999L62.63 56.5199C64.93 67.9099 71.43 67.8999 71.7 67.9299C83.83 66.7499 83.63 44.7299 83.62 44.5099V44.1399L84 43.9999C89.42 42.1699 92.48 43.8699 92.61 43.9499C106.28 50.7299 107 79.1199 107 79.3999C107 81.2099 109.4 87.5199 110.32 89.7999L110.43 90.0699L106.14 95.2799C103.29 98.7316 99.4844 101.264 95.2 102.56H95.1C91.5047 103.818 87.7188 104.444 83.91 104.41Z" fill="#2C2D2F"/>
<path d="M74.86 105.61C80.8542 107.01 87.0849 107.057 93.1 105.75C103 103.56 111.1 93.3599 111.1 93.3599" fill="white"/>
<path d="M84.35 107.18C81.1075 107.211 77.8735 106.845 74.72 106.09C74.657 106.072 74.5982 106.041 74.547 106C74.4958 105.959 74.4532 105.908 74.4216 105.851C74.3578 105.734 74.3429 105.597 74.38 105.47C74.3973 105.407 74.4268 105.349 74.467 105.298C74.5071 105.247 74.557 105.204 74.6138 105.172C74.6706 105.141 74.7331 105.121 74.7976 105.113C74.8622 105.106 74.9276 105.112 74.99 105.13C80.9077 106.494 87.0532 106.538 92.99 105.26C102.61 103.14 110.65 93.1501 110.73 93.0401C110.814 92.9367 110.935 92.8706 111.067 92.8566C111.199 92.8425 111.332 92.8815 111.435 92.9651C111.538 93.0486 111.604 93.1698 111.618 93.302C111.633 93.4343 111.594 93.5666 111.51 93.6701C111.18 94.0901 103.17 104.04 93.21 106.24C90.2993 106.873 87.3286 107.188 84.35 107.18Z" fill="#2C2D2F"/>
<path d="M65.48 53L62.63 44C65.5075 43.6573 68.1447 42.226 70 40L75.37 48.59" fill="white"/>
<path d="M65.48 53.4599C65.3744 53.46 65.2716 53.426 65.1869 53.3629C65.1022 53.2998 65.0402 53.2111 65.01 53.1099L62 43.5499H62.63C65.359 43.197 67.8566 41.834 69.63 39.7299L70.07 39.1599L75.8 48.2999C75.8348 48.3557 75.8583 48.4178 75.8691 48.4827C75.8798 48.5476 75.8778 48.614 75.8629 48.6781C75.8481 48.7421 75.8207 48.8026 75.7825 48.8562C75.7442 48.9097 75.6958 48.9551 75.64 48.9899C75.5842 49.0247 75.5221 49.0482 75.4572 49.059C75.3923 49.0698 75.3259 49.0677 75.2619 49.0528C75.1978 49.038 75.1373 49.0106 75.0838 48.9724C75.0303 48.9341 74.9848 48.8857 74.95 48.8299L69.95 40.8299C68.1786 42.7142 65.8399 43.9679 63.29 44.3999L66 52.7999C66.041 52.9259 66.0303 53.063 65.9703 53.1811C65.9103 53.2992 65.8059 53.3887 65.68 53.4299L65.48 53.4599Z" fill="#2C2D2F"/>
<path d="M64.18 48.3599C64.18 48.3599 68.18 47.3599 68.98 44.8199C69.4772 43.3288 69.7041 41.7609 69.65 40.1899L62.41 43.4699L64.18 48.3599Z" fill="#2C2D2F"/>
<path d="M59.75 45.95C65.9521 45.95 70.98 40.9221 70.98 34.72C70.98 28.5178 65.9521 23.49 59.75 23.49C53.5478 23.49 48.52 28.5178 48.52 34.72C48.52 40.9221 53.5478 45.95 59.75 45.95Z" fill="white"/>
<path d="M59.77 46.4501C56.8813 46.4497 54.0947 45.3816 51.9458 43.451C49.7969 41.5205 48.4374 38.8639 48.1286 35.9917C47.8199 33.1195 48.5836 30.2346 50.2731 27.8915C51.9625 25.5483 54.4585 23.9123 57.2811 23.298C60.1037 22.6836 63.0538 23.1342 65.5643 24.5632C68.0748 25.9922 69.9685 28.2987 70.8814 31.0393C71.7943 33.78 71.662 36.7614 70.5099 39.4104C69.3578 42.0594 67.2672 44.1891 64.64 45.3901C63.1111 46.0876 61.4504 46.449 59.77 46.4501ZM59.77 24.0001C57.4542 24.0058 55.2024 24.7612 53.3518 26.1535C51.5012 27.5457 50.1512 29.4998 49.5038 31.7233C48.8564 33.9468 48.9464 36.3201 49.7605 38.4882C50.5745 40.6562 52.0687 42.5024 54.0196 43.7503C55.9704 44.9983 58.2729 45.581 60.5825 45.4112C62.8921 45.2413 65.0846 44.3282 66.8319 42.8083C68.5792 41.2884 69.7873 39.2436 70.2755 36.9798C70.7637 34.716 70.5056 32.355 69.54 30.2501C68.6814 28.3755 67.3 26.7886 65.5616 25.68C63.8232 24.5713 61.8018 23.988 59.74 24.0001H59.77Z" fill="#2C2D2F"/>
<path d="M53.18 25.39C53.18 25.39 60.08 35.65 65.35 36.6C65.35 36.6 60.23 41.33 61.87 45.75C61.87 45.75 74.34 42.75 69.96 30.05C70 30.05 65.41 20.12 53.18 25.39Z" fill="#2C2D2F"/>
<path d="M75.38 39.3699C79.0195 39.3699 81.97 36.4195 81.97 32.7799C81.97 29.1404 79.0195 26.1899 75.38 26.1899C71.7404 26.1899 68.79 29.1404 68.79 32.7799C68.79 36.4195 71.7404 39.3699 75.38 39.3699Z" fill="#2C2D2F"/>
<path d="M112.77 100C112.77 100 110.77 101.93 111.91 102.29C113.05 102.65 112.69 101.29 112.69 101.29" fill="white"/>
<path d="M112.25 102.82C112.083 102.815 111.918 102.785 111.76 102.73C111.597 102.689 111.448 102.604 111.33 102.484C111.212 102.364 111.129 102.214 111.09 102.05C110.89 101.21 111.95 100.05 112.42 99.6101C112.466 99.5632 112.522 99.526 112.583 99.5006C112.644 99.4752 112.709 99.4622 112.775 99.4622C112.841 99.4622 112.906 99.4752 112.967 99.5006C113.028 99.526 113.084 99.5632 113.13 99.6101C113.222 99.7052 113.274 99.8325 113.274 99.9651C113.274 100.098 113.222 100.225 113.13 100.32C112.989 100.453 112.856 100.593 112.73 100.74C112.836 100.746 112.937 100.785 113.019 100.852C113.101 100.918 113.161 101.008 113.19 101.11C113.265 101.353 113.281 101.611 113.236 101.862C113.19 102.112 113.085 102.348 112.93 102.55C112.841 102.639 112.735 102.708 112.618 102.755C112.501 102.801 112.376 102.823 112.25 102.82ZM112.25 101.43C112.164 101.548 112.109 101.685 112.09 101.83C112.16 101.84 112.23 101.84 112.3 101.83C112.3 101.83 112.25 101.59 112.22 101.43H112.25Z" fill="#2C2D2F"/>
<path d="M134.34 114.25L102.62 73L114 64.79L143.37 107.7L144.93 110.1C146.514 112.519 147.954 115.03 149.24 117.62C149.49 118.15 148.62 118.62 148.31 118.15C147.572 116.859 146.653 115.68 145.58 114.65C145.575 114.7 145.575 114.75 145.58 114.8C147.241 117.352 148.705 120.026 149.96 122.8C150.002 122.908 150.003 123.028 149.962 123.137C149.921 123.245 149.841 123.335 149.738 123.388C149.635 123.442 149.516 123.455 149.404 123.426C149.291 123.397 149.194 123.327 149.13 123.23C147.91 121.23 145.88 118.4 144.52 116.7L144.43 116.79C146.181 119.509 147.722 122.357 149.04 125.31C149.093 125.42 149.102 125.545 149.064 125.661C149.026 125.777 148.945 125.874 148.837 125.931C148.73 125.988 148.604 126.001 148.487 125.967C148.37 125.933 148.271 125.856 148.21 125.75C146.81 123.59 143.94 119.67 142.28 117.62H142.09C143.651 120.042 145.025 122.579 146.2 125.21C146.242 125.318 146.243 125.438 146.202 125.547C146.161 125.655 146.082 125.745 145.978 125.798C145.875 125.852 145.756 125.865 145.644 125.836C145.531 125.807 145.434 125.737 145.37 125.64C143.94 123.36 141.29 119.86 140.07 118.36C138.98 117.04 138.54 117.92 138.54 117.92C138.31 118.32 138.7 119.92 138.73 121.04C138.73 121.55 137.98 121.69 137.68 121.28C136.49 119.64 135.46 116.35 135.04 115.28C134.839 114.916 134.604 114.571 134.34 114.25Z" fill="white"/>
<path d="M148.55 126.5C148.39 126.497 148.232 126.455 148.091 126.379C147.95 126.302 147.83 126.193 147.74 126.06C147.23 125.27 146.54 124.27 145.8 123.23C146.09 123.83 146.37 124.43 146.61 125.02C146.656 125.234 146.63 125.457 146.537 125.655C146.443 125.853 146.288 126.015 146.094 126.116C145.9 126.217 145.678 126.251 145.462 126.214C145.247 126.177 145.049 126.07 144.9 125.91C143.51 123.71 140.9 120.24 139.63 118.68C139.17 118.11 138.95 118.14 138.95 118.13C138.914 118.608 138.94 119.089 139.03 119.56C139.108 120.047 139.158 120.538 139.18 121.03C139.177 121.235 139.111 121.434 138.991 121.6C138.872 121.767 138.704 121.892 138.51 121.96C138.282 122.038 138.035 122.044 137.804 121.976C137.573 121.908 137.369 121.769 137.22 121.58C136.234 119.955 135.442 118.219 134.86 116.41C134.72 116.03 134.61 115.72 134.52 115.51C134.357 115.16 134.162 114.826 133.94 114.51L102.23 73.31C102.187 73.2595 102.156 73.2001 102.139 73.1361C102.121 73.0722 102.118 73.0052 102.13 72.94C102.139 72.8727 102.161 72.8079 102.195 72.7494C102.229 72.691 102.275 72.6401 102.33 72.6L113.69 64.39C113.8 64.3117 113.936 64.2795 114.07 64.3C114.136 64.3104 114.2 64.3345 114.257 64.3706C114.314 64.4067 114.362 64.4542 114.4 64.51L143.78 107.42L145.34 109.83C146.94 112.266 148.389 114.797 149.68 117.41C149.786 117.648 149.796 117.918 149.706 118.163C149.617 118.407 149.435 118.607 149.2 118.72C148.989 118.835 148.748 118.88 148.51 118.85C149.199 120.083 149.823 121.352 150.38 122.65C150.439 122.851 150.433 123.066 150.363 123.264C150.292 123.462 150.162 123.633 149.989 123.752C149.817 123.872 149.611 123.934 149.401 123.93C149.191 123.926 148.988 123.856 148.82 123.73C149.05 124.22 149.26 124.73 149.45 125.16C149.535 125.385 149.537 125.633 149.454 125.859C149.372 126.085 149.21 126.273 149 126.39C148.862 126.465 148.707 126.503 148.55 126.5ZM142 117.12H142.11H142.3C142.408 117.148 142.505 117.207 142.58 117.29C144.19 119.29 147.08 123.21 148.58 125.46C147.241 122.575 145.711 119.782 144 117.1C143.937 117.013 143.902 116.908 143.902 116.8C143.902 116.692 143.937 116.587 144 116.5C144.114 116.379 144.266 116.302 144.43 116.28C144.586 116.273 144.738 116.323 144.86 116.42C146.21 118.12 148.26 121.01 149.51 123C148.222 120.261 146.752 117.612 145.11 115.07C145.071 115.008 145.046 114.939 145.035 114.866C145.025 114.794 145.03 114.72 145.05 114.65C145.075 114.56 145.12 114.477 145.183 114.407C145.245 114.338 145.323 114.284 145.41 114.25C145.484 114.211 145.566 114.19 145.65 114.19C145.734 114.19 145.816 114.211 145.89 114.25C147.004 115.309 147.957 116.525 148.72 117.86C148.72 117.86 148.77 117.8 148.78 117.77C147.492 115.224 146.067 112.751 144.51 110.36L142.94 107.96L113.87 65.5L103.33 73.11L134.73 113.94C135 114.304 135.234 114.692 135.43 115.1C135.53 115.34 135.65 115.67 135.79 116.1C136.336 117.813 137.077 119.457 138 121C138.12 121 138.16 121 138.17 121C138.17 120.65 138.06 120.16 138 119.69C137.821 119.035 137.821 118.345 138 117.69C138.078 117.542 138.192 117.415 138.332 117.323C138.472 117.23 138.633 117.174 138.8 117.16C139.3 117.09 139.8 117.4 140.35 118.06C141.64 119.64 144.29 123.16 145.69 125.4C144.481 122.813 143.105 120.308 141.57 117.9C141.514 117.819 141.483 117.723 141.483 117.625C141.483 117.527 141.514 117.431 141.57 117.35C141.613 117.275 141.676 117.214 141.752 117.173C141.828 117.133 141.914 117.114 142 117.12Z" fill="#2C2D2F"/>
<path d="M121.89 79C121.89 79 122.2 81.61 123.12 81C124.04 80.39 122.81 79.83 122.81 79.83" fill="white"/>
<path d="M122.84 81.5899C122.719 81.5904 122.599 81.563 122.49 81.5099C121.72 81.1699 121.49 79.6999 121.39 79.0799C121.376 78.9487 121.414 78.8173 121.497 78.7142C121.579 78.6112 121.699 78.5449 121.83 78.5299C121.895 78.52 121.961 78.5235 122.024 78.5401C122.087 78.5567 122.146 78.586 122.198 78.6263C122.249 78.6665 122.292 78.7169 122.323 78.7742C122.355 78.8316 122.374 78.8948 122.38 78.9599C122.38 79.1199 122.43 79.2899 122.46 79.4499C122.531 79.3834 122.62 79.3387 122.715 79.321C122.811 79.3032 122.91 79.3133 123 79.3499C123.15 79.4099 123.89 79.7499 124 80.3499C124.013 80.5516 123.969 80.753 123.871 80.9302C123.774 81.1074 123.628 81.253 123.45 81.3499C123.279 81.4961 123.065 81.5807 122.84 81.5899ZM122.72 80.3299C122.76 80.4318 122.821 80.5239 122.9 80.5999C122.96 80.4599 122.98 80.4499 122.97 80.4499C122.881 80.4217 122.797 80.3813 122.72 80.3299Z" fill="#2C2D2F"/>
<path d="M104.64 74.7C104.64 74.7 113.19 75.33 117.09 69.01L114 64.79L104.64 74.7Z" fill="#2C2D2F"/>
<path d="M84.12 44.4999C94.4 41.6799 102 48.4299 102 48.4299C102 48.4299 112 56.3699 116.27 65.8499C116.27 65.8499 109.48 75.5399 101.92 74.8499C101.92 74.8499 94.57 66.8499 92.25 62.0899" fill="white"/>
<path d="M102.66 75.4199C102.4 75.4199 102.14 75.4199 101.88 75.4199H101.68L101.55 75.28C101.25 74.95 94.12 67.12 91.8 62.4L92.69 61.96C94.79 66.21 101.15 73.35 102.16 74.46C108.62 74.88 114.63 67.2599 115.69 65.8399C111.49 56.6999 101.75 48.95 101.69 48.84C101.63 48.73 94.14 42.27 84.26 45L84 44C94.41 41.14 102.23 48 102.31 48C102.39 48 112.5 56.1199 116.74 65.5899L116.85 65.85L116.69 66.08C116.41 66.52 110.09 75.4199 102.66 75.4199Z" fill="#2C2D2F"/>
<path d="M96.767 67.9925L96.0018 68.6362L101.531 75.2098L102.297 74.5661L96.767 67.9925Z" fill="#2C2D2F"/>
<path d="M200.21 262.8H59.39V263.8H200.21V262.8Z" fill="#2C2D2F"/>
</g>
<defs>
<clipPath id="clip0">
<rect width="200.21" height="263.8" fill="white"/>
</clipPath>
</defs>
</svg>
