<svg width="215" height="254" viewBox="0 0 215 254" fill="none" xmlns="http://www.w3.org/2000/svg">
<path d="M157 155.915C157.092 152.611 156.09 149.368 154.15 146.692C152.21 144.015 149.439 142.055 146.27 141.115C139.88 139.395 133.09 142.555 128.77 147.225C126.828 149.255 125.375 151.7 124.52 154.375C123.88 156.475 123.66 159.375 126 160.485C128.34 161.595 130.52 159.935 132 158.265C133.85 156.215 135.17 153.755 137.44 152.105C138.843 151.067 140.447 150.332 142.15 149.948C143.853 149.564 145.617 149.539 147.33 149.875C149.003 150.227 150.57 150.971 151.9 152.045C153.317 153.355 154.494 154.901 155.38 156.615C155.473 156.737 155.608 156.821 155.758 156.851C155.909 156.881 156.065 156.854 156.198 156.777C156.331 156.7 156.431 156.576 156.479 156.431C156.527 156.285 156.52 156.126 156.46 155.985C155.02 153.595 153.59 151.415 151.11 149.985C148.853 148.712 146.257 148.171 143.68 148.435C141.091 148.682 138.622 149.644 136.55 151.215C134.63 152.665 133.39 154.605 131.89 156.455C130.68 157.955 127.89 161.065 125.89 158.905C124.24 157.165 125.98 153.495 126.89 151.795C129.89 146.485 135.67 142.215 141.89 141.905C149.6 141.515 155.98 148.295 155.71 155.905C155.71 156.705 156.94 156.705 156.96 155.905L157 155.915Z" fill="#2C2D2F"/>
<path d="M143.31 246.985C143.254 246.995 143.196 246.995 143.14 246.985C143.015 246.94 142.913 246.848 142.855 246.728C142.797 246.609 142.788 246.471 142.83 246.345C149.35 227.565 152.48 192.655 154.35 171.805C154.82 166.535 155.23 161.995 155.59 158.805C155.828 156.876 155.424 154.922 154.44 153.245C154.405 153.189 154.382 153.126 154.372 153.061C154.362 152.996 154.365 152.929 154.381 152.865C154.397 152.801 154.425 152.74 154.464 152.687C154.504 152.634 154.553 152.589 154.61 152.555C154.666 152.521 154.727 152.498 154.792 152.488C154.856 152.478 154.922 152.481 154.986 152.497C155.049 152.513 155.109 152.541 155.161 152.58C155.213 152.62 155.257 152.669 155.29 152.725C156.393 154.589 156.847 156.766 156.58 158.915C156.22 162.045 155.81 166.585 155.34 171.835C153.47 192.745 150.34 227.735 143.78 246.625C143.749 246.727 143.687 246.816 143.602 246.88C143.518 246.945 143.416 246.982 143.31 246.985Z" fill="#2C2D2F"/>
<path d="M178.81 149.215C181.73 143.105 189.19 139.755 195.62 142.215C201.53 144.485 205.31 150.875 206.11 156.935C206.515 159.286 206.287 161.702 205.45 163.935C204.34 166.415 201.76 166.085 200.64 163.805C199.64 161.685 199.51 159.215 199.03 156.945C198.484 154.389 197.233 152.037 195.42 150.155C193.324 147.955 190.534 146.542 187.52 146.155C183.96 145.735 181.1 147.095 178.15 148.905C178.028 148.998 177.944 149.133 177.914 149.284C177.884 149.434 177.911 149.591 177.988 149.723C178.065 149.856 178.189 149.956 178.334 150.004C178.48 150.052 178.639 150.046 178.78 149.985C180.261 148.943 181.898 148.143 183.63 147.615C185.273 147.222 186.986 147.222 188.63 147.615C190.27 148.034 191.808 148.782 193.151 149.814C194.493 150.845 195.612 152.138 196.44 153.615C197.81 156.005 197.99 158.615 198.54 161.225C198.97 163.295 199.71 165.975 201.92 166.805C207.4 168.865 207.78 159.955 207.34 156.735C206.49 150.455 202.69 144.015 196.73 141.375C189.67 138.255 181.04 141.745 177.73 148.635C177.39 149.355 178.47 149.995 178.81 149.265V149.215Z" fill="#2C2D2F"/>
<path d="M152.17 249.165H152.1C152.035 249.157 151.971 249.135 151.914 249.102C151.857 249.068 151.808 249.023 151.768 248.97C151.729 248.917 151.701 248.856 151.686 248.792C151.671 248.727 151.669 248.66 151.68 248.595C155.38 223.425 171.39 165.435 176.68 151.525C177.438 149.496 178.844 147.774 180.68 146.625C180.737 146.591 180.799 146.568 180.864 146.558C180.93 146.549 180.996 146.552 181.06 146.567C181.124 146.583 181.185 146.611 181.238 146.65C181.291 146.69 181.336 146.739 181.37 146.795C181.404 146.852 181.427 146.914 181.437 146.98C181.447 147.045 181.444 147.111 181.428 147.175C181.412 147.24 181.384 147.3 181.345 147.353C181.306 147.406 181.257 147.451 181.2 147.485C179.547 148.511 178.284 150.06 177.61 151.885C172.28 165.765 156.32 223.625 152.61 248.745C152.592 248.853 152.539 248.952 152.46 249.028C152.38 249.104 152.279 249.152 152.17 249.165Z" fill="#2C2D2F"/>
<path d="M148.39 248.235C148.334 248.245 148.276 248.245 148.22 248.235C148.096 248.192 147.994 248.102 147.936 247.984C147.878 247.866 147.869 247.73 147.91 247.605C155.97 224.425 167.42 151.315 169.29 135.015C169.535 133.086 169.13 131.13 168.14 129.455C168.106 129.399 168.083 129.336 168.073 129.271C168.062 129.206 168.065 129.139 168.081 129.075C168.097 129.011 168.125 128.95 168.165 128.897C168.204 128.844 168.253 128.799 168.31 128.765C168.366 128.731 168.429 128.708 168.494 128.698C168.56 128.688 168.626 128.691 168.691 128.706C168.755 128.722 168.815 128.751 168.868 128.79C168.921 128.829 168.966 128.879 169 128.935C170.102 130.799 170.553 132.977 170.28 135.125C168.41 151.455 156.93 224.685 148.86 247.925C148.822 248.018 148.757 248.097 148.673 248.153C148.589 248.208 148.49 248.237 148.39 248.235Z" fill="#2C2D2F"/>
<path d="M164.26 169.785C164.195 169.783 164.131 169.767 164.071 169.74C164.012 169.712 163.959 169.673 163.916 169.624C163.872 169.576 163.838 169.519 163.817 169.458C163.795 169.396 163.786 169.331 163.79 169.265C164.24 161.535 162.35 145.165 162.33 144.995C162.316 144.864 162.354 144.733 162.437 144.63C162.519 144.527 162.639 144.46 162.77 144.445C162.835 144.437 162.901 144.442 162.965 144.46C163.028 144.477 163.087 144.508 163.138 144.549C163.19 144.59 163.232 144.641 163.263 144.699C163.295 144.756 163.314 144.82 163.32 144.885C163.32 145.045 165.24 161.515 164.79 169.315C164.786 169.381 164.769 169.445 164.741 169.505C164.712 169.564 164.672 169.617 164.623 169.66C164.573 169.704 164.516 169.738 164.454 169.759C164.392 169.78 164.326 169.789 164.26 169.785Z" fill="#2C2D2F"/>
<path d="M163.34 149.805H163.29C163.167 149.791 163.054 149.732 162.971 149.64C162.888 149.548 162.842 149.429 162.84 149.305C162.763 146.915 162.247 144.559 161.32 142.355C160.437 140.133 158.97 138.191 157.074 136.734C155.178 135.276 152.924 134.358 150.55 134.075C144.13 133.075 139.99 131.245 138.24 128.615C137.879 128.119 137.626 127.554 137.495 126.955C137.364 126.356 137.359 125.736 137.48 125.135C137.634 124.456 137.932 123.817 138.353 123.262C138.773 122.707 139.308 122.248 139.92 121.915C142.69 120.345 147.42 120.605 153.97 122.655C168.11 127.085 163.87 149.185 163.83 149.405C163.805 149.517 163.743 149.618 163.655 149.69C163.566 149.763 163.455 149.803 163.34 149.805ZM144.59 121.905C143.144 121.833 141.704 122.136 140.41 122.785C139.909 123.047 139.471 123.414 139.126 123.861C138.781 124.308 138.536 124.825 138.41 125.375C138.323 125.842 138.333 126.322 138.439 126.785C138.546 127.248 138.747 127.684 139.03 128.065C140.12 129.705 143.03 131.905 150.66 133.065C159.34 134.415 162.28 141.065 163.28 145.385C163.79 139.035 163.44 126.665 153.63 123.595C150.717 122.588 147.67 122.018 144.59 121.905Z" fill="#2C2D2F"/>
<path d="M169.79 135.035C169.79 135.035 157 120.565 163.62 119.815C170.24 119.065 172.2 129.605 169.79 135.035Z" fill="#2C2D2F"/>
<path d="M169.79 135.515C169.719 135.515 169.649 135.501 169.584 135.474C169.519 135.446 169.46 135.406 169.41 135.355C168.41 134.245 159.94 124.495 161.41 120.745C161.595 120.317 161.9 119.952 162.289 119.694C162.678 119.437 163.134 119.298 163.6 119.295C164.66 119.167 165.734 119.335 166.704 119.782C167.673 120.229 168.499 120.936 169.09 121.825C171.49 125.105 172.04 131.245 170.27 135.225C170.235 135.3 170.182 135.366 170.115 135.416C170.049 135.467 169.972 135.501 169.89 135.515H169.79ZM164.29 120.255H163.68C162.58 120.385 162.38 120.905 162.32 121.075C161.32 123.595 166.84 130.775 169.62 134.075C170.89 130.405 170.33 125.255 168.25 122.425C167.819 121.768 167.232 121.227 166.541 120.852C165.85 120.477 165.076 120.279 164.29 120.275V120.255Z" fill="#2C2D2F"/>
<path d="M158.67 203.815C158.67 203.815 163.87 193.615 168.54 197.575C173.21 201.535 158.67 203.815 158.67 203.815Z" fill="#2C2D2F"/>
<path d="M158.67 204.315C158.59 204.317 158.51 204.298 158.439 204.262C158.367 204.225 158.306 204.171 158.26 204.105C158.213 204.027 158.189 203.937 158.189 203.845C158.189 203.754 158.213 203.664 158.26 203.585C158.4 203.325 161.66 197.015 165.51 196.245C166.115 196.129 166.74 196.159 167.331 196.333C167.923 196.507 168.464 196.82 168.91 197.245C169.298 197.501 169.601 197.868 169.779 198.297C169.957 198.727 170.003 199.2 169.91 199.655C169.06 202.655 159.81 204.195 158.76 204.355L158.67 204.315ZM166.25 197.165C166.055 197.166 165.861 197.186 165.67 197.225C163.08 197.745 160.67 201.415 159.67 203.145C163.39 202.455 168.52 200.985 168.99 199.335C168.99 199.185 169.16 198.715 168.27 197.955C167.719 197.449 166.998 197.168 166.25 197.165Z" fill="#2C2D2F"/>
<path d="M174.62 199.955C173.906 199.976 173.205 199.765 172.62 199.355C171.13 198.305 170.46 195.945 170.62 192.355C170.75 189.485 170.22 187.355 169.09 186.095C168.585 185.498 167.868 185.121 167.09 185.045C166.987 185.038 166.889 185 166.808 184.936C166.727 184.872 166.668 184.785 166.637 184.686C166.607 184.588 166.607 184.482 166.638 184.384C166.669 184.286 166.729 184.199 166.81 184.135C166.98 184.015 170.99 181.225 174.58 182.385C176.48 182.995 177.89 184.595 178.75 187.115C181.63 195.505 179.97 198.115 176.59 199.525C175.966 199.79 175.298 199.936 174.62 199.955ZM168.41 184.365C168.947 184.602 169.433 184.942 169.84 185.365C171.19 186.815 171.84 189.175 171.66 192.365C171.48 195.555 172.05 197.685 173.23 198.515C173.689 198.765 174.2 198.9 174.723 198.911C175.245 198.921 175.762 198.806 176.23 198.575C178.63 197.575 180.74 195.915 177.83 187.415C177.07 185.195 175.88 183.815 174.29 183.305C172.16 182.635 169.73 183.655 168.41 184.365Z" fill="#2C2D2F"/>
<path d="M171.78 168.845H171.68C171.615 168.831 171.554 168.804 171.5 168.766C171.446 168.728 171.4 168.68 171.365 168.624C171.33 168.569 171.306 168.506 171.295 168.441C171.283 168.376 171.285 168.309 171.3 168.245L182.19 119.145C182.219 119.013 182.3 118.897 182.414 118.824C182.529 118.751 182.667 118.726 182.8 118.755C182.933 118.784 183.048 118.865 183.121 118.979C183.194 119.094 183.219 119.233 183.19 119.365L172.29 168.465C172.262 168.578 172.196 168.677 172.103 168.747C172.01 168.816 171.896 168.851 171.78 168.845Z" fill="#2C2D2F"/>
<path d="M181.49 123.515C178.97 114.345 159.35 117.635 157.94 113.955C155.06 106.475 165.12 108.855 168.1 109.705C172.64 111.09 176.852 113.383 180.48 116.445C178.35 112.165 174.79 109.565 171.02 107.215C168.22 105.675 158.55 102.055 159.32 97.7353C160.99 87.9753 180.32 106.395 182.44 110.235C181.88 106.035 176.44 85.7253 185.09 84.7453C192.19 84.1153 184.33 103.145 186.18 106.745C189.28 103.575 193.65 96.9053 197.48 94.3553C205.96 88.6953 211.4 92.4653 205.27 96.7953C199.8 100.665 191.47 105.795 188.27 113.055C192.6 111.325 195.97 108.795 200.38 107.965C203 107.285 214.74 106.035 213.38 111.075C211.38 117.275 192.38 113.585 187.52 117.365C190.4 119.795 196.3 118.165 200.23 119.825C204.13 121.055 209.88 125.915 202.85 127.425C196.23 128.425 188.04 118.215 181.53 123.485" fill="#2C2D2F"/>
<path d="M154.23 188.935C150.05 184.265 139.43 191.935 137.52 190.205C133.63 186.635 140.27 185.085 142.27 184.715C145.358 184.2 148.519 184.319 151.56 185.065C149.04 183.155 146.18 182.675 143.27 182.385C141.16 182.305 134.39 183.005 133.58 180.225C131.7 173.975 148.53 179.175 150.89 180.825C149.33 178.505 140.17 168.105 144.97 164.995C148.97 162.545 149.92 176.075 152.09 177.685C152.98 174.895 153.61 169.685 155.09 167.055C158.43 161.225 162.75 161.845 160.41 166.205C158.31 170.095 154.91 175.595 155.13 180.795C157.18 178.505 158.43 176.025 160.78 174.245C162.13 173.065 168.69 168.885 169.36 172.245C170.02 176.485 157.68 179.895 155.94 183.545C158.35 184.135 161.35 181.445 164.16 181.275C166.82 180.855 171.64 182.035 167.94 184.985C164.33 187.535 156.49 183.895 154.2 188.915" fill="#2C2D2F"/>
<path d="M172.9 165.125C173.46 158.885 160.59 156.375 160.57 153.775C160.57 148.495 166.19 152.295 167.82 153.515C170.307 155.408 172.38 157.79 173.91 160.515C173.58 157.375 171.99 154.955 170.21 152.635C168.84 151.025 163.7 146.555 165.21 144.065C168.5 138.435 176.21 154.285 176.58 157.135C177.21 154.415 178.58 140.625 184.12 142.015C188.65 143.275 179.39 153.195 179.7 155.875C182.34 154.625 186.58 151.525 189.54 150.875C196.08 149.345 198.54 152.935 193.78 154.195C189.51 155.315 183.17 156.575 179.51 160.275C182.58 160.215 185.25 159.435 188.16 159.945C189.94 160.135 197.47 162.075 195.45 164.865C192.81 168.245 181.9 161.555 178.04 162.765C179.25 164.925 183.27 165.285 185.31 167.225C187.43 168.885 189.86 173.225 185.17 172.515C180.84 171.625 178.17 163.405 172.93 165.145" fill="#2C2D2F"/>
<path d="M115.844 253.549C99.964 252.459 73.144 253.609 69.264 253.609C54.334 253.609 79.784 240.999 85.544 241.129C93.924 241.199 103.654 243.869 111.044 247.379C105.174 240.679 97.524 237.699 89.634 235.249C83.844 233.859 64.704 231.859 64.044 223.739C62.424 205.369 106.044 229.349 111.624 235.269C108.624 227.979 89.194 193.969 104.284 188.099C116.764 183.599 111.654 221.589 116.724 227.259C120.794 220.069 125.494 205.999 131.174 199.579C143.764 185.349 155.354 189.579 146.374 200.279C138.374 209.839 125.814 223.109 123.444 237.629C130.444 232.469 135.294 226.309 142.824 222.719C147.234 220.249 167.824 212.409 167.684 222.139C167.104 234.249 131.014 236.669 124.104 245.769C130.434 248.769 140.284 243.029 148.164 244.159C155.764 244.509 170.744 251.759 157.414 253.009C145.904 254.089 135.294 253.189 117.234 253.239" fill="#46D6A2"/>
<path d="M137.08 251.34C137.41 251.17 137.74 250.99 138.08 250.79C137.74 250.99 137.41 251.17 137.08 251.34Z" fill="#EAF4FF"/>
<path d="M200.62 55.84H77C75.8073 55.8374 74.6643 55.3624 73.8209 54.5191C72.9776 53.6757 72.5026 52.5327 72.5 51.34V4.5C72.5 3.30653 72.9741 2.16194 73.818 1.31802C74.6619 0.47411 75.8065 0 77 0H200.62C201.813 0 202.958 0.47411 203.802 1.31802C204.646 2.16194 205.12 3.30653 205.12 4.5V51.34C205.117 52.5327 204.642 53.6757 203.799 54.5191C202.956 55.3624 201.813 55.8374 200.62 55.84ZM77 1C76.0717 1 75.1815 1.36875 74.5251 2.02513C73.8688 2.68151 73.5 3.57174 73.5 4.5V51.34C73.5 52.2683 73.8688 53.1585 74.5251 53.8149C75.1815 54.4713 76.0717 54.84 77 54.84H200.62C201.548 54.84 202.439 54.4713 203.095 53.8149C203.751 53.1585 204.12 52.2683 204.12 51.34V4.5C204.12 3.57174 203.751 2.68151 203.095 2.02513C202.439 1.36875 201.548 1 200.62 1H77Z" fill="#2C2D2F"/>
<path d="M200.62 0.5H77C74.7909 0.5 73 2.29086 73 4.5V51.34C73 53.5491 74.7909 55.34 77 55.34H200.62C202.829 55.34 204.62 53.5491 204.62 51.34V4.5C204.62 2.29086 202.829 0.5 200.62 0.5Z" fill="white"/>
<path d="M100.71 48.21C111.33 48.21 119.94 39.6004 119.94 28.98C119.94 18.3596 111.33 9.75 100.71 9.75C90.0895 9.75 81.48 18.3596 81.48 28.98C81.48 39.6004 90.0895 48.21 100.71 48.21Z" fill="#2C2D2F"/>
<path d="M194.38 13.49H130.86C129.755 13.49 128.86 14.3854 128.86 15.49V22.38C128.86 23.4846 129.755 24.38 130.86 24.38H194.38C195.484 24.38 196.38 23.4846 196.38 22.38V15.49C196.38 14.3854 195.484 13.49 194.38 13.49Z" fill="#2C2D2F"/>
<path d="M169.11 33.23H130.86C129.755 33.23 128.86 34.1254 128.86 35.23V42.12C128.86 43.2245 129.755 44.12 130.86 44.12H169.11C170.214 44.12 171.11 43.2245 171.11 42.12V35.23C171.11 34.1254 170.214 33.23 169.11 33.23Z" fill="#2C2D2F"/>
<path d="M63.0803 248.18L64.5303 252.3C64.5494 252.359 64.5803 252.414 64.6211 252.461C64.662 252.508 64.712 252.547 64.7682 252.574C64.8243 252.601 64.8853 252.616 64.9476 252.619C65.0098 252.622 65.072 252.612 65.1303 252.59H73.9403L89.3803 244.1C89.4407 244.078 89.4959 244.044 89.5426 244C89.5893 243.956 89.6264 243.903 89.6517 243.844C89.677 243.785 89.6899 243.721 89.6897 243.657C89.6895 243.592 89.6761 243.529 89.6503 243.47C89.1603 242.47 87.0903 240.28 78.4503 242.77H78.2203C77.1628 242.798 76.1201 242.517 75.2203 241.96C75.2203 241.96 72.8303 248.09 63.0803 248.18Z" fill="#2C2D2F"/>
<path d="M64.9702 253.13C64.7693 253.127 64.5741 253.063 64.41 252.947C64.2459 252.831 64.1205 252.668 64.0502 252.48L61.5302 245.24L53.5902 224.38C53.562 224.313 53.5493 224.241 53.5528 224.169C53.5564 224.097 53.5762 224.027 53.6109 223.963C53.6455 223.9 53.694 223.845 53.7527 223.803C53.8115 223.761 53.879 223.732 53.9502 223.72C58.3106 222.536 62.1701 219.972 64.9502 216.41C65.0054 216.338 65.0792 216.282 65.1638 216.248C65.2484 216.215 65.3405 216.205 65.4302 216.22C65.5211 216.232 65.6067 216.269 65.6774 216.328C65.7481 216.386 65.8011 216.463 65.8302 216.55L73.3102 238.75C73.6736 239.93 74.4561 240.937 75.5102 241.58C76.3102 242.087 77.2432 242.345 78.1902 242.32H78.3502C86.9802 239.85 89.4102 241.87 90.0902 243.32C90.1418 243.444 90.1679 243.577 90.167 243.711C90.1661 243.845 90.1383 243.978 90.0851 244.101C90.0319 244.224 89.9545 244.335 89.8574 244.428C89.7604 244.52 89.6457 244.593 89.5202 244.64L74.1602 253.1C74.0868 253.141 74.0041 253.161 73.9202 253.16H65.1702C65.1025 253.159 65.0353 253.149 64.9702 253.13ZM54.7202 224.55L62.4702 244.9L65.0002 252.15C65.0002 252.15 65.0702 252.1 65.1302 252.1H73.8102L89.1302 243.67C88.8602 242.97 87.1302 240.81 78.5902 243.26H78.4802H78.2202C77.0861 243.284 75.9699 242.975 75.0102 242.37C73.7532 241.601 72.8158 240.405 72.3702 239L65.2002 217.75C62.4494 220.995 58.8048 223.36 54.7202 224.55Z" fill="#2C2D2F"/>
<path d="M69.3903 229.15C69.3903 229.15 61.2303 233.15 56.7703 228.6L67.5103 223.21L69.3903 229.15Z" fill="#2C2D2F"/>
<path d="M10.3004 223L8.92041 245.3V252.96C8.92041 253.022 8.93257 253.083 8.95619 253.14C8.97981 253.197 9.01443 253.249 9.05807 253.292C9.10171 253.336 9.15353 253.37 9.21055 253.394C9.26757 253.418 9.32869 253.43 9.39041 253.43H35.0804C35.1452 253.432 35.2096 253.419 35.2693 253.395C35.3291 253.37 35.383 253.332 35.4273 253.285C35.4717 253.238 35.5056 253.182 35.5268 253.121C35.548 253.059 35.5561 252.994 35.5504 252.93C35.4304 251.79 34.1804 249.08 25.2004 248.58L24.9804 248.51C23.9918 248.187 23.117 247.586 22.4604 246.78C21.6044 245.729 21.1569 244.404 21.2004 243.05L23.4604 219.63C19.5631 222.168 14.9382 223.353 10.3004 223Z" fill="white"/>
<path d="M35.0804 253.95H9.39038C9.12516 253.95 8.87081 253.845 8.68327 253.657C8.49574 253.47 8.39038 253.215 8.39038 252.95V245.3L9.77038 222.95C9.77399 222.881 9.79164 222.814 9.82224 222.753C9.85284 222.692 9.89573 222.637 9.94825 222.593C10.0008 222.549 10.0618 222.516 10.1275 222.497C10.1933 222.477 10.2623 222.472 10.3304 222.48C14.8441 222.811 19.3433 221.667 23.1504 219.22C23.2294 219.169 23.3214 219.142 23.4154 219.142C23.5094 219.142 23.6013 219.169 23.6804 219.22C23.7621 219.269 23.8286 219.34 23.8727 219.425C23.9168 219.51 23.9368 219.605 23.9304 219.7L21.7004 243.12C21.6596 244.343 22.0688 245.538 22.8504 246.48C23.4461 247.211 24.2366 247.759 25.1304 248.06L25.2904 248.11C34.2904 248.61 35.8804 251.32 36.0504 252.9C36.0605 253.031 36.0445 253.164 36.0033 253.289C35.9621 253.414 35.8965 253.53 35.8104 253.63C35.7171 253.73 35.6042 253.811 35.4786 253.866C35.3531 253.921 35.2175 253.949 35.0804 253.95ZM10.7704 223.54L9.42038 245.35V252.98H35.0804C34.9704 252.24 34.0004 249.62 25.1704 249.13H25.0604L24.8204 249.06C23.7405 248.703 22.7859 248.044 22.0704 247.16C21.1401 246.019 20.6535 244.581 20.7004 243.11L22.8604 220.67C19.1946 222.78 14.9936 223.778 10.7704 223.54Z" fill="#2C2D2F"/>
<path d="M8.92041 248.6V252.98C8.92041 253.042 8.93257 253.103 8.95619 253.16C8.97981 253.217 9.01443 253.269 9.05807 253.312C9.10171 253.356 9.15353 253.391 9.21055 253.414C9.26757 253.438 9.32869 253.45 9.39041 253.45H35.0804C35.1452 253.452 35.2096 253.44 35.2693 253.415C35.3291 253.39 35.383 253.352 35.4273 253.305C35.4717 253.258 35.5056 253.202 35.5268 253.141C35.548 253.08 35.5561 253.015 35.5504 252.95C35.4304 251.81 34.1804 249.1 25.2004 248.6L24.9804 248.53C23.9918 248.207 23.117 247.607 22.4604 246.8C22.4604 246.8 18.1604 251.73 8.92041 248.6Z" fill="#2C2D2F"/>
<path d="M22.3004 229.02C22.3004 229.02 15.7304 229.38 11.3904 225.31L23.3904 220.73L22.3004 229.02Z" fill="#2C2D2F"/>
<path d="M50.1904 99.81C50.1904 99.81 54.0504 114.17 54.3004 138.3C53.7704 150.98 62.1804 190.44 71.4404 225.3L53.3804 230.78C47.3004 210.45 34.5004 177.94 36.6504 163.61C38.9704 148.12 34.1804 144.15 32.8704 139.97C32.3404 138.975 31.8761 137.946 31.4804 136.89L31.3604 136.73V136.66C26.7704 124.26 30.3604 107.92 30.3604 107.92C36.3604 100.29 42.2204 98.22 46.8804 98.29" fill="white"/>
<path d="M53.3804 231.3C53.2968 231.299 53.2145 231.279 53.1404 231.24C53.0269 231.172 52.9417 231.066 52.9004 230.94C51.5004 226.25 49.7404 220.94 47.9004 215.3C41.6204 196.3 34.5104 174.69 36.1704 163.55C37.9604 151.55 35.4904 146.63 33.6804 143.02C33.182 142.092 32.7573 141.125 32.4104 140.13C31.8899 139.162 31.4355 138.16 31.0504 137.13L30.9904 137.04C30.9464 136.99 30.9137 136.931 30.8947 136.867C30.8757 136.803 30.8708 136.736 30.8804 136.67C26.3804 124.29 29.8804 107.98 29.9604 107.81C29.9758 107.738 30.0065 107.67 30.0504 107.61C35.2704 101 40.9704 97.7401 46.9804 97.7901C47.1113 97.7977 47.2346 97.8544 47.3255 97.949C47.4163 98.0436 47.4681 98.169 47.4704 98.3001C47.4704 98.3653 47.4574 98.4299 47.4322 98.49C47.4069 98.5501 47.3699 98.6046 47.3234 98.6502C47.2768 98.6958 47.2216 98.7317 47.161 98.7557C47.1004 98.7798 47.0356 98.7914 46.9704 98.7901C46.8905 98.7951 46.8103 98.7951 46.7304 98.7901C41.1504 98.7901 35.8304 101.94 30.9104 108.14C30.6104 109.59 27.5904 124.9 31.9104 136.49V136.6C31.9159 136.637 31.9159 136.674 31.9104 136.71C32.3029 137.738 32.7605 138.74 33.2804 139.71C33.62 140.686 34.0381 141.632 34.5304 142.54C36.3904 146.28 38.9504 151.39 37.1104 163.67C35.4804 174.57 42.5604 196.03 48.8004 214.95C50.6004 220.4 52.3004 225.56 53.6804 230.14L70.8004 224.95C62.1804 192.43 53.2104 151.59 53.8004 138.27C53.5604 114.5 49.8004 100.07 49.7104 99.9201C49.6923 99.8571 49.6871 99.791 49.695 99.7259C49.7029 99.6608 49.7237 99.598 49.7564 99.5411C49.789 99.4842 49.8327 99.4345 49.885 99.3948C49.9372 99.3551 49.9969 99.3263 50.0604 99.3101C50.1877 99.2764 50.3231 99.2942 50.4373 99.3598C50.5515 99.4253 50.6353 99.5332 50.6704 99.6601C50.6704 99.8101 54.5604 114.35 54.8004 138.29C54.2404 151.59 63.2904 192.64 71.9204 225.16C71.9542 225.285 71.9375 225.418 71.8738 225.53C71.8102 225.642 71.7047 225.725 71.5804 225.76L53.5204 231.3C53.4743 231.31 53.4265 231.31 53.3804 231.3Z" fill="#2C2D2F"/>
<path d="M34.6304 165.59L36.5104 138.3C36.5104 138.3 36.0704 132.11 39.2304 130.15L38.6304 162.15L37.3604 176.52" fill="#2C2D2F"/>
<path d="M46.1402 116.08L44.1402 123.26C44.1402 123.26 53.5002 121.98 40.1402 124.39C39.3075 128.993 38.7134 133.636 38.3602 138.3C39.0302 150.12 30.1702 192.57 25.7402 225.3H7.23022L14.4002 136.72L14.4902 107.91C14.4902 107.91 19.0202 105.23 40.9102 101.91" fill="white"/>
<path d="M25.7403 225.8H7.23028C7.1606 225.802 7.09125 225.789 7.02725 225.762C6.96326 225.734 6.90622 225.692 6.86028 225.64C6.81245 225.59 6.77607 225.53 6.75362 225.464C6.73118 225.399 6.72322 225.329 6.73028 225.26L13.9003 136.69L13.9903 107.92C13.9898 107.834 14.0116 107.749 14.0537 107.673C14.0957 107.598 14.1566 107.535 14.2303 107.49C14.4203 107.38 19.1003 104.72 40.8303 101.43C40.8953 101.42 40.9616 101.423 41.0255 101.439C41.0893 101.455 41.1495 101.483 41.2024 101.522C41.2554 101.561 41.3001 101.61 41.3341 101.666C41.368 101.723 41.3905 101.785 41.4003 101.85C41.4177 101.981 41.3836 102.114 41.3053 102.22C41.227 102.326 41.1105 102.398 40.9803 102.42C22.1703 105.27 16.1903 107.67 14.9803 108.23L14.8903 136.73L7.77028 224.8H25.3003C27.0303 212.16 29.3603 198.31 31.6203 184.92C35.1903 163.76 38.3003 145.49 37.8603 138.3C38.0902 134.498 38.5343 130.712 39.1903 126.96L39.5903 124.27C39.607 124.166 39.6554 124.07 39.7288 123.995C39.8022 123.92 39.897 123.869 40.0003 123.85C41.5003 123.59 42.6803 123.37 43.6103 123.19C43.6056 123.157 43.6056 123.123 43.6103 123.09L45.6103 115.9C45.6474 115.767 45.7357 115.655 45.8557 115.588C45.9757 115.52 46.1177 115.503 46.2503 115.54C46.3829 115.577 46.4953 115.665 46.5628 115.786C46.6303 115.906 46.6474 116.047 46.6103 116.18L44.7803 122.63C47.6703 122.24 47.6803 122.31 47.7803 122.82C47.8803 123.33 47.8803 123.45 40.5303 124.82L40.1803 127.15C39.5322 130.839 39.0916 134.562 38.8603 138.3C39.2703 145.53 36.1803 163.85 32.6103 185.07C30.3203 198.61 27.9603 212.61 26.2403 225.35C26.2257 225.473 26.167 225.586 26.075 225.669C25.983 225.752 25.864 225.798 25.7403 225.8Z" fill="#2C2D2F"/>
<path d="M46.9104 58.6399C46.9104 58.6399 56.3704 62.6999 56.7704 83.2999C56.7704 83.2999 56.9104 94.7899 55.7004 99.4699C55.7004 99.4699 53.7004 100.84 46.9104 99.4699V58.6399Z" fill="white"/>
<path d="M52.2402 100.56C50.4144 100.53 48.5958 100.322 46.8102 99.9399C46.6973 99.9169 46.5958 99.8555 46.5229 99.7662C46.45 99.6769 46.4102 99.5652 46.4102 99.4499V58.6399C46.4092 58.5572 46.4288 58.4755 46.4672 58.4022C46.5056 58.3289 46.5616 58.2662 46.6302 58.2199C46.7041 58.1805 46.7865 58.1599 46.8702 58.1599C46.9539 58.1599 47.0363 58.1805 47.1102 58.2199C47.5002 58.3899 56.8702 62.6499 57.2702 83.3099C57.2702 83.7899 57.3902 94.9199 56.1802 99.6099C56.1509 99.7276 56.0798 99.8307 55.9802 99.8999C55.8402 99.9599 54.8602 100.56 52.2402 100.56ZM47.4102 99.0399C52.5602 100.04 54.7102 99.3399 55.2602 99.1099C56.3902 94.4099 56.2602 83.3999 56.2602 83.2899C56.0602 72.8499 53.4602 66.8199 51.3202 63.5999C50.2915 61.9922 48.9601 60.5997 47.4002 59.4999L47.4102 99.0399Z" fill="#2C2D2F"/>
<path d="M16.1204 56.1099L28.7404 53.4899C30.9512 52.8002 33.3196 52.8002 35.5304 53.4899L42.9504 57.1799" fill="white"/>
<path d="M42.9502 57.6799C42.8743 57.695 42.7962 57.695 42.7202 57.6799L35.3002 53.9399C33.2103 53.2854 30.9702 53.2854 28.8802 53.9399L16.2302 56.5999C16.0993 56.6241 15.9641 56.5971 15.8525 56.5246C15.7409 56.452 15.6613 56.3394 15.6302 56.2099C15.6171 56.1456 15.6167 56.0793 15.6292 56.0148C15.6417 55.9503 15.6668 55.8889 15.703 55.8341C15.7392 55.7793 15.7859 55.7322 15.8403 55.6955C15.8947 55.6587 15.9559 55.633 16.0202 55.6199L28.6402 52.9999C30.9193 52.2881 33.3612 52.2881 35.6402 52.9999L43.1302 56.7099C43.1895 56.7386 43.2424 56.7789 43.2857 56.8284C43.3291 56.8779 43.362 56.9357 43.3825 56.9982C43.403 57.0607 43.4108 57.1268 43.4052 57.1924C43.3997 57.2579 43.381 57.3217 43.3502 57.3799C43.3176 57.4619 43.2629 57.5332 43.1924 57.5861C43.1218 57.639 43.038 57.6715 42.9502 57.6799Z" fill="#2C2D2F"/>
<path d="M46.9102 58.6401L43.6902 57.4401C46.4902 69.3301 39.9102 72.1601 39.9102 72.1601C27.7902 76.3601 18.6602 55.5801 18.6602 55.5801C13.1302 56.1601 11.1702 58.9101 11.1702 58.9101C2.07017 70.1001 11.9402 94.5401 12.8702 96.6401C13.8002 98.7401 14.2302 107.64 14.2302 107.64L20.0302 110.45C24.0081 112.381 28.473 113.078 32.8502 112.45C43.2402 111.59 51.8502 104.45 51.8502 104.45C51.3502 102.45 50.7302 100.45 50.1102 98.5501C53.0435 91.9334 54.0554 84.6248 53.0302 77.4601" fill="white"/>
<path d="M29.7002 113.18C26.2738 113.185 22.8913 112.409 19.8102 110.91L13.7402 107.97V107.68C13.6202 105.22 13.1602 98.4901 12.4202 96.8401C12.3102 96.5801 1.12017 70.4901 10.7902 58.5901C10.8502 58.5001 12.9302 55.6801 18.6202 55.0801H18.9802L19.1302 55.4101C19.2202 55.6101 28.2102 75.7101 39.7602 71.7201C39.9802 71.6201 45.8702 68.8801 43.2102 57.5801L43.0002 56.6701L47.0902 58.2001C47.1519 58.2231 47.2085 58.258 47.2567 58.3028C47.3049 58.3477 47.3439 58.4016 47.3713 58.4615C47.3986 58.5214 47.414 58.5861 47.4164 58.6519C47.4188 58.7177 47.4081 58.7834 47.3852 58.8451C47.3622 58.9068 47.3273 58.9634 47.2824 59.0116C47.2376 59.0598 47.1837 59.0988 47.1238 59.1262C47.0639 59.1536 46.9992 59.1689 46.9333 59.1713C46.8675 59.1737 46.8019 59.1631 46.7402 59.1401L44.3902 58.2601C46.7202 69.6601 40.3902 72.5301 40.1202 72.6501C34.9102 74.4601 29.4802 72.0801 24.3602 65.7901C22.0033 62.8131 19.9905 59.5792 18.3602 56.1501C13.4202 56.7701 11.5902 59.2101 11.5702 59.2301C2.27017 70.6801 13.2202 96.2301 13.3302 96.4701C14.2002 98.4701 14.6302 105.76 14.7102 107.36L20.3002 110.01C24.1847 111.909 28.5475 112.605 32.8302 112.01L33.9402 111.85V111.9C42.6402 110.82 49.9402 105.45 51.3702 104.35C50.9402 102.71 50.3702 100.84 49.7202 98.8001L49.6502 98.6101L49.7402 98.4301C52.6428 91.9001 53.6411 84.6828 52.6202 77.6101C52.6116 77.5444 52.6161 77.4777 52.6334 77.4138C52.6506 77.3499 52.6803 77.29 52.7207 77.2375C52.761 77.185 52.8114 77.141 52.8688 77.108C52.9262 77.075 52.9895 77.0536 53.0552 77.0451C53.1208 77.0365 53.1875 77.041 53.2515 77.0583C53.3154 77.0755 53.3753 77.1052 53.4278 77.1456C53.4802 77.186 53.5242 77.2363 53.5572 77.2937C53.5902 77.3511 53.6116 77.4144 53.6202 77.4801C54.6603 84.6738 53.6625 92.0149 50.7402 98.6701C51.4302 100.8 52.0002 102.73 52.4302 104.42L52.5002 104.73L52.2602 104.93C51.9002 105.22 43.4202 112.14 32.9902 113.01H32.8602C31.8121 113.141 30.7562 113.197 29.7002 113.18Z" fill="#2C2D2F"/>
<path d="M52.5502 107.3C47.682 111.073 42.0358 113.717 36.0202 115.04C26.1102 117.14 14.4802 111.3 14.4802 111.3" fill="white"/>
<path d="M31.3502 115.98C22.8302 115.98 14.6602 111.9 14.2502 111.69C14.1867 111.664 14.1294 111.624 14.0817 111.575C14.0341 111.525 13.9972 111.466 13.9734 111.402C13.9496 111.337 13.9393 111.269 13.9432 111.2C13.9471 111.131 13.9652 111.064 13.9962 111.003C14.0272 110.941 14.0705 110.887 14.1235 110.843C14.1765 110.799 14.2379 110.767 14.304 110.748C14.37 110.729 14.4393 110.724 14.5075 110.733C14.5757 110.742 14.6413 110.765 14.7002 110.8C14.8202 110.86 26.3002 116.59 35.9202 114.52C41.8517 113.207 47.4207 110.602 52.2302 106.89C52.3325 106.822 52.4562 106.794 52.5778 106.811C52.6993 106.829 52.8102 106.89 52.8894 106.984C52.9685 107.078 53.0102 107.198 53.0067 107.321C53.0032 107.444 52.9546 107.561 52.8702 107.65C47.9385 111.471 42.2215 114.152 36.1302 115.5C34.5577 115.824 32.9558 115.985 31.3502 115.98Z" fill="#2C2D2F"/>
<path d="M20.4303 93.56L19.3303 75.53L19.6303 75.51L20.7203 93.54L20.4303 93.56Z" fill="#2C2D2F"/>
<path d="M21.4803 108.31L21.2703 108.09L23.2003 106.23L23.4003 106.45L21.4803 108.31Z" fill="#2C2D2F"/>
<path d="M39.1303 55.5001L37.9903 46.1601C35.2281 47.0518 32.2293 46.8514 29.6103 45.6001L28.3103 55.6001" fill="white"/>
<path d="M28.3003 56.1401H28.2303C28.0991 56.1226 27.9802 56.0539 27.8996 55.9489C27.819 55.844 27.7833 55.7113 27.8003 55.5801L29.2003 44.8201L29.8403 45.1501C32.3428 46.3335 35.1994 46.5299 37.8403 45.7001L38.4303 45.4801L39.6503 55.4801C39.6645 55.6124 39.6264 55.745 39.5442 55.8496C39.462 55.9542 39.3422 56.0226 39.2103 56.0401C39.1446 56.0484 39.0778 56.0437 39.0139 56.026C38.9501 56.0083 38.8904 55.9782 38.8382 55.9372C38.7861 55.8963 38.7427 55.8454 38.7104 55.7875C38.6782 55.7296 38.6577 55.6659 38.6503 55.6001L37.5803 46.8601C35.0793 47.5266 32.4294 47.3616 30.0303 46.3901L28.8003 55.7001C28.7856 55.822 28.7264 55.9343 28.6342 56.0154C28.542 56.0966 28.4231 56.141 28.3003 56.1401Z" fill="#2C2D2F"/>
<path d="M38.4003 50.7799C38.4003 50.7799 34.4003 51.5199 32.5603 49.5699C31.4862 48.4179 30.626 47.0837 30.0203 45.6299H38.0203L38.4003 50.7799Z" fill="#2C2D2F"/>
<path d="M36.7403 47.7701C42.9424 47.7701 47.9703 42.7422 47.9703 36.5401C47.9703 30.3379 42.9424 25.3101 36.7403 25.3101C30.5381 25.3101 25.5103 30.3379 25.5103 36.5401C25.5103 42.7422 30.5381 47.7701 36.7403 47.7701Z" fill="white"/>
<path d="M36.7402 48.2998C34.4215 48.2998 32.1548 47.6126 30.2265 46.325C28.2982 45.0375 26.7947 43.2073 25.906 41.0656C25.0173 38.924 24.7833 36.567 25.2335 34.2925C25.6836 32.0179 26.7978 29.9277 28.4353 28.2861C30.0728 26.6444 32.1601 25.5249 34.4335 25.0689C36.7069 24.6129 39.0645 24.8409 41.2083 25.7242C43.3522 26.6074 45.1863 28.1062 46.4788 30.0312C47.7713 31.9562 48.4643 34.2212 48.4702 36.5399C48.4728 38.0824 48.1715 39.6104 47.5833 41.0364C46.9951 42.4624 46.1316 43.7585 45.0423 44.8507C43.9529 45.9428 42.659 46.8096 41.2345 47.4014C39.81 47.9932 38.2828 48.2985 36.7402 48.2998ZM36.7402 25.8399C34.6168 25.8399 32.541 26.4699 30.7758 27.6503C29.0107 28.8306 27.6354 30.5082 26.8242 32.4706C26.0129 34.433 25.8022 36.592 26.2186 38.6742C26.6351 40.7565 27.66 42.6683 29.1636 44.1677C30.6673 45.6671 32.582 46.6867 34.6654 47.0973C36.7487 47.5079 38.9071 47.2912 40.8672 46.4744C42.8274 45.6577 44.5011 44.2778 45.6765 42.5093C46.8519 40.7408 47.4762 38.6633 47.4702 36.5399C47.4676 33.6949 46.3362 30.9672 44.3246 28.9555C42.3129 26.9438 39.5852 25.8125 36.7402 25.8098V25.8399Z" fill="#2C2D2F"/>
<path d="M47.9703 38.63C47.9703 38.63 35.7703 36.63 32.7003 32.24C32.7003 32.24 30.5403 38.86 25.8303 39.24C25.8303 39.24 23.3403 26.67 36.7403 25.34C36.7403 25.3 47.6603 25.3 47.9703 38.63Z" fill="#2C2D2F"/>
<path d="M25.6503 28.91C29.2899 28.91 32.2403 25.9595 32.2403 22.32C32.2403 18.6804 29.2899 15.73 25.6503 15.73C22.0107 15.73 19.0603 18.6804 19.0603 22.32C19.0603 25.9595 22.0107 28.91 25.6503 28.91Z" fill="#2C2D2F"/>
<path d="M54.4104 99.8701C54.4104 99.8701 53.8104 104.87 53.4104 110.75L54.4104 99.8701Z" fill="white"/>
<path d="M53.4202 111.3C53.2893 111.29 53.1677 111.229 53.0816 111.129C52.9955 111.03 52.9519 110.901 52.9602 110.77C53.3402 104.92 53.9602 99.9101 53.9602 99.8601C53.9761 99.7275 54.0441 99.6066 54.1491 99.5241C54.2541 99.4416 54.3876 99.4042 54.5202 99.4201C54.6528 99.436 54.7737 99.5039 54.8562 99.609C54.9387 99.714 54.9761 99.8475 54.9602 99.9801C54.9602 100.03 54.3602 104.98 53.9602 110.83C53.9578 110.897 53.9417 110.963 53.9128 111.024C53.8839 111.084 53.8429 111.138 53.7922 111.182C53.7416 111.226 53.6825 111.26 53.6185 111.28C53.5545 111.3 53.487 111.307 53.4202 111.3Z" fill="#2C2D2F"/>
<path d="M21.1903 107.97L19.4803 100.06L7.35034 102.78L10.2303 110.75" fill="white"/>
<path d="M10.2304 111.3C10.1276 111.3 10.0274 111.268 9.94325 111.209C9.85915 111.15 9.79529 111.067 9.76035 110.97L6.87035 102.97C6.84313 102.905 6.8291 102.835 6.8291 102.765C6.8291 102.695 6.84313 102.625 6.87035 102.56C6.90378 102.497 6.95064 102.442 7.00765 102.399C7.06466 102.355 7.13044 102.325 7.20036 102.31L19.3304 99.5901C19.4601 99.563 19.5954 99.5876 19.7074 99.6585C19.8194 99.7294 19.8994 99.8412 19.9304 99.9701L21.6404 107.88C21.6551 107.944 21.657 108.011 21.6458 108.076C21.6347 108.141 21.6107 108.204 21.5754 108.259C21.5401 108.315 21.494 108.363 21.44 108.401C21.3859 108.439 21.3248 108.466 21.2604 108.48C21.1292 108.507 20.9927 108.481 20.8805 108.408C20.7682 108.335 20.6892 108.221 20.6604 108.09L19.0604 100.67L7.97035 103.16L10.6604 110.6C10.7054 110.725 10.6991 110.862 10.6428 110.982C10.5866 111.102 10.485 111.195 10.3604 111.24L10.2304 111.3Z" fill="#2C2D2F"/>
<path d="M15.7402 117.94C15.7402 117.94 18.3502 118.87 17.4702 119.67C16.5902 120.47 16.3402 119.07 16.3402 119.07" fill="white"/>
<path d="M16.9703 120.41C16.8714 120.411 16.7732 120.394 16.6803 120.36C16.0503 120.15 15.8803 119.36 15.8503 119.16C15.8309 119.057 15.8446 118.95 15.8895 118.855C15.9344 118.759 16.0081 118.681 16.1003 118.63C15.9278 118.55 15.7509 118.48 15.5703 118.42C15.4377 118.376 15.3279 118.282 15.265 118.157C15.2022 118.032 15.1915 117.888 15.2353 117.755C15.279 117.622 15.3737 117.513 15.4984 117.45C15.6231 117.387 15.7677 117.376 15.9003 117.42C16.5203 117.64 17.9603 118.23 18.1303 119.09C18.1633 119.256 18.15 119.428 18.0917 119.586C18.0335 119.745 17.9327 119.885 17.8003 119.99C17.5899 120.234 17.2915 120.385 16.9703 120.41ZM16.7903 119.01C16.8201 119.145 16.8743 119.274 16.9503 119.39C16.9503 119.39 17.0103 119.34 17.0803 119.27C17.0172 119.175 16.9356 119.093 16.8403 119.03L16.7903 119.01Z" fill="#2C2D2F"/>
<path d="M60.226 82.8818L52.08 82.2564C51.3806 82.2027 50.7702 82.7261 50.7165 83.4255L49.4198 100.316C49.3661 101.015 49.8896 101.626 50.5889 101.679L58.7349 102.305C59.4343 102.358 60.0447 101.835 60.0984 101.136L61.3951 84.2453C61.4488 83.5459 60.9254 82.9355 60.226 82.8818Z" fill="#2C2D2F"/>
<path d="M59.3603 85.44C59.6916 85.44 59.9603 85.1714 59.9603 84.84C59.9603 84.5086 59.6916 84.24 59.3603 84.24C59.0289 84.24 58.7603 84.5086 58.7603 84.84C58.7603 85.1714 59.0289 85.44 59.3603 85.44Z" fill="white"/>
<path d="M18.5303 108.22L42.8703 97.3899C43.2705 97.2031 43.6522 96.9787 44.0103 96.7199C44.9203 95.9699 47.5803 93.3899 49.5203 92.4899C49.6323 92.426 49.7626 92.4012 49.8903 92.4196C50.018 92.438 50.136 92.4984 50.2255 92.5914C50.315 92.6843 50.3709 92.8045 50.3845 92.9328C50.398 93.0611 50.3684 93.1903 50.3003 93.2999C49.7003 94.2999 48.5703 95.5699 48.5803 96.0499C48.5803 96.0499 48.5803 97.0499 50.2203 96.4099C52.1003 95.6299 56.3103 93.7199 58.7803 92.3299C58.8877 92.2636 59.0166 92.2413 59.1401 92.2677C59.2636 92.2941 59.3721 92.3671 59.4431 92.4716C59.514 92.5761 59.5419 92.7039 59.5209 92.8284C59.4998 92.9529 59.4316 93.0645 59.3303 93.1399C56.9258 94.9996 54.3816 96.6712 51.7203 98.1399L51.9203 98.1999C54.4803 97.1299 59.1003 94.9399 61.4803 93.6499C61.589 93.5783 61.7217 93.5528 61.8493 93.5791C61.9768 93.6053 62.0886 93.6812 62.1603 93.7899C62.2319 93.8987 62.2573 94.0314 62.2311 94.1589C62.2048 94.2864 62.129 94.3983 62.0203 94.4699C59.3236 96.5421 56.4719 98.4042 53.4903 100.04V100.17C55.6103 99.2799 58.9303 97.6299 61.0403 96.4399C61.1477 96.3736 61.2766 96.3513 61.4001 96.3777C61.5236 96.4041 61.6321 96.4771 61.7031 96.5816C61.774 96.6861 61.8019 96.8139 61.7809 96.9384C61.7598 97.0629 61.6916 97.1745 61.5903 97.2499C59.0325 99.2052 56.3278 100.96 53.5003 102.5V102.65C55.0098 102.241 56.4516 101.615 57.7803 100.79C58.3203 100.47 58.8803 101.38 58.3703 101.79C55.8844 103.542 53.2965 105.145 50.6203 106.59L47.9703 108.03L21.4703 121.63C20.2493 122.257 18.8575 122.471 17.5048 122.238C16.152 122.005 14.9115 121.339 13.9703 120.34L10.2603 110.81" fill="white"/>
<path d="M18.5703 122.76C17.6349 122.764 16.7087 122.576 15.8488 122.207C14.9889 121.839 14.2134 121.299 13.5703 120.62C13.5278 120.573 13.494 120.519 13.4703 120.46L9.75029 110.93C9.72077 110.868 9.70439 110.8 9.70217 110.732C9.69994 110.663 9.71193 110.594 9.73738 110.53C9.76283 110.467 9.80118 110.409 9.85005 110.36C9.89893 110.312 9.95726 110.274 10.0214 110.249C10.0856 110.224 10.1541 110.213 10.2229 110.216C10.2916 110.219 10.359 110.236 10.4208 110.266C10.4827 110.296 10.5376 110.339 10.5823 110.391C10.6269 110.443 10.6603 110.504 10.6803 110.57L14.3603 120C15.2314 120.893 16.3654 121.483 17.5962 121.684C18.827 121.886 20.09 121.688 21.2003 121.12L47.7003 107.53L50.3403 106.09C52.9987 104.657 55.5698 103.067 58.0403 101.33C58.0239 101.281 57.9923 101.239 57.9503 101.21C56.5885 102.068 55.1052 102.715 53.5503 103.13C53.4696 103.149 53.3852 103.147 53.306 103.122C53.2268 103.097 53.1557 103.052 53.1003 102.99C53.0412 102.933 52.9981 102.861 52.9752 102.782C52.9524 102.703 52.9507 102.62 52.9703 102.54C53.0087 102.351 53.1068 102.179 53.2503 102.05C56.0441 100.521 58.7183 98.7823 61.2503 96.85C58.7823 98.2343 56.2457 99.4926 53.6503 100.62C53.5849 100.652 53.5131 100.668 53.4403 100.668C53.3675 100.668 53.2957 100.652 53.2303 100.62C53.1653 100.585 53.1085 100.537 53.0637 100.478C53.0189 100.419 52.987 100.352 52.9703 100.28C52.9703 100.06 52.9703 99.71 53.1803 99.61C56.1372 97.9798 58.9684 96.1313 61.6503 94.08C59.1703 95.44 54.5303 97.62 52.0503 98.66C51.9431 98.6951 51.8275 98.6951 51.7203 98.66L51.5203 98.61C51.4261 98.5792 51.3424 98.5225 51.2788 98.4465C51.2151 98.3705 51.1741 98.2782 51.1603 98.18C51.1508 98.083 51.1693 97.9852 51.2136 97.8984C51.2579 97.8115 51.3261 97.7392 51.4103 97.69C54.0438 96.233 56.5673 94.5853 58.9603 92.76C56.1623 94.279 53.2886 95.6542 50.3503 96.88C50.0693 97.0477 49.7502 97.1412 49.423 97.1517C49.0959 97.1622 48.7715 97.0894 48.4803 96.94C48.3368 96.8404 48.2199 96.7073 48.1397 96.5522C48.0595 96.397 48.0185 96.2246 48.0203 96.05C48.0203 95.63 48.3703 95.05 49.0203 94.22C49.3003 93.83 49.5903 93.42 49.8103 93.05C49.7603 92.91 49.7103 92.93 49.7003 92.94C48.0271 93.9078 46.476 95.0727 45.0803 96.41L44.3003 97.1C43.9067 97.3809 43.4883 97.6253 43.0503 97.83L18.7403 108.68C18.6196 108.734 18.4824 108.738 18.3587 108.691C18.235 108.644 18.1349 108.55 18.0803 108.43C18.0521 108.37 18.0362 108.306 18.0336 108.24C18.031 108.174 18.0416 108.108 18.065 108.047C18.0883 107.985 18.1238 107.929 18.1694 107.881C18.215 107.834 18.2697 107.796 18.3303 107.77L42.6703 96.93C43.0213 96.7571 43.356 96.553 43.6703 96.32L44.4103 95.67C45.8854 94.2642 47.5277 93.045 49.3003 92.04C49.5134 91.9409 49.7527 91.9127 49.9831 91.9594C50.2134 92.0062 50.4227 92.1256 50.5803 92.3C50.7369 92.4691 50.8336 92.6851 50.8553 92.9147C50.8769 93.1442 50.8225 93.3745 50.7003 93.57C50.4603 93.97 50.1503 94.4 49.8603 94.81C49.5396 95.2024 49.2677 95.6322 49.0503 96.09C49.0503 96.09 49.2903 96.26 50.0503 95.97C52.0503 95.16 56.1603 93.26 58.5503 91.91C58.7681 91.7893 59.023 91.7542 59.2653 91.8115C59.5075 91.8689 59.7197 92.0145 59.8603 92.22C59.9983 92.4269 60.0543 92.6777 60.0173 92.9236C59.9803 93.1695 59.853 93.3929 59.6603 93.55C59.0603 94.03 58.4103 94.55 57.7503 94.98C59.0703 94.34 60.3203 93.71 61.2603 93.2C61.4782 93.0832 61.7317 93.0512 61.9717 93.1103C62.2118 93.1694 62.4215 93.3154 62.5603 93.52C62.6983 93.7269 62.7543 93.9777 62.7173 94.2236C62.6803 94.4695 62.553 94.6929 62.3603 94.85C61.9103 95.22 61.4203 95.59 60.9103 95.96C61.125 95.8918 61.3564 95.898 61.5671 95.9777C61.7778 96.0575 61.9554 96.206 62.0711 96.3993C62.1869 96.5925 62.234 96.8192 62.2048 97.0426C62.1756 97.266 62.0718 97.473 61.9103 97.63C60.7293 98.5813 59.5011 99.4725 58.2303 100.3C58.3598 100.333 58.4814 100.391 58.5879 100.472C58.6944 100.553 58.7836 100.654 58.8503 100.77C58.9317 100.876 58.9909 100.998 59.0245 101.127C59.0581 101.257 59.0653 101.392 59.0457 101.524C59.0261 101.657 58.9801 101.784 58.9105 101.898C58.8409 102.013 58.749 102.112 58.6403 102.19C56.1337 103.957 53.5223 105.57 50.8203 107.02L48.1803 108.46L21.6703 122.06C20.7082 122.539 19.6449 122.779 18.5703 122.76Z" fill="#2C2D2F"/>
<path d="M20.1703 103.3C20.1703 103.3 12.9103 104.97 9.3103 102.83L19.4803 100.11L20.1703 103.3Z" fill="#2C2D2F"/>
<path d="M13.2304 57.1499C13.2304 57.1499 -6.91959 66.5999 3.45041 102.3C3.45041 102.3 14.4504 104.72 21.3804 98.7799C21.3804 98.7799 18.5104 82.1899 19.4804 75.5299" fill="white"/>
<path d="M8.76025 103.3C6.94126 103.307 5.12592 103.137 3.34026 102.79C3.25243 102.771 3.17146 102.729 3.10621 102.667C3.04096 102.605 2.99392 102.527 2.97025 102.44C-2.43975 83.84 0.550253 72.44 3.97025 66.11C7.75025 59.22 12.7703 56.81 12.9703 56.71C13.0299 56.6813 13.0947 56.6648 13.1608 56.6613C13.2269 56.6579 13.2931 56.6676 13.3554 56.6899C13.4177 56.7123 13.475 56.7467 13.5239 56.7914C13.5728 56.836 13.6124 56.8899 13.6403 56.95C13.695 57.0694 13.7005 57.2057 13.6556 57.3292C13.6107 57.4527 13.519 57.5536 13.4003 57.61C13.2003 57.71 -6.12974 67.29 3.79026 101.87C5.53026 102.18 14.7103 103.55 20.7903 98.58C20.4103 96.29 18.0403 81.72 18.9503 75.46C18.9688 75.3274 19.0393 75.2076 19.1462 75.1269C19.1991 75.087 19.2594 75.0579 19.3236 75.0412C19.3878 75.0246 19.4546 75.0208 19.5203 75.03C19.5859 75.0392 19.6491 75.0612 19.7063 75.0948C19.7634 75.1284 19.8134 75.173 19.8533 75.2259C19.8932 75.2788 19.9223 75.3391 19.939 75.4033C19.9556 75.4675 19.9594 75.5343 19.9503 75.6C18.9503 82.11 21.8103 98.53 21.8403 98.7C21.8538 98.7848 21.8453 98.8717 21.8155 98.9522C21.7857 99.0328 21.7357 99.1044 21.6703 99.16C17.7403 102.53 12.6003 103.3 8.76025 103.3Z" fill="#2C2D2F"/>
<path d="M214.556 254H0.444105C0.326321 254 0.213361 253.947 0.130075 253.854C0.0467895 253.76 0 253.633 0 253.5C0 253.367 0.0467895 253.24 0.130075 253.146C0.213361 253.053 0.326321 253 0.444105 253H214.556C214.674 253 214.787 253.053 214.87 253.146C214.953 253.24 215 253.367 215 253.5C215 253.633 214.953 253.76 214.87 253.854C214.787 253.947 214.674 254 214.556 254Z" fill="#2C2D2F"/>
</svg>
