<svg viewBox="0 0 40 33" fill="none" xmlns="http://www.w3.org/2000/svg">
<path d="M2.66667 13.3348H6.66667V24.0015H4C3.64638 24.0015 3.30724 24.142 3.05719 24.392C2.80714 24.6421 2.66667 24.9812 2.66667 25.3348C2.66667 25.6884 2.80714 26.0276 3.05719 26.2776C3.30724 26.5277 3.64638 26.6682 4 26.6682H36C36.3536 26.6682 36.6928 26.5277 36.9428 26.2776C37.1929 26.0276 37.3333 25.6884 37.3333 25.3348C37.3333 24.9812 37.1929 24.6421 36.9428 24.392C36.6928 24.142 36.3536 24.0015 36 24.0015H33.3333V13.3348H37.3333C37.6231 13.3343 37.9048 13.2394 38.1358 13.0645C38.3668 12.8896 38.5345 12.6442 38.6136 12.3655C38.6927 12.0868 38.6789 11.7898 38.5742 11.5197C38.4695 11.2495 38.2796 11.0208 38.0333 10.8682L20.7 0.201494C20.4903 0.0698374 20.2476 0 20 0C19.7524 0 19.5097 0.0698374 19.3 0.201494L1.96667 10.8682C1.72038 11.0208 1.53052 11.2495 1.42581 11.5197C1.3211 11.7898 1.30725 12.0868 1.38636 12.3655C1.46546 12.6442 1.63321 12.8896 1.86422 13.0645C2.09522 13.2394 2.37692 13.3343 2.66667 13.3348ZM9.33333 13.3348H14.6667V24.0015H9.33333V13.3348ZM22.6667 13.3348V24.0015H17.3333V13.3348H22.6667ZM30.6667 24.0015H25.3333V13.3348H30.6667V24.0015ZM20 2.90149L32.6167 10.6682H7.38333L20 2.90149ZM40 30.6682C40 31.0218 39.8595 31.3609 39.6095 31.611C39.3594 31.861 39.0203 32.0015 38.6667 32.0015H1.33333C0.979711 32.0015 0.640573 31.861 0.390524 31.611C0.140476 31.3609 0 31.0218 0 30.6682C0 30.3145 0.140476 29.9754 0.390524 29.7253C0.640573 29.4753 0.979711 29.3348 1.33333 29.3348H38.6667C39.0203 29.3348 39.3594 29.4753 39.6095 29.7253C39.8595 29.9754 40 30.3145 40 30.6682Z" fill="#46D6A2"/>
</svg>
