<svg viewBox="0 0 50 50" fill="none" xmlns="http://www.w3.org/2000/svg">
<path d="M15.2896 21.0104L25 11.3L34.715 21.0146L40.365 15.3646L25 0L9.64 15.36L15.2898 21.01L15.2896 21.0104ZM0 25L5.6502 19.349L11.3 24.9988L5.6498 30.649L0 25ZM15.2896 28.9902L25 38.7L34.7148 28.9856L40.3678 34.6326L40.365 34.6356L25 50L9.64 34.64L9.632 34.632L15.2902 28.9896L15.2896 28.9902ZM38.7 25.0024L44.3502 19.3522L50 25.002L44.35 30.6522L38.7 25.0024Z" fill="#F3BA2F"/>
<path d="M30.7312 24.9969H30.7336L25.0008 19.2637L20.7634 23.4999L20.2766 23.9869L19.2726 24.9911L19.2646 24.9989L19.2726 25.0071L25.0008 30.7361L30.734 25.0029L30.7368 24.9997L30.7316 24.9969" fill="#F3BA2F"/>
</svg>
