<svg viewBox="0 0 29 28" fill="none" xmlns="http://www.w3.org/2000/svg">
<path fill-rule="evenodd" clip-rule="evenodd" d="M6.08317 19.6667C6.63317 19.6667 6.99984 19.3 6.99984 18.75C6.99984 18.2 6.63317 17.8334 6.08317 17.8334H5.1665C4.6165 17.8334 4.24984 17.4667 4.24984 16.9167V8.66669C4.24984 8.11669 4.6165 7.75002 5.1665 7.75002H13.4165C13.9665 7.75002 14.3332 8.11669 14.3332 8.66669V9.58335C14.3332 10.1334 14.6998 10.5 15.2498 10.5C15.7998 10.5 16.1665 10.1334 16.1665 9.58335V8.66669C16.1665 7.10835 14.9748 5.91669 13.4165 5.91669H5.1665C3.60817 5.91669 2.4165 7.10835 2.4165 8.66669V16.9167C2.4165 18.475 3.60817 19.6667 5.1665 19.6667H6.08317ZM19.8332 12.3334H11.5832C10.0248 12.3334 8.83317 13.525 8.83317 15.0834V23.3334C8.83317 24.8917 10.0248 26.0834 11.5832 26.0834H19.8332C21.3915 26.0834 22.5832 24.8917 22.5832 23.3334V15.0834C22.5832 13.525 21.3915 12.3334 19.8332 12.3334ZM20.7498 23.3334C20.7498 23.8834 20.3832 24.25 19.8332 24.25H11.5832C11.0332 24.25 10.6665 23.8834 10.6665 23.3334V15.0834C10.6665 14.5334 11.0332 14.1667 11.5832 14.1667H19.8332C20.3832 14.1667 20.7498 14.5334 20.7498 15.0834V23.3334Z" fill="black"/>
<mask id="mask0_3086_5111" style="mask-type:alpha" maskUnits="userSpaceOnUse" x="2" y="5" width="21" height="22">
<path fill-rule="evenodd" clip-rule="evenodd" d="M6.08317 19.6667C6.63317 19.6667 6.99984 19.3 6.99984 18.75C6.99984 18.2 6.63317 17.8334 6.08317 17.8334H5.1665C4.6165 17.8334 4.24984 17.4667 4.24984 16.9167V8.66669C4.24984 8.11669 4.6165 7.75002 5.1665 7.75002H13.4165C13.9665 7.75002 14.3332 8.11669 14.3332 8.66669V9.58335C14.3332 10.1334 14.6998 10.5 15.2498 10.5C15.7998 10.5 16.1665 10.1334 16.1665 9.58335V8.66669C16.1665 7.10835 14.9748 5.91669 13.4165 5.91669H5.1665C3.60817 5.91669 2.4165 7.10835 2.4165 8.66669V16.9167C2.4165 18.475 3.60817 19.6667 5.1665 19.6667H6.08317ZM19.8332 12.3334H11.5832C10.0248 12.3334 8.83317 13.525 8.83317 15.0834V23.3334C8.83317 24.8917 10.0248 26.0834 11.5832 26.0834H19.8332C21.3915 26.0834 22.5832 24.8917 22.5832 23.3334V15.0834C22.5832 13.525 21.3915 12.3334 19.8332 12.3334ZM20.7498 23.3334C20.7498 23.8834 20.3832 24.25 19.8332 24.25H11.5832C11.0332 24.25 10.6665 23.8834 10.6665 23.3334V15.0834C10.6665 14.5334 11.0332 14.1667 11.5832 14.1667H19.8332C20.3832 14.1667 20.7498 14.5334 20.7498 15.0834V23.3334Z" fill="white"/>
</mask>
<g mask="url(#mask0_3086_5111)">
<rect x="1.5" y="5" width="22" height="22" fill="#46D6A2"/>
</g>
<path fill-rule="evenodd" clip-rule="evenodd" d="M10.0832 15.6667C10.6332 15.6667 10.9998 15.3 10.9998 14.75C10.9998 14.2 10.6332 13.8334 10.0832 13.8334H9.1665C8.6165 13.8334 8.24984 13.4667 8.24984 12.9167V4.66669C8.24984 4.11669 8.6165 3.75002 9.1665 3.75002H17.4165C17.9665 3.75002 18.3332 4.11669 18.3332 4.66669V5.58335C18.3332 6.13335 18.6998 6.50002 19.2498 6.50002C19.7998 6.50002 20.1665 6.13335 20.1665 5.58335V4.66669C20.1665 3.10835 18.9748 1.91669 17.4165 1.91669H9.1665C7.60817 1.91669 6.4165 3.10835 6.4165 4.66669V12.9167C6.4165 14.475 7.60817 15.6667 9.1665 15.6667H10.0832ZM23.8332 8.33335H15.5832C14.0248 8.33335 12.8332 9.52502 12.8332 11.0834V19.3334C12.8332 20.8917 14.0248 22.0834 15.5832 22.0834H23.8332C25.3915 22.0834 26.5832 20.8917 26.5832 19.3334V11.0834C26.5832 9.52502 25.3915 8.33335 23.8332 8.33335ZM24.7498 19.3334C24.7498 19.8834 24.3832 20.25 23.8332 20.25H15.5832C15.0332 20.25 14.6665 19.8834 14.6665 19.3334V11.0834C14.6665 10.5334 15.0332 10.1667 15.5832 10.1667H23.8332C24.3832 10.1667 24.7498 10.5334 24.7498 11.0834V19.3334Z" fill="black"/>
<mask id="mask1_3086_5111" style="mask-type:alpha" maskUnits="userSpaceOnUse" x="6" y="1" width="21" height="22">
<path fill-rule="evenodd" clip-rule="evenodd" d="M10.0832 15.6667C10.6332 15.6667 10.9998 15.3 10.9998 14.75C10.9998 14.2 10.6332 13.8334 10.0832 13.8334H9.1665C8.6165 13.8334 8.24984 13.4667 8.24984 12.9167V4.66669C8.24984 4.11669 8.6165 3.75002 9.1665 3.75002H17.4165C17.9665 3.75002 18.3332 4.11669 18.3332 4.66669V5.58335C18.3332 6.13335 18.6998 6.50002 19.2498 6.50002C19.7998 6.50002 20.1665 6.13335 20.1665 5.58335V4.66669C20.1665 3.10835 18.9748 1.91669 17.4165 1.91669H9.1665C7.60817 1.91669 6.4165 3.10835 6.4165 4.66669V12.9167C6.4165 14.475 7.60817 15.6667 9.1665 15.6667H10.0832ZM23.8332 8.33335H15.5832C14.0248 8.33335 12.8332 9.52502 12.8332 11.0834V19.3334C12.8332 20.8917 14.0248 22.0834 15.5832 22.0834H23.8332C25.3915 22.0834 26.5832 20.8917 26.5832 19.3334V11.0834C26.5832 9.52502 25.3915 8.33335 23.8332 8.33335ZM24.7498 19.3334C24.7498 19.8834 24.3832 20.25 23.8332 20.25H15.5832C15.0332 20.25 14.6665 19.8834 14.6665 19.3334V11.0834C14.6665 10.5334 15.0332 10.1667 15.5832 10.1667H23.8332C24.3832 10.1667 24.7498 10.5334 24.7498 11.0834V19.3334Z" fill="white"/>
</mask>
<g mask="url(#mask1_3086_5111)">
<rect x="5.5" y="1" width="22" height="22" fill="#2C2D2F"/>
</g>
</svg>
