<svg viewBox="0 0 50 50" fill="none" xmlns="http://www.w3.org/2000/svg">
<path d="M12.9211 48.9861C11 48.9861 11 29.7759 11 28.3351C11 25.9338 11 0 13.4013 0H19.6447C20.6053 0 21.0855 0.480256 21.0855 1.44077C21.0855 2.40128 19.1645 7.6841 19.1645 23.0523C19.1645 24.9733 19.1645 27.8549 20.125 27.8549C22.0461 27.8549 27.3289 20.1708 27.3289 13.9274C27.3289 12.4867 27.8092 12.4867 29.25 12.4867H32.6118C33.5724 12.4867 35.0132 12.0064 35.0132 13.9274C35.0132 22.0918 28.7697 26.8943 28.7697 28.3351C28.7697 29.7759 31.1711 30.2561 33.5724 33.6179C35.9737 36.9797 38.375 41.302 38.375 48.5059C38.375 50.4269 37.4145 49.9466 35.9737 49.9466H31.1711C29.7303 49.9466 29.25 49.9466 29.25 48.0256C29.25 39.8613 25.4079 33.6179 23.4868 33.6179C22.5263 33.6179 20.125 34.5784 20.125 37.46C20.125 44.6638 21.5658 48.0256 21.5658 49.4664C21.5658 49.9466 21.0855 49.9466 20.125 49.9466H12.9211V48.9861Z" fill="#4FB17B"/>
</svg>
