<svg width="290" height="337" viewBox="0 0 290 337" fill="none" xmlns="http://www.w3.org/2000/svg">
<path fill-rule="evenodd" clip-rule="evenodd" d="M102.296 111.312C99.6577 105.979 98.3385 103.312 97.3985 102.277C95.7851 100.501 95.0461 100.042 92.7383 99.3835C91.3937 99 89.4239 99 85.4843 99L15 99C10.3406 99 8.01088 99 6.17317 99.7612C3.72288 100.776 1.77614 102.723 0.761205 105.173C0 107.011 0 109.341 0 114V322C0 326.659 0 328.989 0.761205 330.827C1.77614 333.277 3.72288 335.224 6.17317 336.239C8.01088 337 10.3406 337 15 337H275C279.659 337 281.989 337 283.827 336.239C286.277 335.224 288.224 333.277 289.239 330.827C290 328.989 290 326.659 290 322V114C290 109.341 290 107.011 289.239 105.173C288.224 102.723 286.277 100.776 283.827 99.7612C281.989 99 279.659 99 275 99L205.516 99C201.576 99 199.606 99 198.262 99.3835C195.954 100.042 195.215 100.501 193.602 102.277C192.662 103.312 191.342 105.979 188.704 111.312C181.204 126.471 164.679 137 145.5 137C126.321 137 109.796 126.471 102.296 111.312Z" fill="#46D6A2"/>
<g clip-path="url(#clip0_5_182)">
<path fill-rule="evenodd" clip-rule="evenodd" d="M222.846 55.6106C222.697 55.2841 222.563 54.9577 222.444 54.6271C222.266 54.1313 222.155 53.6133 222.004 53.1102C221.94 52.8968 221.764 52.3428 221.753 52.2594C221.659 51.5311 222.197 51.2714 222.358 51.2078C222.435 51.1747 223.235 50.8616 223.658 51.7283C224.176 52.7879 224.547 53.8948 224.766 55.0181C225.197 55.9072 225.755 56.7582 226.388 57.4944C228.908 60.4222 232.081 59.9222 235.415 58.9958C235.927 58.8504 236.462 59.1394 236.626 59.6432C236.79 60.1508 236.527 60.699 236.028 60.8822C234.208 61.5634 231.295 63.9499 230.567 65.8168C230.414 66.2076 230.486 67.0326 230.508 67.8542C230.538 68.995 230.516 70.1374 230.292 70.675C230.259 70.7579 229.823 71.6326 229.664 71.7863C229.281 72.1524 228.884 72.1065 228.645 72.0306C228.406 71.9546 228.106 71.7591 227.9 71.3573C227.684 70.9375 227.52 70.0013 227.453 69.8094C227.208 69.1132 226.692 67.7567 226.081 66.6358C225.751 66.0323 225.425 65.4815 225.07 65.2595C223.755 64.4382 222.166 65.0371 220.839 65.5861C220.686 65.6476 220.535 65.713 220.382 65.7744C219.867 66.0896 219.305 66.3718 218.697 66.6131C217.778 66.9787 217.389 66.1484 217.365 66.093C217.313 65.9709 217.072 65.3354 217.717 64.8826C217.788 64.8348 218.33 64.5538 218.538 64.4445C218.828 64.2926 219.126 64.1551 219.426 64.0212C222.395 62.1469 223.396 58.848 222.846 55.6106ZM224.893 58.8051C226.793 61.0055 228.976 61.73 231.323 61.694L231.323 61.6941C230.142 62.7805 229.134 64.0142 228.714 65.0944C228.554 65.5036 228.508 66.2531 228.507 67.081C228.202 66.3927 227.845 65.6689 227.469 65.0696C227.041 64.3856 226.567 63.8495 226.125 63.5727C225.272 63.0397 224.333 62.8669 223.386 62.9107C224.203 61.6748 224.698 60.2739 224.893 58.8051Z" fill="#FFB9AA"/>
</g>
<g clip-path="url(#clip1_5_182)">
<path fill-rule="evenodd" clip-rule="evenodd" d="M198.779 9.9757C198.705 9.8136 198.639 9.65154 198.58 9.48741C198.491 9.24125 198.436 8.98406 198.361 8.73426C198.329 8.62831 198.242 8.35325 198.236 8.31181C198.19 7.95022 198.457 7.82131 198.537 7.78969C198.575 7.77329 198.972 7.61785 199.182 8.04816C199.439 8.57421 199.624 9.12379 199.732 9.68152C199.946 10.123 200.224 10.5455 200.538 10.911C201.789 12.3647 203.364 12.1164 205.02 11.6565C205.274 11.5843 205.539 11.7278 205.621 11.9779C205.703 12.2299 205.572 12.5021 205.324 12.5931C204.42 12.9313 202.974 14.1162 202.612 15.0431C202.537 15.2371 202.572 15.6467 202.584 16.0546C202.598 16.6211 202.587 17.1883 202.476 17.4552C202.46 17.4964 202.243 17.9306 202.164 18.007C201.974 18.1887 201.777 18.1659 201.658 18.1282C201.54 18.0905 201.391 17.9934 201.288 17.794C201.181 17.5855 201.1 17.1207 201.066 17.0254C200.945 16.6798 200.689 16.0063 200.385 15.4497C200.222 15.1501 200.06 14.8766 199.883 14.7664C199.231 14.3586 198.442 14.656 197.783 14.9285C197.707 14.9591 197.632 14.9915 197.556 15.022C197.3 15.1785 197.021 15.3186 196.719 15.4384C196.263 15.62 196.07 15.2077 196.058 15.1802C196.032 15.1196 195.913 14.8041 196.233 14.5793C196.268 14.5555 196.537 14.416 196.64 14.3617C196.784 14.2863 196.932 14.2181 197.081 14.1516C198.555 13.221 199.052 11.5831 198.779 9.9757ZM199.796 11.5618C200.739 12.6543 201.823 13.014 202.988 12.9961L202.988 12.9962C202.402 13.5355 201.901 14.1481 201.693 14.6844C201.613 14.8876 201.59 15.2597 201.59 15.6707C201.438 15.329 201.261 14.9697 201.075 14.6721C200.862 14.3325 200.627 14.0663 200.407 13.9289C199.983 13.6642 199.518 13.5785 199.047 13.6002C199.453 12.9866 199.699 12.291 199.796 11.5618Z" fill="#AB92F0"/>
</g>
<g clip-path="url(#clip2_5_182)">
<path fill-rule="evenodd" clip-rule="evenodd" d="M84.1748 68.3373C84.1103 68.1962 84.0524 68.0551 84.0011 67.9122C83.9241 67.6979 83.8762 67.474 83.811 67.2565C83.7832 67.1643 83.7072 66.9248 83.7023 66.8887C83.6615 66.5739 83.8944 66.4617 83.9639 66.4342C83.9973 66.4199 84.343 66.2845 84.5258 66.6592C84.7496 67.1172 84.9102 67.5957 85.0045 68.0812C85.191 68.4656 85.4323 68.8334 85.7061 69.1516C86.7952 70.4172 88.1666 70.2011 89.6079 69.8007C89.8292 69.7378 90.0604 69.8627 90.1312 70.0805C90.2025 70.2999 90.0887 70.5369 89.8728 70.6161C89.0861 70.9105 87.8268 71.9421 87.5121 72.7491C87.4463 72.918 87.4772 73.2746 87.487 73.6298C87.4998 74.123 87.4903 74.6168 87.3936 74.8491C87.3794 74.885 87.1907 75.2631 87.122 75.3295C86.9565 75.4878 86.7848 75.4679 86.6815 75.4351C86.5782 75.4023 86.4485 75.3177 86.3593 75.1441C86.266 74.9626 86.1953 74.5579 86.1661 74.475C86.0602 74.1741 85.8372 73.5877 85.573 73.1031C85.4307 72.8423 85.2896 72.6042 85.1361 72.5082C84.5679 72.1532 83.8808 72.4121 83.3073 72.6494C83.2413 72.676 83.1757 72.7043 83.1099 72.7308C82.887 72.867 82.6444 72.989 82.3813 73.0933C81.9842 73.2514 81.8157 72.8924 81.8054 72.8685C81.7831 72.8157 81.679 72.541 81.9578 72.3453C81.9884 72.3246 82.2225 72.2032 82.3126 72.1559C82.4381 72.0902 82.5668 72.0308 82.6966 71.9729C83.9798 71.1627 84.4126 69.7367 84.1748 68.3373ZM85.0598 69.7182C85.881 70.6693 86.8244 70.9826 87.8391 70.967L87.8389 70.967C87.3286 71.4366 86.8928 71.9699 86.7113 72.4368C86.6423 72.6137 86.6223 72.9377 86.6219 73.2956C86.49 72.9981 86.3357 72.6852 86.1732 72.4261C85.9881 72.1304 85.7834 71.8987 85.5922 71.7791C85.2232 71.5487 84.8177 71.474 84.4082 71.4929C84.7613 70.9587 84.9753 70.3531 85.0598 69.7182Z" fill="#FFCEC4"/>
</g>
<g clip-path="url(#clip3_5_182)">
<path fill-rule="evenodd" clip-rule="evenodd" d="M59.1748 34.3373C59.1103 34.1962 59.0524 34.0551 59.0011 33.9122C58.9241 33.6979 58.8762 33.474 58.811 33.2565C58.7832 33.1643 58.7072 32.9248 58.7023 32.8887C58.6615 32.5739 58.8944 32.4617 58.9639 32.4341C58.9973 32.4199 59.343 32.2845 59.5258 32.6592C59.7496 33.1172 59.9102 33.5956 60.0045 34.0812C60.191 34.4655 60.4323 34.8334 60.7061 35.1516C61.7952 36.4172 63.1666 36.2011 64.6079 35.8007C64.8292 35.7378 65.0604 35.8627 65.1312 36.0805C65.2025 36.2999 65.0887 36.5369 64.8728 36.6161C64.0861 36.9105 62.8268 37.9421 62.5121 38.7491C62.4463 38.918 62.4772 39.2746 62.487 39.6298C62.4998 40.1229 62.4903 40.6168 62.3936 40.8491C62.3794 40.885 62.1907 41.2631 62.122 41.3295C61.9565 41.4878 61.7848 41.4679 61.6815 41.4351C61.5782 41.4023 61.4485 41.3177 61.3593 41.1441C61.266 40.9626 61.1953 40.5579 61.1661 40.475C61.0602 40.174 60.8372 39.5877 60.573 39.1031C60.4307 38.8422 60.2896 38.6042 60.1361 38.5082C59.5679 38.1532 58.8808 38.4121 58.3073 38.6494C58.2413 38.676 58.1757 38.7042 58.1099 38.7308C57.887 38.867 57.6444 38.989 57.3813 39.0933C56.9842 39.2513 56.8157 38.8924 56.8054 38.8685C56.7831 38.8157 56.679 38.541 56.9578 38.3453C56.9884 38.3246 57.2225 38.2032 57.3126 38.1559C57.4381 38.0902 57.5668 38.0308 57.6966 37.9729C58.9798 37.1627 59.4126 35.7367 59.1748 34.3373ZM60.0598 35.7182C60.881 36.6693 61.8244 36.9826 62.8391 36.967L62.8389 36.967C62.3286 37.4366 61.8928 37.9699 61.7113 38.4368C61.6423 38.6137 61.6223 38.9377 61.6219 39.2956C61.49 38.9981 61.3357 38.6852 61.1732 38.4261C60.9881 38.1304 60.7834 37.8987 60.5922 37.7791C60.2232 37.5487 59.8177 37.474 59.4082 37.4929C59.7613 36.9587 59.9753 36.3531 60.0598 35.7182Z" fill="#4ADE80"/>
</g>
<g clip-path="url(#clip4_5_182)">
<path fill-rule="evenodd" clip-rule="evenodd" d="M20.1748 83.3373C20.1103 83.1962 20.0524 83.0551 20.0011 82.9122C19.9241 82.6979 19.8762 82.474 19.811 82.2565C19.7832 82.1643 19.7072 81.9248 19.7023 81.8887C19.6615 81.5739 19.8944 81.4617 19.9639 81.4342C19.9973 81.4199 20.343 81.2845 20.5258 81.6592C20.7496 82.1172 20.9102 82.5957 21.0045 83.0812C21.191 83.4656 21.4323 83.8334 21.7061 84.1516C22.7952 85.4172 24.1666 85.2011 25.6079 84.8007C25.8292 84.7378 26.0604 84.8627 26.1312 85.0805C26.2025 85.2999 26.0887 85.5369 25.8728 85.6161C25.0861 85.9105 23.8268 86.9421 23.5121 87.7491C23.4463 87.918 23.4772 88.2746 23.487 88.6298C23.4998 89.123 23.4903 89.6168 23.3936 89.8491C23.3794 89.885 23.1907 90.2631 23.122 90.3295C22.9565 90.4878 22.7848 90.4679 22.6815 90.4351C22.5782 90.4023 22.4485 90.3177 22.3593 90.1441C22.266 89.9626 22.1953 89.5579 22.1661 89.475C22.0602 89.1741 21.8372 88.5877 21.573 88.1031C21.4307 87.8423 21.2896 87.6042 21.1361 87.5082C20.5679 87.1532 19.8808 87.4121 19.3073 87.6494C19.2413 87.676 19.1757 87.7043 19.1099 87.7308C18.887 87.867 18.6444 87.989 18.3813 88.0933C17.9842 88.2514 17.8157 87.8924 17.8054 87.8685C17.7831 87.8157 17.679 87.541 17.9578 87.3453C17.9884 87.3246 18.2225 87.2032 18.3126 87.1559C18.4381 87.0902 18.5668 87.0308 18.6966 86.9729C19.9798 86.1627 20.4126 84.7367 20.1748 83.3373ZM21.0598 84.7182C21.881 85.6693 22.8244 85.9826 23.8391 85.967L23.8389 85.967C23.3286 86.4366 22.8928 86.9699 22.7113 87.4368C22.6423 87.6137 22.6223 87.9377 22.6219 88.2956C22.49 87.9981 22.3357 87.6852 22.1732 87.4261C21.9881 87.1304 21.7834 86.8987 21.5922 86.7791C21.2232 86.5487 20.8177 86.474 20.4082 86.4929C20.7613 85.9587 20.9753 85.3531 21.0598 84.7182Z" fill="white"/>
</g>
<g clip-path="url(#clip5_5_182)">
<path fill-rule="evenodd" clip-rule="evenodd" d="M267.674 76.937C267.617 76.8128 267.566 76.6887 267.521 76.5629C267.453 76.3743 267.411 76.1773 267.354 75.9859C267.329 75.9047 267.262 75.694 267.258 75.6623C267.222 75.3852 267.427 75.2865 267.488 75.2622C267.518 75.2497 267.822 75.1306 267.983 75.4603C268.18 75.8633 268.321 76.2843 268.404 76.7116C268.568 77.0499 268.78 77.3736 269.021 77.6536C269.98 78.7673 271.187 78.5771 272.455 78.2247C272.65 78.1694 272.853 78.2794 272.915 78.471C272.978 78.6641 272.878 78.8726 272.688 78.9423C271.996 79.2014 270.888 80.1092 270.611 80.8194C270.553 80.968 270.58 81.2818 270.588 81.5944C270.6 82.0283 270.591 82.4629 270.506 82.6674C270.494 82.6989 270.328 83.0316 270.267 83.0901C270.122 83.2294 269.971 83.2119 269.88 83.183C269.789 83.1541 269.675 83.0797 269.596 82.9269C269.514 82.7672 269.452 82.4111 269.426 82.3381C269.333 82.0733 269.137 81.5573 268.904 81.1309C268.779 80.9013 268.655 80.6918 268.52 80.6074C268.02 80.295 267.415 80.5228 266.91 80.7316C266.852 80.755 266.795 80.7799 266.737 80.8032C266.541 80.9231 266.327 81.0305 266.096 81.1223C265.746 81.2613 265.598 80.9455 265.589 80.9244C265.569 80.878 265.478 80.6363 265.723 80.464C265.75 80.4458 265.956 80.3389 266.035 80.2974C266.145 80.2396 266.259 80.1873 266.373 80.1363C267.502 79.4234 267.883 78.1685 267.674 76.937ZM268.453 78.1522C269.175 78.9892 270.005 79.2648 270.898 79.2511L270.898 79.2511C270.449 79.6644 270.066 80.1337 269.906 80.5446C269.845 80.7002 269.828 80.9853 269.827 81.3002C269.711 81.0384 269.575 80.7631 269.432 80.5351C269.269 80.2749 269.089 80.071 268.921 79.9657C268.596 79.763 268.24 79.6973 267.879 79.7139C268.19 79.2438 268.378 78.7109 268.453 78.1522Z" fill="white"/>
</g>
<circle cx="116" cy="36" r="2.5" stroke="white"/>
<circle opacity="0.5" cx="135" cy="2" r="1.5" stroke="white"/>
<circle cx="145" cy="88" r="44" fill="#46D6A2"/>
<circle cx="145" cy="88" r="39" fill="white"/>
<path d="M155.352 71.5343L123.294 79.0002C122.027 79.2953 121.239 80.5617 121.534 81.8288L125.926 100.688C126.222 101.955 127.488 102.743 128.755 102.448L160.812 94.9822C162.08 94.6871 162.868 93.4207 162.572 92.1536L158.18 73.2943C157.885 72.0272 156.619 71.2392 155.352 71.5343Z" fill="#111827"/>
<path d="M128.221 102.737C127.638 102.736 127.073 102.539 126.617 102.176C126.16 101.814 125.839 101.308 125.706 100.741L121.314 81.88C121.159 81.2137 121.274 80.5131 121.634 79.9317C121.995 79.3502 122.571 78.9353 123.237 78.7779L155.301 71.3104C155.968 71.1555 156.67 71.2718 157.251 71.6336C157.833 71.9955 158.247 72.5734 158.403 73.2404L162.796 92.1015C162.873 92.4316 162.884 92.7738 162.829 93.1083C162.774 93.4429 162.654 93.7633 162.475 94.0513C162.296 94.3392 162.062 94.589 161.786 94.7863C161.51 94.9837 161.198 95.1247 160.868 95.2014V95.2014L128.808 102.671C128.616 102.715 128.419 102.738 128.221 102.737V102.737ZM155.888 71.6973C155.726 71.6972 155.564 71.7163 155.406 71.7542L123.346 79.2217C123.074 79.2845 122.816 79.4003 122.589 79.5627C122.361 79.7251 122.168 79.9308 122.02 80.168C121.872 80.4052 121.772 80.6693 121.726 80.9451C121.68 81.2209 121.689 81.503 121.753 81.7753L126.15 100.641C126.278 101.19 126.618 101.665 127.096 101.964C127.573 102.262 128.15 102.36 128.699 102.234L160.756 94.7667C161.029 94.7036 161.286 94.5876 161.513 94.4251C161.741 94.2627 161.934 94.057 162.082 93.8199C162.23 93.5827 162.33 93.3188 162.376 93.0431C162.422 92.7674 162.413 92.4853 162.35 92.213L157.959 73.3428C157.85 72.8753 157.586 72.4583 157.21 72.1596C156.834 71.861 156.368 71.698 155.888 71.6973V71.6973Z" fill="#1D2734"/>
<path d="M159.008 76.8479L122.362 85.3824L123.447 90.0441L160.093 81.5096L159.008 76.8479Z" fill="white"/>
<path d="M123.448 90.2711C123.396 90.2724 123.344 90.2554 123.303 90.223C123.261 90.1907 123.232 90.1449 123.221 90.0936L122.135 85.4323C122.121 85.3741 122.131 85.3127 122.163 85.2616C122.178 85.2361 122.199 85.214 122.223 85.1964C122.247 85.1788 122.275 85.1662 122.304 85.1592L158.947 76.622C158.976 76.6153 159.006 76.6143 159.036 76.6193C159.065 76.6242 159.094 76.6349 159.119 76.6507C159.144 76.6666 159.166 76.6873 159.184 76.7116C159.201 76.736 159.213 76.7636 159.22 76.7927L160.308 81.4539C160.315 81.4833 160.316 81.5137 160.311 81.5434C160.305 81.5731 160.295 81.6015 160.278 81.6269C160.246 81.6776 160.196 81.7135 160.137 81.727L123.494 90.2643C123.479 90.2682 123.464 90.2705 123.448 90.2711ZM122.636 85.5507L123.619 89.7681L159.821 81.347L158.838 77.1295L122.636 85.5507Z" fill="white"/>
<g filter="url(#filter0_d_5_182)">
<path d="M166.344 81.609H133.429C132.128 81.609 131.073 82.6637 131.073 83.9647V103.329C131.073 104.63 132.128 105.684 133.429 105.684H166.344C167.645 105.684 168.7 104.63 168.7 103.329V83.9647C168.7 82.6637 167.645 81.609 166.344 81.609Z" fill="#0A6375"/>
</g>
<path d="M166.344 105.914H133.426C132.742 105.913 132.086 105.64 131.602 105.156C131.118 104.672 130.846 104.015 130.845 103.331V83.9642C130.846 83.2797 131.118 82.6233 131.602 82.1391C132.086 81.6548 132.742 81.3822 133.426 81.381H166.344C167.029 81.3816 167.686 81.654 168.17 82.1383C168.654 82.6226 168.927 83.2793 168.927 83.9642V103.331C168.927 104.016 168.654 104.672 168.17 105.157C167.686 105.641 167.029 105.913 166.344 105.914V105.914ZM133.426 81.8362C132.863 81.8374 132.322 82.0621 131.924 82.461C131.525 82.8599 131.301 83.4004 131.301 83.9642V103.331C131.301 103.895 131.524 104.436 131.923 104.835C132.322 105.234 132.862 105.458 133.426 105.459H166.344C166.908 105.459 167.45 105.234 167.849 104.835C168.248 104.436 168.472 103.895 168.472 103.331V83.9642C168.471 83.4 168.247 82.8591 167.848 82.4602C167.449 82.0612 166.908 81.8368 166.344 81.8362H133.426Z" fill="#0A6375"/>
<path d="M157.217 92.1739C158.679 92.1739 159.864 90.9888 159.864 89.527C159.864 88.0651 158.679 86.88 157.217 86.88C155.755 86.88 154.57 88.0651 154.57 89.527C154.57 90.9888 155.755 92.1739 157.217 92.1739Z" fill="#FACC15"/>
<path d="M157.217 92.4011C156.649 92.4016 156.093 92.2334 155.62 91.9178C155.147 91.6022 154.778 91.1534 154.56 90.6282C154.342 90.103 154.285 89.5249 154.395 88.9671C154.506 88.4094 154.78 87.897 155.182 87.4947C155.583 87.0925 156.096 86.8185 156.653 86.7074C157.211 86.5963 157.789 86.6531 158.314 86.8706C158.84 87.0881 159.289 87.4565 159.605 87.9293C159.921 88.4021 160.09 88.9579 160.09 89.5265C160.088 90.2882 159.785 91.0183 159.247 91.557C158.709 92.0958 157.979 92.3993 157.217 92.4011ZM157.217 87.1095C156.739 87.109 156.27 87.2506 155.872 87.5162C155.474 87.7819 155.164 88.1597 154.98 88.6019C154.797 89.0441 154.749 89.5307 154.842 90.0003C154.935 90.4698 155.166 90.9011 155.504 91.2396C155.843 91.5781 156.274 91.8085 156.744 91.9018C157.213 91.9951 157.7 91.947 158.142 91.7636C158.584 91.5802 158.962 91.2697 159.228 90.8715C159.493 90.4733 159.635 90.0052 159.634 89.5265C159.633 88.8859 159.378 88.2718 158.925 87.8187C158.472 87.3657 157.858 87.1107 157.217 87.1095Z" fill="#FACC15"/>
<path d="M161.35 92.1739C162.812 92.1739 163.997 90.9888 163.997 89.527C163.997 88.0651 162.812 86.88 161.35 86.88C159.889 86.88 158.703 88.0651 158.703 89.527C158.703 90.9888 159.889 92.1739 161.35 92.1739Z" fill="#FB923C"/>
<path d="M161.35 92.4011C160.782 92.4016 160.226 92.2334 159.753 91.9178C159.28 91.6022 158.911 91.1534 158.693 90.6282C158.475 90.103 158.418 89.5249 158.529 88.9671C158.639 88.4094 158.913 87.897 159.315 87.4947C159.717 87.0925 160.229 86.8185 160.787 86.7074C161.344 86.5963 161.922 86.6531 162.448 86.8706C162.973 87.0881 163.422 87.4565 163.738 87.9293C164.054 88.4021 164.223 88.9579 164.223 89.5265C164.222 90.2882 163.919 91.0183 163.38 91.557C162.842 92.0958 162.112 92.3993 161.35 92.4011ZM161.35 87.1095C160.872 87.109 160.404 87.2506 160.005 87.5162C159.607 87.7819 159.297 88.1597 159.113 88.6019C158.93 89.0441 158.882 89.5307 158.975 90.0003C159.068 90.4698 159.299 90.9011 159.637 91.2396C159.976 91.5781 160.407 91.8085 160.877 91.9018C161.346 91.9951 161.833 91.947 162.275 91.7636C162.717 91.5802 163.095 91.2697 163.361 90.8715C163.626 90.4733 163.768 90.0052 163.768 89.5265C163.766 88.8859 163.511 88.2718 163.058 87.8187C162.605 87.3657 161.991 87.1107 161.35 87.1095Z" fill="#FB923C"/>
<path d="M139.028 92.3878H136.499C136.075 92.3879 135.669 92.2204 135.368 91.9219C135.068 91.6234 134.897 91.2182 134.894 90.7947V88.2569C134.894 88.0467 134.936 87.8386 135.017 87.6446C135.098 87.4506 135.216 87.2744 135.365 87.1263C135.514 86.9782 135.691 86.8611 135.886 86.7817C136.08 86.7023 136.289 86.6622 136.499 86.6637H139.028C139.45 86.6637 139.855 86.8316 140.154 87.1304C140.453 87.4292 140.621 87.8344 140.621 88.2569V90.7855C140.62 91.2087 140.452 91.6146 140.154 91.9147C139.856 92.2148 139.451 92.3848 139.028 92.3878V92.3878ZM136.499 87.1098C136.349 87.1083 136.199 87.1367 136.06 87.1932C135.921 87.2497 135.794 87.3333 135.687 87.4391C135.58 87.5449 135.495 87.6709 135.437 87.8097C135.379 87.9485 135.35 88.0974 135.35 88.2478V90.7855C135.35 90.936 135.379 91.0849 135.437 91.2237C135.495 91.3625 135.58 91.4885 135.687 91.5943C135.794 91.7001 135.921 91.7837 136.06 91.8402C136.199 91.8967 136.349 91.925 136.499 91.9235H139.028C139.329 91.9235 139.619 91.8036 139.832 91.5902C140.046 91.3768 140.166 91.0874 140.166 90.7855V88.2569C140.166 87.9551 140.046 87.6657 139.832 87.4522C139.619 87.2388 139.329 87.1189 139.028 87.1189L136.499 87.1098Z" fill="#FFB9AA"/>
<path d="M141.374 100.64H135.122C135.062 100.64 135.004 100.616 134.961 100.574C134.918 100.531 134.894 100.473 134.894 100.413V97.7475C134.894 97.6872 134.918 97.6293 134.961 97.5866C135.004 97.5439 135.062 97.52 135.122 97.52H141.374C141.434 97.52 141.492 97.5439 141.535 97.5866C141.578 97.6293 141.602 97.6872 141.602 97.7475V100.413C141.602 100.473 141.578 100.531 141.535 100.574C141.492 100.616 141.434 100.64 141.374 100.64ZM135.35 100.185H141.147V97.9751H135.35V100.185Z" fill="#FFB9AA"/>
<path d="M149.133 100.64H142.881C142.82 100.64 142.763 100.616 142.72 100.574C142.677 100.531 142.653 100.473 142.653 100.413V97.7475C142.653 97.6872 142.677 97.6293 142.72 97.5866C142.763 97.5439 142.82 97.52 142.881 97.52H149.133C149.193 97.52 149.251 97.5439 149.294 97.5866C149.337 97.6293 149.361 97.6872 149.361 97.7475V100.413C149.361 100.473 149.337 100.531 149.294 100.574C149.251 100.616 149.193 100.64 149.133 100.64ZM143.108 100.185H148.905V97.9751H143.108V100.185Z" fill="#FFB9AA"/>
<path d="M156.889 100.64H150.64C150.579 100.64 150.521 100.616 150.479 100.574C150.436 100.531 150.412 100.473 150.412 100.413V97.7475C150.412 97.6872 150.436 97.6293 150.479 97.5866C150.521 97.5439 150.579 97.52 150.64 97.52H156.889C156.95 97.52 157.008 97.5439 157.05 97.5866C157.093 97.6293 157.117 97.6872 157.117 97.7475V100.413C157.117 100.473 157.093 100.531 157.05 100.574C157.008 100.616 156.95 100.64 156.889 100.64ZM150.867 100.185H156.662V97.9751H150.867V100.185Z" fill="#FFB9AA"/>
<path d="M164.66 100.64H158.398C158.338 100.64 158.28 100.616 158.238 100.574C158.195 100.531 158.171 100.473 158.171 100.413V97.7475C158.171 97.6872 158.195 97.6293 158.238 97.5866C158.28 97.5439 158.338 97.52 158.398 97.52H164.66C164.72 97.52 164.778 97.5439 164.821 97.5866C164.863 97.6293 164.887 97.6872 164.887 97.7475V100.413C164.887 100.473 164.863 100.531 164.821 100.574C164.778 100.616 164.72 100.64 164.66 100.64ZM158.637 100.185H164.432V97.9751H158.626L158.637 100.185Z" fill="#FFB9AA"/>
<defs>
<filter id="filter0_d_5_182" x="107.073" y="73.609" width="69.6266" height="56.0754" filterUnits="userSpaceOnUse" color-interpolation-filters="sRGB">
<feFlood flood-opacity="0" result="BackgroundImageFix"/>
<feColorMatrix in="SourceAlpha" type="matrix" values="0 0 0 0 0 0 0 0 0 0 0 0 0 0 0 0 0 0 127 0" result="hardAlpha"/>
<feOffset dx="-8" dy="8"/>
<feGaussianBlur stdDeviation="8"/>
<feComposite in2="hardAlpha" operator="out"/>
<feColorMatrix type="matrix" values="0 0 0 0 0.419608 0 0 0 0 0.447059 0 0 0 0 0.501961 0 0 0 0.15 0"/>
<feBlend mode="normal" in2="BackgroundImageFix" result="effect1_dropShadow_5_182"/>
<feBlend mode="normal" in="SourceGraphic" in2="effect1_dropShadow_5_182" result="shape"/>
</filter>
<clipPath id="clip0_5_182">
<rect width="22.2734" height="22.2734" fill="white" transform="translate(213.188 53.6543) rotate(-15)"/>
</clipPath>
<clipPath id="clip1_5_182">
<rect width="11.0587" height="11.0587" fill="white" transform="translate(193.984 9.00439) rotate(-15)"/>
</clipPath>
<clipPath id="clip2_5_182">
<rect width="9.62799" height="9.62799" fill="white" transform="translate(80 67.4917) rotate(-15)"/>
</clipPath>
<clipPath id="clip3_5_182">
<rect width="9.62799" height="9.62799" fill="white" transform="translate(55 33.4917) rotate(-15)"/>
</clipPath>
<clipPath id="clip4_5_182">
<rect width="9.62799" height="9.62799" fill="white" transform="translate(16 82.4917) rotate(-15)"/>
</clipPath>
<clipPath id="clip5_5_182">
<rect width="8.47256" height="8.47256" fill="white" transform="translate(264 76.1929) rotate(-15)"/>
</clipPath>
</defs>
</svg>
