<svg viewBox="0 0 29 28" fill="none" xmlns="http://www.w3.org/2000/svg">
<path fill-rule="evenodd" clip-rule="evenodd" d="M11.5833 9.01396L9.475 11.1247C9.10833 11.4918 8.55833 11.4918 8.19167 11.1247C7.825 10.7576 7.825 10.207 8.19167 9.8399L11.8583 6.16906C11.9042 6.12317 11.95 6.10023 11.9958 6.07729C12.0417 6.05434 12.0875 6.0314 12.1333 5.98552C12.4083 5.89374 12.6833 5.89374 12.8667 5.98552C12.9583 5.98552 13.05 6.07729 13.1417 6.16906L16.8083 9.8399C17.175 10.207 17.175 10.7576 16.8083 11.1247C16.625 11.3082 16.4417 11.4 16.1667 11.4C15.8917 11.4 15.7083 11.3082 15.525 11.1247L13.4167 9.01396V18.7417C13.4167 19.2923 13.05 19.6594 12.5 19.6594C11.95 19.6594 11.5833 19.2923 11.5833 18.7417V9.01396ZM20.75 23.3302V15.9885C20.75 15.4379 20.3833 15.0708 19.8333 15.0708C19.2833 15.0708 18.9167 15.4379 18.9167 15.9885V23.3302C18.9167 23.8808 18.55 24.2479 18 24.2479H7C6.45 24.2479 6.08333 23.8808 6.08333 23.3302V15.9885C6.08333 15.4379 5.71667 15.0708 5.16667 15.0708C4.61667 15.0708 4.25 15.4379 4.25 15.9885V23.3302C4.25 24.8903 5.44167 26.0834 7 26.0834H18C19.5583 26.0834 20.75 24.8903 20.75 23.3302Z" fill="black"/>
<mask id="mask0_3086_5179" style="mask-type:alpha" maskUnits="userSpaceOnUse" x="4" y="5" width="17" height="22">
<path fill-rule="evenodd" clip-rule="evenodd" d="M11.5833 9.01396L9.475 11.1247C9.10833 11.4918 8.55833 11.4918 8.19167 11.1247C7.825 10.7576 7.825 10.207 8.19167 9.8399L11.8583 6.16906C11.9042 6.12317 11.95 6.10023 11.9958 6.07729C12.0417 6.05434 12.0875 6.0314 12.1333 5.98552C12.4083 5.89374 12.6833 5.89374 12.8667 5.98552C12.9583 5.98552 13.05 6.07729 13.1417 6.16906L16.8083 9.8399C17.175 10.207 17.175 10.7576 16.8083 11.1247C16.625 11.3082 16.4417 11.4 16.1667 11.4C15.8917 11.4 15.7083 11.3082 15.525 11.1247L13.4167 9.01396V18.7417C13.4167 19.2923 13.05 19.6594 12.5 19.6594C11.95 19.6594 11.5833 19.2923 11.5833 18.7417V9.01396ZM20.75 23.3302V15.9885C20.75 15.4379 20.3833 15.0708 19.8333 15.0708C19.2833 15.0708 18.9167 15.4379 18.9167 15.9885V23.3302C18.9167 23.8808 18.55 24.2479 18 24.2479H7C6.45 24.2479 6.08333 23.8808 6.08333 23.3302V15.9885C6.08333 15.4379 5.71667 15.0708 5.16667 15.0708C4.61667 15.0708 4.25 15.4379 4.25 15.9885V23.3302C4.25 24.8903 5.44167 26.0834 7 26.0834H18C19.5583 26.0834 20.75 24.8903 20.75 23.3302Z" fill="white"/>
</mask>
<g mask="url(#mask0_3086_5179)">
<rect x="1.5" y="5" width="22" height="22" fill="#46D6A2"/>
</g>
<path fill-rule="evenodd" clip-rule="evenodd" d="M15.5833 5.01396L13.475 7.12469C13.1083 7.49177 12.5583 7.49177 12.1917 7.12469C11.825 6.7576 11.825 6.20698 12.1917 5.8399L15.8583 2.16906C15.9042 2.12317 15.95 2.10023 15.9958 2.07729C16.0417 2.05434 16.0875 2.0314 16.1333 1.98552C16.4083 1.89374 16.6833 1.89374 16.8667 1.98552C16.9583 1.98552 17.05 2.07729 17.1417 2.16906L20.8083 5.8399C21.175 6.20698 21.175 6.7576 20.8083 7.12469C20.625 7.30823 20.4417 7.4 20.1667 7.4C19.8917 7.4 19.7083 7.30823 19.525 7.12469L17.4167 5.01396V14.7417C17.4167 15.2923 17.05 15.6594 16.5 15.6594C15.95 15.6594 15.5833 15.2923 15.5833 14.7417V5.01396ZM24.75 19.3302V11.9885C24.75 11.4379 24.3833 11.0708 23.8333 11.0708C23.2833 11.0708 22.9167 11.4379 22.9167 11.9885V19.3302C22.9167 19.8808 22.55 20.2479 22 20.2479H11C10.45 20.2479 10.0833 19.8808 10.0833 19.3302V11.9885C10.0833 11.4379 9.71667 11.0708 9.16667 11.0708C8.61667 11.0708 8.25 11.4379 8.25 11.9885V19.3302C8.25 20.8903 9.44167 22.0834 11 22.0834H22C23.5583 22.0834 24.75 20.8903 24.75 19.3302Z" fill="black"/>
<mask id="mask1_3086_5179" style="mask-type:alpha" maskUnits="userSpaceOnUse" x="8" y="1" width="17" height="22">
<path fill-rule="evenodd" clip-rule="evenodd" d="M15.5833 5.01396L13.475 7.12469C13.1083 7.49177 12.5583 7.49177 12.1917 7.12469C11.825 6.7576 11.825 6.20698 12.1917 5.8399L15.8583 2.16906C15.9042 2.12317 15.95 2.10023 15.9958 2.07729C16.0417 2.05434 16.0875 2.0314 16.1333 1.98552C16.4083 1.89374 16.6833 1.89374 16.8667 1.98552C16.9583 1.98552 17.05 2.07729 17.1417 2.16906L20.8083 5.8399C21.175 6.20698 21.175 6.7576 20.8083 7.12469C20.625 7.30823 20.4417 7.4 20.1667 7.4C19.8917 7.4 19.7083 7.30823 19.525 7.12469L17.4167 5.01396V14.7417C17.4167 15.2923 17.05 15.6594 16.5 15.6594C15.95 15.6594 15.5833 15.2923 15.5833 14.7417V5.01396ZM24.75 19.3302V11.9885C24.75 11.4379 24.3833 11.0708 23.8333 11.0708C23.2833 11.0708 22.9167 11.4379 22.9167 11.9885V19.3302C22.9167 19.8808 22.55 20.2479 22 20.2479H11C10.45 20.2479 10.0833 19.8808 10.0833 19.3302V11.9885C10.0833 11.4379 9.71667 11.0708 9.16667 11.0708C8.61667 11.0708 8.25 11.4379 8.25 11.9885V19.3302C8.25 20.8903 9.44167 22.0834 11 22.0834H22C23.5583 22.0834 24.75 20.8903 24.75 19.3302Z" fill="white"/>
</mask>
<g mask="url(#mask1_3086_5179)">
<rect x="5.5" y="1" width="22" height="22" fill="#2C2D2F"/>
</g>
</svg>
