<svg viewBox="0 0 28 28" fill="none" xmlns="http://www.w3.org/2000/svg">
<path d="M21 -3.0598e-07C24.866 -1.36992e-07 28 3.13401 28 7L28 21C28 24.866 24.866 28 21 28L7 28C3.13401 28 -1.08693e-06 24.866 -9.17939e-07 21L-3.0598e-07 7C-1.36992e-07 3.13401 3.13401 -1.08693e-06 7 -9.17939e-07L21 -3.0598e-07Z" fill="#46D6A2"/>
<path d="M20.4826 8.02105C20.8297 8.38008 21.3925 8.38008 21.7397 8.02105C22.0868 7.66202 22.0868 7.07992 21.7397 6.72089L19.3693 4.26927C19.0221 3.91024 18.4593 3.91024 18.1122 4.26927L15.7418 6.72089C15.3947 7.07992 15.3947 7.66202 15.7418 8.02105C16.089 8.38008 16.6518 8.38008 16.9989 8.02105L17.8519 7.13887L17.8519 19.629C17.8519 20.1368 18.2498 20.5484 18.7407 20.5484C19.2317 20.5484 19.6296 20.1368 19.6296 19.629L19.6296 7.13887L20.4826 8.02105Z" fill="white"/>
<path d="M12.2582 18.9789C11.911 18.6199 11.3482 18.6199 11.0011 18.9789L10.1481 19.8611L10.1481 7.37097C10.1481 6.86322 9.75018 6.45161 9.25926 6.45161C8.76834 6.45161 8.37037 6.86322 8.37037 7.37097L8.37037 19.8611L7.51743 18.9789C7.17029 18.6199 6.60748 18.6199 6.26035 18.9789C5.91322 19.338 5.91322 19.9201 6.26035 20.2791L8.63072 22.7307C8.97785 23.0898 9.54066 23.0898 9.8878 22.7307L12.2582 20.2791C12.6053 19.9201 12.6053 19.338 12.2582 18.9789Z" fill="white"/>
</svg>
