<svg width="235" height="249" viewBox="0 0 235 249" fill="none" xmlns="http://www.w3.org/2000/svg">
<path d="M203.924 19.78C203.924 19.78 200.454 15.45 205.564 13.67C205.983 13.6415 206.404 13.697 206.801 13.8331C207.199 13.9691 207.565 14.1831 207.879 14.4625C208.193 14.7418 208.447 15.0809 208.629 15.4599C208.81 15.839 208.914 16.2503 208.934 16.67" fill="#2C2D2F"/>
<path d="M149.574 94.82C147.894 92.35 171.744 45.58 171.744 45.58C172.655 43.1418 174.4 41.1055 176.671 39.833C178.941 38.5605 181.589 38.1343 184.144 38.63L199.214 41.56C201.432 41.9879 203.466 43.0835 205.044 44.7L215.724 55.7C217.541 57.5632 218.639 60.0105 218.822 62.6068C219.005 65.2031 218.262 67.7802 216.724 69.88C216.724 69.88 202.294 92.23 189.334 114.58C189.274 114.61 164.174 116.35 149.574 94.82Z" fill="white"/>
<path d="M188.094 115.14C182.854 115.14 161.914 113.91 149.164 95.1399C147.454 92.6199 165.674 56.4199 171.294 45.3899C172.249 42.8492 174.075 40.7299 176.447 39.4096C178.818 38.0892 181.581 37.6535 184.244 38.1799L199.314 41.1099C201.625 41.5548 203.742 42.704 205.374 44.3999L216.064 55.3999C217.962 57.3518 219.105 59.9148 219.288 62.6313C219.471 65.3478 218.683 68.0409 217.064 70.2299C216.934 70.4199 202.514 92.7999 189.704 114.88L189.574 115.11H189.314C189.314 115.11 188.844 115.14 188.094 115.14ZM150.044 94.5599C163.534 114.42 186.334 114.21 189.044 114.12C201.824 92.1199 216.154 69.8599 216.304 69.6399C217.788 67.639 218.513 65.1754 218.348 62.6895C218.183 60.2036 217.14 57.8574 215.404 56.0699L204.724 45.0699C203.226 43.5231 201.288 42.4755 199.174 42.0699L184.044 39.1199C181.605 38.6393 179.074 39.0424 176.905 40.2572C174.735 41.4719 173.069 43.419 172.204 45.7499C163.204 63.4199 149.254 92.2099 150.044 94.5599Z" fill="#2C2D2F"/>
<path d="M205.724 109.81L213.244 94.34L200.454 88.59L196.624 97.71" fill="white"/>
<path d="M205.724 110.31C205.652 110.33 205.576 110.33 205.504 110.31C205.445 110.281 205.392 110.241 205.348 110.192C205.305 110.142 205.271 110.085 205.25 110.023C205.229 109.961 205.22 109.895 205.224 109.829C205.228 109.763 205.245 109.699 205.274 109.64L212.564 94.64L200.714 89.3L197.044 97.9C196.991 98.0199 196.894 98.1148 196.773 98.1651C196.652 98.2154 196.516 98.2171 196.394 98.17C196.273 98.1151 196.178 98.0162 196.128 97.8936C196.078 97.7709 196.076 97.6337 196.124 97.51L200.044 88.39C200.07 88.3286 200.109 88.273 200.157 88.2267C200.205 88.1803 200.262 88.144 200.324 88.12C200.385 88.0927 200.452 88.0786 200.519 88.0786C200.586 88.0786 200.653 88.0927 200.714 88.12L213.494 93.88C213.556 93.9047 213.613 93.9425 213.659 93.9908C213.706 94.0391 213.742 94.0968 213.764 94.16C213.814 94.2853 213.814 94.4247 213.764 94.55L206.174 110C206.137 110.09 206.075 110.167 205.995 110.222C205.915 110.277 205.821 110.308 205.724 110.31Z" fill="#2C2D2F"/>
<path d="M204.464 107.61L223.344 124.46C223.656 124.731 223.99 124.976 224.344 125.19C225.344 125.68 228.624 126.98 230.154 128.31C230.264 128.38 230.345 128.486 230.384 128.61C230.423 128.734 230.417 128.868 230.367 128.987C230.316 129.107 230.225 129.205 230.109 129.264C229.994 129.323 229.861 129.34 229.734 129.31C228.634 129.19 227.094 128.7 226.684 128.9C226.684 128.9 225.774 129.28 227.014 130.45C229.203 132.506 231.496 134.449 233.884 136.27C233.982 136.339 234.05 136.442 234.074 136.559C234.098 136.676 234.077 136.798 234.015 136.9C233.952 137.002 233.853 137.076 233.738 137.108C233.623 137.139 233.5 137.126 233.394 137.07C230.858 135.703 228.428 134.149 226.124 132.42V132.61C228.054 134.41 231.754 137.61 233.804 139.12C233.895 139.192 233.957 139.295 233.976 139.41C233.996 139.524 233.972 139.642 233.91 139.74C233.848 139.838 233.752 139.91 233.64 139.941C233.528 139.973 233.408 139.962 233.304 139.91C230.456 138.379 227.728 136.634 225.144 134.69L225.044 134.77C226.654 136.26 229.374 138.49 231.224 139.85C231.322 139.919 231.39 140.022 231.414 140.139C231.438 140.256 231.417 140.378 231.355 140.48C231.292 140.582 231.193 140.656 231.078 140.688C230.963 140.719 230.84 140.706 230.734 140.65C228.044 139.182 225.469 137.511 223.034 135.65H222.884C223.831 136.803 224.939 137.813 226.174 138.65C226.654 138.99 226.094 139.83 225.584 139.54C223.093 138.067 220.692 136.448 218.394 134.69L216.154 133L194.044 115.34C193.024 114.527 192.297 113.404 191.972 112.141C191.647 110.878 191.743 109.544 192.244 108.34L196.634 97.71" fill="white"/>
<path d="M231.044 141.18C230.891 141.177 230.74 141.14 230.604 141.07C229.348 140.424 228.126 139.713 226.944 138.94C226.96 139.177 226.897 139.413 226.764 139.61C226.634 139.835 226.421 140.001 226.171 140.072C225.921 140.143 225.653 140.113 225.424 139.99C222.914 138.511 220.496 136.881 218.184 135.11L215.904 133.38L193.774 115.73C192.669 114.85 191.877 113.637 191.517 112.272C191.157 110.906 191.247 109.46 191.774 108.15L196.174 97.52C196.198 97.4589 196.234 97.4033 196.28 97.3565C196.326 97.3096 196.381 97.2725 196.442 97.2473C196.502 97.2221 196.567 97.2094 196.633 97.2099C196.699 97.2103 196.764 97.2239 196.824 97.25C196.885 97.2742 196.941 97.3103 196.988 97.3561C197.035 97.4019 197.073 97.4565 197.099 97.5169C197.125 97.5773 197.139 97.6422 197.139 97.7079C197.14 97.7736 197.128 97.8389 197.104 97.9L192.704 108.53C192.237 109.64 192.144 110.872 192.44 112.04C192.736 113.207 193.404 114.246 194.344 115L216.464 132.64L218.734 134.37C221.017 136.104 223.398 137.707 225.864 139.17C225.864 139.17 225.864 139.1 225.864 139.07C224.591 138.252 223.454 137.24 222.494 136.07C222.446 136.003 222.415 135.924 222.404 135.842C222.394 135.76 222.404 135.676 222.434 135.599C222.463 135.522 222.512 135.453 222.575 135.399C222.638 135.345 222.713 135.308 222.794 135.29C222.979 135.249 223.172 135.27 223.344 135.35C225.76 137.179 228.311 138.824 230.974 140.27C228.79 138.703 226.7 137.01 224.714 135.2C224.659 135.149 224.616 135.087 224.589 135.018C224.561 134.949 224.549 134.874 224.554 134.8C224.559 134.725 224.581 134.653 224.617 134.587C224.654 134.521 224.704 134.464 224.764 134.42C224.863 134.348 224.978 134.304 225.1 134.292C225.221 134.28 225.343 134.3 225.454 134.35C228.013 136.275 230.714 138.004 233.534 139.52C231.364 137.95 227.664 134.78 225.794 133.04C225.715 132.961 225.663 132.86 225.644 132.75V132.55C225.629 132.452 225.644 132.352 225.686 132.263C225.729 132.173 225.798 132.099 225.884 132.05C225.966 131.996 226.061 131.968 226.159 131.968C226.257 131.968 226.352 131.996 226.434 132.05C228.719 133.762 231.129 135.299 233.644 136.65C231.2 134.855 228.862 132.918 226.644 130.85C226.024 130.25 225.764 129.72 225.854 129.23C225.882 129.062 225.953 128.904 226.06 128.771C226.167 128.638 226.306 128.534 226.464 128.47C227.131 128.331 227.823 128.38 228.464 128.61C228.914 128.7 229.374 128.8 229.784 128.85L230.144 128.37L229.824 128.74C228.335 127.674 226.723 126.791 225.024 126.11L224.114 125.69C223.713 125.464 223.334 125.199 222.984 124.9L204.124 108C204.032 107.907 203.981 107.781 203.981 107.65C203.981 107.519 204.032 107.393 204.124 107.3C204.17 107.253 204.226 107.216 204.287 107.191C204.348 107.165 204.413 107.152 204.479 107.152C204.545 107.152 204.61 107.165 204.671 107.191C204.732 107.216 204.787 107.253 204.834 107.3L223.714 124.15C224.006 124.395 224.317 124.615 224.644 124.81L225.504 125.2C227.28 125.92 228.959 126.857 230.504 127.99C230.685 128.132 230.811 128.331 230.862 128.555C230.913 128.779 230.886 129.014 230.784 129.22C230.701 129.43 230.548 129.606 230.352 129.719C230.156 129.831 229.928 129.874 229.704 129.84C229.264 129.79 228.774 129.69 228.294 129.59C227.837 129.469 227.367 129.402 226.894 129.39C226.894 129.39 226.894 129.62 227.374 130.12C229.552 132.16 231.832 134.089 234.204 135.9C234.355 136.059 234.449 136.263 234.473 136.481C234.496 136.699 234.448 136.919 234.334 137.107C234.22 137.294 234.048 137.439 233.844 137.519C233.64 137.599 233.415 137.61 233.204 137.55C232.634 137.26 232.054 136.94 231.474 136.55C232.474 137.38 233.414 138.14 234.154 138.7C234.3 138.86 234.391 139.063 234.411 139.278C234.432 139.494 234.383 139.711 234.27 139.896C234.157 140.081 233.987 140.224 233.786 140.304C233.585 140.384 233.363 140.397 233.154 140.34C232.704 140.12 232.244 139.87 231.774 139.61C231.902 139.763 231.978 139.954 231.991 140.153C232.003 140.353 231.952 140.552 231.844 140.72C231.757 140.855 231.639 140.968 231.5 141.048C231.361 141.128 231.204 141.173 231.044 141.18Z" fill="#2C2D2F"/>
<path d="M194.954 109C194.954 109 195.174 111.63 194.134 111.17C193.094 110.71 194.204 109.96 194.204 109.96" fill="white"/>
<path d="M194.354 111.71C194.209 111.706 194.066 111.672 193.934 111.61C193.743 111.549 193.573 111.437 193.442 111.285C193.311 111.133 193.225 110.948 193.194 110.75C193.208 110.503 193.282 110.263 193.409 110.05C193.536 109.838 193.713 109.659 193.924 109.53C194.006 109.479 194.102 109.451 194.199 109.451C194.296 109.451 194.391 109.479 194.474 109.53C194.474 109.36 194.474 109.2 194.474 109.04C194.463 108.909 194.504 108.779 194.588 108.678C194.672 108.576 194.793 108.513 194.924 108.5C194.989 108.492 195.056 108.497 195.119 108.515C195.182 108.534 195.241 108.565 195.292 108.607C195.343 108.65 195.384 108.702 195.414 108.761C195.443 108.82 195.46 108.884 195.464 108.95C195.524 109.57 195.564 111.06 194.884 111.55C194.732 111.664 194.544 111.721 194.354 111.71ZM194.214 110.64C194.256 110.656 194.296 110.676 194.334 110.7C194.379 110.613 194.406 110.518 194.414 110.42C194.334 110.48 194.266 110.554 194.214 110.64Z" fill="#2C2D2F"/>
<path d="M211.604 96.41C211.604 96.41 203.364 98.75 198.264 93.34L200.454 88.59L211.604 96.41Z" fill="#2C2D2F"/>
<path d="M215.644 55.7C225.884 65.47 223.044 75.8 223.044 75.8C223.044 75.8 221.044 88.48 214.874 96.8C214.874 96.8 203.094 95.63 199.954 88.72C199.954 88.72 203.374 78.3699 206.344 74.0299" fill="white"/>
<path d="M215.144 97.33H214.864C214.364 97.33 202.754 96.05 199.534 88.96L199.454 88.78L199.514 88.59C199.654 88.17 202.994 78.12 205.974 73.78L206.794 74.35C204.114 78.26 201.004 87.35 200.534 88.72C203.354 94.56 212.914 96.07 214.684 96.3C220.584 88.15 222.574 75.87 222.594 75.75C222.614 75.63 225.184 65.51 215.304 56.08L215.994 55.35C220.056 59.0241 222.77 63.9529 223.704 69.35C224.072 71.5356 224.027 73.7706 223.574 75.94C223.574 76.02 221.494 88.78 215.314 97.12L215.144 97.33Z" fill="#2C2D2F"/>
<path d="M202.554 80.5316L199.535 88.5734L200.471 88.9249L203.49 80.8831L202.554 80.5316Z" fill="#2C2D2F"/>
<path d="M135.224 111.17L164.144 67.92L152.264 60.48L125.784 105.23L124.384 107.73C122.962 110.248 121.693 112.85 120.584 115.52C120.364 116.07 121.274 116.52 121.584 115.98C122.238 114.644 123.08 113.408 124.084 112.31C124.08 112.36 124.08 112.41 124.084 112.46C122.589 115.127 121.302 117.905 120.234 120.77C120.184 120.884 120.181 121.013 120.226 121.13C120.271 121.246 120.36 121.34 120.474 121.39C120.588 121.44 120.717 121.443 120.834 121.398C120.95 121.353 121.044 121.264 121.094 121.15C122.184 119.15 124.024 116.15 125.274 114.32L125.364 114.41C123.811 117.238 122.474 120.18 121.364 123.21C121.326 123.32 121.331 123.44 121.377 123.547C121.423 123.654 121.507 123.74 121.613 123.789C121.719 123.838 121.839 123.845 121.95 123.81C122.061 123.775 122.155 123.7 122.214 123.6C123.474 121.35 126.084 117.25 127.594 115.09H127.784C126.386 117.611 125.182 120.235 124.184 122.94C124.134 123.054 124.131 123.183 124.176 123.3C124.221 123.416 124.31 123.51 124.424 123.56C124.538 123.61 124.667 123.613 124.784 123.568C124.9 123.523 124.994 123.434 125.044 123.32C126.324 120.94 128.734 117.32 129.854 115.7C130.854 114.31 131.354 115.15 131.354 115.15C131.604 115.54 131.354 117.15 131.354 118.29C131.354 118.8 132.154 118.89 132.424 118.46C133.504 116.73 134.314 113.39 134.664 112.33C134.811 111.925 134.998 111.537 135.224 111.17Z" fill="white"/>
<path d="M121.794 124.34C121.653 124.339 121.513 124.309 121.384 124.25C121.159 124.157 120.978 123.979 120.881 123.755C120.784 123.531 120.778 123.278 120.864 123.05C121.024 122.58 121.204 122.05 121.394 121.59C121.233 121.727 121.033 121.81 120.822 121.826C120.611 121.842 120.4 121.791 120.22 121.68C120.04 121.569 119.899 121.404 119.819 121.208C119.739 121.012 119.723 120.795 119.774 120.59C120.24 119.255 120.778 117.947 121.384 116.67C121.149 116.729 120.9 116.701 120.684 116.59C120.442 116.492 120.248 116.303 120.143 116.064C120.039 115.825 120.032 115.554 120.124 115.31C121.239 112.618 122.519 109.996 123.954 107.46L125.344 105L151.834 60.23C151.867 60.1726 151.912 60.1227 151.965 60.0832C152.019 60.0436 152.079 60.0153 152.144 60C152.208 59.9844 152.275 59.9817 152.34 59.992C152.405 60.0023 152.468 60.0254 152.524 60.06L164.404 67.51C164.462 67.5449 164.512 67.5913 164.552 67.6464C164.591 67.7014 164.619 67.7638 164.634 67.83C164.649 67.8954 164.649 67.9631 164.635 68.0286C164.621 68.0942 164.594 68.156 164.554 68.21L135.634 111.45C135.433 111.768 135.259 112.103 135.114 112.45C135.044 112.65 134.954 112.96 134.844 113.34C134.392 115.187 133.72 116.973 132.844 118.66C132.712 118.863 132.518 119.018 132.292 119.103C132.065 119.187 131.817 119.197 131.584 119.13C131.383 119.084 131.202 118.973 131.07 118.814C130.938 118.655 130.862 118.457 130.854 118.25C130.854 117.79 130.854 117.25 130.904 116.77C130.954 116.298 130.954 115.822 130.904 115.35C130.904 115.35 130.664 115.35 130.244 115.93C129.074 117.57 126.704 121.2 125.464 123.49C125.327 123.661 125.137 123.783 124.924 123.836C124.711 123.888 124.486 123.869 124.285 123.782C124.083 123.694 123.916 123.543 123.81 123.351C123.703 123.159 123.662 122.937 123.694 122.72C123.904 122.12 124.134 121.5 124.394 120.88C123.714 121.97 123.094 123.01 122.634 123.88C122.544 124.021 122.419 124.137 122.273 124.217C122.126 124.297 121.961 124.34 121.794 124.34ZM125.284 113.82C125.418 113.824 125.546 113.878 125.644 113.97C125.73 114.058 125.79 114.168 125.82 114.287C125.85 114.407 125.848 114.532 125.814 114.65C124.263 117.452 122.926 120.367 121.814 123.37C123.074 121 125.694 116.9 127.164 114.81C127.23 114.716 127.325 114.646 127.434 114.61H127.624C127.718 114.583 127.819 114.583 127.913 114.612C128.007 114.64 128.09 114.695 128.154 114.77C128.218 114.848 128.256 114.942 128.265 115.042C128.274 115.142 128.253 115.242 128.204 115.33C126.82 117.825 125.63 120.423 124.644 123.1C126.088 120.447 127.684 117.879 129.424 115.41C129.924 114.71 130.424 114.41 130.924 114.41C131.094 114.42 131.259 114.47 131.405 114.557C131.551 114.644 131.674 114.765 131.764 114.91C131.987 115.553 132.032 116.244 131.894 116.91C131.894 117.38 131.834 117.91 131.844 118.26H131.924C132.805 116.655 133.477 114.945 133.924 113.17C134.034 112.77 134.134 112.44 134.204 112.17C134.378 111.742 134.588 111.331 134.834 110.94L163.444 68.08L152.444 61.17L126.234 105.49L124.824 108C123.414 110.49 122.152 113.061 121.044 115.7C121.044 115.7 121.114 115.7 121.154 115.7C121.801 114.32 122.658 113.048 123.694 111.93C123.754 111.873 123.828 111.831 123.909 111.81C123.989 111.789 124.073 111.789 124.154 111.81C124.236 111.83 124.311 111.869 124.374 111.925C124.437 111.981 124.485 112.051 124.514 112.13C124.574 112.308 124.574 112.501 124.514 112.68C123.029 115.32 121.752 118.072 120.694 120.91C121.944 118.532 123.329 116.228 124.844 114.01C124.889 113.95 124.945 113.9 125.011 113.863C125.077 113.827 125.149 113.806 125.224 113.8L125.284 113.82Z" fill="#2C2D2F"/>
<path d="M145.314 75.2C145.314 75.2 145.174 77.83 144.214 77.2C143.254 76.57 144.454 76.01 144.454 76.01" fill="white"/>
<path d="M144.474 77.82C144.289 77.8158 144.109 77.7604 143.954 77.66C143.76 77.5786 143.597 77.4382 143.487 77.2587C143.378 77.0791 143.328 76.8697 143.344 76.66C143.344 76.02 144.084 75.66 144.224 75.56C144.312 75.5172 144.41 75.5002 144.508 75.5108C144.605 75.5214 144.697 75.5593 144.774 75.62C144.774 75.46 144.774 75.29 144.774 75.13C144.774 74.9974 144.827 74.8702 144.92 74.7765C145.014 74.6827 145.141 74.63 145.274 74.63C145.407 74.63 145.534 74.6827 145.628 74.7765C145.721 74.8702 145.774 74.9974 145.774 75.13C145.774 75.75 145.584 77.24 144.844 77.63C144.738 77.723 144.611 77.7883 144.474 77.82ZM144.354 76.73C144.396 76.753 144.436 76.7798 144.474 76.81C144.527 76.7264 144.568 76.6355 144.594 76.54C144.507 76.5939 144.426 76.6577 144.354 76.73Z" fill="#2C2D2F"/>
<path d="M151.224 63C151.224 63 153.884 71.86 161.304 72.17L164.564 67.17L151.224 63Z" fill="#2C2D2F"/>
<path d="M184.044 38.5999C170.264 35.3699 163.134 43.3499 163.134 43.3499C163.134 43.3499 153.654 51.9999 150.044 61.6799C150.044 61.6799 157.454 70.9099 164.964 69.7599C164.964 69.7599 171.764 61.2399 173.764 56.3799" fill="white"/>
<path d="M163.644 70.36C156.464 70.36 149.954 62.36 149.644 61.99L149.464 61.77L149.564 61.5C153.164 51.77 162.724 43.07 162.824 42.98C164.38 41.4266 166.215 40.1814 168.234 39.31C173.266 37.1318 178.885 36.7125 184.184 38.12L183.954 39.12C170.644 35.99 163.604 43.64 163.534 43.72C163.464 43.8 154.194 52.22 150.604 61.61C151.754 62.96 158.244 70.14 164.684 69.32C165.604 68.15 171.484 60.6 173.294 56.22L174.224 56.6C172.224 61.47 165.624 69.75 165.344 70.1L165.214 70.25H165.024C164.568 70.3248 164.106 70.3616 163.644 70.36Z" fill="#2C2D2F"/>
<path d="M169.658 62.5483L164.573 69.4712L165.379 70.0632L170.464 63.1403L169.658 62.5483Z" fill="#2C2D2F"/>
<path d="M202.384 34L195.884 42.81C195.086 43.8689 194.692 45.1777 194.773 46.5011C194.853 47.8246 195.403 49.0759 196.324 50.03C197 50.7062 197.847 51.1866 198.774 51.42C200.092 51.7368 201.48 51.5648 202.681 50.9359C203.882 50.307 204.814 49.2638 205.304 48L209.124 38.27C206.414 37.7601 204.003 36.2322 202.384 34Z" fill="white"/>
<path d="M200.114 52C199.621 52.005 199.131 51.9444 198.654 51.82C197.636 51.5673 196.706 51.0418 195.964 50.3C194.968 49.2578 194.374 47.8967 194.286 46.4579C194.198 45.0191 194.622 43.5957 195.484 42.44L202.404 33.05L202.794 33.64C204.352 35.732 206.64 37.1603 209.204 37.64L209.824 37.73L205.764 48.0401C205.33 49.1917 204.558 50.1857 203.55 50.8921C202.542 51.5986 201.345 51.9847 200.114 52ZM202.384 34.76L196.284 43.03C195.561 43.9925 195.204 45.1802 195.275 46.3816C195.347 47.583 195.842 48.72 196.674 49.59C197.286 50.2092 198.058 50.6456 198.904 50.85C200.103 51.1403 201.366 50.9836 202.458 50.4093C203.549 49.835 204.394 48.8824 204.834 47.73L208.444 38.55C206.07 37.9911 203.943 36.6748 202.384 34.8V34.76Z" fill="#2C2D2F"/>
<path d="M207.384 42.26C207.384 42.26 203.684 41.06 203.054 38.61C202.681 37.1614 202.566 35.6585 202.714 34.17L209.364 37.74L207.384 42.26Z" fill="#2C2D2F"/>
<path d="M211.044 38.4001C216.937 38.4001 221.714 33.6229 221.714 27.7301C221.714 21.8372 216.937 17.0601 211.044 17.0601C205.151 17.0601 200.374 21.8372 200.374 27.7301C200.374 33.6229 205.151 38.4001 211.044 38.4001Z" fill="white"/>
<path d="M211.044 38.89C209.346 38.8846 207.671 38.4921 206.147 37.7422C204.624 36.9923 203.291 35.9048 202.25 34.5625C201.21 33.2201 200.49 31.6582 200.144 29.9955C199.798 28.3329 199.835 26.6132 200.254 24.9673C200.672 23.3214 201.461 21.7926 202.559 20.4971C203.657 19.2017 205.036 18.1737 206.591 17.4913C208.147 16.809 209.837 16.4902 211.534 16.5593C213.231 16.6284 214.889 17.0835 216.384 17.89C218.583 19.0665 220.325 20.9458 221.331 23.2279C222.337 25.51 222.55 28.0634 221.935 30.4806C221.321 32.8977 219.914 35.0393 217.94 36.5636C215.966 38.0878 213.538 38.9069 211.044 38.89ZM211.044 17.55C208.778 17.5455 206.576 18.2976 204.787 19.6869C202.997 21.0763 201.723 23.0234 201.166 25.2194C200.609 27.4154 200.801 29.7345 201.712 31.8089C202.623 33.8833 204.2 35.5941 206.194 36.67C207.555 37.4045 209.066 37.8189 210.612 37.8816C212.157 37.9443 213.696 37.6537 215.113 37.0318C216.529 36.4099 217.785 35.4732 218.784 34.2929C219.784 33.1126 220.501 31.7198 220.882 30.2205C221.262 28.7212 221.295 27.155 220.979 25.6409C220.663 24.1268 220.005 22.7048 219.057 21.4831C218.108 20.2613 216.893 19.272 215.505 18.5905C214.116 17.9089 212.591 17.5531 211.044 17.55Z" fill="#2C2D2F"/>
<path d="M206.534 18.06C206.534 18.06 203.224 11.83 208.764 8.85995C214.304 5.88995 218.694 15.86 218.694 15.86C218.694 15.86 220.754 12.6 224.764 16.23C224.764 16.23 228.044 19.6 224.334 24.02C224.334 24.02 230.174 23.2 228.664 27.87C228.664 27.87 226.664 33.63 218.774 35.37C218.774 35.37 219.214 33.75 218.494 33.74C217.774 33.73 216.884 34.28 216.064 33.91C215.244 33.54 219.314 26.57 219.314 26.57L206.534 18.06Z" fill="#2C2D2F"/>
<path d="M218.954 19.68C218.921 19.6741 218.889 19.6615 218.861 19.643C218.833 19.6246 218.809 19.6006 218.79 19.5726C218.771 19.5446 218.759 19.5131 218.752 19.48C218.746 19.4469 218.747 19.4129 218.754 19.38C219.022 18.2394 218.942 17.0446 218.524 15.95C218.496 15.8915 218.492 15.8243 218.512 15.7627C218.533 15.7011 218.576 15.65 218.634 15.62C218.662 15.6031 218.694 15.5926 218.727 15.5891C218.76 15.5856 218.793 15.5891 218.824 15.5996C218.855 15.61 218.884 15.6271 218.908 15.6496C218.932 15.6721 218.951 15.6995 218.964 15.73C219.457 16.9177 219.555 18.2323 219.244 19.48C219.232 19.5449 219.195 19.6023 219.14 19.6397C219.086 19.6772 219.019 19.6917 218.954 19.68Z" fill="white"/>
<path d="M222.494 24.5101C222.455 24.5093 222.417 24.5 222.383 24.4827C222.348 24.4654 222.318 24.4405 222.294 24.4101C222.254 24.357 222.237 24.2903 222.247 24.2247C222.256 24.1591 222.291 24.0998 222.344 24.0601C225.344 21.9101 224.644 19.3501 224.614 19.2501C224.603 19.2186 224.599 19.1852 224.602 19.1521C224.605 19.119 224.615 19.0868 224.631 19.0577C224.647 19.0286 224.669 19.0031 224.695 18.9828C224.721 18.9625 224.752 18.948 224.784 18.9401C224.846 18.9211 224.914 18.9272 224.972 18.957C225.029 18.9869 225.073 19.0382 225.094 19.1001C225.094 19.1001 225.934 22.1001 222.644 24.4601C222.602 24.4939 222.548 24.5116 222.494 24.5101Z" fill="white"/>
<path d="M208.554 17.6H208.434C205.264 15.72 207.624 11.15 207.644 11.1C207.675 11.0403 207.728 10.9952 207.791 10.9745C207.855 10.9539 207.924 10.9595 207.984 10.99C208.044 11.0205 208.089 11.0734 208.109 11.1372C208.13 11.2009 208.125 11.2703 208.094 11.33C208.094 11.33 205.924 15.53 208.684 17.17C208.741 17.2034 208.782 17.2578 208.799 17.3215C208.816 17.3851 208.807 17.4529 208.774 17.51C208.748 17.542 208.714 17.5671 208.675 17.5828C208.637 17.5985 208.595 17.6044 208.554 17.6Z" fill="white"/>
<path d="M221.124 33.92C221.084 33.9207 221.044 33.9109 221.009 33.8916C220.974 33.8723 220.945 33.8442 220.924 33.81C220.905 33.7832 220.891 33.7528 220.884 33.7206C220.876 33.6884 220.875 33.6551 220.881 33.6225C220.887 33.59 220.899 33.5589 220.916 33.531C220.934 33.5031 220.957 33.479 220.984 33.46C225.374 30.46 226.234 28.65 226.354 27.86C226.384 27.7513 226.391 27.6375 226.376 27.5258C226.36 27.414 226.322 27.3066 226.264 27.21C226.22 27.1622 226.196 27.0998 226.196 27.035C226.196 26.9703 226.22 26.9079 226.264 26.86C226.311 26.8142 226.374 26.7886 226.439 26.7886C226.504 26.7886 226.567 26.8142 226.614 26.86C226.716 27.0031 226.788 27.1658 226.824 27.338C226.86 27.5101 226.86 27.6879 226.824 27.86C226.694 28.93 225.624 30.86 221.234 33.86C221.203 33.8894 221.165 33.9101 221.124 33.92Z" fill="white"/>
<path d="M217.094 34.0001C217.094 34.0001 219.834 31.3801 220.424 32.8301C221.874 36.4101 217.424 36.4701 217.424 36.4701" fill="white"/>
<path d="M217.404 37C217.271 37 217.144 36.9473 217.05 36.8535C216.957 36.7597 216.904 36.6326 216.904 36.5C216.903 36.4348 216.914 36.37 216.938 36.3094C216.962 36.2488 216.998 36.1936 217.044 36.147C217.09 36.1004 217.144 36.0634 217.204 36.0382C217.264 36.0129 217.329 35.9999 217.394 36C217.874 36.0076 218.351 35.9185 218.796 35.7381C219.241 35.5577 219.645 35.2897 219.984 34.95C220.143 34.6568 220.227 34.3285 220.227 33.995C220.227 33.6614 220.143 33.3331 219.984 33.04C219.984 32.94 219.914 32.93 219.884 32.93C219.454 32.83 218.284 33.61 217.464 34.39C217.418 34.4411 217.362 34.4822 217.299 34.5107C217.237 34.5392 217.169 34.5545 217.1 34.5555C217.031 34.5566 216.963 34.5435 216.9 34.517C216.836 34.4905 216.779 34.4512 216.731 34.4016C216.684 34.3519 216.647 34.293 216.623 34.2284C216.599 34.1639 216.589 34.0951 216.593 34.0264C216.597 33.9578 216.615 33.8907 216.646 33.8293C216.678 33.768 216.721 33.7137 216.774 33.67C217.124 33.34 218.924 31.67 220.094 31.95C220.281 31.9901 220.454 32.0773 220.598 32.2033C220.741 32.3294 220.85 32.49 220.914 32.67C221.145 33.1099 221.26 33.6011 221.25 34.0977C221.239 34.5943 221.103 35.0802 220.854 35.51C219.854 36.95 217.534 37 217.434 37H217.404Z" fill="#2C2D2F"/>
<path d="M202.824 60.35C202.736 60.3516 202.65 60.3291 202.574 60.2851C202.498 60.241 202.436 60.177 202.394 60.1L197.314 51.45L187.614 52.53C187.523 52.5399 187.431 52.5246 187.348 52.4858C187.265 52.447 187.195 52.3862 187.144 52.31C187.095 52.2321 187.069 52.142 187.069 52.05C187.069 51.9581 187.095 51.868 187.144 51.79L193.374 40.27C193.404 40.2116 193.444 40.1597 193.494 40.1174C193.544 40.0751 193.602 40.0432 193.665 40.0237C193.727 40.0041 193.793 39.9972 193.858 40.0035C193.923 40.0097 193.986 40.0289 194.044 40.06C194.103 40.0906 194.155 40.1325 194.197 40.1833C194.24 40.2341 194.272 40.2929 194.291 40.3561C194.311 40.4194 194.317 40.4859 194.311 40.5518C194.305 40.6177 194.285 40.6817 194.254 40.74L188.444 51.43L197.524 50.43C197.619 50.4177 197.715 50.4339 197.801 50.4767C197.886 50.5194 197.957 50.5868 198.004 50.67L202.764 58.77L207.714 47.77C207.769 47.6495 207.869 47.5556 207.992 47.5087C208.116 47.4619 208.253 47.4659 208.374 47.52C208.435 47.546 208.489 47.5839 208.535 47.6314C208.58 47.679 208.616 47.7353 208.639 47.7969C208.663 47.8585 208.673 47.9242 208.671 47.99C208.668 48.0559 208.652 48.1205 208.624 48.18L203.274 60.08C203.237 60.1638 203.177 60.2353 203.101 60.2866C203.025 60.3379 202.936 60.3668 202.844 60.37L202.824 60.35Z" fill="#2C2D2F"/>
<path d="M188.812 114.476L175.031 159.442L175.987 159.735L189.768 114.769L188.812 114.476Z" fill="#2C2D2F"/>
<path d="M51.884 247.57C36.014 246.49 9.184 247.63 5.304 247.63C-9.616 247.63 15.824 235.03 21.584 235.16C29.964 235.23 39.694 237.9 47.084 241.41C41.214 234.71 33.574 231.73 25.674 229.28C19.894 227.83 0.753998 225.91 0.0439982 217.77C-1.576 199.4 42.044 223.38 47.624 229.3C44.624 222 25.194 187.99 40.284 182.12C52.774 177.63 47.654 215.62 52.724 221.29C56.794 214.09 61.504 200.02 67.174 193.6C79.764 179.37 91.354 183.6 82.374 194.3C74.374 203.87 61.824 217.13 59.444 231.66C66.444 226.5 71.294 220.34 78.824 216.74C83.234 214.27 103.824 206.43 103.684 216.17C103.144 228.28 67.044 230.69 60.144 239.79C66.484 242.79 76.334 237.05 84.204 238.19C91.804 238.54 106.794 245.79 93.464 247.04C81.944 248.12 71.334 247.21 53.274 247.26" fill="#46D6A2"/>
<path d="M181.254 247.57C165.384 246.49 138.554 247.63 134.674 247.63C119.754 247.63 145.194 235.03 150.954 235.16C159.334 235.23 169.064 237.9 176.454 241.41C170.584 234.71 162.944 231.73 155.044 229.28C149.264 227.83 130.124 225.91 129.454 217.77C127.834 199.4 171.454 223.38 177.034 229.3C174.034 222 154.604 187.99 169.694 182.12C182.184 177.63 177.064 215.62 182.134 221.29C186.204 214.09 190.914 200.02 196.584 193.6C209.174 179.37 220.764 183.6 211.784 194.3C203.784 203.87 191.224 217.13 188.854 231.66C195.854 226.5 200.704 220.34 208.234 216.74C212.644 214.27 233.234 206.43 233.094 216.17C232.514 228.28 196.434 230.69 189.514 239.79C195.854 242.79 205.704 237.05 213.574 238.19C221.174 238.54 236.164 245.79 222.824 247.04C211.314 248.12 200.704 247.21 182.644 247.26" fill="#46D6A2"/>
<path d="M149.994 0.5H58.584C50.6809 0.5 44.274 6.90681 44.274 14.81V232.95C44.274 240.853 50.6809 247.26 58.584 247.26H149.994C157.897 247.26 164.304 240.853 164.304 232.95V14.81C164.304 6.90681 157.897 0.5 149.994 0.5Z" fill="white"/>
<path d="M150.044 247.76H58.594C54.6747 247.757 50.9158 246.203 48.1388 243.438C45.3618 240.672 43.7925 236.919 43.774 233V14.81C43.7793 10.882 45.3428 7.11662 48.1212 4.34006C50.8996 1.56351 54.6661 0.00264509 58.594 0L150.044 0C153.971 0.00264893 157.737 1.56383 160.513 4.34067C163.29 7.11751 164.851 10.883 164.854 14.81V233C164.838 236.918 163.271 240.671 160.496 243.437C157.72 246.203 153.962 247.757 150.044 247.76ZM58.594 1C54.9313 1.00264 51.4192 2.45815 48.8283 5.04717C46.2374 7.63619 44.7793 11.1473 44.774 14.81V233C44.7793 236.663 46.2374 240.174 48.8283 242.763C51.4192 245.352 54.9313 246.807 58.594 246.81H150.044C153.696 246.792 157.193 245.329 159.771 242.742C162.349 240.154 163.799 236.652 163.804 233V14.81C163.799 11.1576 162.349 7.65559 159.771 5.06829C157.193 2.48098 153.696 1.01848 150.044 1H58.594Z" fill="#2C2D2F"/>
<path d="M164.074 0.5H72.824C64.8766 0.5 58.434 6.94262 58.434 14.89V232.87C58.434 240.817 64.8766 247.26 72.824 247.26H164.074C172.021 247.26 178.464 240.817 178.464 232.87V14.89C178.464 6.94262 172.021 0.5 164.074 0.5Z" fill="white"/>
<path d="M164.044 247.76H72.834C68.8848 247.757 65.098 246.188 62.3045 243.396C59.5111 240.605 57.9393 236.819 57.934 232.87V14.87C57.9445 10.9243 59.5187 7.14365 62.3116 4.35642C65.1044 1.56918 68.8882 0.00263216 72.834 0L164.044 0C167.991 0.00529149 171.776 1.57575 174.567 4.36702C177.358 7.15829 178.929 10.9426 178.934 14.89V232.89C178.923 236.834 177.351 240.613 174.56 243.4C171.769 246.187 167.988 247.755 164.044 247.76ZM72.834 1C69.15 1.00264 65.6175 2.46658 63.0116 5.0706C60.4057 7.67462 58.9393 11.206 58.934 14.89V232.89C58.9393 236.574 60.4057 240.105 63.0116 242.709C65.6175 245.313 69.15 246.777 72.834 246.78H164.044C167.727 246.777 171.258 245.313 173.863 242.709C176.467 240.104 177.931 236.573 177.934 232.89V14.89C177.931 11.207 176.467 7.67552 173.863 5.07121C171.258 2.46691 167.727 1.00265 164.044 1H72.834Z" fill="#2C2D2F"/>
<path d="M163.644 3.45996H73.2641C66.714 3.45996 61.4041 8.76986 61.4041 15.32V206.5C61.4041 213.05 66.714 218.36 73.2641 218.36H163.644C170.194 218.36 175.504 213.05 175.504 206.5V15.32C175.504 8.76986 170.194 3.45996 163.644 3.45996Z" fill="white"/>
<path d="M163.784 218.86H73.4041C70.1285 218.857 66.9878 217.556 64.6707 215.24C62.3536 212.925 61.0494 209.786 61.0441 206.51V15.32C61.0573 12.0497 62.365 8.91767 64.6812 6.60894C66.9975 4.3002 70.1337 3.00263 73.4041 3.00002H163.784C167.061 2.99468 170.206 4.28842 172.53 6.59773C174.854 8.90704 176.168 12.0436 176.184 15.32V206.51C176.181 208.135 175.859 209.744 175.234 211.245C174.609 212.745 173.695 214.108 172.543 215.255C171.392 216.402 170.025 217.31 168.522 217.929C167.02 218.548 165.409 218.864 163.784 218.86ZM73.4041 4.00002C70.3989 4.00263 67.517 5.19484 65.3883 7.31604C63.2596 9.43724 62.0573 12.3149 62.0441 15.32V206.51C62.0467 209.521 63.2447 212.408 65.3749 214.536C67.505 216.665 70.3929 217.86 73.4041 217.86H163.784C165.278 217.864 166.758 217.573 168.14 217.005C169.521 216.437 170.777 215.602 171.836 214.548C172.895 213.493 173.736 212.241 174.31 210.862C174.884 209.483 175.181 208.004 175.184 206.51V15.32C175.168 12.3088 173.959 9.42661 171.823 7.30484C169.686 5.18306 166.795 3.99468 163.784 4.00002H73.4041Z" fill="#2C2D2F"/>
<path d="M66.614 245.68C66.314 245.53 66.024 245.37 65.734 245.19C66.044 245.37 66.314 245.53 66.614 245.68Z" fill="#46D6A2"/>
<path d="M66.614 2.08997C66.314 2.23997 66.024 2.39997 65.734 2.56997C66.044 2.39997 66.314 2.23997 66.614 2.08997Z" fill="#46D6A2"/>
<path d="M49.054 35.0801C49.054 36.1736 49.9383 37.0601 51.029 37.0601C52.1198 37.0601 53.004 36.1736 53.004 35.0801V22.2401C53.004 21.1465 52.1198 20.2601 51.029 20.2601C49.9383 20.2601 49.054 21.1465 49.054 22.2401V35.0801Z" fill="#2C2D2F"/>
<path d="M122.184 242.82C127.646 242.82 132.074 238.392 132.074 232.93C132.074 227.468 127.646 223.04 122.184 223.04C116.722 223.04 112.294 227.468 112.294 232.93C112.294 238.392 116.722 242.82 122.184 242.82Z" fill="#2C2D2F"/>
<path d="M99.574 11.12L129.074 11.12C129.869 11.12 130.514 10.4753 130.514 9.68C130.514 8.88471 129.869 8.24 129.074 8.24L99.574 8.24C98.7787 8.24 98.134 8.88471 98.134 9.68C98.134 10.4753 98.7787 11.12 99.574 11.12Z" fill="#2C2D2F"/>
<path d="M132.434 9.68C132.434 10.4753 133.079 11.12 133.874 11.12C134.669 11.12 135.314 10.4753 135.314 9.68C135.314 8.88471 134.669 8.24 133.874 8.24C133.079 8.24 132.434 8.88471 132.434 9.68Z" fill="#2C2D2F"/>
<path d="M117.394 75.84H120.044C124.368 75.8453 128.513 77.5653 131.571 80.6229C134.629 83.6805 136.349 87.8259 136.354 92.15V110.27H129.624V92.15C129.621 89.61 128.611 87.1748 126.815 85.3788C125.019 83.5828 122.584 82.5726 120.044 82.57H117.394C114.854 82.5726 112.419 83.5828 110.623 85.3788C108.827 87.1748 107.817 89.61 107.814 92.15V110.27H101.044V92.15C101.047 90.0055 101.472 87.8825 102.295 85.9023C103.118 83.922 104.323 82.1233 105.841 80.6088C107.359 79.0943 109.161 77.8936 111.143 77.0754C113.125 76.2571 115.249 75.8374 117.394 75.84Z" fill="white"/>
<path d="M115.044 110.27H110.544C109.218 110.27 107.946 110.797 107.008 111.734C106.071 112.672 105.544 113.944 105.544 115.27V120.27" fill="white"/>
<path d="M190.264 248.13H36.124C35.9914 248.13 35.8642 248.077 35.7705 247.984C35.6767 247.89 35.624 247.763 35.624 247.63C35.624 247.497 35.6767 247.37 35.7705 247.276C35.8642 247.183 35.9914 247.13 36.124 247.13H190.264C190.397 247.13 190.524 247.183 190.618 247.276C190.711 247.37 190.764 247.497 190.764 247.63C190.764 247.763 190.711 247.89 190.618 247.984C190.524 248.077 190.397 248.13 190.264 248.13Z" fill="#2C2D2F"/>
<path d="M96.4073 121C96.4073 121 86.5431 116.78 93.5697 108.965C94.2518 108.527 95.013 108.229 95.8093 108.09C96.6055 107.951 97.4212 107.973 98.2091 108.155C98.9969 108.336 99.7414 108.674 100.4 109.148C101.058 109.623 101.617 110.224 102.044 110.919" fill="#2C2D2F"/>
<path d="M115.544 149C111.291 149 107.133 147.738 103.597 145.375C100.061 143.012 97.3054 139.653 95.6787 135.723C94.052 131.793 93.6273 127.469 94.4585 123.298C95.2896 119.127 97.3392 115.296 100.348 112.29C103.357 109.284 107.189 107.238 111.361 106.411C115.533 105.583 119.857 106.012 123.785 107.642C127.713 109.272 131.07 112.031 133.43 115.569C135.79 119.107 137.048 123.266 137.044 127.519C137.034 133.216 134.765 138.677 130.734 142.704C126.704 146.731 121.241 148.995 115.544 149ZM115.544 107.944C111.672 107.944 107.888 109.092 104.669 111.243C101.449 113.394 98.9404 116.451 97.4588 120.028C95.9772 123.605 95.5896 127.541 96.3449 131.338C97.1002 135.135 98.9646 138.623 101.702 141.361C104.44 144.099 107.928 145.963 111.725 146.718C115.522 147.474 119.458 147.086 123.035 145.604C126.612 144.123 129.669 141.614 131.82 138.395C133.971 135.175 135.119 131.391 135.119 127.519C135.114 122.329 133.05 117.353 129.38 113.683C125.71 110.013 120.734 107.949 115.544 107.944Z" fill="#2C2D2F"/>
<path d="M99.6195 115.263C99.6195 115.263 88.5969 107.865 95.094 97.8499C101.591 87.8343 117.721 100.525 117.721 100.525C117.721 100.525 118.209 93.2215 128.068 95.6685C128.068 95.6685 136.499 98.3052 134.34 109.042C134.34 109.042 143.24 102.402 144.93 111.564C144.93 111.564 146.808 122.946 135.297 132.999C135.297 132.999 134.584 129.888 133.42 130.533C132.255 131.178 131.241 132.885 129.551 132.999C127.861 133.113 128.35 117.824 128.35 117.824L99.6195 115.263Z" fill="#2C2D2F"/>
<path d="M121.531 107C121.42 107 121.312 106.965 121.223 106.902C121.134 106.838 121.069 106.748 121.038 106.646C120.432 104.425 119.137 102.431 117.323 100.928C117.257 100.896 117.2 100.85 117.154 100.795C117.108 100.739 117.075 100.675 117.058 100.606C117.041 100.537 117.039 100.465 117.054 100.395C117.068 100.326 117.098 100.26 117.142 100.203C117.185 100.145 117.241 100.098 117.306 100.063C117.37 100.028 117.442 100.007 117.516 100.001C117.589 99.9958 117.664 100.005 117.733 100.03C117.803 100.054 117.866 100.092 117.918 100.142C119.935 101.756 121.371 103.934 122.023 106.371C122.062 106.496 122.046 106.631 121.981 106.745C121.915 106.859 121.805 106.944 121.675 106.98L121.531 107Z" fill="white"/>
<path d="M131.22 111.999H131.003C130.89 111.94 130.804 111.838 130.763 111.717C130.723 111.595 130.731 111.462 130.786 111.346C133.961 104.781 130.353 101.004 130.195 100.846C130.147 100.8 130.109 100.744 130.083 100.683C130.057 100.622 130.044 100.556 130.044 100.49C130.044 100.423 130.057 100.358 130.083 100.296C130.109 100.235 130.147 100.18 130.195 100.134C130.289 100.048 130.412 99.9999 130.54 99.9999C130.668 99.9999 130.791 100.048 130.885 100.134C130.885 100.134 135.164 104.563 131.674 111.762C131.627 111.839 131.56 111.902 131.48 111.944C131.4 111.986 131.31 112.005 131.22 111.999Z" fill="white"/>
<path d="M101.609 113C95.2176 112.725 95.0439 102.609 95.0439 102.511C95.0436 102.382 95.0864 102.257 95.1637 102.163C95.241 102.068 95.3472 102.01 95.4608 102C95.576 102 95.6864 102.052 95.7678 102.144C95.8493 102.236 95.895 102.361 95.895 102.491C95.895 102.491 96.0513 111.782 101.627 112.018C101.684 112.02 101.74 112.035 101.792 112.063C101.843 112.09 101.89 112.128 101.929 112.175C101.968 112.223 101.998 112.278 102.017 112.339C102.037 112.4 102.046 112.464 102.044 112.528C102.035 112.654 101.986 112.771 101.906 112.858C101.826 112.945 101.72 112.995 101.609 113Z" fill="white"/>
<path d="M137.515 128.985C137.448 129.005 137.377 129.005 137.31 128.985C137.253 128.961 137.201 128.925 137.159 128.878C137.117 128.832 137.085 128.777 137.066 128.717C137.046 128.657 137.04 128.593 137.046 128.531C137.053 128.468 137.073 128.407 137.104 128.353C141.623 119.23 141.436 115.435 140.839 113.998C140.729 113.577 140.469 113.214 140.11 112.982C140.049 112.957 139.993 112.92 139.947 112.871C139.901 112.823 139.865 112.766 139.842 112.702C139.82 112.639 139.81 112.571 139.814 112.504C139.819 112.436 139.837 112.371 139.868 112.311C139.914 112.195 140.001 112.1 140.111 112.047C140.222 111.994 140.349 111.985 140.465 112.023C140.756 112.173 141.014 112.381 141.226 112.634C141.438 112.887 141.598 113.182 141.697 113.499C142.426 115.416 142.37 119.632 137.851 128.717C137.821 128.787 137.775 128.848 137.716 128.895C137.657 128.941 137.588 128.972 137.515 128.985Z" fill="white"/>
<path d="M133.965 137C133.785 136.998 133.608 136.952 133.453 136.866C133.298 136.779 133.17 136.656 133.082 136.508C132.952 136.29 132.919 136.032 132.99 135.79C133.062 135.549 133.232 135.345 133.463 135.221C134.406 134.729 136.875 133.027 137.056 131.153C137.047 130.52 136.87 129.899 136.54 129.347C136.21 128.794 135.739 128.329 135.169 127.994C135.008 127.861 134.928 127.88 134.888 127.899C134.025 128.126 132.721 130.472 131.998 132.516C131.959 132.633 131.896 132.742 131.812 132.836C131.729 132.93 131.626 133.007 131.51 133.064C131.394 133.12 131.268 133.154 131.138 133.164C131.008 133.174 130.878 133.159 130.754 133.121C130.627 133.084 130.509 133.024 130.407 132.945C130.304 132.865 130.22 132.766 130.159 132.655C130.097 132.545 130.059 132.423 130.048 132.299C130.036 132.174 130.051 132.048 130.091 131.929C130.392 131.059 131.998 126.726 134.326 126.083C134.693 125.984 135.08 125.973 135.452 126.053C135.823 126.132 136.168 126.298 136.454 126.537C137.271 127.071 137.935 127.788 138.387 128.623C138.839 129.458 139.064 130.386 139.043 131.324C138.742 134.578 134.627 136.773 134.447 136.867C134.303 136.955 134.136 137.001 133.965 137Z" fill="#2C2D2F"/>
<path fill-rule="evenodd" clip-rule="evenodd" d="M77.8929 161.266H158.044V80.9935H77.8929V161.266ZM156.989 160.271H78.9476V81.9885H156.989V160.271Z" fill="#2C2D2F"/>
<path d="M155.044 96H154.049V84.9948H143.044V84H155.044V96Z" fill="#2C2D2F"/>
<path d="M82.0955 96H81.0439V84H93.0439V84.9948H82.0955V96Z" fill="#2C2D2F"/>
<path d="M93.0439 159H81.0439V147H82.0955V157.948H93.0439V159Z" fill="#2C2D2F"/>
<path d="M155.044 159H143.044V157.948H154.049V147H155.044V159Z" fill="#2C2D2F"/>
</svg>
