<svg width="325" height="66" viewBox="0 0 325 66" fill="none" xmlns="http://www.w3.org/2000/svg">
<path fill-rule="evenodd" clip-rule="evenodd" d="M48.0065 24.6616C48.0065 25.2196 47.5581 25.6721 47.0033 25.6721C46.4493 25.6721 46.0009 25.2196 46.0009 24.6616V19.9266C46.0009 17.2098 48.1941 15 50.8915 15H55.6853C56.2402 15 56.6895 15.4525 56.6895 16.0104C56.6895 16.5684 56.2402 17.0209 55.6853 17.0209H50.8915C49.3011 17.0209 48.0065 18.3239 48.0065 19.9266V24.6616ZM77.1085 15H72.4072C71.8532 15 71.4039 15.4525 71.4039 16.0104C71.4039 16.5684 71.8532 17.0209 72.4072 17.0209H77.1085C78.6997 17.0209 79.9944 18.3239 79.9944 19.9266V24.7557C79.9944 25.3136 80.4428 25.7652 80.9968 25.7652C81.5516 25.7652 82 25.3136 82 24.7557V19.9266C82 17.2098 79.8059 15 77.1085 15ZM54.9688 30.9682V28.124C54.9688 27.3956 55.5542 26.806 56.2774 26.806C57.0006 26.806 57.586 27.3956 57.586 28.124V30.9682C57.586 31.6966 57.0006 32.2862 56.2774 32.2862C55.5542 32.2862 54.9688 31.6966 54.9688 30.9682ZM73.0314 30.9684C73.0314 31.6968 72.4461 32.2864 71.7228 32.2864C70.9996 32.2864 70.4143 31.6968 70.4143 30.9684V28.1242C70.4143 27.3958 70.9996 26.8062 71.7228 26.8062C72.4461 26.8062 73.0314 27.3958 73.0314 28.1242V30.9684ZM62.0356 37.6742H62.6707C64.2978 37.6742 65.6203 36.3413 65.6203 34.7026V27.8904C65.6203 27.3325 65.1719 26.88 64.6179 26.88C64.0631 26.88 63.6147 27.3325 63.6147 27.8904V34.7026C63.6147 35.2263 63.1907 35.6533 62.6707 35.6533H62.0356C61.4808 35.6533 61.0324 36.1058 61.0324 36.6637C61.0324 37.2217 61.4808 37.6742 62.0356 37.6742ZM64.0134 42.1617C66.0723 42.1617 68.0177 41.3929 69.0899 40.1566C69.4554 39.7366 70.0897 39.6935 70.5058 40.0599C70.9237 40.4272 70.9656 41.066 70.6009 41.486C69.1379 43.1748 66.6743 44.1826 64.0134 44.1826C61.3291 44.1826 58.8558 43.1607 57.3946 41.4508C57.0325 41.0273 57.0796 40.3894 57.5001 40.0257C57.9189 39.6619 58.5531 39.7094 58.9152 40.1329C59.9839 41.3841 61.938 42.1617 64.0134 42.1617ZM80.9968 40.2346C80.4428 40.2346 79.9944 40.6871 79.9944 41.2451V46.0732C79.9944 47.6759 78.6997 48.9789 77.1085 48.9789H72.4072C71.8532 48.9789 71.4039 49.4314 71.4039 49.9894C71.4039 50.5473 71.8532 50.9998 72.4072 50.9998H77.1085C79.8059 50.9998 82 48.79 82 46.0732V41.2451C82 40.6871 81.5516 40.2346 80.9968 40.2346ZM50.8915 48.9791H55.6853C56.2402 48.9791 56.6886 49.4316 56.6886 49.9895C56.6886 50.5475 56.2402 51 55.6853 51H50.8915C48.1941 51 46 48.7902 46 46.0734V41.3383C46 40.7804 46.4493 40.3279 47.0033 40.3279C47.5581 40.3279 48.0065 40.7804 48.0065 41.3383V46.0734C48.0065 47.676 49.3011 48.9791 50.8915 48.9791Z" fill="white"/>
<path d="M112.824 36.9468C112.603 36.9468 112.404 36.792 112.36 36.5652C111.95 34.5355 111.89 32.4781 112.183 30.4429C112.465 28.4795 113.068 26.5881 113.975 24.8128C114.096 24.5805 114.378 24.4865 114.611 24.6082C114.843 24.7298 114.937 25.0119 114.815 25.2442C113.952 26.9255 113.383 28.7174 113.117 30.5756C112.841 32.5002 112.896 34.4525 113.283 36.3716C113.333 36.626 113.167 36.8749 112.913 36.9302C112.885 36.9468 112.857 36.9468 112.824 36.9468ZM116.231 22.9545C118.747 19.5035 122.442 17.1419 126.628 16.2957C130.345 15.5436 134.106 16.0303 137.502 17.695C137.734 17.8111 138.021 17.7116 138.138 17.4793C138.254 17.247 138.154 16.9594 137.922 16.8433C134.338 15.0845 130.367 14.5702 126.446 15.3611C122.021 16.2515 118.122 18.7513 115.468 22.3904C115.313 22.6006 115.363 22.8992 115.573 23.0541C115.656 23.1149 115.755 23.1426 115.849 23.1426C115.999 23.1481 116.143 23.0817 116.231 22.9545ZM147.274 30.0115C147.528 29.9617 147.694 29.7129 147.645 29.4529C146.726 24.9068 144.138 20.9414 140.344 18.2812C140.129 18.1319 139.835 18.1817 139.686 18.3973C139.537 18.613 139.587 18.9062 139.802 19.0555C143.397 21.5774 145.853 25.3382 146.721 29.641C146.765 29.8677 146.964 30.0226 147.186 30.0226C147.213 30.0226 147.241 30.017 147.274 30.0115ZM148.01 33.3741C148.037 32.0633 147.916 30.7471 147.656 29.4529C147.606 29.1985 147.357 29.0326 147.097 29.0824C146.843 29.1321 146.677 29.381 146.726 29.641C146.975 30.8632 147.086 32.1131 147.064 33.3575C147.058 33.6174 147.268 33.8331 147.528 33.8386C147.534 33.8386 147.534 33.8386 147.539 33.8386C147.794 33.8386 148.004 33.6285 148.01 33.3741ZM113.117 37.6824C113.372 37.6215 113.527 37.3616 113.466 37.1072C113.405 36.8583 113.35 36.615 113.3 36.3772C113.25 36.1228 113.001 35.9568 112.741 36.0066C112.487 36.0564 112.321 36.3053 112.371 36.5652C112.42 36.8141 112.481 37.074 112.542 37.334C112.597 37.5496 112.791 37.6934 113.001 37.6934C113.04 37.6934 113.079 37.6879 113.117 37.6824ZM125.832 50.2533C127.845 47.9637 129.333 45.2095 130.146 42.2783C130.998 39.2088 131.103 36.0564 130.472 32.915C130.422 32.6606 130.174 32.4947 129.914 32.5445C129.659 32.5943 129.493 32.8431 129.543 33.1031C130.146 36.1006 130.046 39.1037 129.233 42.0294C128.459 44.8223 127.038 47.4493 125.124 49.6284C124.953 49.8275 124.969 50.1261 125.168 50.2976C125.257 50.375 125.367 50.4137 125.478 50.4137C125.611 50.4137 125.744 50.3639 125.832 50.2533ZM123.553 49.4956C125.257 47.748 126.568 45.7127 127.458 43.4397C127.552 43.1963 127.43 42.9198 127.187 42.8258C126.944 42.7318 126.667 42.8534 126.573 43.0968C125.732 45.2482 124.488 47.1783 122.873 48.8375C122.691 49.0255 122.696 49.3242 122.884 49.5067C122.978 49.5952 123.094 49.6394 123.216 49.6394C123.338 49.6394 123.459 49.5952 123.553 49.4956ZM128.304 50.7068C132.253 45.6519 133.846 39.1867 132.695 32.8984L132.707 32.8929L132.624 32.4781C132.48 31.7757 132.076 31.1729 131.479 30.7802C130.881 30.382 130.168 30.2438 129.471 30.3876C128.028 30.6807 127.087 32.091 127.375 33.54L127.469 33.9935H127.48C127.856 36.1615 127.818 38.3405 127.358 40.4753C127.303 40.7297 127.469 40.9841 127.723 41.0394C127.978 41.0947 128.232 40.9288 128.288 40.6744C128.807 38.2576 128.819 35.7909 128.326 33.3464L128.282 33.1141C128.227 32.268 128.807 31.4826 129.665 31.3112C130.118 31.2172 130.577 31.3112 130.964 31.5656C131.302 31.7923 131.551 32.1242 131.661 32.5058L131.694 32.6662C132.933 38.8106 131.429 45.1707 127.563 50.1206C127.403 50.3252 127.441 50.6239 127.646 50.7843C127.735 50.8506 127.834 50.8838 127.939 50.8838C128.072 50.8893 128.21 50.8285 128.304 50.7068ZM121.468 48.4725C125.213 44.9716 127.038 39.8614 126.352 34.7954C126.319 34.5355 126.081 34.353 125.821 34.3917C125.561 34.4249 125.379 34.6627 125.417 34.9226C126.064 39.6789 124.344 44.485 120.827 47.7812C120.633 47.9581 120.628 48.2568 120.805 48.4504C120.899 48.5499 121.026 48.5997 121.153 48.5997C121.258 48.5997 121.374 48.561 121.468 48.4725ZM134.786 37.3395C135.046 37.3395 135.256 37.1238 135.256 36.8639C135.251 35.3872 135.112 33.8995 134.841 32.4284L134.847 32.4228L134.769 32.0412C134.515 30.7692 133.774 29.6686 132.695 28.9496C131.611 28.2307 130.317 27.9763 129.04 28.2307C127.126 28.6178 125.638 30.1 125.24 32.008C125.185 32.2624 125.351 32.5168 125.605 32.5666C125.86 32.6219 126.114 32.456 126.164 32.2016C126.485 30.6641 127.685 29.4695 129.228 29.1598C130.251 28.9552 131.296 29.1598 132.17 29.735C132.989 30.277 133.564 31.0955 133.802 32.0412L133.84 32.2237C134.15 33.7557 134.305 35.3098 134.31 36.8528C134.31 37.1293 134.521 37.3395 134.786 37.3395C134.786 37.3395 134.78 37.3395 134.786 37.3395ZM130.953 50.7953C133.215 47.488 134.648 43.6554 135.101 39.701C135.129 39.4411 134.946 39.2088 134.686 39.1756C134.427 39.148 134.194 39.3305 134.161 39.5904C133.73 43.3899 132.347 47.0843 130.174 50.2589C130.024 50.4745 130.08 50.7677 130.295 50.917C130.378 50.9723 130.472 50.9999 130.561 50.9999C130.716 50.9999 130.859 50.9281 130.953 50.7953ZM119.583 47.2226C121.374 45.6685 122.74 43.6609 123.531 41.4266C124.344 39.1203 124.516 36.626 124.029 34.2147L123.952 33.8331C123.747 32.362 124.084 30.8798 124.914 29.6299C125.815 28.2694 127.193 27.3458 128.791 27.025C129.349 26.9144 129.914 26.8757 130.478 26.9199C130.738 26.942 130.964 26.7429 130.987 26.483C131.009 26.2231 130.81 25.9963 130.55 25.9742C129.903 25.9244 129.244 25.9631 128.603 26.0959C126.756 26.4664 125.163 27.5393 124.123 29.1045C123.078 30.6752 122.713 32.5556 123.083 34.4028L123.172 34.8507H123.177C123.52 36.9523 123.338 39.1037 122.63 41.1058C121.894 43.1908 120.628 45.0546 118.958 46.5036C118.758 46.6751 118.736 46.9737 118.908 47.1728C119.002 47.2834 119.135 47.3387 119.267 47.3387C119.383 47.3387 119.494 47.3 119.583 47.2226ZM133.763 50.4469C137.026 44.8832 138.165 38.3516 136.987 32.0191H136.993L136.91 31.6154C136.5 29.5912 135.234 27.8546 133.425 26.848C133.199 26.7208 132.911 26.8038 132.784 27.0305C132.657 27.2573 132.74 27.5449 132.966 27.6721C134.471 28.5072 135.544 29.9341 135.936 31.5988L135.975 31.8034C137.231 38.0363 136.152 44.485 132.939 49.9713C132.806 50.198 132.883 50.4856 133.11 50.6183C133.188 50.6626 133.265 50.6847 133.348 50.6847C133.52 50.6847 133.674 50.6018 133.763 50.4469ZM117.907 45.768C119.433 44.5181 120.622 42.8811 121.336 41.0394C121.43 40.7961 121.308 40.5196 121.065 40.4255C120.821 40.3315 120.545 40.4532 120.451 40.6965C119.793 42.3889 118.709 43.8877 117.304 45.0325C117.099 45.1984 117.072 45.497 117.238 45.6961C117.332 45.8123 117.464 45.8676 117.603 45.8676C117.713 45.8731 117.818 45.8399 117.907 45.768ZM139.255 41.6091C139.813 38.2299 139.758 34.7954 139.105 31.4052L139.061 31.184C138.574 28.7616 137.17 26.6766 135.118 25.3105C133.06 23.9445 130.599 23.4633 128.177 23.95C125.755 24.4367 123.67 25.8415 122.304 27.8933C120.938 29.9507 120.456 32.4173 120.943 34.8341L121.037 35.2987C121.181 36.2057 121.203 37.1183 121.103 38.0253C121.076 38.2852 121.264 38.5175 121.524 38.5451C121.784 38.5728 122.016 38.3848 122.044 38.1248C122.165 36.9689 122.116 35.7965 121.883 34.6461L121.8 34.2258C121.496 32.1905 121.95 30.1442 123.094 28.4187C124.322 26.5715 126.192 25.3161 128.365 24.8792C130.539 24.4422 132.751 24.8736 134.592 26.1014C136.401 27.3015 137.645 29.1266 138.104 31.2448L138.132 31.372C138.807 34.7235 138.868 38.1138 138.32 41.4542C138.276 41.7142 138.453 41.9575 138.713 41.9962C138.74 42.0017 138.762 42.0017 138.79 42.0017C139.017 42.0017 139.216 41.8414 139.255 41.6091ZM136.716 49.5786C137.529 47.9139 138.182 46.1662 138.657 44.3854C138.724 44.131 138.574 43.8711 138.32 43.8047C138.066 43.7383 137.806 43.8877 137.739 44.1421C137.28 45.8676 136.644 47.5544 135.859 49.1693C135.743 49.4016 135.842 49.6892 136.075 49.7998C136.141 49.833 136.213 49.8496 136.279 49.8496C136.467 49.8441 136.633 49.7445 136.716 49.5786ZM139.78 48.0135C141.882 42.5161 142.379 36.5431 141.207 30.7526L141.168 30.559C140.825 29.0049 140.184 27.567 139.249 26.2839C139.094 26.0737 138.801 26.024 138.585 26.1788C138.375 26.3337 138.326 26.6268 138.48 26.8425C139.371 28.0647 139.974 29.4474 140.278 30.9406L140.3 31.0623C141.401 36.6426 140.914 42.3889 138.89 47.6816C138.796 47.925 138.917 48.2015 139.161 48.29C139.216 48.3121 139.271 48.3232 139.332 48.3232C139.526 48.3176 139.708 48.2015 139.78 48.0135ZM137.319 24.8349C137.485 24.6303 137.457 24.3372 137.253 24.1712C134.587 21.9867 131.119 21.1239 127.746 21.8042C126.877 21.9811 126.031 22.2521 125.235 22.6172C124.997 22.7278 124.892 23.0043 125.002 23.2421C125.113 23.4799 125.39 23.585 125.627 23.4744C126.357 23.137 127.137 22.8882 127.934 22.7278C131.031 22.1028 134.211 22.8937 136.655 24.8957C136.744 24.9676 136.849 25.0008 136.954 25.0008C137.087 25.0119 137.225 24.951 137.319 24.8349ZM116.452 44.1255C119.162 41.9464 120.418 38.4843 119.732 35.083L119.649 34.6682C119.057 30.9683 120.467 27.2462 123.399 24.8681C123.603 24.7022 123.631 24.4035 123.465 24.2044C123.299 23.9998 123 23.9721 122.801 24.1381C119.489 26.8314 117.951 31.0955 118.797 35.2766L118.869 35.6471C119.323 38.5783 118.189 41.5206 115.855 43.3954C115.65 43.5614 115.617 43.8545 115.783 44.0591C115.877 44.1752 116.015 44.2361 116.154 44.2361C116.259 44.2306 116.364 44.1974 116.452 44.1255ZM115.224 42.3004C117.188 40.6357 118.095 38.0363 117.586 35.5144L117.503 35.1051C117.415 34.5797 117.359 34.0488 117.337 33.5123C117.326 33.2524 117.105 33.0478 116.845 33.0588C116.585 33.0699 116.38 33.2911 116.391 33.5511C116.419 34.2756 116.508 35.0001 116.651 35.7024L116.707 35.9845C117.027 38.075 116.242 40.1988 114.611 41.5814C114.411 41.7529 114.384 42.0515 114.555 42.2506C114.649 42.3612 114.782 42.4165 114.915 42.4165C115.031 42.411 115.136 42.3723 115.224 42.3004ZM143.259 32.5832C143.519 32.5445 143.696 32.3067 143.657 32.0467C143.569 31.466 143.469 30.8853 143.353 30.3212L143.281 29.9783H143.275C142.496 26.5549 140.466 23.6182 137.535 21.6659C134.504 19.6528 130.87 18.9393 127.303 19.6583C124.56 20.2114 122.093 21.5664 120.163 23.585C118.277 25.5539 117.038 28.0094 116.574 30.6807C116.53 30.9406 116.701 31.184 116.961 31.2282C117.221 31.2725 117.464 31.101 117.509 30.8411C117.94 28.3523 119.096 26.0682 120.849 24.2376C122.641 22.3627 124.942 21.1018 127.491 20.5874C130.81 19.9182 134.189 20.5819 137.009 22.4568C139.83 24.3316 141.749 27.1909 142.418 30.5093L142.468 30.736C142.562 31.2116 142.645 31.6983 142.717 32.185C142.75 32.4173 142.955 32.5887 143.187 32.5887C143.215 32.5887 143.237 32.5832 143.259 32.5832ZM142.899 45.4749C143.823 42.0073 144.177 38.429 143.956 34.8397C143.939 34.5797 143.712 34.3806 143.452 34.3972C143.192 34.4138 142.993 34.6406 143.01 34.9005C143.231 38.3848 142.883 41.8579 141.987 45.2316C141.92 45.486 142.07 45.7459 142.324 45.8123C142.363 45.8234 142.407 45.8289 142.446 45.8289C142.65 45.8289 142.844 45.6906 142.899 45.4749ZM114.234 40.2209C115.296 39.0761 115.75 37.4777 115.44 35.9458L115.385 35.6803C114.688 31.8753 115.479 28.015 117.625 24.7851C119.82 21.4779 123.172 19.2269 127.065 18.4416C128.702 18.1098 130.356 18.0544 131.993 18.2757C132.253 18.3089 132.491 18.1319 132.524 17.8719C132.557 17.612 132.38 17.3742 132.12 17.341C130.378 17.1032 128.614 17.164 126.877 17.5125C122.74 18.3476 119.173 20.7423 116.834 24.2597C114.494 27.7772 113.67 31.9914 114.505 36.1338L114.539 36.2942C114.727 37.4777 114.356 38.6945 113.538 39.5738C113.361 39.7674 113.372 40.066 113.565 40.243C113.654 40.326 113.77 40.3702 113.886 40.3702C114.013 40.3758 114.14 40.3205 114.234 40.2209ZM145.941 41.3049C146.411 37.5054 146.267 33.6672 145.504 29.8843L145.41 29.4419H145.405C144.155 24.033 140.134 19.6528 134.819 17.9494C134.57 17.8719 134.305 18.0047 134.222 18.2535C134.144 18.5024 134.277 18.7679 134.526 18.8508C139.658 20.499 143.508 24.7962 144.57 30.0723L144.636 30.3765C145.327 33.9603 145.449 37.5939 145.001 41.1887C144.968 41.4487 145.15 41.6865 145.41 41.7142C145.432 41.7142 145.449 41.7197 145.471 41.7197C145.709 41.7197 145.908 41.5482 145.941 41.3049Z" fill="white"/>
<path d="M180.717 22.434C182.218 22.434 183.434 21.2175 183.434 19.717C183.434 18.2164 182.218 17 180.717 17C179.216 17 178 18.2164 178 19.717C178 21.2175 179.216 22.434 180.717 22.434Z" fill="white"/>
<path d="M211.283 22.434C212.784 22.434 214 21.2175 214 19.717C214 18.2164 212.784 17 211.283 17C209.782 17 208.566 18.2164 208.566 19.717C208.566 21.2175 209.782 22.434 211.283 22.434Z" fill="white"/>
<path d="M201.094 25.8302H198.377V31.9434H193.623V34.6604H201.094V25.8302Z" fill="white"/>
<path d="M196.34 48.9245C191.463 48.9245 187.509 44.9711 187.509 40.0943H190.226C190.226 43.4706 192.963 46.2075 196.34 46.2075C198.057 46.2075 199.61 45.4991 200.72 44.3584L202.641 46.2797C201.039 47.912 198.808 48.9245 196.34 48.9245Z" fill="white"/>
<path d="M272.664 19.446C272.52 19.446 272.376 19.41 272.25 19.338C268.794 17.556 265.806 16.8 262.224 16.8C258.66 16.8 255.276 17.646 252.198 19.338C251.766 19.572 251.226 19.41 250.974 18.978C250.74 18.546 250.902 17.988 251.334 17.754C254.682 15.936 258.354 15 262.224 15C266.058 15 269.406 15.846 273.078 17.736C273.528 17.97 273.69 18.51 273.456 18.942C273.294 19.266 272.988 19.446 272.664 19.446V19.446ZM246.906 28.896C246.726 28.896 246.546 28.842 246.384 28.734C245.97 28.446 245.88 27.888 246.168 27.474C247.95 24.954 250.218 22.974 252.918 21.588C258.57 18.672 265.806 18.654 271.476 21.57C274.176 22.956 276.444 24.918 278.226 27.42C278.514 27.816 278.424 28.392 278.01 28.68C277.596 28.968 277.038 28.878 276.75 28.464C275.13 26.196 273.078 24.414 270.648 23.172C265.482 20.526 258.876 20.526 253.728 23.19C251.28 24.45 249.228 26.25 247.608 28.518C247.464 28.77 247.194 28.896 246.906 28.896V28.896ZM258.156 50.622C257.922 50.622 257.688 50.532 257.526 50.352C255.96 48.786 255.114 47.778 253.908 45.6C252.666 43.386 252.018 40.686 252.018 37.788C252.018 32.442 256.59 28.086 262.206 28.086C267.822 28.086 272.394 32.442 272.394 37.788C272.394 38.292 271.998 38.688 271.494 38.688C270.99 38.688 270.594 38.292 270.594 37.788C270.594 33.432 266.832 29.886 262.206 29.886C257.58 29.886 253.818 33.432 253.818 37.788C253.818 40.38 254.394 42.774 255.492 44.718C256.644 46.788 257.436 47.67 258.822 49.074C259.164 49.434 259.164 49.992 258.822 50.352C258.624 50.532 258.39 50.622 258.156 50.622ZM271.062 47.292C268.92 47.292 267.03 46.752 265.482 45.69C262.8 43.872 261.198 40.92 261.198 37.788C261.198 37.284 261.594 36.888 262.098 36.888C262.602 36.888 262.998 37.284 262.998 37.788C262.998 40.326 264.294 42.72 266.49 44.196C267.768 45.06 269.262 45.474 271.062 45.474C271.494 45.474 272.214 45.42 272.934 45.294C273.42 45.204 273.888 45.528 273.978 46.032C274.068 46.518 273.744 46.986 273.24 47.076C272.214 47.274 271.314 47.292 271.062 47.292V47.292ZM267.444 51C267.372 51 267.282 50.982 267.21 50.964C264.348 50.172 262.476 49.11 260.514 47.184C257.994 44.682 256.608 41.352 256.608 37.788C256.608 34.872 259.092 32.496 262.152 32.496C265.212 32.496 267.696 34.872 267.696 37.788C267.696 39.714 269.37 41.28 271.44 41.28C273.51 41.28 275.184 39.714 275.184 37.788C275.184 31.002 269.334 25.494 262.134 25.494C257.022 25.494 252.342 28.338 250.236 32.748C249.534 34.206 249.174 35.916 249.174 37.788C249.174 39.192 249.3 41.406 250.38 44.286C250.56 44.754 250.326 45.276 249.858 45.438C249.39 45.618 248.868 45.366 248.706 44.916C247.824 42.558 247.392 40.218 247.392 37.788C247.392 35.628 247.806 33.666 248.616 31.956C251.01 26.934 256.32 23.676 262.134 23.676C270.324 23.676 276.984 29.994 276.984 37.77C276.984 40.686 274.5 43.062 271.44 43.062C268.38 43.062 265.896 40.686 265.896 37.77C265.896 35.844 264.222 34.278 262.152 34.278C260.082 34.278 258.408 35.844 258.408 37.77C258.408 40.848 259.596 43.728 261.774 45.888C263.484 47.58 265.122 48.516 267.66 49.218C268.146 49.344 268.416 49.848 268.29 50.316C268.2 50.73 267.822 51 267.444 51V51Z" fill="white"/>
</svg>
