<svg width="36" height="36" viewBox="0 0 36 36" fill="none" xmlns="http://www.w3.org/2000/svg">
<path fill-rule="evenodd" clip-rule="evenodd" d="M2.00651 9.66165C2.00651 10.2196 1.5581 10.6721 1.00325 10.6721C0.449281 10.6721 0.000869751 10.2196 0.000869751 9.66165V4.9266C0.000869751 2.20981 2.19407 0 4.89152 0H9.68533C10.2402 0 10.6895 0.452505 10.6895 1.01045C10.6895 1.56839 10.2402 2.0209 9.68533 2.0209H4.89152C3.30114 2.0209 2.00651 3.32394 2.00651 4.9266V9.66165ZM31.1085 0H26.4072C25.8532 0 25.4039 0.452505 25.4039 1.01045C25.4039 1.56839 25.8532 2.0209 26.4072 2.0209H31.1085C32.6997 2.0209 33.9944 3.32394 33.9944 4.9266V9.75566C33.9944 10.3136 34.4428 10.7652 34.9968 10.7652C35.5516 10.7652 36 10.3136 36 9.75566V4.9266C36 2.20981 33.8059 0 31.1085 0ZM8.9688 15.9682V13.124C8.9688 12.3956 9.55418 11.806 10.2774 11.806C11.0006 11.806 11.586 12.3956 11.586 13.124V15.9682C11.586 16.6966 11.0006 17.2862 10.2774 17.2862C9.55418 17.2862 8.9688 16.6966 8.9688 15.9682ZM27.0314 15.9684C27.0314 16.6968 26.4461 17.2864 25.7228 17.2864C24.9996 17.2864 24.4143 16.6968 24.4143 15.9684V13.1242C24.4143 12.3958 24.9996 11.8062 25.7228 11.8062C26.4461 11.8062 27.0314 12.3958 27.0314 13.1242V15.9684ZM16.0356 22.6742H16.6707C18.2978 22.6742 19.6203 21.3413 19.6203 19.7026V12.8904C19.6203 12.3325 19.1719 11.88 18.6179 11.88C18.0631 11.88 17.6147 12.3325 17.6147 12.8904V19.7026C17.6147 20.2263 17.1907 20.6533 16.6707 20.6533H16.0356C15.4808 20.6533 15.0324 21.1058 15.0324 21.6637C15.0324 22.2217 15.4808 22.6742 16.0356 22.6742ZM18.0134 27.1617C20.0723 27.1617 22.0177 26.3929 23.0899 25.1566C23.4554 24.7366 24.0897 24.6935 24.5058 25.0599C24.9237 25.4272 24.9656 26.066 24.6009 26.486C23.1379 28.1748 20.6743 29.1826 18.0134 29.1826C15.3291 29.1826 12.8558 28.1607 11.3946 26.4508C11.0325 26.0273 11.0796 25.3894 11.5001 25.0257C11.9189 24.6619 12.5531 24.7094 12.9152 25.1329C13.9839 26.3841 15.938 27.1617 18.0134 27.1617ZM34.9968 25.2346C34.4428 25.2346 33.9944 25.6871 33.9944 26.2451V31.0732C33.9944 32.6759 32.6997 33.9789 31.1085 33.9789H26.4072C25.8532 33.9789 25.4039 34.4314 25.4039 34.9894C25.4039 35.5473 25.8532 35.9998 26.4072 35.9998H31.1085C33.8059 35.9998 36 33.79 36 31.0732V26.2451C36 25.6871 35.5516 25.2346 34.9968 25.2346ZM4.89152 33.9791H9.68533C10.2402 33.9791 10.6886 34.4316 10.6886 34.9895C10.6886 35.5475 10.2402 36 9.68533 36H4.89152C2.19407 36 0 33.7902 0 31.0734V26.3383C0 25.7804 0.449284 25.3279 1.00325 25.3279C1.5581 25.3279 2.00651 25.7804 2.00651 26.3383V31.0734C2.00651 32.676 3.30114 33.9791 4.89152 33.9791Z" fill="white"/>
</svg>
