<svg width="36" height="32" viewBox="0 0 36 32" fill="none" xmlns="http://www.w3.org/2000/svg">
<path d="M2.71698 5.43396C4.21753 5.43396 5.43396 4.21753 5.43396 2.71698C5.43396 1.21643 4.21753 0 2.71698 0C1.21643 0 0 1.21643 0 2.71698C0 4.21753 1.21643 5.43396 2.71698 5.43396Z" fill="white"/>
<path d="M33.283 5.43396C34.7836 5.43396 36 4.21753 36 2.71698C36 1.21643 34.7836 0 33.283 0C31.7825 0 30.566 1.21643 30.566 2.71698C30.566 4.21753 31.7825 5.43396 33.283 5.43396Z" fill="white"/>
<path d="M23.0943 8.83019H20.3774V14.9434H15.6226V17.6604H23.0943V8.83019Z" fill="white"/>
<path d="M18.3396 31.9245C13.4629 31.9245 9.50943 27.9711 9.50943 23.0943H12.2264C12.2264 26.4706 14.9634 29.2075 18.3396 29.2075C20.0573 29.2075 21.6096 28.4991 22.7201 27.3584L24.6414 29.2797C23.0391 30.912 20.8076 31.9245 18.3396 31.9245Z" fill="white"/>
</svg>
