<svg width="37" height="36" viewBox="0 0 37 36" fill="none" xmlns="http://www.w3.org/2000/svg">
<path d="M0.824236 21.9469C0.603014 21.9469 0.403915 21.792 0.35967 21.5653C-0.0495906 19.5355 -0.110426 17.4782 0.182694 15.4429C0.464752 13.4796 1.06758 11.5881 1.97459 9.81283C2.09626 9.58055 2.37832 9.48653 2.61061 9.6082C2.84289 9.72988 2.93691 10.0119 2.81523 10.2442C1.95247 11.9255 1.38282 13.7174 1.11736 15.5757C0.840829 17.5003 0.896134 19.4526 1.28327 21.3717C1.33305 21.6261 1.16713 21.875 0.912725 21.9303C0.885073 21.9469 0.857419 21.9469 0.824236 21.9469ZM4.23106 7.95457C6.74746 4.5035 10.4419 2.14196 14.6285 1.29578C18.345 0.543628 22.1058 1.03032 25.5016 2.69501C25.7338 2.81116 26.0214 2.7116 26.1376 2.47932C26.2537 2.24704 26.1542 1.95945 25.9219 1.84331C22.3381 0.0845916 18.3671 -0.429749 14.446 0.36112C10.0215 1.25154 6.12251 3.75135 3.46784 7.39045C3.31299 7.60061 3.36276 7.89926 3.57292 8.05412C3.65588 8.11495 3.75543 8.14261 3.84945 8.14261C3.99877 8.14814 4.14257 8.08177 4.23106 7.95457ZM35.274 15.0116C35.5285 14.9618 35.6944 14.7129 35.6446 14.453C34.7265 9.90685 32.1382 5.94145 28.3443 3.28125C28.1286 3.13193 27.8355 3.1817 27.6861 3.39739C27.5368 3.61308 27.5866 3.9062 27.8023 4.05553C31.3971 6.57746 33.8527 10.3382 34.721 14.641C34.7652 14.8678 34.9643 15.0226 35.1856 15.0226C35.2132 15.0226 35.2409 15.0171 35.274 15.0116ZM36.0096 18.3741C36.0373 17.0634 35.9156 15.7471 35.6557 14.453C35.6059 14.1986 35.357 14.0326 35.0971 14.0824C34.8427 14.1322 34.6767 14.3811 34.7265 14.641C34.9754 15.8633 35.086 17.1132 35.0639 18.3575C35.0584 18.6175 35.2685 18.8332 35.5284 18.8387C35.534 18.8387 35.534 18.8387 35.5395 18.8387C35.7939 18.8387 36.0041 18.6285 36.0096 18.3741ZM1.11736 22.6824C1.37176 22.6216 1.52662 22.3617 1.46578 22.1073C1.40494 21.8584 1.34964 21.615 1.29986 21.3772C1.25009 21.1228 1.00121 20.9569 0.741278 21.0067C0.486873 21.0564 0.320957 21.3053 0.370732 21.5653C0.420507 21.8141 0.481343 22.0741 0.542179 22.334C0.597485 22.5497 0.791054 22.6935 1.00121 22.6935C1.03993 22.6935 1.07864 22.688 1.11736 22.6824ZM13.8321 35.2534C15.8452 32.9637 17.3329 30.2095 18.1459 27.2783C18.9976 24.2089 19.1027 21.0564 18.4722 17.9151C18.4225 17.6607 18.1736 17.4948 17.9136 17.5445C17.6592 17.5943 17.4933 17.8432 17.5431 18.1031C18.1459 21.1007 18.0464 24.1038 17.2334 27.0294C16.4591 29.8224 15.0378 32.4494 13.1242 34.6284C12.9527 34.8275 12.9693 35.1262 13.1684 35.2976C13.2569 35.375 13.3675 35.4138 13.4781 35.4138C13.6109 35.4138 13.7436 35.364 13.8321 35.2534ZM11.5535 34.4957C13.2569 32.748 14.5677 30.7128 15.4581 28.4397C15.5521 28.1964 15.4304 27.9199 15.1871 27.8258C14.9437 27.7318 14.6672 27.8535 14.5732 28.0968C13.7325 30.2482 12.4882 32.1784 10.8732 33.8376C10.6907 34.0256 10.6963 34.3242 10.8843 34.5068C10.9783 34.5952 11.0945 34.6395 11.2161 34.6395C11.3378 34.6395 11.4595 34.5952 11.5535 34.4957ZM16.3043 35.7069C20.2531 30.652 21.8459 24.1867 20.6955 17.8985L20.7066 17.893L20.6236 17.4782C20.4798 16.7758 20.0761 16.173 19.4788 15.7803C18.8815 15.3821 18.168 15.2438 17.4712 15.3876C16.0277 15.6807 15.0875 17.091 15.3751 18.54L15.4691 18.9936H15.4802C15.8563 21.1615 15.8176 23.3406 15.3585 25.4754C15.3032 25.7298 15.4691 25.9842 15.7235 26.0395C15.9779 26.0948 16.2324 25.9289 16.2877 25.6745C16.8075 23.2576 16.8186 20.791 16.3264 18.3465L16.2821 18.1142C16.2268 17.268 16.8075 16.4827 17.6648 16.3112C18.1183 16.2172 18.5773 16.3112 18.9644 16.5656C19.3018 16.7924 19.5507 17.1242 19.6613 17.5058L19.6945 17.6662C20.9333 23.8107 19.429 30.1708 15.5632 35.1206C15.4028 35.3253 15.4415 35.6239 15.6461 35.7843C15.7346 35.8507 15.8342 35.8839 15.9392 35.8839C16.072 35.8894 16.2102 35.8285 16.3043 35.7069ZM9.46849 33.4725C13.2127 29.9717 15.0378 24.8615 14.352 19.7955C14.3188 19.5355 14.081 19.353 13.821 19.3917C13.5611 19.4249 13.3786 19.6627 13.4173 19.9227C14.0644 24.679 12.3444 29.485 8.82694 32.7812C8.63338 32.9582 8.62784 33.2568 8.80482 33.4504C8.89884 33.55 9.02604 33.5997 9.15325 33.5997C9.25833 33.5997 9.37447 33.561 9.46849 33.4725ZM22.7861 22.3395C23.046 22.3395 23.2562 22.1238 23.2562 21.8639C23.2506 20.3872 23.1124 18.8995 22.8414 17.4284L22.8469 17.4229L22.7695 17.0413C22.5151 15.7692 21.774 14.6687 20.6955 13.9497C19.6115 13.2307 18.3174 12.9763 17.0398 13.2307C15.1262 13.6179 13.6385 15.1 13.2403 17.0081C13.185 17.2625 13.3509 17.5169 13.6053 17.5667C13.8597 17.622 14.1142 17.4561 14.1639 17.2017C14.4847 15.6642 15.6848 14.4696 17.2279 14.1598C18.251 13.9552 19.2963 14.1598 20.1701 14.735C20.9886 15.277 21.5638 16.0955 21.8016 17.0413L21.8403 17.2238C22.15 18.7557 22.3049 20.3098 22.3104 21.8528C22.3104 22.1294 22.5206 22.3395 22.7861 22.3395C22.7805 22.3395 22.7861 22.3395 22.7861 22.3395ZM18.9534 35.7954C21.2154 32.4881 22.6478 28.6554 23.1013 24.7011C23.129 24.4411 22.9464 24.2089 22.6865 24.1757C22.4266 24.148 22.1943 24.3305 22.1611 24.5905C21.7297 28.39 20.3471 32.0844 18.1736 35.2589C18.0243 35.4746 18.0796 35.7677 18.2952 35.917C18.3782 35.9723 18.4722 36 18.5607 36C18.7156 36 18.8594 35.9281 18.9534 35.7954ZM7.58257 32.2226C9.37447 30.6685 10.7405 28.661 11.5314 26.4266C12.3444 24.1204 12.5158 21.6261 12.0291 19.2148L11.9517 18.8332C11.7471 17.362 12.0844 15.8798 12.914 14.6299C13.8155 13.2694 15.1926 12.3458 16.7909 12.0251C17.3495 11.9144 17.9136 11.8757 18.4778 11.92C18.7377 11.9421 18.9644 11.743 18.9866 11.4831C19.0087 11.2231 18.8096 10.9964 18.5497 10.9742C17.9026 10.9245 17.2444 10.9632 16.6029 11.0959C14.7557 11.4665 13.1629 12.5394 12.1232 14.1045C11.0779 15.6752 10.7129 17.5556 11.0834 19.4028L11.1719 19.8508H11.1774C11.5203 21.9524 11.3378 24.1038 10.6299 26.1058C9.89434 28.1909 8.62785 30.0547 6.95762 31.5037C6.75852 31.6751 6.7364 31.9738 6.90784 32.1729C7.00186 32.2835 7.1346 32.3388 7.26733 32.3388C7.38347 32.3388 7.49408 32.3001 7.58257 32.2226ZM21.7629 35.4469C25.0259 29.8832 26.1652 23.3516 24.9872 17.0191H24.9927L24.9098 16.6154C24.5005 14.5912 23.234 12.8546 21.4255 11.8481C21.1988 11.7209 20.9112 11.8038 20.784 12.0306C20.6568 12.2573 20.7398 12.5449 20.9665 12.6721C22.4708 13.5072 23.5437 14.9341 23.9364 16.5988L23.9751 16.8035C25.2306 23.0364 24.1521 29.485 20.9389 34.9713C20.8061 35.1981 20.8835 35.4857 21.1103 35.6184C21.1877 35.6626 21.2652 35.6848 21.3481 35.6848C21.5196 35.6848 21.6744 35.6018 21.7629 35.4469ZM5.90681 30.7681C7.43325 29.5182 8.62232 27.8811 9.33576 26.0395C9.42978 25.7961 9.3081 25.5196 9.06476 25.4256C8.82141 25.3316 8.54489 25.4532 8.45087 25.6966C7.79273 27.3889 6.70874 28.8877 5.30398 30.0325C5.09935 30.1984 5.0717 30.4971 5.23762 30.6962C5.33164 30.8123 5.46437 30.8676 5.60263 30.8676C5.71324 30.8732 5.81833 30.84 5.90681 30.7681ZM27.2547 26.6091C27.8133 23.23 27.758 19.7955 27.1054 16.4053L27.0612 16.184C26.5745 13.7616 25.1697 11.6766 23.1179 10.3106C21.0605 8.94454 18.5994 8.46338 16.177 8.95007C13.7547 9.43676 11.6696 10.8415 10.3036 12.8934C8.93756 14.9507 8.4564 17.4173 8.94309 19.8342L9.0371 20.2988C9.1809 21.2058 9.20302 22.1183 9.10347 23.0253C9.07582 23.2853 9.26386 23.5175 9.52379 23.5452C9.78373 23.5728 10.016 23.3848 10.0437 23.1249C10.1653 21.969 10.1156 20.7965 9.88328 19.6462L9.80032 19.2258C9.49614 17.1906 9.94965 15.1443 11.0945 13.4188C12.3223 11.5715 14.1916 10.3161 16.3651 9.8792C18.5386 9.44229 20.7508 9.87367 22.5925 11.1015C24.401 12.3016 25.6454 14.1267 26.1044 16.2449L26.132 16.3721C26.8068 19.7236 26.8676 23.1138 26.3201 26.4543C26.2758 26.7142 26.4528 26.9575 26.7127 26.9963C26.7404 27.0018 26.7625 27.0018 26.7902 27.0018C27.0169 27.0018 27.216 26.8414 27.2547 26.6091ZM24.7162 34.5786C25.5292 32.914 26.1818 31.1663 26.6574 29.3855C26.7238 29.1311 26.5745 28.8711 26.3201 28.8047C26.0657 28.7384 25.8057 28.8877 25.7394 29.1421C25.2803 30.8676 24.6443 32.5545 23.859 34.1694C23.7428 34.4017 23.8424 34.6893 24.0747 34.7999C24.141 34.8331 24.2129 34.8496 24.2793 34.8496C24.4673 34.8441 24.6333 34.7446 24.7162 34.5786ZM27.7801 33.0135C29.8818 27.5161 30.3795 21.5431 29.207 15.7526L29.1683 15.5591C28.8254 14.005 28.1839 12.567 27.2492 11.284C27.0944 11.0738 26.8012 11.024 26.5855 11.1789C26.3754 11.3337 26.3256 11.6269 26.4805 11.8425C27.3709 13.0648 27.9737 14.4474 28.2779 15.9407L28.3 16.0624C29.4006 21.6427 28.9139 27.3889 26.8897 32.6817C26.7957 32.925 26.9174 33.2015 27.1607 33.29C27.216 33.3122 27.2713 33.3232 27.3322 33.3232C27.5257 33.3177 27.7082 33.2015 27.7801 33.0135ZM25.319 9.83496C25.485 9.63032 25.4573 9.3372 25.2527 9.17129C22.587 6.98672 19.1193 6.12396 15.7457 6.80421C14.8774 6.98119 14.0312 7.25219 13.2348 7.6172C12.997 7.72782 12.8919 8.00434 13.0025 8.24216C13.1131 8.47997 13.3896 8.58505 13.6275 8.47444C14.3575 8.13708 15.1373 7.8882 15.9337 7.72782C19.0308 7.10286 22.2109 7.89373 24.6554 9.89579C24.7439 9.96769 24.849 10.0009 24.954 10.0009C25.0868 10.0119 25.225 9.9511 25.319 9.83496ZM4.45228 29.1255C7.16225 26.9465 8.41768 23.4844 7.7319 20.0831L7.64894 19.6683C7.05717 15.9683 8.46746 12.2463 11.3987 9.86814C11.6033 9.70222 11.6309 9.40357 11.465 9.20447C11.2991 8.99984 11.0005 8.97219 10.8014 9.13811C7.48855 11.8315 5.95106 16.0955 6.79723 20.2766L6.86913 20.6472C7.32264 23.5784 6.18887 26.5206 3.85498 28.3955C3.65035 28.5614 3.61716 28.8545 3.78308 29.0592C3.8771 29.1753 4.01537 29.2361 4.15363 29.2361C4.25871 29.2306 4.36379 29.1974 4.45228 29.1255ZM3.2245 27.3004C5.18784 25.6357 6.09485 23.0364 5.58604 20.5145L5.50308 20.1052C5.41459 19.5798 5.35929 19.0489 5.33717 18.5124C5.32611 18.2525 5.10488 18.0478 4.84495 18.0589C4.58501 18.0699 4.38038 18.2912 4.39144 18.5511C4.41909 19.2756 4.50758 20.0001 4.65138 20.7025L4.70668 20.9846C5.02746 23.0751 4.24212 25.1988 2.61061 26.5815C2.41151 26.7529 2.38385 27.0516 2.5553 27.2507C2.64932 27.3613 2.78205 27.4166 2.91479 27.4166C3.03093 27.4111 3.13601 27.3723 3.2245 27.3004ZM31.2589 17.5833C31.5188 17.5445 31.6958 17.3067 31.6571 17.0468C31.5686 16.4661 31.469 15.8854 31.3529 15.3213L31.281 14.9784H31.2755C30.4956 11.555 28.4659 8.61823 25.5347 6.66595C22.504 4.65283 18.8704 3.93939 15.3032 4.65836C12.5601 5.21141 10.0934 6.5664 8.16328 8.58505C6.27736 10.5539 5.03852 13.0095 4.57395 15.6807C4.52971 15.9407 4.70115 16.184 4.96109 16.2283C5.22103 16.2725 5.46437 16.1011 5.50861 15.8411C5.94 13.3524 7.09588 11.0683 8.84907 9.23766C10.641 7.3628 12.9417 6.10183 15.4913 5.58749C18.8096 4.91829 22.1888 5.58196 25.0093 7.45682C27.8299 9.33167 29.749 12.191 30.4182 15.5093L30.468 15.7361C30.562 16.2117 30.645 16.6984 30.7169 17.1851C30.7501 17.4173 30.9547 17.5888 31.187 17.5888C31.2146 17.5888 31.2367 17.5833 31.2589 17.5833ZM30.8994 30.475C31.823 27.0073 32.1769 23.4291 31.9557 19.8397C31.9391 19.5798 31.7124 19.3807 31.4524 19.3973C31.1925 19.4139 30.9934 19.6406 31.01 19.9006C31.2312 23.3848 30.8828 26.858 29.9868 30.2316C29.9205 30.486 30.0698 30.746 30.3242 30.8123C30.3629 30.8234 30.4072 30.8289 30.4459 30.8289C30.6505 30.8289 30.8441 30.6907 30.8994 30.475ZM2.23453 25.221C3.29639 24.0761 3.7499 22.4778 3.44019 20.9458L3.38488 20.6804C2.68803 16.8753 3.4789 13.015 5.62476 9.78518C7.82038 6.47791 11.1719 4.22698 15.0654 3.44164C16.7024 3.10981 18.3561 3.0545 19.9931 3.27572C20.2531 3.3089 20.4909 3.13193 20.5241 2.87199C20.5572 2.61205 20.3803 2.37424 20.1203 2.34106C18.3782 2.10324 16.614 2.16408 14.8774 2.5125C10.7405 3.34762 7.17331 5.74235 4.83389 9.25978C2.49446 12.7772 1.67041 16.9915 2.50553 21.1339L2.53871 21.2943C2.72675 22.4778 2.3562 23.6945 1.53768 24.5739C1.3607 24.7674 1.37176 25.0661 1.56533 25.2431C1.65382 25.326 1.76996 25.3703 1.8861 25.3703C2.01331 25.3758 2.14051 25.3205 2.23453 25.221ZM33.9412 26.3049C34.4113 22.5054 34.2675 18.6672 33.5043 14.8843L33.4102 14.4419H33.4047C32.1548 9.03302 28.1341 4.65283 22.8192 2.94942C22.5704 2.87199 22.3049 3.00472 22.2219 3.2536C22.1445 3.50247 22.2772 3.76794 22.5261 3.8509C27.6585 5.499 31.5077 9.79624 32.5696 15.0724L32.636 15.3766C33.3273 18.9604 33.449 22.5939 33.001 26.1888C32.9678 26.4487 33.1503 26.6865 33.4102 26.7142C33.4324 26.7142 33.449 26.7197 33.4711 26.7197C33.7089 26.7197 33.908 26.5483 33.9412 26.3049Z" fill="white"/>
</svg>
